<svg width="375" height="886" viewBox="0 0 375 886" fill="none" xmlns="http://www.w3.org/2000/svg">
<g clip-path="url(#clip0_234_2924)">
<rect width="375" height="886" fill="url(#paint0_linear_234_2924)"/>
<rect x="121" y="873" width="134" height="5" rx="2.5" fill="white"/>
<g clip-path="url(#clip1_234_2924)">
<path opacity="0.35" d="M338.667 17.8334H355.333C356.53 17.8334 357.5 18.8037 357.5 20.0004V26.0004C357.5 27.1968 356.53 28.1664 355.333 28.1664H338.667C337.47 28.1664 336.5 27.1968 336.5 26.0004V20.0004L336.511 19.7787C336.622 18.686 337.545 17.8334 338.667 17.8334Z" fill="white" stroke="white"/>
<path opacity="0.4" d="M359 21V25C359.805 24.6612 360.328 23.8731 360.328 23C360.328 22.1269 359.805 21.3388 359 21Z" fill="white"/>
<path d="M338 20.6667C338 19.9303 338.597 19.3334 339.333 19.3334H354.667C355.403 19.3334 356 19.9303 356 20.6667V25.3334C356 26.0698 355.403 26.6667 354.667 26.6667H339.333C338.597 26.6667 338 26.0698 338 25.3334V20.6667Z" fill="white"/>
<path fill-rule="evenodd" clip-rule="evenodd" d="M323.33 19.608C325.546 19.6081 327.677 20.4596 329.283 21.9863C329.404 22.1042 329.597 22.1027 329.716 21.983L330.872 20.8163C330.933 20.7556 330.966 20.6734 330.966 20.5878C330.965 20.5022 330.931 20.4204 330.87 20.3603C326.655 16.3208 320.005 16.3208 315.79 20.3603C315.729 20.4203 315.694 20.5021 315.693 20.5877C315.693 20.6733 315.726 20.7556 315.787 20.8163L316.943 21.983C317.062 22.1029 317.255 22.1044 317.376 21.9863C318.982 20.4595 321.114 19.608 323.33 19.608ZM323.33 23.4037C324.547 23.4036 325.721 23.8561 326.624 24.6733C326.746 24.7893 326.938 24.7868 327.057 24.6677L328.212 23.501C328.273 23.4398 328.307 23.3568 328.306 23.2705C328.305 23.1843 328.269 23.102 328.207 23.042C325.459 20.4856 321.203 20.4856 318.455 23.042C318.393 23.102 318.357 23.1843 318.357 23.2706C318.356 23.3569 318.39 23.4399 318.451 23.501L319.605 24.6677C319.724 24.7868 319.916 24.7893 320.038 24.6733C320.94 23.8567 322.113 23.4042 323.33 23.4037ZM325.643 25.9575C325.645 26.044 325.611 26.1274 325.549 26.188L323.552 28.2037C323.493 28.2629 323.413 28.2963 323.33 28.2963C323.247 28.2963 323.167 28.2629 323.108 28.2037L321.111 26.188C321.049 26.1274 321.015 26.0439 321.017 25.9574C321.019 25.8709 321.056 25.789 321.12 25.731C322.396 24.6521 324.264 24.6521 325.54 25.731C325.604 25.7891 325.641 25.871 325.643 25.9575Z" fill="white"/>
<path fill-rule="evenodd" clip-rule="evenodd" d="M309.666 17.6666H308.666C308.114 17.6666 307.666 18.1143 307.666 18.6666V27.3333C307.666 27.8856 308.114 28.3333 308.666 28.3333H309.666C310.218 28.3333 310.666 27.8856 310.666 27.3333V18.6666C310.666 18.1143 310.218 17.6666 309.666 17.6666ZM303.999 20H304.999C305.552 20 305.999 20.4477 305.999 21V27.3333C305.999 27.8856 305.552 28.3333 304.999 28.3333H303.999C303.447 28.3333 302.999 27.8856 302.999 27.3333V21C302.999 20.4477 303.447 20 303.999 20ZM300.333 22.3333H299.333C298.78 22.3333 298.333 22.781 298.333 23.3333V27.3333C298.333 27.8856 298.78 28.3333 299.333 28.3333H300.333C300.885 28.3333 301.333 27.8856 301.333 27.3333V23.3333C301.333 22.781 300.885 22.3333 300.333 22.3333ZM295.666 24.3333H294.666C294.114 24.3333 293.666 24.781 293.666 25.3333V27.3333C293.666 27.8856 294.114 28.3333 294.666 28.3333H295.666C296.218 28.3333 296.666 27.8856 296.666 27.3333V25.3333C296.666 24.781 296.218 24.3333 295.666 24.3333Z" fill="white"/>
<path d="M37.3203 28.2563C40.0083 28.2563 41.605 26.1543 41.605 22.5947C41.605 21.2544 41.3486 20.1265 40.8579 19.2549C40.1475 17.8999 38.9243 17.1675 37.3789 17.1675C35.0791 17.1675 33.4531 18.7129 33.4531 20.8809C33.4531 22.917 34.918 24.3965 36.9321 24.3965C38.1699 24.3965 39.1733 23.8179 39.6714 22.8145H39.6934C39.6934 22.8145 39.7227 22.8145 39.73 22.8145C39.7446 22.8145 39.7959 22.8145 39.7959 22.8145C39.7959 25.2314 38.8804 26.6743 37.335 26.6743C36.4268 26.6743 35.7236 26.1763 35.4819 25.3779H33.5996C33.9146 27.1138 35.3867 28.2563 37.3203 28.2563ZM37.3862 22.895C36.1704 22.895 35.3062 22.0308 35.3062 20.8223C35.3062 19.6431 36.2144 18.7422 37.3936 18.7422C38.5728 18.7422 39.481 19.6577 39.481 20.8516C39.481 22.0308 38.5947 22.895 37.3862 22.895Z" fill="white"/>
<path d="M44.6961 28.1538C45.3919 28.1538 45.868 27.6558 45.868 26.9966C45.868 26.3301 45.3919 25.8394 44.6961 25.8394C44.0076 25.8394 43.5242 26.3301 43.5242 26.9966C43.5242 27.6558 44.0076 28.1538 44.6961 28.1538ZM44.6961 22.6606C45.3919 22.6606 45.868 22.1699 45.868 21.5107C45.868 20.8442 45.3919 20.3535 44.6961 20.3535C44.0076 20.3535 43.5242 20.8442 43.5242 21.5107C43.5242 22.1699 44.0076 22.6606 44.6961 22.6606Z" fill="white"/>
<path d="M52.7237 28H54.5328V26.0298H55.961V24.4331H54.5328V17.4312H51.8668C49.9991 20.2437 48.5123 22.5947 47.5602 24.3452V26.0298H52.7237V28ZM49.3106 24.3672C50.5411 22.1992 51.6397 20.4634 52.6505 18.9692H52.753V24.4771H49.3106V24.3672Z" fill="white"/>
<path d="M59.9896 28H61.8793V17.4312H59.997L57.2357 19.3647V21.1812L59.8651 19.3354H59.9896V28Z" fill="white"/>
</g>
<path d="M144.35 71V59.66H148.85C150.65 59.66 152.09 61.1 152.09 62.81C152.09 63.53 151.784 64.07 151.496 64.43C151.334 64.646 151.136 64.826 150.92 64.97C151.226 65.132 151.496 65.348 151.73 65.618C152.144 66.068 152.54 66.752 152.54 67.76C152.54 69.47 151.01 71 148.94 71H144.35ZM146.06 64.34H148.85C149.768 64.34 150.47 63.62 150.47 62.81C150.47 62 149.768 61.28 148.85 61.28H146.06V64.34ZM146.06 69.38H148.94C150.02 69.38 150.83 68.57 150.83 67.58C150.83 66.59 150.02 65.78 148.94 65.78H146.06V69.38ZM157.678 69.56C158.848 69.56 159.928 68.48 159.928 66.95C159.928 65.42 158.848 64.34 157.678 64.34C156.508 64.34 155.428 65.42 155.428 66.95C155.428 68.48 156.508 69.56 157.678 69.56ZM157.678 71.09C155.518 71.09 153.808 69.38 153.808 66.95C153.808 64.52 155.518 62.81 157.678 62.81C159.838 62.81 161.548 64.52 161.548 66.95C161.548 69.38 159.838 71.09 157.678 71.09ZM169.378 71L169.018 70.19C168.856 70.352 168.676 70.514 168.46 70.64C168.082 70.874 167.488 71.09 166.678 71.09C164.518 71.09 162.808 69.38 162.808 66.95C162.808 64.52 164.518 62.81 166.678 62.81C167.452 62.81 167.992 63.044 168.37 63.26C168.586 63.386 168.766 63.548 168.928 63.71V59.66H170.548V71H169.378ZM166.768 69.56C168.01 69.56 169.108 68.48 169.108 66.95C169.108 65.42 168.01 64.34 166.768 64.34C165.526 64.34 164.428 65.42 164.428 66.95C164.428 68.48 165.526 69.56 166.768 69.56ZM173.253 73.88V72.53C174.171 72.53 174.585 72.098 174.783 71.54L175.053 70.73L171.903 62.9H173.613L175.863 68.75L178.113 62.9H179.823L176.403 71.54C175.683 73.34 175.053 73.97 173.793 73.97C173.649 73.97 173.541 73.952 173.415 73.934L173.253 73.88ZM186.837 71L184.137 62.9H185.757L187.557 68.48L189.357 62.9H190.437L192.237 68.48L194.037 62.9H195.657L192.957 71H191.607L189.897 65.69L188.187 71H186.837ZM202.14 68.66H203.85C203.328 70.01 202.23 71.09 200.34 71.09C198.18 71.09 196.47 69.38 196.47 66.95C196.47 64.52 198.162 62.81 200.25 62.81C202.338 62.81 204.03 64.52 204.03 66.95C204.03 67.148 203.994 67.328 203.976 67.454L203.94 67.67H198.18C198.27 68.678 199.17 69.56 200.34 69.56C201.33 69.56 201.87 69.02 202.14 68.66ZM198.18 66.32H202.5C202.302 65.15 201.528 64.34 200.25 64.34C199.17 64.34 198.378 65.15 198.18 66.32ZM205.744 71V62.9H207.364V71H205.744ZM206.554 59.66C207.112 59.66 207.544 60.092 207.544 60.65C207.544 61.208 207.112 61.64 206.554 61.64C205.996 61.64 205.564 61.208 205.564 60.65C205.564 60.092 205.996 59.66 206.554 59.66ZM209.433 71.54H211.053C211.323 72.098 211.863 72.62 212.943 72.62C214.221 72.62 215.013 71.81 215.013 70.64V69.83C214.851 69.992 214.671 70.154 214.455 70.28C214.077 70.514 213.537 70.73 212.763 70.73C210.783 70.73 209.073 69.002 209.073 66.77C209.073 64.538 210.783 62.81 212.763 62.81C213.573 62.81 214.167 63.044 214.545 63.26C214.761 63.386 214.941 63.548 215.103 63.71L215.463 62.9H216.633V70.64C216.633 72.62 215.193 74.06 212.943 74.06C210.981 74.06 209.775 72.89 209.433 71.54ZM212.961 69.2C214.113 69.2 215.193 68.12 215.193 66.77C215.193 65.42 214.113 64.34 212.943 64.34C211.773 64.34 210.693 65.42 210.693 66.77C210.693 68.12 211.773 69.2 212.961 69.2ZM218.877 71V59.66H220.497V63.71C220.659 63.548 220.857 63.386 221.073 63.26C221.451 63.044 222.027 62.81 222.747 62.81C224.547 62.81 225.987 64.25 225.987 66.32V71H224.367V66.32C224.367 65.258 223.485 64.34 222.477 64.34C221.379 64.34 220.497 65.258 220.497 66.32V71H218.877ZM228.771 68.3V64.43H227.331V62.9H227.961C228.591 62.9 229.041 62.45 229.041 61.82V60.74H230.391V62.9H232.191V64.43H230.391V68.3C230.391 69.02 230.931 69.56 231.651 69.56C231.777 69.56 231.903 69.542 232.029 69.524L232.191 69.47V70.91C232.119 70.946 232.029 70.982 231.939 71C231.759 71.054 231.543 71.09 231.291 71.09C229.851 71.09 228.771 70.01 228.771 68.3Z" fill="#A1A1AA"/>
<path d="M44.9996 65H34.9996L38.2926 61.707L36.8786 60.293L32.5856 64.586C32.2106 64.961 32 65.4696 32 66C32 66.5303 32.2106 67.0389 32.5856 67.414L36.8786 71.707L38.2926 70.293L34.9996 67H44.9996V65Z" fill="white"/>
<rect x="16.5" y="101.5" width="68" height="35" rx="3.5" stroke="#FFA05C"/>
<path d="M24.56 123.5V122.52L28.06 118.74C28.214 118.572 28.354 118.404 28.48 118.222C28.69 117.9 28.9 117.522 28.9 117.13C28.9 116.346 28.354 115.8 27.36 115.8C26.45 115.8 25.82 116.43 25.82 117.34H24.49C24.49 115.73 25.61 114.61 27.36 114.61C29.11 114.61 30.23 115.73 30.23 117.2C30.23 117.76 29.922 118.348 29.6 118.782C29.418 119.034 29.208 119.272 28.97 119.51L26.464 122.24H30.23V123.5H24.56ZM34.7849 122.38C35.8489 122.38 36.9549 121.26 36.9549 119.09C36.9549 116.92 35.8489 115.8 34.7849 115.8C33.7209 115.8 32.6149 116.92 32.6149 119.09C32.6149 121.26 33.7209 122.38 34.7849 122.38ZM31.2849 119.09C31.2849 116.22 32.8949 114.61 34.7849 114.61C36.6749 114.61 38.2849 116.22 38.2849 119.09C38.2849 121.96 36.6749 123.57 34.7849 123.57C32.8949 123.57 31.2849 121.96 31.2849 119.09ZM39.3393 123.5V122.52L42.8393 118.74C42.9933 118.572 43.1333 118.404 43.2593 118.222C43.4693 117.9 43.6793 117.522 43.6793 117.13C43.6793 116.346 43.1333 115.8 42.1393 115.8C41.2293 115.8 40.5993 116.43 40.5993 117.34H39.2693C39.2693 115.73 40.3893 114.61 42.1393 114.61C43.8893 114.61 45.0093 115.73 45.0093 117.2C45.0093 117.76 44.7013 118.348 44.3793 118.782C44.1973 119.034 43.9873 119.272 43.7493 119.51L41.2433 122.24H45.0093V123.5H39.3393ZM45.9942 121.12H47.3242C47.3942 121.75 48.0242 122.38 49.0042 122.38C50.0682 122.38 50.6842 121.764 50.6842 120.98C50.6842 120.196 50.0682 119.58 49.0042 119.58H48.3742V118.39H48.9342C49.8442 118.39 50.4042 117.844 50.4042 117.13C50.4042 116.346 49.8442 115.8 48.9342 115.8C48.0242 115.8 47.4642 116.346 47.3942 117.06H46.0642C46.1342 115.73 47.2542 114.61 48.9342 114.61C50.5442 114.61 51.7342 115.786 51.7342 117.06C51.7342 117.69 51.4542 118.152 51.1742 118.446C51.0062 118.614 50.8242 118.754 50.6142 118.88C50.8802 119.006 51.1042 119.16 51.3142 119.356C51.6642 119.692 52.0142 120.252 52.0142 121.05C52.0142 122.38 50.8242 123.57 49.0042 123.57C47.1702 123.57 46.0642 122.45 45.9942 121.12Z" fill="#FFA05C"/>
<path d="M61.166 116.5H72.8327L67.5885 121.744C67.4322 121.9 67.2203 121.988 66.9993 121.988C66.7784 121.988 66.5665 121.9 66.4102 121.744L61.166 116.5Z" fill="#FFA05C"/>
<rect x="329.5" y="101.5" width="35" height="35" rx="3.5" stroke="#FFA05C"/>
<g clip-path="url(#clip2_234_2924)">
<path d="M355 117.667V127H339V117.667H355ZM355 116.333V114.333C355 113.803 354.789 113.294 354.414 112.919C354.039 112.544 353.53 112.333 353 112.333H351V111H349.667V112.333H344.333V111H343V112.333H341C340.47 112.333 339.961 112.544 339.586 112.919C339.211 113.294 339 113.803 339 114.333V116.333H355ZM351 120.333H349.667V121.667H351V120.333ZM347.667 120.333H346.333V121.667H347.667V120.333ZM344.333 120.333H343V121.667H344.333V120.333ZM351 123H349.667V124.333H351V123ZM347.667 123H346.333V124.333H347.667V123ZM344.333 123H343V124.333H344.333V123Z" fill="#FFA05C"/>
</g>
<path d="M20.4 168V167.3L22.9 164.6C23.01 164.48 23.11 164.36 23.2 164.23C23.35 164 23.5 163.73 23.5 163.45C23.5 162.89 23.11 162.5 22.4 162.5C21.75 162.5 21.3 162.95 21.3 163.6H20.35C20.35 162.45 21.15 161.65 22.4 161.65C23.65 161.65 24.45 162.45 24.45 163.5C24.45 163.9 24.23 164.32 24 164.63C23.87 164.81 23.72 164.98 23.55 165.15L21.76 167.1H24.45V168H20.4ZM25.2535 166.3H26.2035C26.2535 166.75 26.7035 167.2 27.3535 167.2C28.0535 167.2 28.6035 166.65 28.6035 165.9C28.6035 165.15 28.0535 164.6 27.3535 164.6C26.9535 164.6 26.6635 164.79 26.4735 164.98C26.3635 165.09 26.2735 165.22 26.2035 165.35H25.4035L25.8035 161.7H29.1535V162.6H26.6135L26.4535 164.1C26.5235 164.04 26.6135 163.98 26.7235 163.93C26.8935 163.84 27.1435 163.75 27.4535 163.75C28.6135 163.75 29.5535 164.7 29.5535 165.9C29.5535 167.1 28.5935 168.05 27.3535 168.05C26.1035 168.05 25.3035 167.25 25.2535 166.3ZM32.7523 167.2C33.5123 167.2 34.3023 166.4 34.3023 164.85C34.3023 163.3 33.5123 162.5 32.7523 162.5C31.9923 162.5 31.2023 163.3 31.2023 164.85C31.2023 166.4 31.9923 167.2 32.7523 167.2ZM30.2523 164.85C30.2523 162.8 31.4023 161.65 32.7523 161.65C34.1023 161.65 35.2523 162.8 35.2523 164.85C35.2523 166.9 34.1023 168.05 32.7523 168.05C31.4023 168.05 30.2523 166.9 30.2523 164.85Z" fill="#A1A1AA"/>
<path d="M27.85 407.2C28.61 407.2 29.4 406.4 29.4 404.85C29.4 403.3 28.61 402.5 27.85 402.5C27.09 402.5 26.3 403.3 26.3 404.85C26.3 406.4 27.09 407.2 27.85 407.2ZM25.35 404.85C25.35 402.8 26.5 401.65 27.85 401.65C29.2 401.65 30.35 402.8 30.35 404.85C30.35 406.9 29.2 408.05 27.85 408.05C26.5 408.05 25.35 406.9 25.35 404.85Z" fill="#A1A1AA"/>
<path d="M23.4 384V383.3L25.9 380.6C26.01 380.48 26.11 380.36 26.2 380.23C26.35 380 26.5 379.73 26.5 379.45C26.5 378.89 26.11 378.5 25.4 378.5C24.75 378.5 24.3 378.95 24.3 379.6H23.35C23.35 378.45 24.15 377.65 25.4 377.65C26.65 377.65 27.45 378.45 27.45 379.5C27.45 379.9 27.23 380.32 27 380.63C26.87 380.81 26.72 380.98 26.55 381.15L24.76 383.1H27.45V384H23.4ZM28.2535 382.3H29.2035C29.2535 382.75 29.7035 383.2 30.3535 383.2C31.0535 383.2 31.6035 382.65 31.6035 381.9C31.6035 381.15 31.0535 380.6 30.3535 380.6C29.9535 380.6 29.6635 380.79 29.4735 380.98C29.3635 381.09 29.2735 381.22 29.2035 381.35H28.4035L28.8035 377.7H32.1535V378.6H29.6135L29.4535 380.1C29.5235 380.04 29.6135 379.98 29.7235 379.93C29.8935 379.84 30.1435 379.75 30.4535 379.75C31.6135 379.75 32.5535 380.7 32.5535 381.9C32.5535 383.1 31.5935 384.05 30.3535 384.05C29.1035 384.05 28.3035 383.25 28.2535 382.3Z" fill="#A1A1AA"/>
<path d="M22.9 358.3H23.85C23.9 358.75 24.35 359.2 25 359.2C25.7 359.2 26.25 358.65 26.25 357.9C26.25 357.15 25.7 356.6 25 356.6C24.6 356.6 24.31 356.79 24.12 356.98C24.01 357.09 23.92 357.22 23.85 357.35H23.05L23.45 353.7H26.8V354.6H24.26L24.1 356.1C24.17 356.04 24.26 355.98 24.37 355.93C24.54 355.84 24.79 355.75 25.1 355.75C26.26 355.75 27.2 356.7 27.2 357.9C27.2 359.1 26.24 360.05 25 360.05C23.75 360.05 22.95 359.25 22.9 358.3ZM30.3988 359.2C31.1588 359.2 31.9488 358.4 31.9488 356.85C31.9488 355.3 31.1588 354.5 30.3988 354.5C29.6388 354.5 28.8488 355.3 28.8488 356.85C28.8488 358.4 29.6388 359.2 30.3988 359.2ZM27.8988 356.85C27.8988 354.8 29.0488 353.65 30.3988 353.65C31.7488 353.65 32.8988 354.8 32.8988 356.85C32.8988 358.9 31.7488 360.05 30.3988 360.05C29.0488 360.05 27.8988 358.9 27.8988 356.85Z" fill="#A1A1AA"/>
<path d="M23.7 336L26.2 330.6H23.35V329.7H27.3V330.35L24.7 336H23.7ZM27.9508 334.3H28.9008C28.9508 334.75 29.4008 335.2 30.0508 335.2C30.7508 335.2 31.3008 334.65 31.3008 333.9C31.3008 333.15 30.7508 332.6 30.0508 332.6C29.6508 332.6 29.3608 332.79 29.1708 332.98C29.0608 333.09 28.9708 333.22 28.9008 333.35H28.1008L28.5008 329.7H31.8508V330.6H29.3108L29.1508 332.1C29.2208 332.04 29.3108 331.98 29.4208 331.93C29.5908 331.84 29.8408 331.75 30.1508 331.75C31.3108 331.75 32.2508 332.7 32.2508 333.9C32.2508 335.1 31.2908 336.05 30.0508 336.05C28.8008 336.05 28.0008 335.25 27.9508 334.3Z" fill="#A1A1AA"/>
<path d="M22 312V307L21.15 307.55L20.7 306.8L22.3 305.7H22.95V312H22ZM26.5531 311.2C27.3131 311.2 28.1031 310.4 28.1031 308.85C28.1031 307.3 27.3131 306.5 26.5531 306.5C25.7931 306.5 25.0031 307.3 25.0031 308.85C25.0031 310.4 25.7931 311.2 26.5531 311.2ZM24.0531 308.85C24.0531 306.8 25.2031 305.65 26.5531 305.65C27.9031 305.65 29.0531 306.8 29.0531 308.85C29.0531 310.9 27.9031 312.05 26.5531 312.05C25.2031 312.05 24.0531 310.9 24.0531 308.85ZM32.2563 311.2C33.0163 311.2 33.8063 310.4 33.8063 308.85C33.8063 307.3 33.0163 306.5 32.2563 306.5C31.4963 306.5 30.7063 307.3 30.7063 308.85C30.7063 310.4 31.4963 311.2 32.2563 311.2ZM29.7563 308.85C29.7563 306.8 30.9063 305.65 32.2563 305.65C33.6063 305.65 34.7563 306.8 34.7563 308.85C34.7563 310.9 33.6063 312.05 32.2563 312.05C30.9063 312.05 29.7563 310.9 29.7563 308.85Z" fill="#A1A1AA"/>
<path d="M22.5 288V283L21.65 283.55L21.2 282.8L22.8 281.7H23.45V288H22.5ZM24.6031 288V287.3L27.1031 284.6C27.2131 284.48 27.3131 284.36 27.4031 284.23C27.5531 284 27.7031 283.73 27.7031 283.45C27.7031 282.89 27.3131 282.5 26.6031 282.5C25.9531 282.5 25.5031 282.95 25.5031 283.6H24.5531C24.5531 282.45 25.3531 281.65 26.6031 281.65C27.8531 281.65 28.6531 282.45 28.6531 283.5C28.6531 283.9 28.4331 284.32 28.2031 284.63C28.0731 284.81 27.9231 284.98 27.7531 285.15L25.9631 287.1H28.6531V288H24.6031ZM29.4566 286.3H30.4066C30.4566 286.75 30.9066 287.2 31.5566 287.2C32.2566 287.2 32.8066 286.65 32.8066 285.9C32.8066 285.15 32.2566 284.6 31.5566 284.6C31.1566 284.6 30.8666 284.79 30.6766 284.98C30.5666 285.09 30.4766 285.22 30.4066 285.35H29.6066L30.0066 281.7H33.3566V282.6H30.8166L30.6566 284.1C30.7266 284.04 30.8166 283.98 30.9266 283.93C31.0966 283.84 31.3466 283.75 31.6566 283.75C32.8166 283.75 33.7566 284.7 33.7566 285.9C33.7566 287.1 32.7966 288.05 31.5566 288.05C30.3066 288.05 29.5066 287.25 29.4566 286.3Z" fill="#A1A1AA"/>
<path d="M22.5 264V259L21.65 259.55L21.2 258.8L22.8 257.7H23.45V264H22.5ZM24.6031 262.3H25.5531C25.6031 262.75 26.0531 263.2 26.7031 263.2C27.4031 263.2 27.9531 262.65 27.9531 261.9C27.9531 261.15 27.4031 260.6 26.7031 260.6C26.3031 260.6 26.0131 260.79 25.8231 260.98C25.7131 261.09 25.6231 261.22 25.5531 261.35H24.7531L25.1531 257.7H28.5031V258.6H25.9631L25.8031 260.1C25.8731 260.04 25.9631 259.98 26.0731 259.93C26.2431 259.84 26.4931 259.75 26.8031 259.75C27.9631 259.75 28.9031 260.7 28.9031 261.9C28.9031 263.1 27.9431 264.05 26.7031 264.05C25.4531 264.05 24.6531 263.25 24.6031 262.3ZM32.102 263.2C32.862 263.2 33.652 262.4 33.652 260.85C33.652 259.3 32.862 258.5 32.102 258.5C31.342 258.5 30.552 259.3 30.552 260.85C30.552 262.4 31.342 263.2 32.102 263.2ZM29.602 260.85C29.602 258.8 30.752 257.65 32.102 257.65C33.452 257.65 34.602 258.8 34.602 260.85C34.602 262.9 33.452 264.05 32.102 264.05C30.752 264.05 29.602 262.9 29.602 260.85Z" fill="#A1A1AA"/>
<path d="M23 240V235L22.15 235.55L21.7 234.8L23.3 233.7H23.95V240H23ZM25.4031 240L27.9031 234.6H25.0531V233.7H29.0031V234.35L26.4031 240H25.4031ZM29.6539 238.3H30.6039C30.6539 238.75 31.1039 239.2 31.7539 239.2C32.4539 239.2 33.0039 238.65 33.0039 237.9C33.0039 237.15 32.4539 236.6 31.7539 236.6C31.3539 236.6 31.0639 236.79 30.8739 236.98C30.7639 237.09 30.6739 237.22 30.6039 237.35H29.8039L30.2039 233.7H33.5539V234.6H31.0139L30.8539 236.1C30.9239 236.04 31.0139 235.98 31.1239 235.93C31.2939 235.84 31.5439 235.75 31.8539 235.75C33.0139 235.75 33.9539 236.7 33.9539 237.9C33.9539 239.1 32.9939 240.05 31.7539 240.05C30.5039 240.05 29.7039 239.25 29.6539 238.3Z" fill="#A1A1AA"/>
<path d="M19.9 216V215.3L22.4 212.6C22.51 212.48 22.61 212.36 22.7 212.23C22.85 212 23 211.73 23 211.45C23 210.89 22.61 210.5 21.9 210.5C21.25 210.5 20.8 210.95 20.8 211.6H19.85C19.85 210.45 20.65 209.65 21.9 209.65C23.15 209.65 23.95 210.45 23.95 211.5C23.95 211.9 23.73 212.32 23.5 212.63C23.37 212.81 23.22 212.98 23.05 213.15L21.26 215.1H23.95V216H19.9ZM27.2035 215.2C27.9635 215.2 28.7535 214.4 28.7535 212.85C28.7535 211.3 27.9635 210.5 27.2035 210.5C26.4435 210.5 25.6535 211.3 25.6535 212.85C25.6535 214.4 26.4435 215.2 27.2035 215.2ZM24.7035 212.85C24.7035 210.8 25.8535 209.65 27.2035 209.65C28.5535 209.65 29.7035 210.8 29.7035 212.85C29.7035 214.9 28.5535 216.05 27.2035 216.05C25.8535 216.05 24.7035 214.9 24.7035 212.85ZM32.9066 215.2C33.6666 215.2 34.4566 214.4 34.4566 212.85C34.4566 211.3 33.6666 210.5 32.9066 210.5C32.1466 210.5 31.3566 211.3 31.3566 212.85C31.3566 214.4 32.1466 215.2 32.9066 215.2ZM30.4066 212.85C30.4066 210.8 31.5566 209.65 32.9066 209.65C34.2566 209.65 35.4066 210.8 35.4066 212.85C35.4066 214.9 34.2566 216.05 32.9066 216.05C31.5566 216.05 30.4066 214.9 30.4066 212.85Z" fill="#A1A1AA"/>
<path d="M20.9 192V191.3L23.4 188.6C23.51 188.48 23.61 188.36 23.7 188.23C23.85 188 24 187.73 24 187.45C24 186.89 23.61 186.5 22.9 186.5C22.25 186.5 21.8 186.95 21.8 187.6H20.85C20.85 186.45 21.65 185.65 22.9 185.65C24.15 185.65 24.95 186.45 24.95 187.5C24.95 187.9 24.73 188.32 24.5 188.63C24.37 188.81 24.22 188.98 24.05 189.15L22.26 191.1H24.95V192H20.9ZM25.7535 192V191.3L28.2535 188.6C28.3635 188.48 28.4635 188.36 28.5535 188.23C28.7035 188 28.8535 187.73 28.8535 187.45C28.8535 186.89 28.4635 186.5 27.7535 186.5C27.1035 186.5 26.6535 186.95 26.6535 187.6H25.7035C25.7035 186.45 26.5035 185.65 27.7535 185.65C29.0035 185.65 29.8035 186.45 29.8035 187.5C29.8035 187.9 29.5835 188.32 29.3535 188.63C29.2235 188.81 29.0735 188.98 28.9035 189.15L27.1135 191.1H29.8035V192H25.7535ZM30.607 190.3H31.557C31.607 190.75 32.057 191.2 32.707 191.2C33.407 191.2 33.957 190.65 33.957 189.9C33.957 189.15 33.407 188.6 32.707 188.6C32.307 188.6 32.017 188.79 31.827 188.98C31.717 189.09 31.627 189.22 31.557 189.35H30.757L31.157 185.7H34.507V186.6H31.967L31.807 188.1C31.877 188.04 31.967 187.98 32.077 187.93C32.247 187.84 32.497 187.75 32.807 187.75C33.967 187.75 34.907 188.7 34.907 189.9C34.907 191.1 33.947 192.05 32.707 192.05C31.457 192.05 30.657 191.25 30.607 190.3Z" fill="#A1A1AA"/>
<rect width="15" height="194" rx="7.5" transform="matrix(-1 0 0 1 61.5 200)" fill="url(#paint1_linear_234_2924)"/>
<path d="M42.05 408L40.1 401.7H41.05L42.4 406.05L43.7 401.7H44.3L45.6 406.05L46.95 401.7H47.9L45.95 408H45.3L44 403.8L42.7 408H42.05ZM51.1953 406.7H52.1453C51.8553 407.45 51.2453 408.05 50.1953 408.05C48.9953 408.05 48.0453 407.1 48.0453 405.75C48.0453 404.4 48.9853 403.45 50.1453 403.45C51.3053 403.45 52.2453 404.4 52.2453 405.75C52.2453 405.86 52.2253 405.96 52.2153 406.03L52.1953 406.15H48.9953C49.0453 406.71 49.5453 407.2 50.1953 407.2C50.7453 407.2 51.0453 406.9 51.1953 406.7ZM48.9953 405.4H51.3953C51.2853 404.75 50.8553 404.3 50.1453 404.3C49.5453 404.3 49.1053 404.75 48.9953 405.4ZM56.0977 406.7H57.0477C56.7577 407.45 56.1477 408.05 55.0977 408.05C53.8977 408.05 52.9477 407.1 52.9477 405.75C52.9477 404.4 53.8877 403.45 55.0477 403.45C56.2077 403.45 57.1477 404.4 57.1477 405.75C57.1477 405.86 57.1277 405.96 57.1177 406.03L57.0977 406.15H53.8977C53.9477 406.71 54.4477 407.2 55.0977 407.2C55.6477 407.2 55.9477 406.9 56.0977 406.7ZM53.8977 405.4H56.2977C56.1877 404.75 55.7577 404.3 55.0477 404.3C54.4477 404.3 54.0077 404.75 53.8977 405.4ZM58.15 408V401.7H59.05V405.45L60.6 403.5H61.65L59.9 405.6L61.9 408H60.8L59.05 405.85V408H58.15ZM65.4941 408V403L64.6441 403.55L64.1941 402.8L65.7941 401.7H66.4441V408H65.4941Z" fill="#A1A1AA"/>
<rect width="15" height="161" rx="7.5" transform="matrix(-1 0 0 1 98 233)" fill="url(#paint2_linear_234_2924)"/>
<path d="M78.05 408L76.1 401.7H77.05L78.4 406.05L79.7 401.7H80.3L81.6 406.05L82.95 401.7H83.9L81.95 408H81.3L80 403.8L78.7 408H78.05ZM87.1953 406.7H88.1453C87.8553 407.45 87.2453 408.05 86.1953 408.05C84.9953 408.05 84.0453 407.1 84.0453 405.75C84.0453 404.4 84.9853 403.45 86.1453 403.45C87.3053 403.45 88.2453 404.4 88.2453 405.75C88.2453 405.86 88.2253 405.96 88.2153 406.03L88.1953 406.15H84.9953C85.0453 406.71 85.5453 407.2 86.1953 407.2C86.7453 407.2 87.0453 406.9 87.1953 406.7ZM84.9953 405.4H87.3953C87.2853 404.75 86.8553 404.3 86.1453 404.3C85.5453 404.3 85.1053 404.75 84.9953 405.4ZM92.0977 406.7H93.0477C92.7577 407.45 92.1477 408.05 91.0977 408.05C89.8977 408.05 88.9477 407.1 88.9477 405.75C88.9477 404.4 89.8877 403.45 91.0477 403.45C92.2077 403.45 93.1477 404.4 93.1477 405.75C93.1477 405.86 93.1277 405.96 93.1177 406.03L93.0977 406.15H89.8977C89.9477 406.71 90.4477 407.2 91.0977 407.2C91.6477 407.2 91.9477 406.9 92.0977 406.7ZM89.8977 405.4H92.2977C92.1877 404.75 91.7577 404.3 91.0477 404.3C90.4477 404.3 90.0077 404.75 89.8977 405.4ZM94.15 408V401.7H95.05V405.45L96.6 403.5H97.65L95.9 405.6L97.9 408H96.8L95.05 405.85V408H94.15ZM100.394 408V407.3L102.894 404.6C103.004 404.48 103.104 404.36 103.194 404.23C103.344 404 103.494 403.73 103.494 403.45C103.494 402.89 103.104 402.5 102.394 402.5C101.744 402.5 101.294 402.95 101.294 403.6H100.344C100.344 402.45 101.144 401.65 102.394 401.65C103.644 401.65 104.444 402.45 104.444 403.5C104.444 403.9 104.224 404.32 103.994 404.63C103.864 404.81 103.714 404.98 103.544 405.15L101.754 407.1H104.444V408H100.394Z" fill="#A1A1AA"/>
<rect width="15" height="129" rx="7.5" transform="matrix(-1 0 0 1 135 265)" fill="url(#paint3_linear_234_2924)"/>
<path d="M115.05 408L113.1 401.7H114.05L115.4 406.05L116.7 401.7H117.3L118.6 406.05L119.95 401.7H120.9L118.95 408H118.3L117 403.8L115.7 408H115.05ZM124.195 406.7H125.145C124.855 407.45 124.245 408.05 123.195 408.05C121.995 408.05 121.045 407.1 121.045 405.75C121.045 404.4 121.985 403.45 123.145 403.45C124.305 403.45 125.245 404.4 125.245 405.75C125.245 405.86 125.225 405.96 125.215 406.03L125.195 406.15H121.995C122.045 406.71 122.545 407.2 123.195 407.2C123.745 407.2 124.045 406.9 124.195 406.7ZM121.995 405.4H124.395C124.285 404.75 123.855 404.3 123.145 404.3C122.545 404.3 122.105 404.75 121.995 405.4ZM129.098 406.7H130.048C129.758 407.45 129.148 408.05 128.098 408.05C126.898 408.05 125.948 407.1 125.948 405.75C125.948 404.4 126.888 403.45 128.048 403.45C129.208 403.45 130.148 404.4 130.148 405.75C130.148 405.86 130.128 405.96 130.118 406.03L130.098 406.15H126.898C126.948 406.71 127.448 407.2 128.098 407.2C128.648 407.2 128.948 406.9 129.098 406.7ZM126.898 405.4H129.298C129.188 404.75 128.758 404.3 128.048 404.3C127.448 404.3 127.008 404.75 126.898 405.4ZM131.15 408V401.7H132.05V405.45L133.6 403.5H134.65L132.9 405.6L134.9 408H133.8L132.05 405.85V408H131.15ZM137.294 406.3H138.244C138.294 406.75 138.744 407.2 139.444 407.2C140.204 407.2 140.644 406.76 140.644 406.2C140.644 405.64 140.204 405.2 139.444 405.2H138.994V404.35H139.394C140.044 404.35 140.444 403.96 140.444 403.45C140.444 402.89 140.044 402.5 139.394 402.5C138.744 402.5 138.344 402.89 138.294 403.4H137.344C137.394 402.45 138.194 401.65 139.394 401.65C140.544 401.65 141.394 402.49 141.394 403.4C141.394 403.85 141.194 404.18 140.994 404.39C140.874 404.51 140.744 404.61 140.594 404.7C140.784 404.79 140.944 404.9 141.094 405.04C141.344 405.28 141.594 405.68 141.594 406.25C141.594 407.2 140.744 408.05 139.444 408.05C138.134 408.05 137.344 407.25 137.294 406.3Z" fill="#A1A1AA"/>
<rect width="15" height="157" rx="7.5" transform="matrix(-1 0 0 1 172 237)" fill="url(#paint4_linear_234_2924)"/>
<path d="M152.05 408L150.1 401.7H151.05L152.4 406.05L153.7 401.7H154.3L155.6 406.05L156.95 401.7H157.9L155.95 408H155.3L154 403.8L152.7 408H152.05ZM161.195 406.7H162.145C161.855 407.45 161.245 408.05 160.195 408.05C158.995 408.05 158.045 407.1 158.045 405.75C158.045 404.4 158.985 403.45 160.145 403.45C161.305 403.45 162.245 404.4 162.245 405.75C162.245 405.86 162.225 405.96 162.215 406.03L162.195 406.15H158.995C159.045 406.71 159.545 407.2 160.195 407.2C160.745 407.2 161.045 406.9 161.195 406.7ZM158.995 405.4H161.395C161.285 404.75 160.855 404.3 160.145 404.3C159.545 404.3 159.105 404.75 158.995 405.4ZM166.098 406.7H167.048C166.758 407.45 166.148 408.05 165.098 408.05C163.898 408.05 162.948 407.1 162.948 405.75C162.948 404.4 163.888 403.45 165.048 403.45C166.208 403.45 167.148 404.4 167.148 405.75C167.148 405.86 167.128 405.96 167.118 406.03L167.098 406.15H163.898C163.948 406.71 164.448 407.2 165.098 407.2C165.648 407.2 165.948 406.9 166.098 406.7ZM163.898 405.4H166.298C166.188 404.75 165.758 404.3 165.048 404.3C164.448 404.3 164.008 404.75 163.898 405.4ZM168.15 408V401.7H169.05V405.45L170.6 403.5H171.65L169.9 405.6L171.9 408H170.8L169.05 405.85V408H168.15ZM174.194 406.75V405.95L176.844 401.7H177.944V405.85H178.644V406.75H177.944V408H176.994V406.75H174.194ZM175.294 405.85H176.994V403.1L175.294 405.85Z" fill="#A1A1AA"/>
<rect width="15" height="150" rx="7.5" transform="matrix(-1 0 0 1 209.5 244)" fill="url(#paint5_linear_234_2924)"/>
<path d="M189.05 408L187.1 401.7H188.05L189.4 406.05L190.7 401.7H191.3L192.6 406.05L193.95 401.7H194.9L192.95 408H192.3L191 403.8L189.7 408H189.05ZM198.195 406.7H199.145C198.855 407.45 198.245 408.05 197.195 408.05C195.995 408.05 195.045 407.1 195.045 405.75C195.045 404.4 195.985 403.45 197.145 403.45C198.305 403.45 199.245 404.4 199.245 405.75C199.245 405.86 199.225 405.96 199.215 406.03L199.195 406.15H195.995C196.045 406.71 196.545 407.2 197.195 407.2C197.745 407.2 198.045 406.9 198.195 406.7ZM195.995 405.4H198.395C198.285 404.75 197.855 404.3 197.145 404.3C196.545 404.3 196.105 404.75 195.995 405.4ZM203.098 406.7H204.048C203.758 407.45 203.148 408.05 202.098 408.05C200.898 408.05 199.948 407.1 199.948 405.75C199.948 404.4 200.888 403.45 202.048 403.45C203.208 403.45 204.148 404.4 204.148 405.75C204.148 405.86 204.128 405.96 204.118 406.03L204.098 406.15H200.898C200.948 406.71 201.448 407.2 202.098 407.2C202.648 407.2 202.948 406.9 203.098 406.7ZM200.898 405.4H203.298C203.188 404.75 202.758 404.3 202.048 404.3C201.448 404.3 201.008 404.75 200.898 405.4ZM205.15 408V401.7H206.05V405.45L207.6 403.5H208.65L206.9 405.6L208.9 408H207.8L206.05 405.85V408H205.15ZM211.394 406.3H212.344C212.394 406.75 212.844 407.2 213.494 407.2C214.194 407.2 214.744 406.65 214.744 405.9C214.744 405.15 214.194 404.6 213.494 404.6C213.094 404.6 212.804 404.79 212.614 404.98C212.504 405.09 212.414 405.22 212.344 405.35H211.544L211.944 401.7H215.294V402.6H212.754L212.594 404.1C212.664 404.04 212.754 403.98 212.864 403.93C213.034 403.84 213.284 403.75 213.594 403.75C214.754 403.75 215.694 404.7 215.694 405.9C215.694 407.1 214.734 408.05 213.494 408.05C212.244 408.05 211.444 407.25 211.394 406.3Z" fill="#A1A1AA"/>
<rect width="15" height="157" rx="7.5" transform="matrix(-1 0 0 1 247 237)" fill="url(#paint6_linear_234_2924)"/>
<path d="M227.05 408L225.1 401.7H226.05L227.4 406.05L228.7 401.7H229.3L230.6 406.05L231.95 401.7H232.9L230.95 408H230.3L229 403.8L227.7 408H227.05ZM236.195 406.7H237.145C236.855 407.45 236.245 408.05 235.195 408.05C233.995 408.05 233.045 407.1 233.045 405.75C233.045 404.4 233.985 403.45 235.145 403.45C236.305 403.45 237.245 404.4 237.245 405.75C237.245 405.86 237.225 405.96 237.215 406.03L237.195 406.15H233.995C234.045 406.71 234.545 407.2 235.195 407.2C235.745 407.2 236.045 406.9 236.195 406.7ZM233.995 405.4H236.395C236.285 404.75 235.855 404.3 235.145 404.3C234.545 404.3 234.105 404.75 233.995 405.4ZM241.098 406.7H242.048C241.758 407.45 241.148 408.05 240.098 408.05C238.898 408.05 237.948 407.1 237.948 405.75C237.948 404.4 238.888 403.45 240.048 403.45C241.208 403.45 242.148 404.4 242.148 405.75C242.148 405.86 242.128 405.96 242.118 406.03L242.098 406.15H238.898C238.948 406.71 239.448 407.2 240.098 407.2C240.648 407.2 240.948 406.9 241.098 406.7ZM238.898 405.4H241.298C241.188 404.75 240.758 404.3 240.048 404.3C239.448 404.3 239.008 404.75 238.898 405.4ZM243.15 408V401.7H244.05V405.45L245.6 403.5H246.65L244.9 405.6L246.9 408H245.8L244.05 405.85V408H243.15ZM249.894 404.35L251.644 401.7H252.694L251.294 403.8L251.414 403.78C251.484 403.77 251.584 403.75 251.694 403.75C252.744 403.75 253.694 404.7 253.694 405.9C253.694 407.1 252.734 408.05 251.494 408.05C250.254 408.05 249.294 407.1 249.294 405.9C249.294 405.53 249.444 405.13 249.594 404.84C249.684 404.67 249.784 404.5 249.894 404.35ZM251.494 407.2C252.194 407.2 252.744 406.65 252.744 405.9C252.744 405.15 252.194 404.6 251.494 404.6C250.794 404.6 250.244 405.15 250.244 405.9C250.244 406.65 250.794 407.2 251.494 407.2Z" fill="#A1A1AA"/>
<rect width="15" height="115" rx="7.5" transform="matrix(-1 0 0 1 284 279)" fill="url(#paint7_linear_234_2924)"/>
<path d="M264.05 408L262.1 401.7H263.05L264.4 406.05L265.7 401.7H266.3L267.6 406.05L268.95 401.7H269.9L267.95 408H267.3L266 403.8L264.7 408H264.05ZM273.195 406.7H274.145C273.855 407.45 273.245 408.05 272.195 408.05C270.995 408.05 270.045 407.1 270.045 405.75C270.045 404.4 270.985 403.45 272.145 403.45C273.305 403.45 274.245 404.4 274.245 405.75C274.245 405.86 274.225 405.96 274.215 406.03L274.195 406.15H270.995C271.045 406.71 271.545 407.2 272.195 407.2C272.745 407.2 273.045 406.9 273.195 406.7ZM270.995 405.4H273.395C273.285 404.75 272.855 404.3 272.145 404.3C271.545 404.3 271.105 404.75 270.995 405.4ZM278.098 406.7H279.048C278.758 407.45 278.148 408.05 277.098 408.05C275.898 408.05 274.948 407.1 274.948 405.75C274.948 404.4 275.888 403.45 277.048 403.45C278.208 403.45 279.148 404.4 279.148 405.75C279.148 405.86 279.128 405.96 279.118 406.03L279.098 406.15H275.898C275.948 406.71 276.448 407.2 277.098 407.2C277.648 407.2 277.948 406.9 278.098 406.7ZM275.898 405.4H278.298C278.188 404.75 277.758 404.3 277.048 404.3C276.448 404.3 276.008 404.75 275.898 405.4ZM280.15 408V401.7H281.05V405.45L282.6 403.5H283.65L281.9 405.6L283.9 408H282.8L281.05 405.85V408H280.15ZM286.694 408L289.194 402.6H286.344V401.7H290.294V402.35L287.694 408H286.694Z" fill="#A1A1AA"/>
<rect width="15" height="115" rx="7.5" transform="matrix(-1 0 0 1 321 279)" fill="url(#paint8_linear_234_2924)"/>
<path d="M301.05 408L299.1 401.7H300.05L301.4 406.05L302.7 401.7H303.3L304.6 406.05L305.95 401.7H306.9L304.95 408H304.3L303 403.8L301.7 408H301.05ZM310.195 406.7H311.145C310.855 407.45 310.245 408.05 309.195 408.05C307.995 408.05 307.045 407.1 307.045 405.75C307.045 404.4 307.985 403.45 309.145 403.45C310.305 403.45 311.245 404.4 311.245 405.75C311.245 405.86 311.225 405.96 311.215 406.03L311.195 406.15H307.995C308.045 406.71 308.545 407.2 309.195 407.2C309.745 407.2 310.045 406.9 310.195 406.7ZM307.995 405.4H310.395C310.285 404.75 309.855 404.3 309.145 404.3C308.545 404.3 308.105 404.75 307.995 405.4ZM315.098 406.7H316.048C315.758 407.45 315.148 408.05 314.098 408.05C312.898 408.05 311.948 407.1 311.948 405.75C311.948 404.4 312.888 403.45 314.048 403.45C315.208 403.45 316.148 404.4 316.148 405.75C316.148 405.86 316.128 405.96 316.118 406.03L316.098 406.15H312.898C312.948 406.71 313.448 407.2 314.098 407.2C314.648 407.2 314.948 406.9 315.098 406.7ZM312.898 405.4H315.298C315.188 404.75 314.758 404.3 314.048 404.3C313.448 404.3 313.008 404.75 312.898 405.4ZM317.15 408V401.7H318.05V405.45L319.6 403.5H320.65L318.9 405.6L320.9 408H319.8L318.05 405.85V408H317.15ZM323.294 406.2C323.294 405.6 323.544 405.2 323.794 404.95C323.944 404.8 324.104 404.69 324.294 404.6C324.154 404.51 324.024 404.41 323.914 404.29C323.724 404.08 323.544 403.78 323.544 403.35C323.544 402.45 324.344 401.65 325.444 401.65C326.544 401.65 327.344 402.45 327.344 403.35C327.344 403.78 327.154 404.08 326.964 404.29C326.854 404.41 326.724 404.51 326.594 404.6C326.784 404.69 326.944 404.8 327.094 404.95C327.344 405.2 327.594 405.6 327.594 406.2C327.594 407.2 326.744 408.05 325.444 408.05C324.144 408.05 323.294 407.2 323.294 406.2ZM324.244 406.15C324.244 406.75 324.684 407.2 325.444 407.2C326.204 407.2 326.644 406.75 326.644 406.15C326.644 405.55 326.204 405.1 325.444 405.1C324.684 405.1 324.244 405.55 324.244 406.15ZM324.494 403.4C324.494 403.85 324.884 404.25 325.444 404.25C326.004 404.25 326.394 403.85 326.394 403.4C326.394 402.89 326.004 402.5 325.444 402.5C324.884 402.5 324.494 402.89 324.494 403.4Z" fill="#A1A1AA"/>
<rect width="15" height="115" rx="7.5" transform="matrix(-1 0 0 1 358 279)" fill="url(#paint9_linear_234_2924)"/>
<path d="M338.05 408L336.1 401.7H337.05L338.4 406.05L339.7 401.7H340.3L341.6 406.05L342.95 401.7H343.9L341.95 408H341.3L340 403.8L338.7 408H338.05ZM347.195 406.7H348.145C347.855 407.45 347.245 408.05 346.195 408.05C344.995 408.05 344.045 407.1 344.045 405.75C344.045 404.4 344.985 403.45 346.145 403.45C347.305 403.45 348.245 404.4 348.245 405.75C348.245 405.86 348.225 405.96 348.215 406.03L348.195 406.15H344.995C345.045 406.71 345.545 407.2 346.195 407.2C346.745 407.2 347.045 406.9 347.195 406.7ZM344.995 405.4H347.395C347.285 404.75 346.855 404.3 346.145 404.3C345.545 404.3 345.105 404.75 344.995 405.4ZM352.098 406.7H353.048C352.758 407.45 352.148 408.05 351.098 408.05C349.898 408.05 348.948 407.1 348.948 405.75C348.948 404.4 349.888 403.45 351.048 403.45C352.208 403.45 353.148 404.4 353.148 405.75C353.148 405.86 353.128 405.96 353.118 406.03L353.098 406.15H349.898C349.948 406.71 350.448 407.2 351.098 407.2C351.648 407.2 351.948 406.9 352.098 406.7ZM349.898 405.4H352.298C352.188 404.75 351.758 404.3 351.048 404.3C350.448 404.3 350.008 404.75 349.898 405.4ZM354.15 408V401.7H355.05V405.45L356.6 403.5H357.65L355.9 405.6L357.9 408H356.8L355.05 405.85V408H354.15ZM361.294 408L362.694 405.9L362.584 405.93C362.514 405.94 362.414 405.95 362.294 405.95C361.244 405.95 360.294 405 360.294 403.8C360.294 402.6 361.254 401.65 362.494 401.65C363.734 401.65 364.694 402.6 364.694 403.8C364.694 404.19 364.544 404.57 364.394 404.86C364.304 405.03 364.204 405.2 364.094 405.35L362.344 408H361.294ZM362.494 405.1C363.194 405.1 363.744 404.55 363.744 403.8C363.744 403.05 363.194 402.5 362.494 402.5C361.794 402.5 361.244 403.05 361.244 403.8C361.244 404.55 361.794 405.1 362.494 405.1Z" fill="#A1A1AA"/>
<g filter="url(#filter0_d_234_2924)">
<path fill-rule="evenodd" clip-rule="evenodd" d="M99 265C94.5817 265 91 268.582 91 273V280C91 284.418 94.5817 288 99 288H115.391C115.577 288.376 115.83 288.735 116.155 289.064L122.157 295.128C123.722 296.709 126.278 296.709 127.843 295.128L133.845 289.064C134.17 288.735 134.423 288.376 134.609 288H149C153.418 288 157 284.418 157 280V273C157 268.582 153.418 265 149 265H99Z" fill="#1B1B1B"/>
</g>
<g filter="url(#filter1_d_234_2924)">
<path d="M103.48 280L103.18 279.28C103.024 279.436 102.832 279.568 102.616 279.676C102.244 279.868 101.704 280.06 101.02 280.06C99.1 280.06 97.42 278.38 97.42 276.22C97.42 274.06 99.1 272.38 101.02 272.38C102.7 272.38 103.912 273.592 104.26 274.9H103.06C102.796 274.12 102.124 273.4 101.02 273.4C99.772 273.4 98.56 274.588 98.56 276.22C98.56 277.852 99.772 279.04 101.02 279.04C102.208 279.04 103.048 278.188 103.24 277.18H100.96V276.1H104.32V280H103.48ZM108.039 279.04C108.819 279.04 109.539 278.32 109.539 277.3C109.539 276.28 108.819 275.56 108.039 275.56C107.259 275.56 106.539 276.28 106.539 277.3C106.539 278.32 107.259 279.04 108.039 279.04ZM108.039 280.06C106.599 280.06 105.459 278.92 105.459 277.3C105.459 275.68 106.599 274.54 108.039 274.54C109.479 274.54 110.619 275.68 110.619 277.3C110.619 278.92 109.479 280.06 108.039 280.06ZM115.179 280L114.939 279.46C114.831 279.568 114.711 279.676 114.567 279.76C114.315 279.916 113.919 280.06 113.379 280.06C112.179 280.06 111.519 279.4 111.519 278.44C111.519 277.36 112.239 276.64 114.879 276.64V276.46C114.879 275.92 114.531 275.56 113.859 275.56C113.139 275.56 112.839 275.848 112.779 276.22H111.699C111.759 275.26 112.527 274.54 113.859 274.54C115.119 274.54 115.959 275.38 115.959 276.46V280H115.179ZM114.879 277.888V277.6C112.959 277.6 112.599 277.96 112.599 278.5C112.599 278.8 112.899 279.1 113.439 279.1C114.351 279.1 114.879 278.56 114.879 277.888ZM117.397 280V272.44H118.477V280H117.397ZM119.614 275.26C119.614 274.888 119.902 274.6 120.274 274.6C120.646 274.6 120.934 274.888 120.934 275.26C120.934 275.632 120.646 275.92 120.274 275.92C119.902 275.92 119.614 275.632 119.614 275.26ZM119.614 279.4C119.614 279.028 119.902 278.74 120.274 278.74C120.646 278.74 120.934 279.028 120.934 279.4C120.934 279.772 120.646 280.06 120.274 280.06C119.902 280.06 119.614 279.772 119.614 279.4ZM125.73 280V274L124.71 274.66L124.17 273.76L126.09 272.44H126.87V280H125.73ZM128.253 280V279.16L131.253 275.92C131.385 275.776 131.505 275.632 131.613 275.476C131.793 275.2 131.973 274.876 131.973 274.54C131.973 273.868 131.505 273.4 130.653 273.4C129.873 273.4 129.333 273.94 129.333 274.72H128.193C128.193 273.34 129.153 272.38 130.653 272.38C132.153 272.38 133.113 273.34 133.113 274.6C133.113 275.08 132.849 275.584 132.573 275.956C132.417 276.172 132.237 276.376 132.033 276.58L129.885 278.92H133.113V280H128.253ZM137.018 279.04C137.93 279.04 138.878 278.08 138.878 276.22C138.878 274.36 137.93 273.4 137.018 273.4C136.106 273.4 135.158 274.36 135.158 276.22C135.158 278.08 136.106 279.04 137.018 279.04ZM134.018 276.22C134.018 273.76 135.398 272.38 137.018 272.38C138.638 272.38 140.018 273.76 140.018 276.22C140.018 278.68 138.638 280.06 137.018 280.06C135.398 280.06 134.018 278.68 134.018 276.22ZM141.221 280V272.44H142.301V276.94L144.161 274.6H145.421L143.321 277.12L145.721 280H144.401L142.301 277.42V280H141.221ZM146.14 280.36H147.22C147.4 280.732 147.76 281.08 148.48 281.08C149.332 281.08 149.86 280.54 149.86 279.76V279.22C149.752 279.328 149.632 279.436 149.488 279.52C149.236 279.676 148.876 279.82 148.36 279.82C147.04 279.82 145.9 278.668 145.9 277.18C145.9 275.692 147.04 274.54 148.36 274.54C148.9 274.54 149.296 274.696 149.548 274.84C149.692 274.924 149.812 275.032 149.92 275.14L150.16 274.6H150.94V279.76C150.94 281.08 149.98 282.04 148.48 282.04C147.172 282.04 146.368 281.26 146.14 280.36ZM148.492 278.8C149.26 278.8 149.98 278.08 149.98 277.18C149.98 276.28 149.26 275.56 148.48 275.56C147.7 275.56 146.98 276.28 146.98 277.18C146.98 278.08 147.7 278.8 148.492 278.8Z" fill="white"/>
</g>
<rect x="16" y="433" width="343" height="62" rx="8" fill="url(#paint10_radial_234_2924)"/>
<rect x="16.5" y="433.5" width="342" height="61" rx="7.5" stroke="url(#paint11_linear_234_2924)" stroke-opacity="0.4"/>
<path d="M28.87 454L26.14 445.18H27.47L29.36 451.27L31.18 445.18H32.02L33.84 451.27L35.73 445.18H37.06L34.33 454H33.42L31.6 448.12L29.78 454H28.87ZM41.6734 452.18H43.0034C42.5974 453.23 41.7434 454.07 40.2734 454.07C38.5934 454.07 37.2634 452.74 37.2634 450.85C37.2634 448.96 38.5794 447.63 40.2034 447.63C41.8274 447.63 43.1434 448.96 43.1434 450.85C43.1434 451.004 43.1154 451.144 43.1014 451.242L43.0734 451.41H38.5934C38.6634 452.194 39.3634 452.88 40.2734 452.88C41.0434 452.88 41.4634 452.46 41.6734 452.18ZM38.5934 450.36H41.9534C41.7994 449.45 41.1974 448.82 40.2034 448.82C39.3634 448.82 38.7474 449.45 38.5934 450.36ZM44.4767 454V447.7H45.7367V454H44.4767ZM45.1067 445.18C45.5407 445.18 45.8767 445.516 45.8767 445.95C45.8767 446.384 45.5407 446.72 45.1067 446.72C44.6727 446.72 44.3367 446.384 44.3367 445.95C44.3367 445.516 44.6727 445.18 45.1067 445.18ZM47.3462 454.42H48.6062C48.8162 454.854 49.2362 455.26 50.0762 455.26C51.0702 455.26 51.6862 454.63 51.6862 453.72V453.09C51.5602 453.216 51.4202 453.342 51.2522 453.44C50.9582 453.622 50.5382 453.79 49.9362 453.79C48.3962 453.79 47.0662 452.446 47.0662 450.71C47.0662 448.974 48.3962 447.63 49.9362 447.63C50.5662 447.63 51.0282 447.812 51.3222 447.98C51.4902 448.078 51.6302 448.204 51.7562 448.33L52.0362 447.7H52.9462V453.72C52.9462 455.26 51.8262 456.38 50.0762 456.38C48.5502 456.38 47.6122 455.47 47.3462 454.42ZM50.0902 452.6C50.9862 452.6 51.8262 451.76 51.8262 450.71C51.8262 449.66 50.9862 448.82 50.0762 448.82C49.1662 448.82 48.3262 449.66 48.3262 450.71C48.3262 451.76 49.1662 452.6 50.0902 452.6ZM54.6913 454V445.18H55.9513V448.33C56.0773 448.204 56.2313 448.078 56.3993 447.98C56.6933 447.812 57.1413 447.63 57.7013 447.63C59.1013 447.63 60.2213 448.75 60.2213 450.36V454H58.9613V450.36C58.9613 449.534 58.2753 448.82 57.4913 448.82C56.6373 448.82 55.9513 449.534 55.9513 450.36V454H54.6913ZM62.3863 451.9V448.89H61.2663V447.7H61.7563C62.2463 447.7 62.5963 447.35 62.5963 446.86V446.02H63.6463V447.7H65.0463V448.89H63.6463V451.9C63.6463 452.46 64.0663 452.88 64.6263 452.88C64.7243 452.88 64.8223 452.866 64.9203 452.852L65.0463 452.81V453.93C64.9903 453.958 64.9203 453.986 64.8503 454C64.7103 454.042 64.5423 454.07 64.3463 454.07C63.2263 454.07 62.3863 453.23 62.3863 451.9ZM69.522 454.42H70.782C70.992 454.854 71.412 455.26 72.252 455.26C73.246 455.26 73.862 454.63 73.862 453.72V453.09C73.736 453.216 73.596 453.342 73.428 453.44C73.134 453.622 72.714 453.79 72.112 453.79C70.572 453.79 69.242 452.446 69.242 450.71C69.242 448.974 70.572 447.63 72.112 447.63C72.742 447.63 73.204 447.812 73.498 447.98C73.666 448.078 73.806 448.204 73.932 448.33L74.212 447.7H75.122V453.72C75.122 455.26 74.002 456.38 72.252 456.38C70.726 456.38 69.788 455.47 69.522 454.42ZM72.266 452.6C73.162 452.6 74.002 451.76 74.002 450.71C74.002 449.66 73.162 448.82 72.252 448.82C71.342 448.82 70.502 449.66 70.502 450.71C70.502 451.76 71.342 452.6 72.266 452.6ZM79.457 452.88C80.367 452.88 81.207 452.04 81.207 450.85C81.207 449.66 80.367 448.82 79.457 448.82C78.547 448.82 77.707 449.66 77.707 450.85C77.707 452.04 78.547 452.88 79.457 452.88ZM79.457 454.07C77.777 454.07 76.447 452.74 76.447 450.85C76.447 448.96 77.777 447.63 79.457 447.63C81.137 447.63 82.467 448.96 82.467 450.85C82.467 452.74 81.137 454.07 79.457 454.07ZM87.787 454L87.507 453.37C87.381 453.496 87.241 453.622 87.073 453.72C86.779 453.902 86.317 454.07 85.687 454.07C84.287 454.07 83.517 453.3 83.517 452.18C83.517 450.92 84.357 450.08 87.437 450.08V449.87C87.437 449.24 87.031 448.82 86.247 448.82C85.407 448.82 85.057 449.156 84.987 449.59H83.727C83.797 448.47 84.693 447.63 86.247 447.63C87.717 447.63 88.697 448.61 88.697 449.87V454H87.787ZM87.437 451.536V451.2C85.197 451.2 84.777 451.62 84.777 452.25C84.777 452.6 85.127 452.95 85.757 452.95C86.821 452.95 87.437 452.32 87.437 451.536ZM90.3748 454V445.18H91.6348V454H90.3748ZM92.961 448.47C92.961 448.036 93.297 447.7 93.731 447.7C94.165 447.7 94.501 448.036 94.501 448.47C94.501 448.904 94.165 449.24 93.731 449.24C93.297 449.24 92.961 448.904 92.961 448.47ZM92.961 453.3C92.961 452.866 93.297 452.53 93.731 452.53C94.165 452.53 94.501 452.866 94.501 453.3C94.501 453.734 94.165 454.07 93.731 454.07C93.297 454.07 92.961 453.734 92.961 453.3Z" fill="#A1A1AA"/>
<path d="M29 482V472.5L27.5 473.5L26.3 471.7L29.6 469.4H31.4V482H29ZM33.4992 482V480.3L38.0992 475.5C38.3592 475.24 38.5792 474.98 38.7992 474.72C39.1392 474.26 39.4992 473.66 39.4992 473.1C39.4992 472.08 38.8992 471.5 37.6992 471.5C36.4992 471.5 35.7992 472.18 35.7992 473.3H33.3992C33.3992 471 35.0992 469.3 37.6992 469.3C40.3992 469.3 41.9992 470.9 41.9992 473C41.9992 473.96 41.4192 474.92 40.8392 475.66C40.4992 476.1 40.1192 476.52 39.6992 476.9L36.9992 479.7H41.8992V482H33.4992ZM48.7969 471.6C47.3969 471.6 45.9969 473 45.9969 475.7C45.9969 478.4 47.3969 479.8 48.7969 479.8C50.1969 479.8 51.5969 478.4 51.5969 475.7C51.5969 473 50.1969 471.6 48.7969 471.6ZM48.7969 469.3C51.5969 469.3 53.9969 471.7 53.9969 475.7C53.9969 479.7 51.5969 482.1 48.7969 482.1C45.9969 482.1 43.5969 479.7 43.5969 475.7C43.5969 471.7 45.9969 469.3 48.7969 469.3ZM55.8891 482V469.4H58.1891V476.6L60.9891 472.8H63.5891L60.2891 477.2L63.9891 482H61.3891L58.1891 477.8V482H55.8891ZM64.5977 482.4H66.8977C66.9977 482.58 67.1177 482.72 67.2777 482.86C67.5777 483.08 67.9977 483.3 68.6977 483.3C69.9977 483.3 70.7977 482.52 70.7977 481.4V480.7C70.6177 480.88 70.3977 481.06 70.1577 481.2C69.7377 481.46 69.1377 481.7 68.3977 481.7C66.0777 481.7 64.1977 479.8 64.1977 477.2C64.1977 474.6 66.0777 472.7 68.3977 472.7C69.1977 472.7 69.8377 472.96 70.2977 473.2C70.5577 473.34 70.7777 473.52 70.9977 473.7L71.3977 472.8H73.0977V481.4C73.0977 483.8 71.4977 485.4 68.6977 485.4C66.9977 485.4 65.9977 484.68 65.3777 483.9C65.0377 483.46 64.7777 482.96 64.5977 482.4ZM68.6977 479.5C69.8777 479.5 70.8977 478.48 70.8977 477.2C70.8977 475.92 69.8777 474.9 68.6977 474.9C67.4777 474.9 66.4977 475.92 66.4977 477.2C66.4977 478.48 67.4777 479.5 68.6977 479.5Z" fill="#FFA05C"/>
<path d="M131.87 454V446.44H129.21V445.18H135.86V446.44H133.2V454H131.87ZM136.908 454V447.7H138.168V454H136.908ZM137.538 445.18C137.972 445.18 138.308 445.516 138.308 445.95C138.308 446.384 137.972 446.72 137.538 446.72C137.104 446.72 136.768 446.384 136.768 445.95C136.768 445.516 137.104 445.18 137.538 445.18ZM139.848 454V447.7H140.758L141.038 448.33C141.15 448.204 141.29 448.078 141.444 447.98C141.71 447.812 142.088 447.63 142.578 447.63C143.18 447.63 143.6 447.882 143.894 448.12C144.062 448.274 144.202 448.428 144.328 448.61C144.454 448.428 144.622 448.274 144.804 448.12C145.126 447.882 145.588 447.63 146.218 447.63C147.394 447.63 148.388 448.596 148.388 450.22V454H147.128V450.22C147.128 449.38 146.568 448.82 145.938 448.82C145.308 448.82 144.748 449.38 144.748 450.22V454H143.488V450.22C143.488 449.38 142.928 448.82 142.298 448.82C141.668 448.82 141.108 449.38 141.108 450.22V454H139.848ZM154.052 452.18H155.382C154.976 453.23 154.122 454.07 152.652 454.07C150.972 454.07 149.642 452.74 149.642 450.85C149.642 448.96 150.958 447.63 152.582 447.63C154.206 447.63 155.522 448.96 155.522 450.85C155.522 451.004 155.494 451.144 155.48 451.242L155.452 451.41H150.972C151.042 452.194 151.742 452.88 152.652 452.88C153.422 452.88 153.842 452.46 154.052 452.18ZM150.972 450.36H154.332C154.178 449.45 153.576 448.82 152.582 448.82C151.742 448.82 151.126 449.45 150.972 450.36ZM160.002 454V445.18H161.262V454H160.002ZM167.068 452.18H168.398C167.992 453.23 167.138 454.07 165.668 454.07C163.988 454.07 162.658 452.74 162.658 450.85C162.658 448.96 163.974 447.63 165.598 447.63C167.222 447.63 168.538 448.96 168.538 450.85C168.538 451.004 168.51 451.144 168.496 451.242L168.468 451.41H163.988C164.058 452.194 164.758 452.88 165.668 452.88C166.438 452.88 166.858 452.46 167.068 452.18ZM163.988 450.36H167.348C167.194 449.45 166.592 448.82 165.598 448.82C164.758 448.82 164.142 449.45 163.988 450.36ZM170.081 454V448.89H169.311V447.7H170.081V447.28C170.081 445.95 170.921 445.11 172.041 445.11C172.251 445.11 172.419 445.138 172.545 445.18L172.741 445.25V446.37L172.615 446.342C172.517 446.328 172.419 446.3 172.321 446.3C171.761 446.3 171.341 446.72 171.341 447.28V447.7H172.741V448.89H171.341V454H170.081ZM174.423 451.9V448.89H173.303V447.7H173.793C174.283 447.7 174.633 447.35 174.633 446.86V446.02H175.683V447.7H177.083V448.89H175.683V451.9C175.683 452.46 176.103 452.88 176.663 452.88C176.761 452.88 176.859 452.866 176.957 452.852L177.083 452.81V453.93C177.027 453.958 176.957 453.986 176.887 454C176.747 454.042 176.579 454.07 176.383 454.07C175.263 454.07 174.423 453.23 174.423 451.9ZM182.189 451.9V448.89H181.069V447.7H181.559C182.049 447.7 182.399 447.35 182.399 446.86V446.02H183.449V447.7H184.849V448.89H183.449V451.9C183.449 452.46 183.869 452.88 184.429 452.88C184.527 452.88 184.625 452.866 184.723 452.852L184.849 452.81V453.93C184.793 453.958 184.723 453.986 184.653 454C184.513 454.042 184.345 454.07 184.149 454.07C183.029 454.07 182.189 453.23 182.189 451.9ZM188.842 452.88C189.752 452.88 190.592 452.04 190.592 450.85C190.592 449.66 189.752 448.82 188.842 448.82C187.932 448.82 187.092 449.66 187.092 450.85C187.092 452.04 187.932 452.88 188.842 452.88ZM188.842 454.07C187.162 454.07 185.832 452.74 185.832 450.85C185.832 448.96 187.162 447.63 188.842 447.63C190.522 447.63 191.852 448.96 191.852 450.85C191.852 452.74 190.522 454.07 188.842 454.07ZM196.188 454.42H197.448C197.658 454.854 198.078 455.26 198.918 455.26C199.912 455.26 200.528 454.63 200.528 453.72V453.09C200.402 453.216 200.262 453.342 200.094 453.44C199.8 453.622 199.38 453.79 198.778 453.79C197.238 453.79 195.908 452.446 195.908 450.71C195.908 448.974 197.238 447.63 198.778 447.63C199.408 447.63 199.87 447.812 200.164 447.98C200.332 448.078 200.472 448.204 200.598 448.33L200.878 447.7H201.788V453.72C201.788 455.26 200.668 456.38 198.918 456.38C197.392 456.38 196.454 455.47 196.188 454.42ZM198.932 452.6C199.828 452.6 200.668 451.76 200.668 450.71C200.668 449.66 199.828 448.82 198.918 448.82C198.008 448.82 197.168 449.66 197.168 450.71C197.168 451.76 198.008 452.6 198.932 452.6ZM206.123 452.88C207.033 452.88 207.873 452.04 207.873 450.85C207.873 449.66 207.033 448.82 206.123 448.82C205.213 448.82 204.373 449.66 204.373 450.85C204.373 452.04 205.213 452.88 206.123 452.88ZM206.123 454.07C204.443 454.07 203.113 452.74 203.113 450.85C203.113 448.96 204.443 447.63 206.123 447.63C207.803 447.63 209.133 448.96 209.133 450.85C209.133 452.74 207.803 454.07 206.123 454.07ZM214.453 454L214.173 453.37C214.047 453.496 213.907 453.622 213.739 453.72C213.445 453.902 212.983 454.07 212.353 454.07C210.953 454.07 210.183 453.3 210.183 452.18C210.183 450.92 211.023 450.08 214.103 450.08V449.87C214.103 449.24 213.697 448.82 212.913 448.82C212.073 448.82 211.723 449.156 211.653 449.59H210.393C210.463 448.47 211.359 447.63 212.913 447.63C214.383 447.63 215.363 448.61 215.363 449.87V454H214.453ZM214.103 451.536V451.2C211.863 451.2 211.443 451.62 211.443 452.25C211.443 452.6 211.793 452.95 212.423 452.95C213.487 452.95 214.103 452.32 214.103 451.536ZM217.041 454V445.18H218.301V454H217.041ZM219.627 448.47C219.627 448.036 219.963 447.7 220.397 447.7C220.831 447.7 221.167 448.036 221.167 448.47C221.167 448.904 220.831 449.24 220.397 449.24C219.963 449.24 219.627 448.904 219.627 448.47ZM219.627 453.3C219.627 452.866 219.963 452.53 220.397 452.53C220.831 452.53 221.167 452.866 221.167 453.3C221.167 453.734 220.831 454.07 220.397 454.07C219.963 454.07 219.627 453.734 219.627 453.3Z" fill="#A1A1AA"/>
<path d="M131.4 483V474.68L129.96 475.64L129.4 474.68L131.88 472.92H132.68V483H131.4ZM138.433 481.96C139.777 481.96 141.073 480.696 141.073 477.96C141.073 475.224 139.777 473.96 138.433 473.96C137.089 473.96 135.793 475.224 135.793 477.96C135.793 480.696 137.089 481.96 138.433 481.96ZM138.433 483.08C136.337 483.08 134.513 481.24 134.513 477.96C134.513 474.68 136.337 472.84 138.433 472.84C140.513 472.84 142.353 474.68 142.353 477.96C142.353 481.24 140.513 483.08 138.433 483.08ZM142.906 485.88L147.066 472.92H148.186L144.026 485.88H142.906ZM150.428 483L152.668 479.64L152.508 479.688C152.396 479.704 152.284 479.72 152.108 479.72C150.188 479.72 148.668 478.2 148.668 476.28C148.668 474.36 150.188 472.84 152.108 472.84C154.028 472.84 155.548 474.36 155.548 476.28C155.548 476.92 155.34 477.528 155.1 477.96C154.972 478.232 154.828 478.472 154.668 478.68L151.788 483H150.428ZM154.268 476.28C154.268 474.936 153.308 473.96 152.108 473.96C150.908 473.96 149.948 474.92 149.948 476.28C149.948 477.56 150.908 478.52 152.108 478.52C153.308 478.52 154.268 477.56 154.268 476.28ZM156.109 485.88L160.269 472.92H161.389L157.229 485.88H156.109ZM162.111 483V482.04L166.111 477.64C166.287 477.448 166.447 477.24 166.591 477.032C166.831 476.664 167.071 476.168 167.071 475.64C167.071 474.68 166.367 473.96 165.231 473.96C164.095 473.96 163.311 474.744 163.311 475.88H162.031C162.031 474.2 163.391 472.84 165.231 472.84C167.071 472.84 168.351 474.12 168.351 475.64C168.351 476.36 167.999 477.048 167.663 477.544C167.471 477.832 167.247 478.104 166.991 478.36L163.791 481.88H168.351V483H162.111ZM173.558 481.96C174.902 481.96 176.198 480.696 176.198 477.96C176.198 475.224 174.902 473.96 173.558 473.96C172.214 473.96 170.918 475.224 170.918 477.96C170.918 480.696 172.214 481.96 173.558 481.96ZM173.558 483.08C171.462 483.08 169.638 481.24 169.638 477.96C169.638 474.68 171.462 472.84 173.558 472.84C175.638 472.84 177.478 474.68 177.478 477.96C177.478 481.24 175.638 483.08 173.558 483.08ZM178.751 483V482.04L182.751 477.64C182.927 477.448 183.087 477.24 183.231 477.032C183.471 476.664 183.711 476.168 183.711 475.64C183.711 474.68 183.007 473.96 181.871 473.96C180.735 473.96 179.951 474.744 179.951 475.88H178.671C178.671 474.2 180.031 472.84 181.871 472.84C183.711 472.84 184.991 474.12 184.991 475.64C184.991 476.36 184.639 477.048 184.303 477.544C184.111 477.832 183.887 478.104 183.631 478.36L180.431 481.88H184.991V483H178.751ZM186.199 480.44H187.479C187.655 481.256 188.343 481.96 189.479 481.96C190.759 481.96 191.559 481.16 191.559 480.2C191.559 479.224 190.759 478.44 189.479 478.44H188.919V477.32H189.399C190.535 477.32 191.239 476.6 191.239 475.64C191.239 474.68 190.535 473.96 189.399 473.96C188.359 473.96 187.639 474.68 187.559 475.48H186.279C186.455 474.024 187.639 472.84 189.399 472.84C191.239 472.84 192.519 474.12 192.519 475.64C192.519 476.36 192.167 476.888 191.799 477.224C191.591 477.416 191.351 477.576 191.079 477.72C191.399 477.864 191.687 478.04 191.959 478.264C192.391 478.648 192.839 479.288 192.839 480.2C192.839 481.72 191.479 483.08 189.479 483.08C187.623 483.08 186.455 481.896 186.199 480.44Z" fill="white"/>
<g clip-path="url(#clip3_234_2924)">
<path d="M334.128 460.555L325 469.681V472H327.319L336.446 462.873L334.128 460.555Z" fill="#FFA05C"/>
<path d="M339.52 457.48C339.212 457.172 338.795 457 338.361 457C337.926 457 337.509 457.172 337.201 457.48L335.014 459.67L337.332 461.989L339.519 459.801C339.672 459.649 339.793 459.468 339.876 459.269C339.958 459.07 340.001 458.856 340.001 458.641C340.001 458.425 339.959 458.211 339.876 458.012C339.793 457.813 339.672 457.632 339.52 457.48Z" fill="#FFA05C"/>
</g>
<path d="M19.28 525L16.16 514.92H17.68L19.84 521.88L21.92 514.92H22.88L24.96 521.88L27.12 514.92H28.64L25.52 525H24.48L22.4 518.28L20.32 525H19.28ZM33.9125 522.92H35.4325C34.9685 524.12 33.9925 525.08 32.3125 525.08C30.3925 525.08 28.8725 523.56 28.8725 521.4C28.8725 519.24 30.3765 517.72 32.2325 517.72C34.0885 517.72 35.5925 519.24 35.5925 521.4C35.5925 521.576 35.5605 521.736 35.5445 521.848L35.5125 522.04H30.3925C30.4725 522.936 31.2725 523.72 32.3125 523.72C33.1925 523.72 33.6725 523.24 33.9125 522.92ZM30.3925 520.84H34.2325C34.0565 519.8 33.3685 519.08 32.2325 519.08C31.2725 519.08 30.5685 519.8 30.3925 520.84ZM41.7563 522.92H43.2763C42.8123 524.12 41.8363 525.08 40.1562 525.08C38.2363 525.08 36.7163 523.56 36.7163 521.4C36.7163 519.24 38.2203 517.72 40.0763 517.72C41.9323 517.72 43.4363 519.24 43.4363 521.4C43.4363 521.576 43.4043 521.736 43.3883 521.848L43.3563 522.04H38.2363C38.3163 522.936 39.1163 523.72 40.1562 523.72C41.0363 523.72 41.5163 523.24 41.7563 522.92ZM38.2363 520.84H42.0763C41.9003 519.8 41.2123 519.08 40.0763 519.08C39.1163 519.08 38.4123 519.8 38.2363 520.84ZM45.04 525V514.92H46.48V520.92L48.96 517.8H50.64L47.84 521.16L51.04 525H49.28L46.48 521.56V525H45.04ZM51.915 525V514.92H53.355V525H51.915ZM55.7506 527.56V526.36C56.5666 526.36 56.9346 525.976 57.1106 525.48L57.3506 524.76L54.5506 517.8H56.0706L58.0706 523L60.0706 517.8H61.5906L58.5506 525.48C57.9106 527.08 57.3506 527.64 56.2306 527.64C56.1026 527.64 56.0066 527.624 55.8946 527.608L55.7506 527.56ZM67.8256 525L65.4256 517.8H66.8656L68.4656 522.76L70.0656 517.8H71.0256L72.6256 522.76L74.2256 517.8H75.6656L73.2656 525H72.0656L70.5456 520.28L69.0256 525H67.8256ZM81.4281 522.92H82.9481C82.4841 524.12 81.5081 525.08 79.8281 525.08C77.9081 525.08 76.3881 523.56 76.3881 521.4C76.3881 519.24 77.8921 517.72 79.7481 517.72C81.6041 517.72 83.1081 519.24 83.1081 521.4C83.1081 521.576 83.0761 521.736 83.0601 521.848L83.0281 522.04H77.9081C77.9881 522.936 78.7881 523.72 79.8281 523.72C80.7081 523.72 81.1881 523.24 81.4281 522.92ZM77.9081 520.84H81.7481C81.5721 519.8 80.8841 519.08 79.7481 519.08C78.7881 519.08 78.0841 519.8 77.9081 520.84ZM84.6319 525V517.8H86.0719V525H84.6319ZM85.3519 514.92C85.8479 514.92 86.2319 515.304 86.2319 515.8C86.2319 516.296 85.8479 516.68 85.3519 516.68C84.8559 516.68 84.4719 516.296 84.4719 515.8C84.4719 515.304 84.8559 514.92 85.3519 514.92ZM87.9113 525.48H89.3513C89.5913 525.976 90.0713 526.44 91.0312 526.44C92.1673 526.44 92.8713 525.72 92.8713 524.68V523.96C92.7273 524.104 92.5673 524.248 92.3753 524.36C92.0393 524.568 91.5593 524.76 90.8713 524.76C89.1113 524.76 87.5913 523.224 87.5913 521.24C87.5913 519.256 89.1113 517.72 90.8713 517.72C91.5913 517.72 92.1193 517.928 92.4553 518.12C92.6473 518.232 92.8073 518.376 92.9513 518.52L93.2713 517.8H94.3113V524.68C94.3113 526.44 93.0313 527.72 91.0312 527.72C89.2873 527.72 88.2153 526.68 87.9113 525.48ZM91.0473 523.4C92.0713 523.4 93.0313 522.44 93.0313 521.24C93.0313 520.04 92.0713 519.08 91.0312 519.08C89.9913 519.08 89.0312 520.04 89.0312 521.24C89.0312 522.44 89.9913 523.4 91.0473 523.4ZM96.3056 525V514.92H97.7456V518.52C97.8896 518.376 98.0656 518.232 98.2576 518.12C98.5936 517.928 99.1056 517.72 99.7456 517.72C101.346 517.72 102.626 519 102.626 520.84V525H101.186V520.84C101.186 519.896 100.402 519.08 99.5056 519.08C98.5296 519.08 97.7456 519.896 97.7456 520.84V525H96.3056ZM105.1 522.6V519.16H103.82V517.8H104.38C104.94 517.8 105.34 517.4 105.34 516.84V515.88H106.54V517.8H108.14V519.16H106.54V522.6C106.54 523.24 107.02 523.72 107.66 523.72C107.772 523.72 107.884 523.704 107.996 523.688L108.14 523.64V524.92C108.076 524.952 107.996 524.984 107.916 525C107.756 525.048 107.564 525.08 107.34 525.08C106.06 525.08 105.1 524.12 105.1 522.6ZM113.415 525V514.92H114.855V525H113.415ZM119.891 523.72C120.931 523.72 121.891 522.76 121.891 521.4C121.891 520.04 120.931 519.08 119.891 519.08C118.851 519.08 117.891 520.04 117.891 521.4C117.891 522.76 118.851 523.72 119.891 523.72ZM119.891 525.08C117.971 525.08 116.451 523.56 116.451 521.4C116.451 519.24 117.971 517.72 119.891 517.72C121.811 517.72 123.331 519.24 123.331 521.4C123.331 523.56 121.811 525.08 119.891 525.08ZM124.771 525.48H126.211C126.451 525.976 126.931 526.44 127.891 526.44C129.027 526.44 129.731 525.72 129.731 524.68V523.96C129.587 524.104 129.427 524.248 129.235 524.36C128.899 524.568 128.419 524.76 127.731 524.76C125.971 524.76 124.451 523.224 124.451 521.24C124.451 519.256 125.971 517.72 127.731 517.72C128.451 517.72 128.979 517.928 129.315 518.12C129.507 518.232 129.667 518.376 129.811 518.52L130.131 517.8H131.171V524.68C131.171 526.44 129.891 527.72 127.891 527.72C126.147 527.72 125.075 526.68 124.771 525.48ZM127.907 523.4C128.931 523.4 129.891 522.44 129.891 521.24C129.891 520.04 128.931 519.08 127.891 519.08C126.851 519.08 125.891 520.04 125.891 521.24C125.891 522.44 126.851 523.4 127.907 523.4Z" fill="white"/>
<rect x="16.5" y="538.5" width="342" height="54" rx="3.5" stroke="url(#paint12_linear_234_2924)"/>
<path d="M23.92 570L27.68 559.92H29.44L33.2 570H31.2L30.48 567.92H26.64L25.92 570H23.92ZM27.28 566.16H29.84L28.56 562.48L27.28 566.16ZM39.445 570L39.125 569.28C38.949 569.424 38.773 569.568 38.565 569.68C38.197 569.888 37.685 570.08 37.045 570.08C35.205 570.08 33.605 568.496 33.605 566.32C33.605 564.144 35.205 562.56 37.045 562.56C37.637 562.56 38.117 562.752 38.453 562.928C38.645 563.04 38.821 563.152 38.965 563.28V559.92H40.805V570H39.445ZM37.285 568.32C38.325 568.32 39.125 567.536 39.125 566.32C39.125 565.104 38.325 564.32 37.285 564.32C36.245 564.32 35.445 565.104 35.445 566.32C35.445 567.536 36.245 568.32 37.285 568.32ZM48.0075 570L47.6875 569.28C47.5115 569.424 47.3355 569.568 47.1275 569.68C46.7595 569.888 46.2475 570.08 45.6075 570.08C43.7675 570.08 42.1675 568.496 42.1675 566.32C42.1675 564.144 43.7675 562.56 45.6075 562.56C46.1995 562.56 46.6795 562.752 47.0155 562.928C47.2075 563.04 47.3835 563.152 47.5275 563.28V559.92H49.3675V570H48.0075ZM45.8475 568.32C46.8875 568.32 47.6875 567.536 47.6875 566.32C47.6875 565.104 46.8875 564.32 45.8475 564.32C44.8075 564.32 44.0075 565.104 44.0075 566.32C44.0075 567.536 44.8075 568.32 45.8475 568.32ZM54.7238 570V562.64H56.0838L56.4038 563.36C56.5798 563.216 56.7878 563.072 56.9958 562.96C57.3638 562.768 57.8598 562.56 58.4838 562.56C60.2278 562.56 61.4438 563.76 61.4438 565.68V570H59.6038V565.92C59.6038 564.96 58.9798 564.32 58.0838 564.32C57.1878 564.32 56.5638 564.96 56.5638 565.92V570H54.7238ZM67.77 567.76H69.69C69.306 568.864 68.074 570.08 66.41 570.08C64.426 570.08 62.73 568.4 62.73 566.32C62.73 564.24 64.426 562.56 66.41 562.56C68.33 562.56 69.93 564.08 69.93 566.32C69.93 566.496 69.898 566.656 69.882 566.8L69.85 567.04H64.73C64.906 567.76 65.45 568.32 66.41 568.32C66.906 568.32 67.21 568.192 67.45 568.048C67.578 567.968 67.69 567.872 67.77 567.76ZM64.65 565.76H68.17C67.994 564.944 67.37 564.32 66.41 564.32C65.45 564.32 64.826 564.944 64.65 565.76ZM72.8863 570L70.4863 562.64H72.3263L73.7663 567.36L75.2863 562.64H76.4063L77.9263 567.36L79.3663 562.64H81.2063L78.8063 570H77.2063L75.8463 565.6L74.4863 570H72.8863ZM87.355 570L84.955 562.64H86.795L88.235 567.36L89.755 562.64H90.875L92.395 567.36L93.835 562.64H95.675L93.275 570H91.675L90.315 565.6L88.955 570H87.355ZM101.27 567.76H103.19C102.806 568.864 101.574 570.08 99.91 570.08C97.926 570.08 96.23 568.4 96.23 566.32C96.23 564.24 97.926 562.56 99.91 562.56C101.83 562.56 103.43 564.08 103.43 566.32C103.43 566.496 103.398 566.656 103.382 566.8L103.35 567.04H98.23C98.406 567.76 98.95 568.32 99.91 568.32C100.406 568.32 100.71 568.192 100.95 568.048C101.078 567.968 101.19 567.872 101.27 567.76ZM98.15 565.76H101.67C101.494 564.944 100.87 564.32 99.91 564.32C98.95 564.32 98.326 564.944 98.15 565.76ZM104.786 570V562.64H106.626V570H104.786ZM105.746 561.76C105.186 561.76 104.706 561.28 104.706 560.72C104.706 560.16 105.186 559.68 105.746 559.68C106.306 559.68 106.786 560.16 106.786 560.72C106.786 561.28 106.306 561.76 105.746 561.76ZM108.3 570.32H110.14C110.22 570.464 110.316 570.576 110.444 570.688C110.684 570.864 111.02 571.04 111.58 571.04C112.62 571.04 113.26 570.416 113.26 569.52V568.96C113.116 569.104 112.94 569.248 112.748 569.36C112.412 569.568 111.932 569.76 111.34 569.76C109.484 569.76 107.98 568.24 107.98 566.16C107.98 564.08 109.484 562.56 111.34 562.56C111.98 562.56 112.492 562.768 112.86 562.96C113.068 563.072 113.244 563.216 113.42 563.36L113.74 562.64H115.1V569.52C115.1 571.44 113.82 572.72 111.58 572.72C110.22 572.72 109.42 572.144 108.924 571.52C108.652 571.168 108.444 570.768 108.3 570.32ZM111.58 568C112.524 568 113.34 567.184 113.34 566.16C113.34 565.136 112.524 564.32 111.58 564.32C110.604 564.32 109.82 565.136 109.82 566.16C109.82 567.184 110.604 568 111.58 568ZM116.864 570V559.92H118.704V563.36C118.848 563.216 119.008 563.072 119.2 562.96C119.536 562.768 120.064 562.56 120.784 562.56C122.384 562.56 123.584 563.76 123.584 565.68V570H121.744V565.92C121.744 564.96 121.12 564.32 120.224 564.32C119.328 564.32 118.704 564.96 118.704 565.92V570H116.864ZM125.831 567.44V564.32H124.711V562.8H125.191C125.783 562.8 126.071 562.512 126.071 561.92V560.88H127.671V562.64H129.271V564.32H127.671V567.36C127.671 568 128.071 568.4 128.711 568.4C128.887 568.4 128.983 568.384 129.063 568.368L129.191 568.32V569.92C129.111 569.952 129.031 569.984 128.935 570C128.759 570.048 128.551 570.08 128.311 570.08C126.855 570.08 125.831 569.04 125.831 567.44Z" fill="white"/>
<rect x="159" y="552.5" width="137" height="26" rx="4" fill="#3F3F46"/>
<g clip-path="url(#clip4_234_2924)">
<path d="M343 564.667H333.833V555.5H332.167V564.667H323V566.333H332.167V575.5H333.833V566.333H343V564.667Z" fill="url(#paint13_linear_234_2924)"/>
</g>
<rect x="16" y="601" width="343" height="55" rx="8" fill="url(#paint14_radial_234_2924)"/>
<rect x="16.5" y="601.5" width="342" height="54" rx="7.5" stroke="url(#paint15_linear_234_2924)" stroke-opacity="0.4"/>
<path d="M33.28 633L30.16 622.92H31.68L33.84 629.88L35.92 622.92H36.88L38.96 629.88L41.12 622.92H42.64L39.52 633H38.48L36.4 626.28L34.32 633H33.28ZM47.9125 630.92H49.4325C48.9685 632.12 47.9925 633.08 46.3125 633.08C44.3925 633.08 42.8725 631.56 42.8725 629.4C42.8725 627.24 44.3765 625.72 46.2325 625.72C48.0885 625.72 49.5925 627.24 49.5925 629.4C49.5925 629.576 49.5605 629.736 49.5445 629.848L49.5125 630.04H44.3925C44.4725 630.936 45.2725 631.72 46.3125 631.72C47.1925 631.72 47.6725 631.24 47.9125 630.92ZM44.3925 628.84H48.2325C48.0565 627.8 47.3685 627.08 46.2325 627.08C45.2725 627.08 44.5685 627.8 44.3925 628.84ZM55.7563 630.92H57.2763C56.8123 632.12 55.8363 633.08 54.1562 633.08C52.2363 633.08 50.7163 631.56 50.7163 629.4C50.7163 627.24 52.2203 625.72 54.0763 625.72C55.9323 625.72 57.4363 627.24 57.4363 629.4C57.4363 629.576 57.4043 629.736 57.3883 629.848L57.3563 630.04H52.2363C52.3163 630.936 53.1163 631.72 54.1562 631.72C55.0363 631.72 55.5163 631.24 55.7563 630.92ZM52.2363 628.84H56.0763C55.9003 627.8 55.2123 627.08 54.0763 627.08C53.1163 627.08 52.4123 627.8 52.2363 628.84ZM59.04 633V622.92H60.48V628.92L62.96 625.8H64.64L61.84 629.16L65.04 633H63.28L60.48 629.56V633H59.04ZM70.4706 633L72.7106 629.64L72.5346 629.688C72.4226 629.704 72.2626 629.72 72.0706 629.72C70.3906 629.72 68.8706 628.2 68.8706 626.28C68.8706 624.36 70.4066 622.84 72.3906 622.84C74.3746 622.84 75.9106 624.36 75.9106 626.28C75.9106 626.904 75.6706 627.512 75.4306 627.976C75.2866 628.248 75.1266 628.52 74.9506 628.76L72.1506 633H70.4706ZM72.3906 628.36C73.5106 628.36 74.3906 627.48 74.3906 626.28C74.3906 625.08 73.5106 624.2 72.3906 624.2C71.2706 624.2 70.3906 625.08 70.3906 626.28C70.3906 627.48 71.2706 628.36 72.3906 628.36Z" fill="white"/>
<path d="M186.4 633V625.4L185.2 626.2L184.24 624.76L186.88 622.92H188.32V633H186.4ZM189.839 630.12H191.759C191.839 630.68 192.463 631.32 193.359 631.32C194.319 631.32 194.959 630.68 194.959 629.96C194.959 629.24 194.399 628.68 193.359 628.68H192.479V627.08H193.279C194.319 627.08 194.799 626.6 194.799 625.88C194.799 625.16 194.255 624.6 193.359 624.6C192.463 624.6 191.919 625.16 191.839 625.72H189.919C189.999 624.2 191.359 622.84 193.359 622.84C195.359 622.84 196.719 624.184 196.719 625.64C196.719 626.36 196.399 626.888 196.079 627.224C195.887 627.416 195.679 627.576 195.439 627.72C195.711 627.864 195.967 628.04 196.191 628.264C196.575 628.648 196.959 629.288 196.959 630.2C196.959 631.64 195.535 633.08 193.439 633.08C191.183 633.08 189.919 631.8 189.839 630.12ZM202.316 624.68C201.196 624.68 200.076 625.8 200.076 627.96C200.076 630.12 201.196 631.24 202.316 631.24C203.436 631.24 204.556 630.12 204.556 627.96C204.556 625.8 203.436 624.68 202.316 624.68ZM202.316 622.84C204.556 622.84 206.476 624.76 206.476 627.96C206.476 631.16 204.556 633.08 202.316 633.08C200.076 633.08 198.156 631.16 198.156 627.96C198.156 624.76 200.076 622.84 202.316 622.84ZM207.989 633V622.92H209.829V628.68L212.069 625.64H214.149L211.509 629.16L214.469 633H212.389L209.829 629.64V633H207.989ZM214.956 633.32H216.796C216.876 633.464 216.972 633.576 217.1 633.688C217.34 633.864 217.676 634.04 218.236 634.04C219.276 634.04 219.916 633.416 219.916 632.52V631.96C219.772 632.104 219.596 632.248 219.404 632.36C219.068 632.568 218.588 632.76 217.996 632.76C216.14 632.76 214.636 631.24 214.636 629.16C214.636 627.08 216.14 625.56 217.996 625.56C218.636 625.56 219.148 625.768 219.516 625.96C219.724 626.072 219.9 626.216 220.076 626.36L220.396 625.64H221.756V632.52C221.756 634.44 220.476 635.72 218.236 635.72C216.876 635.72 216.076 635.144 215.58 634.52C215.308 634.168 215.1 633.768 214.956 633.32ZM218.236 631C219.18 631 219.996 630.184 219.996 629.16C219.996 628.136 219.18 627.32 218.236 627.32C217.26 627.32 216.476 628.136 216.476 629.16C216.476 630.184 217.26 631 218.236 631Z" fill="white"/>
<g clip-path="url(#clip5_234_2924)">
<path d="M339.128 622.555L330 631.682V634H332.319L341.446 624.873L339.128 622.555Z" fill="#FFA05C"/>
<path d="M344.52 619.48C344.212 619.172 343.795 619 343.361 619C342.926 619 342.509 619.172 342.201 619.48L340.014 621.67L342.332 623.989L344.519 621.801C344.672 621.649 344.793 621.468 344.876 621.269C344.958 621.07 345.001 620.856 345.001 620.641C345.001 620.425 344.959 620.211 344.876 620.012C344.793 619.813 344.672 619.632 344.52 619.48Z" fill="#FFA05C"/>
</g>
<rect x="16" y="664" width="343" height="55" rx="8" fill="url(#paint16_radial_234_2924)"/>
<rect x="16.5" y="664.5" width="342" height="54" rx="7.5" stroke="url(#paint17_linear_234_2924)" stroke-opacity="0.4"/>
<path d="M33.28 696L30.16 685.92H31.68L33.84 692.88L35.92 685.92H36.88L38.96 692.88L41.12 685.92H42.64L39.52 696H38.48L36.4 689.28L34.32 696H33.28ZM47.9125 693.92H49.4325C48.9685 695.12 47.9925 696.08 46.3125 696.08C44.3925 696.08 42.8725 694.56 42.8725 692.4C42.8725 690.24 44.3765 688.72 46.2325 688.72C48.0885 688.72 49.5925 690.24 49.5925 692.4C49.5925 692.576 49.5605 692.736 49.5445 692.848L49.5125 693.04H44.3925C44.4725 693.936 45.2725 694.72 46.3125 694.72C47.1925 694.72 47.6725 694.24 47.9125 693.92ZM44.3925 691.84H48.2325C48.0565 690.8 47.3685 690.08 46.2325 690.08C45.2725 690.08 44.5685 690.8 44.3925 691.84ZM55.7563 693.92H57.2763C56.8123 695.12 55.8363 696.08 54.1562 696.08C52.2363 696.08 50.7163 694.56 50.7163 692.4C50.7163 690.24 52.2203 688.72 54.0763 688.72C55.9323 688.72 57.4363 690.24 57.4363 692.4C57.4363 692.576 57.4043 692.736 57.3883 692.848L57.3563 693.04H52.2363C52.3163 693.936 53.1163 694.72 54.1562 694.72C55.0363 694.72 55.5163 694.24 55.7563 693.92ZM52.2363 691.84H56.0763C55.9003 690.8 55.2123 690.08 54.0763 690.08C53.1163 690.08 52.4123 690.8 52.2363 691.84ZM59.04 696V685.92H60.48V691.92L62.96 688.8H64.64L61.84 692.16L65.04 696H63.28L60.48 692.56V696H59.04ZM68.8706 693.12C68.8706 692.16 69.2706 691.52 69.6706 691.12C69.9106 690.88 70.1666 690.704 70.4706 690.56C70.2466 690.416 70.0386 690.256 69.8626 690.064C69.5586 689.728 69.2706 689.248 69.2706 688.56C69.2706 687.12 70.5506 685.84 72.3106 685.84C74.0706 685.84 75.3506 687.12 75.3506 688.56C75.3506 689.248 75.0466 689.728 74.7426 690.064C74.5666 690.256 74.3586 690.416 74.1506 690.56C74.4546 690.704 74.7106 690.88 74.9506 691.12C75.3506 691.52 75.7506 692.16 75.7506 693.12C75.7506 694.72 74.3906 696.08 72.3106 696.08C70.2306 696.08 68.8706 694.72 68.8706 693.12ZM70.3906 693.04C70.3906 694 71.0946 694.72 72.3106 694.72C73.5266 694.72 74.2306 694 74.2306 693.04C74.2306 692.08 73.5266 691.36 72.3106 691.36C71.0946 691.36 70.3906 692.08 70.3906 693.04ZM70.7906 688.64C70.7906 689.36 71.4146 690 72.3106 690C73.2066 690 73.8306 689.36 73.8306 688.64C73.8306 687.824 73.2066 687.2 72.3106 687.2C71.4146 687.2 70.7906 687.824 70.7906 688.64Z" fill="white"/>
<path d="M186.4 696V688.4L185.2 689.2L184.24 687.76L186.88 685.92H188.32V696H186.4ZM189.679 694.16V692.48L193.839 685.92H196.079V692.32H197.119V694.16H196.079V696H194.159V694.16H189.679ZM191.759 692.32H194.159V688.56L191.759 692.32ZM202.238 687.68C201.118 687.68 199.998 688.8 199.998 690.96C199.998 693.12 201.118 694.24 202.238 694.24C203.358 694.24 204.478 693.12 204.478 690.96C204.478 688.8 203.358 687.68 202.238 687.68ZM202.238 685.84C204.478 685.84 206.398 687.76 206.398 690.96C206.398 694.16 204.478 696.08 202.238 696.08C199.998 696.08 198.078 694.16 198.078 690.96C198.078 687.76 199.998 685.84 202.238 685.84ZM207.911 696V685.92H209.751V691.68L211.991 688.64H214.071L211.431 692.16L214.391 696H212.311L209.751 692.64V696H207.911ZM214.878 696.32H216.718C216.798 696.464 216.894 696.576 217.022 696.688C217.262 696.864 217.598 697.04 218.158 697.04C219.198 697.04 219.838 696.416 219.838 695.52V694.96C219.694 695.104 219.518 695.248 219.326 695.36C218.99 695.568 218.51 695.76 217.918 695.76C216.062 695.76 214.558 694.24 214.558 692.16C214.558 690.08 216.062 688.56 217.918 688.56C218.558 688.56 219.07 688.768 219.438 688.96C219.646 689.072 219.822 689.216 219.998 689.36L220.318 688.64H221.678V695.52C221.678 697.44 220.398 698.72 218.158 698.72C216.798 698.72 215.998 698.144 215.502 697.52C215.23 697.168 215.022 696.768 214.878 696.32ZM218.158 694C219.102 694 219.918 693.184 219.918 692.16C219.918 691.136 219.102 690.32 218.158 690.32C217.182 690.32 216.398 691.136 216.398 692.16C216.398 693.184 217.182 694 218.158 694Z" fill="white"/>
<g clip-path="url(#clip6_234_2924)">
<path d="M339.128 685.555L330 694.682V697H332.319L341.446 687.873L339.128 685.555Z" fill="#FFA05C"/>
<path d="M344.52 682.48C344.212 682.172 343.795 682 343.361 682C342.926 682 342.509 682.172 342.201 682.48L340.014 684.67L342.332 686.989L344.519 684.801C344.672 684.649 344.793 684.468 344.876 684.269C344.958 684.07 345.001 683.856 345.001 683.641C345.001 683.425 344.959 683.211 344.876 683.012C344.793 682.813 344.672 682.632 344.52 682.48Z" fill="#FFA05C"/>
</g>
<rect x="16" y="727" width="343" height="55" rx="8" fill="url(#paint18_radial_234_2924)"/>
<rect x="16.5" y="727.5" width="342" height="54" rx="7.5" stroke="url(#paint19_linear_234_2924)" stroke-opacity="0.4"/>
<path d="M34.28 759L31.16 748.92H32.68L34.84 755.88L36.92 748.92H37.88L39.96 755.88L42.12 748.92H43.64L40.52 759H39.48L37.4 752.28L35.32 759H34.28ZM48.9125 756.92H50.4325C49.9685 758.12 48.9925 759.08 47.3125 759.08C45.3925 759.08 43.8725 757.56 43.8725 755.4C43.8725 753.24 45.3765 751.72 47.2325 751.72C49.0885 751.72 50.5925 753.24 50.5925 755.4C50.5925 755.576 50.5605 755.736 50.5445 755.848L50.5125 756.04H45.3925C45.4725 756.936 46.2725 757.72 47.3125 757.72C48.1925 757.72 48.6725 757.24 48.9125 756.92ZM45.3925 754.84H49.2325C49.0565 753.8 48.3685 753.08 47.2325 753.08C46.2725 753.08 45.5685 753.8 45.3925 754.84ZM56.7563 756.92H58.2763C57.8123 758.12 56.8363 759.08 55.1562 759.08C53.2363 759.08 51.7163 757.56 51.7163 755.4C51.7163 753.24 53.2203 751.72 55.0763 751.72C56.9323 751.72 58.4363 753.24 58.4363 755.4C58.4363 755.576 58.4043 755.736 58.3883 755.848L58.3563 756.04H53.2363C53.3163 756.936 54.1163 757.72 55.1562 757.72C56.0363 757.72 56.5163 757.24 56.7563 756.92ZM53.2363 754.84H57.0763C56.9003 753.8 56.2123 753.08 55.0763 753.08C54.1163 753.08 53.4123 753.8 53.2363 754.84ZM60.04 759V748.92H61.48V754.92L63.96 751.8H65.64L62.84 755.16L66.04 759H64.28L61.48 755.56V759H60.04ZM70.5106 759L74.5106 750.36H69.9506V748.92H76.2706V749.96L72.1106 759H70.5106Z" fill="white"/>
<path d="M186.4 759V751.4L185.2 752.2L184.24 750.76L186.88 748.92H188.32V759H186.4ZM189.679 757.16V755.48L193.839 748.92H196.079V755.32H197.119V757.16H196.079V759H194.159V757.16H189.679ZM191.759 755.32H194.159V751.56L191.759 755.32ZM197.918 756.2H199.838C199.918 756.68 200.542 757.32 201.438 757.32C202.478 757.32 203.198 756.6 203.198 755.56C203.198 754.52 202.478 753.8 201.438 753.8C200.862 753.8 200.462 754.072 200.206 754.328C200.062 754.472 199.934 754.648 199.838 754.84H198.158L198.798 748.92H204.398V750.76H200.398L200.158 752.6C200.302 752.52 200.446 752.44 200.622 752.36C200.894 752.248 201.278 752.12 201.678 752.12C203.678 752.12 205.118 753.56 205.118 755.56C205.118 757.544 203.598 759.08 201.438 759.08C199.422 759.08 198.094 757.72 197.918 756.2ZM206.474 759V748.92H208.314V754.68L210.554 751.64H212.634L209.994 755.16L212.954 759H210.874L208.314 755.64V759H206.474ZM213.441 759.32H215.281C215.361 759.464 215.457 759.576 215.585 759.688C215.825 759.864 216.161 760.04 216.721 760.04C217.761 760.04 218.401 759.416 218.401 758.52V757.96C218.257 758.104 218.081 758.248 217.889 758.36C217.553 758.568 217.073 758.76 216.481 758.76C214.625 758.76 213.121 757.24 213.121 755.16C213.121 753.08 214.625 751.56 216.481 751.56C217.121 751.56 217.633 751.768 218.001 751.96C218.209 752.072 218.385 752.216 218.561 752.36L218.881 751.64H220.241V758.52C220.241 760.44 218.961 761.72 216.721 761.72C215.361 761.72 214.561 761.144 214.065 760.52C213.793 760.168 213.585 759.768 213.441 759.32ZM216.721 757C217.665 757 218.481 756.184 218.481 755.16C218.481 754.136 217.665 753.32 216.721 753.32C215.745 753.32 214.961 754.136 214.961 755.16C214.961 756.184 215.745 757 216.721 757Z" fill="white"/>
<g clip-path="url(#clip7_234_2924)">
<path d="M338.128 748.555L329 757.682V760H331.319L340.446 750.873L338.128 748.555Z" fill="#FFA05C"/>
<path d="M343.52 745.48C343.212 745.172 342.795 745 342.361 745C341.926 745 341.509 745.172 341.201 745.48L339.014 747.67L341.332 749.989L343.519 747.801C343.672 747.649 343.793 747.468 343.876 747.269C343.958 747.07 344.001 746.856 344.001 746.641C344.001 746.425 343.959 746.211 343.876 746.012C343.793 745.813 343.672 745.632 343.52 745.48Z" fill="#FFA05C"/>
</g>
<rect x="16" y="790" width="343" height="55" rx="8" fill="url(#paint20_radial_234_2924)"/>
<rect x="16.5" y="790.5" width="342" height="54" rx="7.5" stroke="url(#paint21_linear_234_2924)" stroke-opacity="0.4"/>
<path d="M33.28 822L30.16 811.92H31.68L33.84 818.88L35.92 811.92H36.88L38.96 818.88L41.12 811.92H42.64L39.52 822H38.48L36.4 815.28L34.32 822H33.28ZM47.9125 819.92H49.4325C48.9685 821.12 47.9925 822.08 46.3125 822.08C44.3925 822.08 42.8725 820.56 42.8725 818.4C42.8725 816.24 44.3765 814.72 46.2325 814.72C48.0885 814.72 49.5925 816.24 49.5925 818.4C49.5925 818.576 49.5605 818.736 49.5445 818.848L49.5125 819.04H44.3925C44.4725 819.936 45.2725 820.72 46.3125 820.72C47.1925 820.72 47.6725 820.24 47.9125 819.92ZM44.3925 817.84H48.2325C48.0565 816.8 47.3685 816.08 46.2325 816.08C45.2725 816.08 44.5685 816.8 44.3925 817.84ZM55.7563 819.92H57.2763C56.8123 821.12 55.8363 822.08 54.1562 822.08C52.2363 822.08 50.7163 820.56 50.7163 818.4C50.7163 816.24 52.2203 814.72 54.0763 814.72C55.9323 814.72 57.4363 816.24 57.4363 818.4C57.4363 818.576 57.4043 818.736 57.3883 818.848L57.3563 819.04H52.2363C52.3163 819.936 53.1163 820.72 54.1562 820.72C55.0363 820.72 55.5163 820.24 55.7563 819.92ZM52.2363 817.84H56.0763C55.9003 816.8 55.2123 816.08 54.0763 816.08C53.1163 816.08 52.4123 816.8 52.2363 817.84ZM59.04 822V811.92H60.48V817.92L62.96 814.8H64.64L61.84 818.16L65.04 822H63.28L60.48 818.56V822H59.04ZM69.8306 816.16L72.6306 811.92H74.3106L72.0706 815.28L72.2626 815.248C72.3746 815.232 72.5346 815.2 72.7106 815.2C74.3906 815.2 75.9106 816.72 75.9106 818.64C75.9106 820.56 74.3746 822.08 72.3906 822.08C70.4066 822.08 68.8706 820.56 68.8706 818.64C68.8706 818.048 69.1106 817.408 69.3506 816.944C69.4946 816.672 69.6546 816.4 69.8306 816.16ZM72.3906 820.72C73.5106 820.72 74.3906 819.84 74.3906 818.64C74.3906 817.44 73.5106 816.56 72.3906 816.56C71.2706 816.56 70.3906 817.44 70.3906 818.64C70.3906 819.84 71.2706 820.72 72.3906 820.72Z" fill="white"/>
<path d="M186.4 822V814.4L185.2 815.2L184.24 813.76L186.88 811.92H188.32V822H186.4ZM189.839 819.2H191.759C191.839 819.68 192.463 820.32 193.359 820.32C194.399 820.32 195.119 819.6 195.119 818.56C195.119 817.52 194.399 816.8 193.359 816.8C192.783 816.8 192.383 817.072 192.127 817.328C191.983 817.472 191.855 817.648 191.759 817.84H190.079L190.719 811.92H196.319V813.76H192.319L192.079 815.6C192.223 815.52 192.367 815.44 192.543 815.36C192.815 815.248 193.199 815.12 193.599 815.12C195.599 815.12 197.039 816.56 197.039 818.56C197.039 820.544 195.519 822.08 193.359 822.08C191.343 822.08 190.015 820.72 189.839 819.2ZM202.316 813.68C201.196 813.68 200.076 814.8 200.076 816.96C200.076 819.12 201.196 820.24 202.316 820.24C203.436 820.24 204.556 819.12 204.556 816.96C204.556 814.8 203.436 813.68 202.316 813.68ZM202.316 811.84C204.556 811.84 206.476 813.76 206.476 816.96C206.476 820.16 204.556 822.08 202.316 822.08C200.076 822.08 198.156 820.16 198.156 816.96C198.156 813.76 200.076 811.84 202.316 811.84ZM207.989 822V811.92H209.829V817.68L212.069 814.64H214.149L211.509 818.16L214.469 822H212.389L209.829 818.64V822H207.989ZM214.956 822.32H216.796C216.876 822.464 216.972 822.576 217.1 822.688C217.34 822.864 217.676 823.04 218.236 823.04C219.276 823.04 219.916 822.416 219.916 821.52V820.96C219.772 821.104 219.596 821.248 219.404 821.36C219.068 821.568 218.588 821.76 217.996 821.76C216.14 821.76 214.636 820.24 214.636 818.16C214.636 816.08 216.14 814.56 217.996 814.56C218.636 814.56 219.148 814.768 219.516 814.96C219.724 815.072 219.9 815.216 220.076 815.36L220.396 814.64H221.756V821.52C221.756 823.44 220.476 824.72 218.236 824.72C216.876 824.72 216.076 824.144 215.58 823.52C215.308 823.168 215.1 822.768 214.956 822.32ZM218.236 820C219.18 820 219.996 819.184 219.996 818.16C219.996 817.136 219.18 816.32 218.236 816.32C217.26 816.32 216.476 817.136 216.476 818.16C216.476 819.184 217.26 820 218.236 820Z" fill="white"/>
<g clip-path="url(#clip8_234_2924)">
<path d="M339.128 811.555L330 820.682V823H332.319L341.446 813.873L339.128 811.555Z" fill="#FFA05C"/>
<path d="M344.52 808.48C344.212 808.172 343.795 808 343.361 808C342.926 808 342.509 808.172 342.201 808.48L340.014 810.67L342.332 812.989L344.519 810.801C344.672 810.649 344.793 810.468 344.876 810.269C344.958 810.07 345.001 809.856 345.001 809.641C345.001 809.425 344.959 809.211 344.876 809.012C344.793 808.813 344.672 808.632 344.52 808.48Z" fill="#FFA05C"/>
</g>
<line x1="368" y1="298.5" x2="40.0002" y2="298.534" stroke="url(#paint22_linear_234_2924)" stroke-width="3"/>
</g>
<defs>
<filter id="filter0_d_234_2924" x="87" y="265" width="74" height="39.3137" filterUnits="userSpaceOnUse" color-interpolation-filters="sRGB">
<feFlood flood-opacity="0" result="BackgroundImageFix"/>
<feColorMatrix in="SourceAlpha" type="matrix" values="0 0 0 0 0 0 0 0 0 0 0 0 0 0 0 0 0 0 127 0" result="hardAlpha"/>
<feOffset dy="4"/>
<feGaussianBlur stdDeviation="2"/>
<feComposite in2="hardAlpha" operator="out"/>
<feColorMatrix type="matrix" values="0 0 0 0 0 0 0 0 0 0 0 0 0 0 0 0 0 0 0.3 0"/>
<feBlend mode="normal" in2="BackgroundImageFix" result="effect1_dropShadow_234_2924"/>
<feBlend mode="normal" in="SourceGraphic" in2="effect1_dropShadow_234_2924" result="shape"/>
</filter>
<filter id="filter1_d_234_2924" x="96.4199" y="272.38" width="55.5215" height="12.66" filterUnits="userSpaceOnUse" color-interpolation-filters="sRGB">
<feFlood flood-opacity="0" result="BackgroundImageFix"/>
<feColorMatrix in="SourceAlpha" type="matrix" values="0 0 0 0 0 0 0 0 0 0 0 0 0 0 0 0 0 0 127 0" result="hardAlpha"/>
<feOffset dy="2"/>
<feGaussianBlur stdDeviation="0.5"/>
<feComposite in2="hardAlpha" operator="out"/>
<feColorMatrix type="matrix" values="0 0 0 0 1 0 0 0 0 1 0 0 0 0 1 0 0 0 0.25 0"/>
<feBlend mode="normal" in2="BackgroundImageFix" result="effect1_dropShadow_234_2924"/>
<feBlend mode="normal" in="SourceGraphic" in2="effect1_dropShadow_234_2924" result="shape"/>
</filter>
<linearGradient id="paint0_linear_234_2924" x1="418.527" y1="-632.857" x2="-941.996" y2="342.765" gradientUnits="userSpaceOnUse">
<stop offset="0.226599" stop-color="#353A40"/>
<stop offset="0.697917" stop-color="#121416"/>
</linearGradient>
<linearGradient id="paint1_linear_234_2924" x1="-0.0574707" y1="149.402" x2="23.8656" y2="147.976" gradientUnits="userSpaceOnUse">
<stop stop-color="#FFA05C"/>
<stop offset="1" stop-color="#F06500"/>
</linearGradient>
<linearGradient id="paint2_linear_234_2924" x1="-0.0574707" y1="123.989" x2="23.8274" y2="122.273" gradientUnits="userSpaceOnUse">
<stop stop-color="#FFA05C"/>
<stop offset="1" stop-color="#F06500"/>
</linearGradient>
<linearGradient id="paint3_linear_234_2924" x1="-0.0574707" y1="99.3448" x2="23.7592" y2="97.2097" gradientUnits="userSpaceOnUse">
<stop stop-color="#FFA05C"/>
<stop offset="1" stop-color="#F06500"/>
</linearGradient>
<linearGradient id="paint4_linear_234_2924" x1="-0.0574707" y1="120.908" x2="23.821" y2="119.149" gradientUnits="userSpaceOnUse">
<stop stop-color="#FFA05C"/>
<stop offset="1" stop-color="#F06500"/>
</linearGradient>
<linearGradient id="paint5_linear_234_2924" x1="-0.0574707" y1="115.517" x2="23.8087" y2="113.677" gradientUnits="userSpaceOnUse">
<stop stop-color="#FFA05C"/>
<stop offset="1" stop-color="#F06500"/>
</linearGradient>
<linearGradient id="paint6_linear_234_2924" x1="-0.0574707" y1="120.908" x2="23.821" y2="119.149" gradientUnits="userSpaceOnUse">
<stop stop-color="#FFA05C"/>
<stop offset="1" stop-color="#F06500"/>
</linearGradient>
<linearGradient id="paint7_linear_234_2924" x1="-0.0574707" y1="88.5632" x2="23.7102" y2="86.173" gradientUnits="userSpaceOnUse">
<stop stop-color="#FFA05C"/>
<stop offset="1" stop-color="#F06500"/>
</linearGradient>
<linearGradient id="paint8_linear_234_2924" x1="-0.0574707" y1="88.5632" x2="23.7102" y2="86.173" gradientUnits="userSpaceOnUse">
<stop stop-color="#FFA05C"/>
<stop offset="1" stop-color="#F06500"/>
</linearGradient>
<linearGradient id="paint9_linear_234_2924" x1="-0.0574707" y1="88.5632" x2="23.7102" y2="86.173" gradientUnits="userSpaceOnUse">
<stop stop-color="#FFA05C"/>
<stop offset="1" stop-color="#F06500"/>
</linearGradient>
<radialGradient id="paint10_radial_234_2924" cx="0" cy="0" r="1" gradientUnits="userSpaceOnUse" gradientTransform="translate(188 354.208) rotate(90) scale(109.792 204.873)">
<stop stop-color="#EA8945"/>
<stop offset="0.974245" stop-color="#161512"/>
</radialGradient>
<linearGradient id="paint11_linear_234_2924" x1="327.862" y1="430.145" x2="265.329" y2="591.579" gradientUnits="userSpaceOnUse">
<stop offset="0.0709612" stop-color="#505962"/>
<stop offset="0.507086" stop-opacity="0"/>
<stop offset="1"/>
</linearGradient>
<linearGradient id="paint12_linear_234_2924" x1="14.6858" y1="580.356" x2="37.4476" y2="470.913" gradientUnits="userSpaceOnUse">
<stop stop-color="#FFA05C"/>
<stop offset="1" stop-color="#F06500"/>
</linearGradient>
<linearGradient id="paint13_linear_234_2924" x1="322.923" y1="570.902" x2="343" y2="555.423" gradientUnits="userSpaceOnUse">
<stop stop-color="#FFA05C"/>
<stop offset="1" stop-color="#F06500"/>
</linearGradient>
<radialGradient id="paint14_radial_234_2924" cx="0" cy="0" r="1" gradientUnits="userSpaceOnUse" gradientTransform="translate(188 531.104) rotate(90) scale(97.3958 204.873)">
<stop stop-color="#EA8945"/>
<stop offset="0.974245" stop-color="#161512"/>
</radialGradient>
<linearGradient id="paint15_linear_234_2924" x1="327.862" y1="598.467" x2="277.246" y2="745.769" gradientUnits="userSpaceOnUse">
<stop offset="0.0709612" stop-color="#505962"/>
<stop offset="0.507086" stop-opacity="0"/>
<stop offset="1"/>
</linearGradient>
<radialGradient id="paint16_radial_234_2924" cx="0" cy="0" r="1" gradientUnits="userSpaceOnUse" gradientTransform="translate(188 594.104) rotate(90) scale(97.3958 204.873)">
<stop stop-color="#EA8945"/>
<stop offset="0.974245" stop-color="#161512"/>
</radialGradient>
<linearGradient id="paint17_linear_234_2924" x1="327.862" y1="661.467" x2="277.246" y2="808.769" gradientUnits="userSpaceOnUse">
<stop offset="0.0709612" stop-color="#505962"/>
<stop offset="0.507086" stop-opacity="0"/>
<stop offset="1"/>
</linearGradient>
<radialGradient id="paint18_radial_234_2924" cx="0" cy="0" r="1" gradientUnits="userSpaceOnUse" gradientTransform="translate(188 657.104) rotate(90) scale(97.3958 204.873)">
<stop stop-color="#EA8945"/>
<stop offset="0.974245" stop-color="#161512"/>
</radialGradient>
<linearGradient id="paint19_linear_234_2924" x1="327.862" y1="724.467" x2="277.246" y2="871.769" gradientUnits="userSpaceOnUse">
<stop offset="0.0709612" stop-color="#505962"/>
<stop offset="0.507086" stop-opacity="0"/>
<stop offset="1"/>
</linearGradient>
<radialGradient id="paint20_radial_234_2924" cx="0" cy="0" r="1" gradientUnits="userSpaceOnUse" gradientTransform="translate(188 720.104) rotate(90) scale(97.3958 204.873)">
<stop stop-color="#EA8945"/>
<stop offset="0.974245" stop-color="#161512"/>
</radialGradient>
<linearGradient id="paint21_linear_234_2924" x1="327.862" y1="787.467" x2="277.246" y2="934.769" gradientUnits="userSpaceOnUse">
<stop offset="0.0709612" stop-color="#505962"/>
<stop offset="0.507086" stop-opacity="0"/>
<stop offset="1"/>
</linearGradient>
<linearGradient id="paint22_linear_234_2924" x1="46" y1="297" x2="368" y2="297" gradientUnits="userSpaceOnUse">
<stop stop-color="#AA2020"/>
<stop offset="0.0001" stop-color="#531313"/>
<stop offset="0.145532" stop-color="#D7A422"/>
<stop offset="0.257891" stop-color="#589C23"/>
<stop offset="0.38313" stop-color="#E7DE07"/>
<stop offset="0.596208" stop-color="#D02626"/>
<stop offset="0.649787" stop-color="#919328"/>
<stop offset="0.707327" stop-color="#51832A"/>
<stop offset="0.863571" stop-color="#5B942E"/>
<stop offset="0.941154" stop-color="#589229"/>
</linearGradient>
<clipPath id="clip0_234_2924">
<rect width="375" height="886" fill="white"/>
</clipPath>
<clipPath id="clip1_234_2924">
<rect width="375" height="44" fill="white"/>
</clipPath>
<clipPath id="clip2_234_2924">
<rect width="16" height="16" fill="white" transform="translate(339 111)"/>
</clipPath>
<clipPath id="clip3_234_2924">
<rect width="15" height="15" fill="white" transform="translate(325 457)"/>
</clipPath>
<clipPath id="clip4_234_2924">
<rect width="20" height="20" fill="white" transform="translate(323 555.5)"/>
</clipPath>
<clipPath id="clip5_234_2924">
<rect width="15" height="15" fill="white" transform="translate(330 619)"/>
</clipPath>
<clipPath id="clip6_234_2924">
<rect width="15" height="15" fill="white" transform="translate(330 682)"/>
</clipPath>
<clipPath id="clip7_234_2924">
<rect width="15" height="15" fill="white" transform="translate(329 745)"/>
</clipPath>
<clipPath id="clip8_234_2924">
<rect width="15" height="15" fill="white" transform="translate(330 808)"/>
</clipPath>
</defs>
</svg>
