<svg width="375" height="812" viewBox="0 0 375 812" fill="none" xmlns="http://www.w3.org/2000/svg">
<rect width="375" height="812" fill="url(#paint0_linear_234_2609)"/>
<rect x="121" y="799" width="134" height="5" rx="2.5" fill="white"/>
<g filter="url(#filter0_d_234_2609)">
<path d="M191.045 51.2649C189.324 50.5931 188.841 49.6718 188.019 47.5317C187.272 49.5951 186.78 50.5643 184.945 51.2649C186.77 52.5893 187.394 55.1804 187.99 57.7139C188.595 55.1804 189.22 52.5893 191.045 51.2649Z" fill="white"/>
<path d="M188 81.8979C188 81.8979 188 79.9113 188 77.4641C188 77.4641 185.986 71.2934 184.284 69.7483L172 69.5947C171.991 69.5852 183.972 72.6561 188 81.8979Z" fill="white"/>
<path d="M188 81.8787C188 81.8787 188 79.8922 188 77.445C188 77.445 190.014 71.2742 191.716 69.7291L204 69.5756C204 69.5756 192.028 72.637 188 81.8787Z" fill="white"/>
<path d="M188 71.1781C183.092 71.1781 179.102 67.9056 179.102 63.8941C179.102 59.8731 183.092 56.6101 188 56.6101C192.908 56.6101 196.898 59.8826 196.898 63.8941C196.889 67.9056 192.898 71.1781 188 71.1781ZM188 57.8481C183.773 57.8481 180.331 60.5544 180.331 63.8845C180.331 67.2146 183.773 69.9209 188 69.9209C192.227 69.9209 195.669 67.2146 195.669 63.8845C195.669 60.5544 192.227 57.8481 188 57.8481Z" fill="white"/>
<path d="M192.937 50.5258C190.223 49.8636 190.072 49.4606 189.051 46.7831C188.909 46.3992 188.748 45.9865 188.568 45.5163L187.973 44L187.424 45.5355C187.311 45.8426 187.216 46.1305 187.122 46.3992C186.044 49.451 185.911 49.8349 183.065 50.5354L180.568 51.14L183.065 51.7446C185.457 52.33 186.091 54.9787 186.819 58.0497C186.999 58.8175 187.188 59.614 187.415 60.3817L187.992 62.4163L188.587 60.3817C188.814 59.6044 189.003 58.8079 189.183 58.0305C189.911 54.9691 190.545 52.3204 192.937 51.735L195.434 51.1304L192.937 50.5258ZM188.001 60.209C186.895 56.3895 186.649 51.9749 183.207 51.14C186.649 50.3051 186.639 49.5565 188.001 45.7466C189.514 49.5757 189.353 50.2955 192.795 51.14C189.353 51.9749 189.107 56.3991 188.001 60.209Z" fill="white"/>
<path d="M187.991 58.4146L189.126 61.8982L191.915 61.5911L190.261 63.8847L191.915 66.188L189.126 65.8809L188.001 73.328L186.866 65.8809L184.076 66.188L185.731 63.8847L184.076 61.5911L186.866 61.8982L187.991 58.4146Z" fill="white"/>
<path d="M190.26 63.8844L191.177 62.608C190.941 62.3585 190.761 62.0514 190.676 61.7155L189.135 61.8883L188.511 60.4487C188.18 60.5351 187.83 60.5351 187.499 60.4487L186.875 61.8883L185.333 61.7155C185.239 62.0514 185.068 62.3585 184.832 62.608L185.749 63.8844L184.832 65.1608C185.068 65.4103 185.248 65.7174 185.333 66.0533L186.875 65.8805L187.499 67.32C187.83 67.2337 188.18 67.2337 188.511 67.32L189.135 65.8805L190.676 66.0533C190.771 65.7174 190.941 65.4103 191.177 65.1608L190.26 63.8844Z" fill="white"/>
<path d="M181.381 63.8848L184.52 63.1458C185.267 62.8099 185.712 62.0326 185.627 61.2072L185.428 59.3839L186.884 60.4683C187.537 60.9577 188.435 60.9577 189.088 60.4683L190.544 59.3839L190.345 61.2072C190.26 62.0326 190.705 62.8099 191.452 63.1458L194.601 63.8848L191.452 64.6237C190.705 64.9596 190.26 65.7369 190.345 66.5623L190.544 68.3857L189.097 67.3108C188.445 66.8214 187.546 66.8214 186.894 67.3108L185.438 68.3952L185.636 66.5719C185.721 65.7465 185.277 64.9692 184.53 64.6333" fill="white"/>
<mask id="mask0_234_2609" style="mask-type:luminance" maskUnits="userSpaceOnUse" x="192" y="50" width="12" height="20">
<path d="M192.68 50.1321H203.885V69.0186H192.68V50.1321Z" fill="white"/>
</mask>
<g mask="url(#mask0_234_2609)">
<path d="M195.943 64.3932L194.137 69.0189H200.709C201.153 69.0189 201.56 68.6734 201.787 68.1168L203.896 62.7234L195.943 64.3932Z" fill="white"/>
<path d="M196.083 63.7311L194.607 59.7292L203.884 57.925C203.884 57.925 201.936 62.3108 201.019 62.6947" fill="white"/>
<path d="M192.68 58.0878L200.935 50.1321L200.103 55.9573C199.98 56.8498 199.375 58.0686 198.505 58.3565L194.382 59.2395L192.68 58.0878Z" fill="white"/>
</g>
<mask id="mask1_234_2609" style="mask-type:luminance" maskUnits="userSpaceOnUse" x="172" y="50" width="12" height="20">
<path d="M183.307 50.1321H172.102V69.0186H183.307V50.1321Z" fill="white"/>
</mask>
<g mask="url(#mask1_234_2609)">
<path d="M180.045 64.393L181.851 69.0283H175.279C174.834 69.0283 174.428 68.6828 174.201 68.1262L172.102 62.7232L180.045 64.393Z" fill="white"/>
<path d="M179.894 63.7309L181.378 59.729L172.102 57.9248C172.102 57.9248 174.05 62.3106 174.967 62.6944" fill="white"/>
<path d="M183.308 58.0878L175.053 50.1321L175.885 55.9573C176.008 56.8498 176.613 58.0686 177.483 58.3565L181.606 59.2395L183.308 58.0878Z" fill="white"/>
</g>
</g>
<path d="M107.138 126.72H110.138C109.442 129.6 106.874 132.12 103.298 132.12C99.3378 132.12 95.9778 128.76 95.9778 124.44C95.9778 120.12 99.3378 116.76 103.298 116.76C106.754 116.76 109.322 119.28 110.018 122.16H107.018C106.634 120.84 105.338 119.52 103.298 119.52C100.898 119.52 98.8578 121.56 98.8578 124.44C98.8578 127.32 100.898 129.36 103.298 129.36C105.362 129.36 106.634 128.04 107.138 126.72ZM112.047 132V120.96H114.087L114.567 122.16C114.759 121.92 114.999 121.704 115.263 121.512C115.719 121.152 116.367 120.84 117.207 120.84C117.471 120.84 117.639 120.888 117.807 120.912L118.047 120.96V123.84L117.783 123.792C117.615 123.768 117.375 123.72 117.087 123.72C115.743 123.72 114.807 124.68 114.807 126.12V132H112.047ZM126.811 128.64H129.691C129.115 130.296 127.267 132.12 124.771 132.12C121.795 132.12 119.251 129.6 119.251 126.48C119.251 123.36 121.795 120.84 124.771 120.84C127.651 120.84 130.051 123.12 130.051 126.48C130.051 126.744 130.003 126.984 129.979 127.2L129.931 127.56H122.251C122.515 128.64 123.331 129.48 124.771 129.48C125.515 129.48 125.971 129.288 126.331 129.072C126.523 128.952 126.691 128.808 126.811 128.64ZM122.131 125.64H127.411C127.147 124.416 126.211 123.48 124.771 123.48C123.331 123.48 122.395 124.416 122.131 125.64ZM138.926 132L138.446 130.92C138.182 131.136 137.918 131.352 137.606 131.52C137.054 131.832 136.286 132.12 135.326 132.12C132.926 132.12 131.606 130.824 131.606 129C131.606 126.816 133.166 125.28 138.206 125.28C138.206 124.056 137.486 123.36 136.406 123.36C135.662 123.36 135.278 123.672 135.014 123.96C134.87 124.128 134.774 124.344 134.726 124.56H131.966C132.23 122.544 133.886 120.84 136.646 120.84C139.142 120.84 140.966 122.664 140.966 125.16V132H138.926ZM138.206 127.68V127.2C134.966 127.2 134.366 127.8 134.366 128.76C134.366 129.36 134.966 129.96 135.806 129.96C137.246 129.96 138.206 129.024 138.206 127.68ZM144.082 128.16V123.48H142.402V121.2H143.122C144.01 121.2 144.442 120.768 144.442 119.88V118.32H146.842V120.96H149.242V123.48H146.842V128.04C146.842 129 147.442 129.6 148.402 129.6C148.666 129.6 148.81 129.576 148.93 129.552L149.122 129.48V131.88C149.002 131.928 148.882 131.976 148.738 132C148.474 132.072 148.162 132.12 147.802 132.12C145.618 132.12 144.082 130.56 144.082 128.16ZM158.241 128.64H161.121C160.545 130.296 158.697 132.12 156.201 132.12C153.225 132.12 150.681 129.6 150.681 126.48C150.681 123.36 153.225 120.84 156.201 120.84C159.081 120.84 161.481 123.12 161.481 126.48C161.481 126.744 161.433 126.984 161.409 127.2L161.361 127.56H153.681C153.945 128.64 154.761 129.48 156.201 129.48C156.945 129.48 157.401 129.288 157.761 129.072C157.953 128.952 158.121 128.808 158.241 128.64ZM153.561 125.64H158.841C158.577 124.416 157.641 123.48 156.201 123.48C154.761 123.48 153.825 124.416 153.561 125.64ZM175.746 132L175.266 130.92C175.002 131.136 174.738 131.352 174.426 131.52C173.874 131.832 173.106 132.12 172.146 132.12C169.746 132.12 168.426 130.824 168.426 129C168.426 126.816 169.986 125.28 175.026 125.28C175.026 124.056 174.306 123.36 173.226 123.36C172.482 123.36 172.098 123.672 171.834 123.96C171.69 124.128 171.594 124.344 171.546 124.56H168.786C169.05 122.544 170.706 120.84 173.466 120.84C175.962 120.84 177.786 122.664 177.786 125.16V132H175.746ZM175.026 127.68V127.2C171.786 127.2 171.186 127.8 171.186 128.76C171.186 129.36 171.786 129.96 172.626 129.96C174.066 129.96 175.026 129.024 175.026 127.68ZM180.297 132V120.96H182.337L182.817 122.04C183.081 121.824 183.393 121.608 183.705 121.44C184.257 121.152 185.001 120.84 185.937 120.84C188.553 120.84 190.377 122.64 190.377 125.52V132H187.617V125.88C187.617 124.44 186.681 123.48 185.337 123.48C183.993 123.48 183.057 124.44 183.057 125.88V132H180.297ZM196.857 132L202.497 116.88H205.137L210.777 132H207.777L206.697 128.88H200.937L199.857 132H196.857ZM201.897 126.24H205.737L203.817 120.72L201.897 126.24ZM219.304 127.92H222.064C221.56 130.104 219.544 132.12 216.904 132.12C213.928 132.12 211.384 129.6 211.384 126.48C211.384 123.36 213.928 120.84 216.904 120.84C219.544 120.84 221.56 122.856 222.064 125.04H219.304C219.184 124.752 218.992 124.488 218.776 124.272C218.392 123.888 217.792 123.48 216.904 123.48C215.344 123.48 214.144 124.656 214.144 126.48C214.144 128.304 215.344 129.48 216.904 129.48C217.792 129.48 218.392 129.096 218.776 128.712C218.992 128.496 219.184 128.232 219.304 127.92ZM231.304 127.92H234.064C233.56 130.104 231.544 132.12 228.904 132.12C225.928 132.12 223.384 129.6 223.384 126.48C223.384 123.36 225.928 120.84 228.904 120.84C231.544 120.84 233.56 122.856 234.064 125.04H231.304C231.184 124.752 230.992 124.488 230.776 124.272C230.392 123.888 229.792 123.48 228.904 123.48C227.344 123.48 226.144 124.656 226.144 126.48C226.144 128.304 227.344 129.48 228.904 129.48C229.792 129.48 230.392 129.096 230.776 128.712C230.992 128.496 231.184 128.232 231.304 127.92ZM240.904 123.48C239.344 123.48 238.144 124.656 238.144 126.48C238.144 128.304 239.344 129.48 240.904 129.48C242.464 129.48 243.664 128.304 243.664 126.48C243.664 124.656 242.464 123.48 240.904 123.48ZM240.904 120.84C243.88 120.84 246.424 123.36 246.424 126.48C246.424 129.6 243.88 132.12 240.904 132.12C237.928 132.12 235.384 129.6 235.384 126.48C235.384 123.36 237.928 120.84 240.904 120.84ZM248.453 127.44V120.96H251.213V127.08C251.213 128.52 252.149 129.48 253.493 129.48C254.837 129.48 255.773 128.52 255.773 127.08V120.96H258.533V132H256.493L256.013 130.92C255.749 131.136 255.437 131.352 255.125 131.52C254.573 131.832 253.781 132.12 252.893 132.12C250.277 132.12 248.453 130.32 248.453 127.44ZM261.179 132V120.96H263.219L263.699 122.04C263.963 121.824 264.275 121.608 264.587 121.44C265.139 121.152 265.883 120.84 266.819 120.84C269.435 120.84 271.259 122.64 271.259 125.52V132H268.499V125.88C268.499 124.44 267.563 123.48 266.219 123.48C264.875 123.48 263.939 124.44 263.939 125.88V132H261.179ZM274.629 128.16V123.48H272.949V121.2H273.669C274.557 121.2 274.989 120.768 274.989 119.88V118.32H277.389V120.96H279.789V123.48H277.389V128.04C277.389 129 277.989 129.6 278.949 129.6C279.213 129.6 279.357 129.576 279.477 129.552L279.669 129.48V131.88C279.549 131.928 279.429 131.976 279.285 132C279.021 132.072 278.709 132.12 278.349 132.12C276.165 132.12 274.629 130.56 274.629 128.16Z" fill="white"/>
<path d="M18.24 315.02H19.57C21.194 315.02 22.65 313.55 22.65 311.59C22.65 309.63 21.194 308.16 19.57 308.16H18.24V315.02ZM17.12 316V307.18H19.57C21.88 307.18 23.77 309.07 23.77 311.59C23.77 314.11 21.88 316 19.57 316H17.12ZM29.2262 316L28.9462 315.3C28.8062 315.454 28.6522 315.58 28.4702 315.692C28.1482 315.902 27.6862 316.07 27.0562 316.07C25.7962 316.07 24.9562 315.23 24.9562 314.18C24.9562 312.99 25.7962 312.15 28.9462 312.15V311.8C28.9462 311.17 28.4002 310.61 27.6162 310.61C26.8322 310.61 26.5102 310.96 26.3562 311.52H25.2362C25.3902 310.47 26.2162 309.63 27.6162 309.63C29.0162 309.63 29.9962 310.624 29.9962 311.8V316H29.2262ZM28.9462 313.62V313.13C26.4262 313.13 26.0062 313.55 26.0062 314.25C26.0062 314.684 26.4262 315.09 27.0562 315.09C28.1762 315.09 28.9462 314.32 28.9462 313.62ZM32.0973 313.97V310.68H30.9773V309.7H31.4673C31.9853 309.7 32.2373 309.448 32.2373 308.93V308.02H33.1473V309.7H34.5473V310.68H33.1473V313.97C33.1473 314.684 33.5673 315.09 34.1973 315.09C34.2953 315.09 34.3793 315.076 34.4493 315.062L34.5473 315.02V315.93C34.5053 315.958 34.4493 315.986 34.3933 316C34.2673 316.042 34.1133 316.07 33.9173 316.07C32.9513 316.07 32.0973 315.23 32.0973 313.97ZM40.0849 314.32H41.2049C40.7849 315.23 39.9449 316.07 38.5449 316.07C36.8649 316.07 35.5349 314.74 35.5349 312.85C35.5349 310.96 36.9489 309.63 38.4749 309.63C40.0149 309.63 41.3449 310.876 41.3449 312.78C41.3449 312.962 41.3169 313.088 41.3029 313.186L41.2749 313.34H36.6549C36.7249 314.25 37.5509 315.09 38.5449 315.09C39.3709 315.09 39.8749 314.614 40.0849 314.32ZM36.6549 312.43H40.2949C40.1409 311.38 39.3849 310.61 38.4749 310.61C37.5649 310.61 36.8089 311.38 36.6549 312.43ZM48.2777 315.09C49.2437 315.09 50.1677 314.194 50.1677 312.85C50.1677 311.506 49.2437 310.61 48.2777 310.61C47.2977 310.61 46.3877 311.506 46.3877 312.85C46.3877 314.194 47.2977 315.09 48.2777 315.09ZM48.2777 316.07C46.6537 316.07 45.3377 314.74 45.3377 312.85C45.3377 310.96 46.6537 309.63 48.2777 309.63C49.9017 309.63 51.2177 310.96 51.2177 312.85C51.2177 314.74 49.9017 316.07 48.2777 316.07ZM52.8309 316V310.68H52.0609V309.7H52.8309V309.21C52.8309 307.95 53.6849 307.11 54.6509 307.11C54.8609 307.11 55.0149 307.138 55.1269 307.18L55.2809 307.25V308.16L55.1829 308.132C55.1269 308.118 55.0289 308.09 54.9309 308.09C54.3009 308.09 53.8809 308.496 53.8809 309.21V309.7H55.2809V310.68H53.8809V316H52.8309ZM59.6942 316V307.18H62.9842C64.4402 307.18 65.5042 308.216 65.5042 309.56C65.5042 310.19 65.2522 310.624 65.0142 310.904C64.8602 311.072 64.7062 311.212 64.5242 311.31C64.7622 311.436 64.9862 311.59 65.1822 311.786C65.5182 312.122 65.8542 312.682 65.8542 313.48C65.8542 314.782 64.6642 316 63.0542 316H59.6942ZM60.8142 310.89H62.9842C63.8242 310.89 64.4542 310.26 64.4542 309.56C64.4542 308.79 63.8242 308.16 62.9842 308.16H60.8142V310.89ZM60.8142 315.02H63.0542C64.0482 315.02 64.7342 314.32 64.7342 313.41C64.7342 312.584 64.0202 311.87 63.0542 311.87H60.8142V315.02ZM67.3182 316V309.7H68.3682V316H67.3182ZM67.1782 307.922C67.1782 307.53 67.4582 307.25 67.8362 307.25C68.2282 307.25 68.5082 307.53 68.5082 307.922C68.5082 308.3 68.2282 308.58 67.8362 308.58C67.4582 308.58 67.1782 308.3 67.1782 307.922ZM70.1893 316V309.7H70.9593L71.2393 310.4C71.3653 310.26 71.5193 310.134 71.7013 310.022C72.0233 309.812 72.4573 309.63 73.0593 309.63H73.1993V310.68H72.9193C71.9253 310.68 71.2393 311.366 71.2393 312.43V316H70.1893ZM74.8766 313.97V310.68H73.7566V309.7H74.2466C74.7646 309.7 75.0166 309.448 75.0166 308.93V308.02H75.9266V309.7H77.3266V310.68H75.9266V313.97C75.9266 314.684 76.3466 315.09 76.9766 315.09C77.0746 315.09 77.1586 315.076 77.2286 315.062L77.3266 315.02V315.93C77.2846 315.958 77.2286 315.986 77.1726 316C77.0466 316.042 76.8926 316.07 76.6966 316.07C75.7306 316.07 74.8766 315.23 74.8766 313.97ZM78.9409 316V307.18H79.9909V310.47C80.1169 310.316 80.2709 310.176 80.4529 310.05C80.7749 309.84 81.2089 309.63 81.8109 309.63C83.1409 309.63 84.2609 310.75 84.2609 312.36V316H83.2109V312.36C83.2109 311.31 82.4969 310.61 81.6709 310.61C80.6769 310.61 79.9909 311.296 79.9909 312.36V316H78.9409Z" fill="white"/>
<rect x="16" y="324" width="343" height="42" rx="4" fill="#3F3F46"/>
<g clip-path="url(#clip0_234_2609)">
<path d="M40 343.667V353H24V343.667H40ZM40 342.333V340.333C40 339.803 39.7893 339.294 39.4142 338.919C39.0391 338.544 38.5304 338.333 38 338.333H36V337H34.6667V338.333H29.3333V337H28V338.333H26C25.4696 338.333 24.9609 338.544 24.5858 338.919C24.2107 339.294 24 339.803 24 340.333V342.333H40ZM36 346.333H34.6667V347.667H36V346.333ZM32.6667 346.333H31.3333V347.667H32.6667V346.333ZM29.3333 346.333H28V347.667H29.3333V346.333ZM36 349H34.6667V350.333H36V349ZM32.6667 349H31.3333V350.333H32.6667V349ZM29.3333 349H28V350.333H29.3333V349Z" fill="#C6C6C6"/>
</g>
<path d="M48.49 346.84H49.82C49.82 347.834 50.38 348.38 51.5 348.38C52.69 348.38 53.25 347.834 53.25 347.12C53.25 345.16 48.56 346.14 48.56 343.06C48.56 341.786 49.75 340.61 51.5 340.61C53.18 340.61 54.37 341.814 54.37 343.34H53.04C53.04 342.43 52.41 341.8 51.5 341.8C50.52 341.8 49.89 342.43 49.89 343.06C49.89 344.88 54.58 343.9 54.58 347.12C54.58 348.394 53.39 349.57 51.5 349.57C49.61 349.57 48.49 348.45 48.49 346.84ZM59.9 347.68H61.23C60.824 348.73 59.97 349.57 58.5 349.57C56.82 349.57 55.49 348.24 55.49 346.35C55.49 344.46 56.806 343.13 58.43 343.13C60.054 343.13 61.37 344.46 61.37 346.35C61.37 346.504 61.342 346.644 61.328 346.742L61.3 346.91H56.82C56.89 347.694 57.59 348.38 58.5 348.38C59.27 348.38 59.69 347.96 59.9 347.68ZM56.82 345.86H60.18C60.026 344.95 59.424 344.32 58.43 344.32C57.59 344.32 56.974 344.95 56.82 345.86ZM62.7733 349.5V340.68H64.0333V349.5H62.7733ZM69.8395 347.68H71.1695C70.7635 348.73 69.9095 349.57 68.4395 349.57C66.7595 349.57 65.4295 348.24 65.4295 346.35C65.4295 344.46 66.7455 343.13 68.3695 343.13C69.9935 343.13 71.3095 344.46 71.3095 346.35C71.3095 346.504 71.2815 346.644 71.2675 346.742L71.2395 346.91H66.7595C66.8295 347.694 67.5295 348.38 68.4395 348.38C69.2095 348.38 69.6295 347.96 69.8395 347.68ZM66.7595 345.86H70.1195C69.9655 344.95 69.3635 344.32 68.3695 344.32C67.5295 344.32 66.9135 344.95 66.7595 345.86ZM76.7727 347.19H78.1027C77.8087 348.534 76.7867 349.57 75.3027 349.57C73.6227 349.57 72.2927 348.24 72.2927 346.35C72.2927 344.46 73.6227 343.13 75.3027 343.13C76.7867 343.13 77.8087 344.166 78.1027 345.51H76.7727C76.5627 344.796 76.0867 344.32 75.3027 344.32C74.3927 344.32 73.5527 345.16 73.5527 346.35C73.5527 347.54 74.3927 348.38 75.3027 348.38C76.0867 348.38 76.5627 347.904 76.7727 347.19ZM79.9293 347.4V344.39H78.8093V343.2H79.2993C79.7893 343.2 80.1393 342.85 80.1393 342.36V341.52H81.1893V343.2H82.5893V344.39H81.1893V347.4C81.1893 347.96 81.6093 348.38 82.1693 348.38C82.2673 348.38 82.3653 348.366 82.4633 348.352L82.5893 348.31V349.43C82.5333 349.458 82.4633 349.486 82.3933 349.5C82.2533 349.542 82.0853 349.57 81.8893 349.57C80.7693 349.57 79.9293 348.73 79.9293 347.4ZM91.1249 349.5L90.8449 348.87C90.7189 348.996 90.5789 349.122 90.4109 349.22C90.1169 349.402 89.6549 349.57 89.0249 349.57C87.6249 349.57 86.8549 348.8 86.8549 347.68C86.8549 346.42 87.6949 345.58 90.7749 345.58V345.37C90.7749 344.74 90.3689 344.32 89.5849 344.32C88.7449 344.32 88.3949 344.656 88.3249 345.09H87.0649C87.1349 343.97 88.0309 343.13 89.5849 343.13C91.0549 343.13 92.0349 344.11 92.0349 345.37V349.5H91.1249ZM90.7749 347.036V346.7C88.5349 346.7 88.1149 347.12 88.1149 347.75C88.1149 348.1 88.4649 348.45 89.0949 348.45C90.1589 348.45 90.7749 347.82 90.7749 347.036ZM101.479 349.5L101.199 348.87C101.073 348.996 100.933 349.122 100.765 349.22C100.471 349.402 100.009 349.57 99.3789 349.57C97.6989 349.57 96.3689 348.24 96.3689 346.35C96.3689 344.46 97.6989 343.13 99.3789 343.13C99.9809 343.13 100.401 343.312 100.695 343.48C100.863 343.578 101.003 343.704 101.129 343.83V340.68H102.389V349.5H101.479ZM99.4489 348.38C100.415 348.38 101.269 347.54 101.269 346.35C101.269 345.16 100.415 344.32 99.4489 344.32C98.4829 344.32 97.6289 345.16 97.6289 346.35C97.6289 347.54 98.4829 348.38 99.4489 348.38ZM108.133 349.5L107.853 348.87C107.727 348.996 107.587 349.122 107.419 349.22C107.125 349.402 106.663 349.57 106.033 349.57C104.633 349.57 103.863 348.8 103.863 347.68C103.863 346.42 104.703 345.58 107.783 345.58V345.37C107.783 344.74 107.377 344.32 106.593 344.32C105.753 344.32 105.403 344.656 105.333 345.09H104.073C104.143 343.97 105.039 343.13 106.593 343.13C108.063 343.13 109.043 344.11 109.043 345.37V349.5H108.133ZM107.783 347.036V346.7C105.543 346.7 105.123 347.12 105.123 347.75C105.123 348.1 105.473 348.45 106.103 348.45C107.167 348.45 107.783 347.82 107.783 347.036ZM111.074 347.4V344.39H109.954V343.2H110.444C110.934 343.2 111.284 342.85 111.284 342.36V341.52H112.334V343.2H113.734V344.39H112.334V347.4C112.334 347.96 112.754 348.38 113.314 348.38C113.412 348.38 113.51 348.366 113.608 348.352L113.734 348.31V349.43C113.678 349.458 113.608 349.486 113.538 349.5C113.398 349.542 113.23 349.57 113.034 349.57C111.914 349.57 111.074 348.73 111.074 347.4ZM119.127 347.68H120.457C120.051 348.73 119.197 349.57 117.727 349.57C116.047 349.57 114.717 348.24 114.717 346.35C114.717 344.46 116.033 343.13 117.657 343.13C119.281 343.13 120.597 344.46 120.597 346.35C120.597 346.504 120.569 346.644 120.555 346.742L120.527 346.91H116.047C116.117 347.694 116.817 348.38 117.727 348.38C118.497 348.38 118.917 347.96 119.127 347.68ZM116.047 345.86H119.407C119.253 344.95 118.651 344.32 117.657 344.32C116.817 344.32 116.201 344.95 116.047 345.86Z" fill="#C6C6C6"/>
<path d="M343.001 347.333C342.826 347.334 342.652 347.299 342.49 347.232C342.329 347.165 342.182 347.067 342.058 346.943L338.529 343.414L339.472 342.471L343.001 346L346.529 342.471L347.472 343.414L343.943 346.943C343.82 347.067 343.673 347.165 343.511 347.232C343.349 347.299 343.176 347.334 343.001 347.333Z" fill="#C6C6C6"/>
<path d="M17.12 395V386.18H18.24V394.02H22.44V395H17.12ZM26.0062 394.09C26.9722 394.09 27.8962 393.194 27.8962 391.85C27.8962 390.506 26.9722 389.61 26.0062 389.61C25.0262 389.61 24.1162 390.506 24.1162 391.85C24.1162 393.194 25.0262 394.09 26.0062 394.09ZM26.0062 395.07C24.3822 395.07 23.0662 393.74 23.0662 391.85C23.0662 389.96 24.3822 388.63 26.0062 388.63C27.6302 388.63 28.9462 389.96 28.9462 391.85C28.9462 393.74 27.6302 395.07 26.0062 395.07ZM34.5495 392.76H35.5995C35.3055 394.034 34.2695 395.07 32.8695 395.07C31.2455 395.07 29.9295 393.74 29.9295 391.85C29.9295 389.96 31.2455 388.63 32.8695 388.63C34.2695 388.63 35.3055 389.666 35.5995 390.94H34.5495C34.3255 390.24 33.6955 389.61 32.8695 389.61C31.8895 389.61 30.9795 390.506 30.9795 391.85C30.9795 393.194 31.8895 394.09 32.8695 394.09C33.6955 394.09 34.3255 393.46 34.5495 392.76ZM40.9156 395L40.6356 394.3C40.4956 394.454 40.3416 394.58 40.1596 394.692C39.8376 394.902 39.3756 395.07 38.7456 395.07C37.4856 395.07 36.6456 394.23 36.6456 393.18C36.6456 391.99 37.4856 391.15 40.6356 391.15V390.8C40.6356 390.17 40.0896 389.61 39.3056 389.61C38.5216 389.61 38.1996 389.96 38.0456 390.52H36.9256C37.0796 389.47 37.9056 388.63 39.3056 388.63C40.7056 388.63 41.6856 389.624 41.6856 390.8V395H40.9156ZM40.6356 392.62V392.13C38.1156 392.13 37.6956 392.55 37.6956 393.25C37.6956 393.684 38.1156 394.09 38.7456 394.09C39.8656 394.09 40.6356 393.32 40.6356 392.62ZM43.7867 392.97V389.68H42.6667V388.7H43.1567C43.6747 388.7 43.9267 388.448 43.9267 387.93V387.02H44.8367V388.7H46.2367V389.68H44.8367V392.97C44.8367 393.684 45.2567 394.09 45.8867 394.09C45.9847 394.09 46.0687 394.076 46.1387 394.062L46.2367 394.02V394.93C46.1947 394.958 46.1387 394.986 46.0827 395C45.9567 395.042 45.8027 395.07 45.6067 395.07C44.6407 395.07 43.7867 394.23 43.7867 392.97ZM47.7811 395V388.7H48.8311V395H47.7811ZM47.6411 386.922C47.6411 386.53 47.9211 386.25 48.2991 386.25C48.6911 386.25 48.9711 386.53 48.9711 386.922C48.9711 387.3 48.6911 387.58 48.2991 387.58C47.9211 387.58 47.6411 387.3 47.6411 386.922ZM53.1722 394.09C54.1382 394.09 55.0622 393.194 55.0622 391.85C55.0622 390.506 54.1382 389.61 53.1722 389.61C52.1922 389.61 51.2822 390.506 51.2822 391.85C51.2822 393.194 52.1922 394.09 53.1722 394.09ZM53.1722 395.07C51.5482 395.07 50.2322 393.74 50.2322 391.85C50.2322 389.96 51.5482 388.63 53.1722 388.63C54.7962 388.63 56.1122 389.96 56.1122 391.85C56.1122 393.74 54.7962 395.07 53.1722 395.07ZM57.5155 395V388.7H58.2855L58.5655 389.4C58.6915 389.26 58.8455 389.134 59.0275 389.022C59.3495 388.812 59.7835 388.63 60.3855 388.63C61.7155 388.63 62.8355 389.75 62.8355 391.36V395H61.7855V391.36C61.7855 390.31 61.0715 389.61 60.2455 389.61C59.2515 389.61 58.5655 390.296 58.5655 391.36V395H57.5155Z" fill="white"/>
<rect x="16" y="403" width="343" height="42" rx="4" fill="#3F3F46"/>
<path d="M32.0007 416C30.2331 416.002 28.5386 416.705 27.2887 417.955C26.0389 419.205 25.3359 420.899 25.334 422.667C25.334 426.188 30.934 431.022 31.57 431.562L32.0007 431.926L32.4313 431.562C33.0673 431.022 38.6673 426.188 38.6673 422.667C38.6654 420.899 37.9624 419.205 36.7126 417.955C35.4627 416.705 33.7682 416.002 32.0007 416V416ZM32.0007 426C31.3414 426 30.6969 425.805 30.1488 425.438C29.6006 425.072 29.1733 424.551 28.9211 423.942C28.6688 423.333 28.6027 422.663 28.7314 422.016C28.86 421.37 29.1775 420.776 29.6436 420.31C30.1098 419.843 30.7037 419.526 31.3504 419.397C31.997 419.269 32.6672 419.335 33.2763 419.587C33.8853 419.839 34.4059 420.267 34.7722 420.815C35.1385 421.363 35.334 422.007 35.334 422.667C35.3329 423.55 34.9814 424.398 34.3565 425.023C33.7316 425.647 32.8844 425.999 32.0007 426Z" fill="#C6C6C6"/>
<path d="M32 424.667C33.1046 424.667 34 423.771 34 422.667C34 421.562 33.1046 420.667 32 420.667C30.8954 420.667 30 421.562 30 422.667C30 423.771 30.8954 424.667 32 424.667Z" fill="#C6C6C6"/>
<path d="M48.49 425.84H49.82C49.82 426.834 50.38 427.38 51.5 427.38C52.69 427.38 53.25 426.834 53.25 426.12C53.25 424.16 48.56 425.14 48.56 422.06C48.56 420.786 49.75 419.61 51.5 419.61C53.18 419.61 54.37 420.814 54.37 422.34H53.04C53.04 421.43 52.41 420.8 51.5 420.8C50.52 420.8 49.89 421.43 49.89 422.06C49.89 423.88 54.58 422.9 54.58 426.12C54.58 427.394 53.39 428.57 51.5 428.57C49.61 428.57 48.49 427.45 48.49 425.84ZM59.9 426.68H61.23C60.824 427.73 59.97 428.57 58.5 428.57C56.82 428.57 55.49 427.24 55.49 425.35C55.49 423.46 56.806 422.13 58.43 422.13C60.054 422.13 61.37 423.46 61.37 425.35C61.37 425.504 61.342 425.644 61.328 425.742L61.3 425.91H56.82C56.89 426.694 57.59 427.38 58.5 427.38C59.27 427.38 59.69 426.96 59.9 426.68ZM56.82 424.86H60.18C60.026 423.95 59.424 423.32 58.43 423.32C57.59 423.32 56.974 423.95 56.82 424.86ZM62.7733 428.5V419.68H64.0333V428.5H62.7733ZM69.8395 426.68H71.1695C70.7635 427.73 69.9095 428.57 68.4395 428.57C66.7595 428.57 65.4295 427.24 65.4295 425.35C65.4295 423.46 66.7455 422.13 68.3695 422.13C69.9935 422.13 71.3095 423.46 71.3095 425.35C71.3095 425.504 71.2815 425.644 71.2675 425.742L71.2395 425.91H66.7595C66.8295 426.694 67.5295 427.38 68.4395 427.38C69.2095 427.38 69.6295 426.96 69.8395 426.68ZM66.7595 424.86H70.1195C69.9655 423.95 69.3635 423.32 68.3695 423.32C67.5295 423.32 66.9135 423.95 66.7595 424.86ZM76.7727 426.19H78.1027C77.8087 427.534 76.7867 428.57 75.3027 428.57C73.6227 428.57 72.2927 427.24 72.2927 425.35C72.2927 423.46 73.6227 422.13 75.3027 422.13C76.7867 422.13 77.8087 423.166 78.1027 424.51H76.7727C76.5627 423.796 76.0867 423.32 75.3027 423.32C74.3927 423.32 73.5527 424.16 73.5527 425.35C73.5527 426.54 74.3927 427.38 75.3027 427.38C76.0867 427.38 76.5627 426.904 76.7727 426.19ZM79.9293 426.4V423.39H78.8093V422.2H79.2993C79.7893 422.2 80.1393 421.85 80.1393 421.36V420.52H81.1893V422.2H82.5893V423.39H81.1893V426.4C81.1893 426.96 81.6093 427.38 82.1693 427.38C82.2673 427.38 82.3653 427.366 82.4633 427.352L82.5893 427.31V428.43C82.5333 428.458 82.4633 428.486 82.3933 428.5C82.2533 428.542 82.0853 428.57 81.8893 428.57C80.7693 428.57 79.9293 427.73 79.9293 426.4ZM91.1249 428.5L90.8449 427.87C90.7189 427.996 90.5789 428.122 90.4109 428.22C90.1169 428.402 89.6549 428.57 89.0249 428.57C87.6249 428.57 86.8549 427.8 86.8549 426.68C86.8549 425.42 87.6949 424.58 90.7749 424.58V424.37C90.7749 423.74 90.3689 423.32 89.5849 423.32C88.7449 423.32 88.3949 423.656 88.3249 424.09H87.0649C87.1349 422.97 88.0309 422.13 89.5849 422.13C91.0549 422.13 92.0349 423.11 92.0349 424.37V428.5H91.1249ZM90.7749 426.036V425.7C88.5349 425.7 88.1149 426.12 88.1149 426.75C88.1149 427.1 88.4649 427.45 89.0949 427.45C90.1589 427.45 90.7749 426.82 90.7749 426.036ZM96.7889 428.5V419.68H98.0489V428.5H96.7889ZM102.455 427.38C103.365 427.38 104.205 426.54 104.205 425.35C104.205 424.16 103.365 423.32 102.455 423.32C101.545 423.32 100.705 424.16 100.705 425.35C100.705 426.54 101.545 427.38 102.455 427.38ZM102.455 428.57C100.775 428.57 99.4451 427.24 99.4451 425.35C99.4451 423.46 100.775 422.13 102.455 422.13C104.135 422.13 105.465 423.46 105.465 425.35C105.465 427.24 104.135 428.57 102.455 428.57ZM110.925 426.19H112.255C111.961 427.534 110.939 428.57 109.455 428.57C107.775 428.57 106.445 427.24 106.445 425.35C106.445 423.46 107.775 422.13 109.455 422.13C110.939 422.13 111.961 423.166 112.255 424.51H110.925C110.715 423.796 110.239 423.32 109.455 423.32C108.545 423.32 107.705 424.16 107.705 425.35C107.705 426.54 108.545 427.38 109.455 427.38C110.239 427.38 110.715 426.904 110.925 426.19ZM117.512 428.5L117.232 427.87C117.106 427.996 116.966 428.122 116.798 428.22C116.504 428.402 116.042 428.57 115.412 428.57C114.012 428.57 113.242 427.8 113.242 426.68C113.242 425.42 114.082 424.58 117.162 424.58V424.37C117.162 423.74 116.756 423.32 115.972 423.32C115.132 423.32 114.782 423.656 114.712 424.09H113.452C113.522 422.97 114.418 422.13 115.972 422.13C117.442 422.13 118.422 423.11 118.422 424.37V428.5H117.512ZM117.162 426.036V425.7C114.922 425.7 114.502 426.12 114.502 426.75C114.502 427.1 114.852 427.45 115.482 427.45C116.546 427.45 117.162 426.82 117.162 426.036ZM120.453 426.4V423.39H119.333V422.2H119.823C120.313 422.2 120.663 421.85 120.663 421.36V420.52H121.713V422.2H123.113V423.39H121.713V426.4C121.713 426.96 122.133 427.38 122.693 427.38C122.791 427.38 122.889 427.366 122.987 427.352L123.113 427.31V428.43C123.057 428.458 122.987 428.486 122.917 428.5C122.777 428.542 122.609 428.57 122.413 428.57C121.293 428.57 120.453 427.73 120.453 426.4ZM124.582 428.5V422.2H125.842V428.5H124.582ZM125.212 419.68C125.646 419.68 125.982 420.016 125.982 420.45C125.982 420.884 125.646 421.22 125.212 421.22C124.778 421.22 124.442 420.884 124.442 420.45C124.442 420.016 124.778 419.68 125.212 419.68ZM130.182 427.38C131.092 427.38 131.932 426.54 131.932 425.35C131.932 424.16 131.092 423.32 130.182 423.32C129.272 423.32 128.432 424.16 128.432 425.35C128.432 426.54 129.272 427.38 130.182 427.38ZM130.182 428.57C128.502 428.57 127.172 427.24 127.172 425.35C127.172 423.46 128.502 422.13 130.182 422.13C131.862 422.13 133.192 423.46 133.192 425.35C133.192 427.24 131.862 428.57 130.182 428.57ZM134.522 428.5V422.2H135.432L135.712 422.83C135.838 422.704 135.978 422.578 136.146 422.48C136.44 422.312 136.902 422.13 137.532 422.13C138.932 422.13 140.052 423.25 140.052 424.86V428.5H138.792V424.86C138.792 424.034 138.106 423.32 137.322 423.32C136.468 423.32 135.782 424.034 135.782 424.86V428.5H134.522Z" fill="#C6C6C6"/>
<path d="M343.001 426.333C342.826 426.334 342.652 426.299 342.49 426.232C342.329 426.165 342.182 426.067 342.058 425.943L338.529 422.414L339.472 421.471L343.001 425L346.529 421.471L347.472 422.414L343.943 425.943C343.82 426.067 343.673 426.165 343.511 426.232C343.349 426.299 343.176 426.334 343.001 426.333Z" fill="#C6C6C6"/>
<path d="M23.21 471.06H24.4C23.91 472.74 22.58 474.07 20.62 474.07C18.45 474.07 16.49 472.11 16.49 469.59C16.49 467.07 18.45 465.11 20.62 465.11C22.51 465.11 23.84 466.44 24.33 468.12H23.14C22.846 467 21.964 466.09 20.62 466.09C19.08 466.09 17.61 467.56 17.61 469.59C17.61 471.62 19.08 473.09 20.62 473.09C22.034 473.09 22.916 472.18 23.21 471.06ZM25.7284 474V467.7H26.7784V474H25.7284ZM25.5884 465.922C25.5884 465.53 25.8684 465.25 26.2464 465.25C26.6384 465.25 26.9184 465.53 26.9184 465.922C26.9184 466.3 26.6384 466.58 26.2464 466.58C25.8684 466.58 25.5884 466.3 25.5884 465.922ZM29.0895 471.97V468.68H27.9695V467.7H28.4595C28.9775 467.7 29.2295 467.448 29.2295 466.93V466.02H30.1395V467.7H31.5395V468.68H30.1395V471.97C30.1395 472.684 30.5595 473.09 31.1895 473.09C31.2875 473.09 31.3715 473.076 31.4415 473.062L31.5395 473.02V473.93C31.4975 473.958 31.4415 473.986 31.3855 474C31.2595 474.042 31.1055 474.07 30.9095 474.07C29.9435 474.07 29.0895 473.23 29.0895 471.97ZM33.3638 476.24V475.4C33.9938 475.4 34.2598 475.12 34.4838 474.56L34.7638 473.86L32.3138 467.7H33.4338L35.3238 472.53L37.2138 467.7H38.3338L35.6038 474.56C35.0998 475.834 34.6098 476.31 33.7838 476.31C33.6718 476.31 33.5878 476.296 33.4898 476.282L33.3638 476.24Z" fill="white"/>
<rect x="16" y="482" width="343" height="42" rx="4" fill="#3F3F46"/>
<path d="M24.49 504.84H25.82C25.82 505.834 26.38 506.38 27.5 506.38C28.69 506.38 29.25 505.834 29.25 505.12C29.25 503.16 24.56 504.14 24.56 501.06C24.56 499.786 25.75 498.61 27.5 498.61C29.18 498.61 30.37 499.814 30.37 501.34H29.04C29.04 500.43 28.41 499.8 27.5 499.8C26.52 499.8 25.89 500.43 25.89 501.06C25.89 502.88 30.58 501.9 30.58 505.12C30.58 506.394 29.39 507.57 27.5 507.57C25.61 507.57 24.49 506.45 24.49 504.84ZM35.9 505.68H37.23C36.824 506.73 35.97 507.57 34.5 507.57C32.82 507.57 31.49 506.24 31.49 504.35C31.49 502.46 32.806 501.13 34.43 501.13C36.054 501.13 37.37 502.46 37.37 504.35C37.37 504.504 37.342 504.644 37.328 504.742L37.3 504.91H32.82C32.89 505.694 33.59 506.38 34.5 506.38C35.27 506.38 35.69 505.96 35.9 505.68ZM32.82 503.86H36.18C36.026 502.95 35.424 502.32 34.43 502.32C33.59 502.32 32.974 502.95 32.82 503.86ZM38.7733 507.5V498.68H40.0333V507.5H38.7733ZM45.8395 505.68H47.1695C46.7635 506.73 45.9095 507.57 44.4395 507.57C42.7595 507.57 41.4295 506.24 41.4295 504.35C41.4295 502.46 42.7455 501.13 44.3695 501.13C45.9935 501.13 47.3095 502.46 47.3095 504.35C47.3095 504.504 47.2815 504.644 47.2675 504.742L47.2395 504.91H42.7595C42.8295 505.694 43.5295 506.38 44.4395 506.38C45.2095 506.38 45.6295 505.96 45.8395 505.68ZM42.7595 503.86H46.1195C45.9655 502.95 45.3635 502.32 44.3695 502.32C43.5295 502.32 42.9135 502.95 42.7595 503.86ZM52.7727 505.19H54.1027C53.8087 506.534 52.7867 507.57 51.3027 507.57C49.6227 507.57 48.2927 506.24 48.2927 504.35C48.2927 502.46 49.6227 501.13 51.3027 501.13C52.7867 501.13 53.8087 502.166 54.1027 503.51H52.7727C52.5627 502.796 52.0867 502.32 51.3027 502.32C50.3927 502.32 49.5527 503.16 49.5527 504.35C49.5527 505.54 50.3927 506.38 51.3027 506.38C52.0867 506.38 52.5627 505.904 52.7727 505.19ZM55.9293 505.4V502.39H54.8093V501.2H55.2993C55.7893 501.2 56.1393 500.85 56.1393 500.36V499.52H57.1893V501.2H58.5893V502.39H57.1893V505.4C57.1893 505.96 57.6093 506.38 58.1693 506.38C58.2673 506.38 58.3653 506.366 58.4633 506.352L58.5893 506.31V507.43C58.5333 507.458 58.4633 507.486 58.3933 507.5C58.2533 507.542 58.0853 507.57 57.8893 507.57C56.7693 507.57 55.9293 506.73 55.9293 505.4ZM67.2649 505.19H68.5949C68.3009 506.534 67.2789 507.57 65.7949 507.57C64.1149 507.57 62.7849 506.24 62.7849 504.35C62.7849 502.46 64.1149 501.13 65.7949 501.13C67.2789 501.13 68.3009 502.166 68.5949 503.51H67.2649C67.0549 502.796 66.5789 502.32 65.7949 502.32C64.8849 502.32 64.0449 503.16 64.0449 504.35C64.0449 505.54 64.8849 506.38 65.7949 506.38C66.5789 506.38 67.0549 505.904 67.2649 505.19ZM69.8615 507.5V501.2H71.1215V507.5H69.8615ZM70.4915 498.68C70.9255 498.68 71.2615 499.016 71.2615 499.45C71.2615 499.884 70.9255 500.22 70.4915 500.22C70.0575 500.22 69.7215 499.884 69.7215 499.45C69.7215 499.016 70.0575 498.68 70.4915 498.68ZM73.3609 505.4V502.39H72.2409V501.2H72.7309C73.2209 501.2 73.5709 500.85 73.5709 500.36V499.52H74.6209V501.2H76.0209V502.39H74.6209V505.4C74.6209 505.96 75.0409 506.38 75.6009 506.38C75.6989 506.38 75.7969 506.366 75.8949 506.352L76.0209 506.31V507.43C75.9649 507.458 75.8949 507.486 75.8249 507.5C75.6849 507.542 75.5169 507.57 75.3209 507.57C74.2009 507.57 73.3609 506.73 73.3609 505.4ZM77.8404 509.74V508.69C78.5544 508.69 78.8764 508.354 79.0304 507.92L79.2404 507.29L76.7904 501.2H78.1204L79.8704 505.75L81.6204 501.2H82.9504L80.2904 507.92C79.7304 509.32 79.2404 509.81 78.2604 509.81C78.1484 509.81 78.0644 509.796 77.9664 509.782L77.8404 509.74ZM87.006 507.5V501.2H88.266V507.5H87.006ZM87.636 498.68C88.07 498.68 88.406 499.016 88.406 499.45C88.406 499.884 88.07 500.22 87.636 500.22C87.202 500.22 86.866 499.884 86.866 499.45C86.866 499.016 87.202 498.68 87.636 498.68ZM89.9455 507.5V501.2H90.8555L91.1355 501.83C91.2615 501.704 91.4015 501.578 91.5695 501.48C91.8635 501.312 92.3255 501.13 92.9555 501.13C94.3555 501.13 95.4755 502.25 95.4755 503.86V507.5H94.2155V503.86C94.2155 503.034 93.5295 502.32 92.7455 502.32C91.8915 502.32 91.2055 503.034 91.2055 503.86V507.5H89.9455ZM100.508 509.74V508.69C101.222 508.69 101.544 508.354 101.698 507.92L101.908 507.29L99.4584 501.2H100.788L102.538 505.75L104.288 501.2H105.618L102.958 507.92C102.398 509.32 101.908 509.81 100.928 509.81C100.816 509.81 100.732 509.796 100.634 509.782L100.508 509.74ZM109.258 506.38C110.168 506.38 111.008 505.54 111.008 504.35C111.008 503.16 110.168 502.32 109.258 502.32C108.348 502.32 107.508 503.16 107.508 504.35C107.508 505.54 108.348 506.38 109.258 506.38ZM109.258 507.57C107.578 507.57 106.248 506.24 106.248 504.35C106.248 502.46 107.578 501.13 109.258 501.13C110.938 501.13 112.268 502.46 112.268 504.35C112.268 506.24 110.938 507.57 109.258 507.57ZM113.598 504.84V501.2H114.858V504.84C114.858 505.694 115.544 506.38 116.328 506.38C117.154 506.38 117.868 505.694 117.868 504.84V501.2H119.128V507.5H118.218L117.938 506.87C117.812 506.996 117.672 507.122 117.504 507.22C117.21 507.402 116.748 507.57 116.118 507.57C114.718 507.57 113.598 506.45 113.598 504.84ZM120.803 507.5V501.2H121.713L121.993 501.83C122.105 501.704 122.245 501.578 122.399 501.48C122.665 501.312 123.057 501.13 123.603 501.13C123.757 501.13 123.841 501.158 123.911 501.172L124.023 501.2V502.46L123.897 502.432C123.799 502.418 123.701 502.39 123.603 502.39C122.749 502.39 122.063 503.104 122.063 503.93V507.5H120.803ZM128.283 507.5V498.68H129.543V507.5H128.283ZM133.949 506.38C134.859 506.38 135.699 505.54 135.699 504.35C135.699 503.16 134.859 502.32 133.949 502.32C133.039 502.32 132.199 503.16 132.199 504.35C132.199 505.54 133.039 506.38 133.949 506.38ZM133.949 507.57C132.269 507.57 130.939 506.24 130.939 504.35C130.939 502.46 132.269 501.13 133.949 501.13C135.629 501.13 136.959 502.46 136.959 504.35C136.959 506.24 135.629 507.57 133.949 507.57ZM142.419 505.19H143.749C143.455 506.534 142.433 507.57 140.949 507.57C139.269 507.57 137.939 506.24 137.939 504.35C137.939 502.46 139.269 501.13 140.949 501.13C142.433 501.13 143.455 502.166 143.749 503.51H142.419C142.209 502.796 141.733 502.32 140.949 502.32C140.039 502.32 139.199 503.16 139.199 504.35C139.199 505.54 140.039 506.38 140.949 506.38C141.733 506.38 142.209 505.904 142.419 505.19ZM149.006 507.5L148.726 506.87C148.6 506.996 148.46 507.122 148.292 507.22C147.998 507.402 147.536 507.57 146.906 507.57C145.506 507.57 144.736 506.8 144.736 505.68C144.736 504.42 145.576 503.58 148.656 503.58V503.37C148.656 502.74 148.25 502.32 147.466 502.32C146.626 502.32 146.276 502.656 146.206 503.09H144.946C145.016 501.97 145.912 501.13 147.466 501.13C148.936 501.13 149.916 502.11 149.916 503.37V507.5H149.006ZM148.656 505.036V504.7C146.416 504.7 145.996 505.12 145.996 505.75C145.996 506.1 146.346 506.45 146.976 506.45C148.04 506.45 148.656 505.82 148.656 505.036ZM151.947 505.4V502.39H150.827V501.2H151.317C151.807 501.2 152.157 500.85 152.157 500.36V499.52H153.207V501.2H154.607V502.39H153.207V505.4C153.207 505.96 153.627 506.38 154.187 506.38C154.285 506.38 154.383 506.366 154.481 506.352L154.607 506.31V507.43C154.551 507.458 154.481 507.486 154.411 507.5C154.271 507.542 154.103 507.57 153.907 507.57C152.787 507.57 151.947 506.73 151.947 505.4ZM156.076 507.5V501.2H157.336V507.5H156.076ZM156.706 498.68C157.14 498.68 157.476 499.016 157.476 499.45C157.476 499.884 157.14 500.22 156.706 500.22C156.272 500.22 155.936 499.884 155.936 499.45C155.936 499.016 156.272 498.68 156.706 498.68ZM161.676 506.38C162.586 506.38 163.426 505.54 163.426 504.35C163.426 503.16 162.586 502.32 161.676 502.32C160.766 502.32 159.926 503.16 159.926 504.35C159.926 505.54 160.766 506.38 161.676 506.38ZM161.676 507.57C159.996 507.57 158.666 506.24 158.666 504.35C158.666 502.46 159.996 501.13 161.676 501.13C163.356 501.13 164.686 502.46 164.686 504.35C164.686 506.24 163.356 507.57 161.676 507.57ZM166.016 507.5V501.2H166.926L167.206 501.83C167.332 501.704 167.472 501.578 167.64 501.48C167.934 501.312 168.396 501.13 169.026 501.13C170.426 501.13 171.546 502.25 171.546 503.86V507.5H170.286V503.86C170.286 503.034 169.6 502.32 168.816 502.32C167.962 502.32 167.276 503.034 167.276 503.86V507.5H166.016Z" fill="#C6C6C6"/>
<path d="M343.001 505.333C342.826 505.334 342.652 505.299 342.49 505.232C342.329 505.165 342.182 505.067 342.058 504.943L338.529 501.414L339.472 500.471L343.001 504L346.529 500.471L347.472 501.414L343.943 504.943C343.82 505.067 343.673 505.165 343.511 505.232C343.349 505.299 343.176 505.334 343.001 505.333Z" fill="#C6C6C6"/>
<path d="M17.12 237V228.18H22.51V229.16H18.24V232.1H21.74V233.08H18.24V237H17.12ZM23.91 237V230.7H24.96V237H23.91ZM23.77 228.922C23.77 228.53 24.05 228.25 24.428 228.25C24.82 228.25 25.1 228.53 25.1 228.922C25.1 229.3 24.82 229.58 24.428 229.58C24.05 229.58 23.77 229.3 23.77 228.922ZM26.7811 237V230.7H27.5511L27.8311 231.4C27.9571 231.26 28.1111 231.134 28.2931 231.022C28.6151 230.812 29.0491 230.63 29.6511 230.63H29.7911V231.68H29.5111C28.5171 231.68 27.8311 232.366 27.8311 233.43V237H26.7811ZM30.5584 235.11H31.6084C31.6784 235.67 32.0844 236.09 32.8684 236.09C33.5824 236.09 33.9884 235.67 33.9884 235.18C33.9884 233.766 30.6984 234.844 30.6984 232.45C30.6984 231.484 31.5384 230.63 32.7984 230.63C34.1424 230.63 34.8984 231.4 34.9684 232.52H33.9184C33.8484 231.96 33.5124 231.61 32.7984 231.61C32.1684 231.61 31.7484 232.016 31.7484 232.45C31.7484 233.864 35.0384 232.8 35.0384 235.18C35.0384 236.23 34.1984 237.07 32.8684 237.07C31.4684 237.07 30.6284 236.23 30.5584 235.11ZM36.9918 234.97V231.68H35.8718V230.7H36.3618C36.8798 230.7 37.1318 230.448 37.1318 229.93V229.02H38.0418V230.7H39.4418V231.68H38.0418V234.97C38.0418 235.684 38.4618 236.09 39.0918 236.09C39.1898 236.09 39.2738 236.076 39.3438 236.062L39.4418 236.02V236.93C39.3998 236.958 39.3438 236.986 39.2878 237C39.1618 237.042 39.0078 237.07 38.8118 237.07C37.8458 237.07 36.9918 236.23 36.9918 234.97ZM43.994 237V230.7H44.764L45.044 231.4C45.17 231.26 45.324 231.134 45.506 231.022C45.828 230.812 46.262 230.63 46.864 230.63C48.194 230.63 49.314 231.75 49.314 233.36V237H48.264V233.36C48.264 232.31 47.55 231.61 46.724 231.61C45.73 231.61 45.044 232.296 45.044 233.36V237H43.994ZM55.0523 237L54.7723 236.3C54.6323 236.454 54.4783 236.58 54.2963 236.692C53.9743 236.902 53.5123 237.07 52.8823 237.07C51.6223 237.07 50.7823 236.23 50.7823 235.18C50.7823 233.99 51.6223 233.15 54.7723 233.15V232.8C54.7723 232.17 54.2263 231.61 53.4423 231.61C52.6583 231.61 52.3363 231.96 52.1823 232.52H51.0623C51.2163 231.47 52.0423 230.63 53.4423 230.63C54.8423 230.63 55.8223 231.624 55.8223 232.8V237H55.0523ZM54.7723 234.62V234.13C52.2523 234.13 51.8323 234.55 51.8323 235.25C51.8323 235.684 52.2523 236.09 52.8823 236.09C54.0023 236.09 54.7723 235.32 54.7723 234.62ZM57.5702 237V230.7H58.3402L58.6202 231.4C58.7182 231.26 58.8442 231.134 58.9982 231.022C59.2642 230.812 59.6142 230.63 60.1602 230.63C60.7902 230.63 61.2242 230.91 61.5042 231.19C61.6722 231.358 61.8122 231.54 61.9102 231.75C62.0362 231.54 62.1762 231.358 62.3582 231.19C62.6802 230.91 63.1282 230.63 63.8002 230.63C64.9202 230.63 65.9002 231.596 65.9002 233.22V237H64.8502V233.22C64.8502 232.156 64.3042 231.61 63.5902 231.61C62.8762 231.61 62.2602 232.226 62.2602 233.22V237H61.2102V233.22C61.2102 232.156 60.6642 231.61 59.9502 231.61C59.2642 231.61 58.6202 232.282 58.6202 233.22V237H57.5702ZM71.7763 235.32H72.8963C72.4763 236.23 71.6363 237.07 70.2363 237.07C68.5563 237.07 67.2263 235.74 67.2263 233.85C67.2263 231.96 68.6403 230.63 70.1663 230.63C71.7063 230.63 73.0363 231.876 73.0363 233.78C73.0363 233.962 73.0083 234.088 72.9943 234.186L72.9663 234.34H68.3463C68.4163 235.25 69.2423 236.09 70.2363 236.09C71.0623 236.09 71.5663 235.614 71.7763 235.32ZM68.3463 233.43H71.9863C71.8323 232.38 71.0763 231.61 70.1663 231.61C69.2563 231.61 68.5003 232.38 68.3463 233.43Z" fill="white"/>
<rect x="16" y="245" width="163" height="42" rx="4" fill="#3F3F46"/>
<path d="M25.05 270.5V261.68H30.86V262.94H26.38V265.32H30.51V266.58H26.38V269.24H31V270.5H25.05ZM32.1173 269.8C32.1173 269.366 32.4533 269.03 32.8873 269.03C33.3213 269.03 33.6573 269.366 33.6573 269.8C33.6573 270.234 33.3213 270.57 32.8873 270.57C32.4533 270.57 32.1173 270.234 32.1173 269.8ZM34.8462 270.92H36.1062C36.3162 271.354 36.7362 271.76 37.5762 271.76C38.5702 271.76 39.1862 271.13 39.1862 270.22V269.59C39.0602 269.716 38.9202 269.842 38.7522 269.94C38.4582 270.122 38.0382 270.29 37.4362 270.29C35.8962 270.29 34.5662 268.946 34.5662 267.21C34.5662 265.474 35.8962 264.13 37.4362 264.13C38.0662 264.13 38.5282 264.312 38.8222 264.48C38.9902 264.578 39.1302 264.704 39.2562 264.83L39.5362 264.2H40.4462V270.22C40.4462 271.76 39.3262 272.88 37.5762 272.88C36.0502 272.88 35.1122 271.97 34.8462 270.92ZM37.5902 269.1C38.4862 269.1 39.3262 268.26 39.3262 267.21C39.3262 266.16 38.4862 265.32 37.5762 265.32C36.6662 265.32 35.8262 266.16 35.8262 267.21C35.8262 268.26 36.6662 269.1 37.5902 269.1ZM44.4974 267.98H45.8274C45.8274 268.82 46.3874 269.38 47.2274 269.38C48.0674 269.38 48.6274 268.82 48.6274 267.98V261.68H49.9574V267.98C49.9574 269.45 48.8374 270.57 47.2274 270.57C45.6174 270.57 44.4974 269.45 44.4974 267.98ZM54.3652 269.38C55.2752 269.38 56.1152 268.54 56.1152 267.35C56.1152 266.16 55.2752 265.32 54.3652 265.32C53.4552 265.32 52.6152 266.16 52.6152 267.35C52.6152 268.54 53.4552 269.38 54.3652 269.38ZM54.3652 270.57C52.6852 270.57 51.3552 269.24 51.3552 267.35C51.3552 265.46 52.6852 264.13 54.3652 264.13C56.0452 264.13 57.3752 265.46 57.3752 267.35C57.3752 269.24 56.0452 270.57 54.3652 270.57ZM58.7752 270.5V261.68H60.0352V264.83C60.1612 264.704 60.3152 264.578 60.4832 264.48C60.7772 264.312 61.2252 264.13 61.7852 264.13C63.1852 264.13 64.3052 265.25 64.3052 266.86V270.5H63.0452V266.86C63.0452 266.034 62.3592 265.32 61.5752 265.32C60.7212 265.32 60.0352 266.034 60.0352 266.86V270.5H58.7752ZM65.9103 270.5V264.2H66.8203L67.1003 264.83C67.2263 264.704 67.3663 264.578 67.5343 264.48C67.8283 264.312 68.2903 264.13 68.9203 264.13C70.3203 264.13 71.4403 265.25 71.4403 266.86V270.5H70.1803V266.86C70.1803 266.034 69.4943 265.32 68.7103 265.32C67.8563 265.32 67.1703 266.034 67.1703 266.86V270.5H65.9103Z" fill="#C6C6C6"/>
<path d="M198.12 237V228.18H199.24V236.02H203.44V237H198.12ZM208.476 237L208.196 236.3C208.056 236.454 207.902 236.58 207.72 236.692C207.398 236.902 206.936 237.07 206.306 237.07C205.046 237.07 204.206 236.23 204.206 235.18C204.206 233.99 205.046 233.15 208.196 233.15V232.8C208.196 232.17 207.65 231.61 206.866 231.61C206.082 231.61 205.76 231.96 205.606 232.52H204.486C204.64 231.47 205.466 230.63 206.866 230.63C208.266 230.63 209.246 231.624 209.246 232.8V237H208.476ZM208.196 234.62V234.13C205.676 234.13 205.256 234.55 205.256 235.25C205.256 235.684 205.676 236.09 206.306 236.09C207.426 236.09 208.196 235.32 208.196 234.62ZM210.574 235.11H211.624C211.694 235.67 212.1 236.09 212.884 236.09C213.598 236.09 214.004 235.67 214.004 235.18C214.004 233.766 210.714 234.844 210.714 232.45C210.714 231.484 211.554 230.63 212.814 230.63C214.158 230.63 214.914 231.4 214.984 232.52H213.934C213.864 231.96 213.528 231.61 212.814 231.61C212.184 231.61 211.764 232.016 211.764 232.45C211.764 233.864 215.054 232.8 215.054 235.18C215.054 236.23 214.214 237.07 212.884 237.07C211.484 237.07 210.644 236.23 210.574 235.11ZM217.007 234.97V231.68H215.887V230.7H216.377C216.895 230.7 217.147 230.448 217.147 229.93V229.02H218.057V230.7H219.457V231.68H218.057V234.97C218.057 235.684 218.477 236.09 219.107 236.09C219.205 236.09 219.289 236.076 219.359 236.062L219.457 236.02V236.93C219.415 236.958 219.359 236.986 219.303 237C219.177 237.042 219.023 237.07 218.827 237.07C217.861 237.07 217.007 236.23 217.007 234.97ZM224.01 237V230.7H224.78L225.06 231.4C225.186 231.26 225.34 231.134 225.522 231.022C225.844 230.812 226.278 230.63 226.88 230.63C228.21 230.63 229.33 231.75 229.33 233.36V237H228.28V233.36C228.28 232.31 227.566 231.61 226.74 231.61C225.746 231.61 225.06 232.296 225.06 233.36V237H224.01ZM235.068 237L234.788 236.3C234.648 236.454 234.494 236.58 234.312 236.692C233.99 236.902 233.528 237.07 232.898 237.07C231.638 237.07 230.798 236.23 230.798 235.18C230.798 233.99 231.638 233.15 234.788 233.15V232.8C234.788 232.17 234.242 231.61 233.458 231.61C232.674 231.61 232.352 231.96 232.198 232.52H231.078C231.232 231.47 232.058 230.63 233.458 230.63C234.858 230.63 235.838 231.624 235.838 232.8V237H235.068ZM234.788 234.62V234.13C232.268 234.13 231.848 234.55 231.848 235.25C231.848 235.684 232.268 236.09 232.898 236.09C234.018 236.09 234.788 235.32 234.788 234.62ZM237.586 237V230.7H238.356L238.636 231.4C238.734 231.26 238.86 231.134 239.014 231.022C239.28 230.812 239.63 230.63 240.176 230.63C240.806 230.63 241.24 230.91 241.52 231.19C241.688 231.358 241.828 231.54 241.926 231.75C242.052 231.54 242.192 231.358 242.374 231.19C242.696 230.91 243.144 230.63 243.816 230.63C244.936 230.63 245.916 231.596 245.916 233.22V237H244.866V233.22C244.866 232.156 244.32 231.61 243.606 231.61C242.892 231.61 242.276 232.226 242.276 233.22V237H241.226V233.22C241.226 232.156 240.68 231.61 239.966 231.61C239.28 231.61 238.636 232.282 238.636 233.22V237H237.586ZM251.792 235.32H252.912C252.492 236.23 251.652 237.07 250.252 237.07C248.572 237.07 247.242 235.74 247.242 233.85C247.242 231.96 248.656 230.63 250.182 230.63C251.722 230.63 253.052 231.876 253.052 233.78C253.052 233.962 253.024 234.088 253.01 234.186L252.982 234.34H248.362C248.432 235.25 249.258 236.09 250.252 236.09C251.078 236.09 251.582 235.614 251.792 235.32ZM248.362 233.43H252.002C251.848 232.38 251.092 231.61 250.182 231.61C249.272 231.61 248.516 232.38 248.362 233.43Z" fill="white"/>
<rect x="197" y="245" width="163" height="42" rx="4" fill="#3F3F46"/>
<path d="M206.05 270.5V261.68H211.86V262.94H207.38V265.32H211.51V266.58H207.38V269.24H212V270.5H206.05ZM213.117 269.8C213.117 269.366 213.453 269.03 213.887 269.03C214.321 269.03 214.657 269.366 214.657 269.8C214.657 270.234 214.321 270.57 213.887 270.57C213.453 270.57 213.117 270.234 213.117 269.8ZM215.846 270.92H217.106C217.316 271.354 217.736 271.76 218.576 271.76C219.57 271.76 220.186 271.13 220.186 270.22V269.59C220.06 269.716 219.92 269.842 219.752 269.94C219.458 270.122 219.038 270.29 218.436 270.29C216.896 270.29 215.566 268.946 215.566 267.21C215.566 265.474 216.896 264.13 218.436 264.13C219.066 264.13 219.528 264.312 219.822 264.48C219.99 264.578 220.13 264.704 220.256 264.83L220.536 264.2H221.446V270.22C221.446 271.76 220.326 272.88 218.576 272.88C217.05 272.88 216.112 271.97 215.846 270.92ZM218.59 269.1C219.486 269.1 220.326 268.26 220.326 267.21C220.326 266.16 219.486 265.32 218.576 265.32C217.666 265.32 216.826 266.16 216.826 267.21C216.826 268.26 217.666 269.1 218.59 269.1ZM225.357 270.5L228.717 261.68H229.837L233.197 270.5H231.797L231.027 268.47H227.527L226.757 270.5H225.357ZM228.017 267.21H230.537L229.277 263.71L228.017 267.21ZM234.031 272.74V264.2H234.941L235.221 264.83C235.347 264.704 235.487 264.578 235.655 264.48C235.949 264.312 236.411 264.13 237.041 264.13C238.721 264.13 240.051 265.46 240.051 267.35C240.051 269.24 238.721 270.57 237.041 270.57C236.439 270.57 236.019 270.402 235.725 270.22C235.557 270.122 235.417 269.996 235.291 269.87V272.74H234.031ZM236.971 269.38C237.937 269.38 238.791 268.54 238.791 267.35C238.791 266.16 237.937 265.32 236.971 265.32C236.005 265.32 235.151 266.16 235.151 267.35C235.151 268.54 236.005 269.38 236.971 269.38ZM241.387 272.74V264.2H242.297L242.577 264.83C242.703 264.704 242.843 264.578 243.011 264.48C243.305 264.312 243.767 264.13 244.397 264.13C246.077 264.13 247.407 265.46 247.407 267.35C247.407 269.24 246.077 270.57 244.397 270.57C243.795 270.57 243.375 270.402 243.081 270.22C242.913 270.122 242.773 269.996 242.647 269.87V272.74H241.387ZM244.327 269.38C245.293 269.38 246.147 268.54 246.147 267.35C246.147 266.16 245.293 265.32 244.327 265.32C243.361 265.32 242.507 266.16 242.507 267.35C242.507 268.54 243.361 269.38 244.327 269.38ZM248.812 270.5V261.68H250.072V270.5H248.812ZM255.879 268.68H257.209C256.803 269.73 255.949 270.57 254.479 270.57C252.799 270.57 251.469 269.24 251.469 267.35C251.469 265.46 252.785 264.13 254.409 264.13C256.033 264.13 257.349 265.46 257.349 267.35C257.349 267.504 257.321 267.644 257.307 267.742L257.279 267.91H252.799C252.869 268.694 253.569 269.38 254.479 269.38C255.249 269.38 255.669 268.96 255.879 268.68ZM252.799 266.86H256.159C256.005 265.95 255.403 265.32 254.409 265.32C253.569 265.32 252.953 265.95 252.799 266.86ZM258.332 268.47H259.592C259.662 269.03 259.998 269.38 260.712 269.38C261.496 269.38 261.832 269.044 261.832 268.61C261.832 267.49 258.472 268.246 258.472 266.02C258.472 264.97 259.312 264.13 260.642 264.13C262.112 264.13 262.882 264.9 262.952 266.09H261.692C261.622 265.656 261.272 265.32 260.642 265.32C260.012 265.32 259.662 265.67 259.662 266.02C259.662 267.14 263.022 266.384 263.022 268.61C263.022 269.73 262.182 270.57 260.712 270.57C259.158 270.57 258.402 269.814 258.332 268.47ZM268.416 268.68H269.746C269.34 269.73 268.486 270.57 267.016 270.57C265.336 270.57 264.006 269.24 264.006 267.35C264.006 265.46 265.322 264.13 266.946 264.13C268.57 264.13 269.886 265.46 269.886 267.35C269.886 267.504 269.858 267.644 269.844 267.742L269.816 267.91H265.336C265.406 268.694 266.106 269.38 267.016 269.38C267.786 269.38 268.206 268.96 268.416 268.68ZM265.336 266.86H268.696C268.542 265.95 267.94 265.32 266.946 265.32C266.106 265.32 265.49 265.95 265.336 266.86ZM275.279 268.68H276.609C276.203 269.73 275.349 270.57 273.879 270.57C272.199 270.57 270.869 269.24 270.869 267.35C270.869 265.46 272.185 264.13 273.809 264.13C275.433 264.13 276.749 265.46 276.749 267.35C276.749 267.504 276.721 267.644 276.707 267.742L276.679 267.91H272.199C272.269 268.694 272.969 269.38 273.879 269.38C274.649 269.38 275.069 268.96 275.279 268.68ZM272.199 266.86H275.559C275.405 265.95 274.803 265.32 273.809 265.32C272.969 265.32 272.353 265.95 272.199 266.86ZM282.842 270.5L282.562 269.87C282.436 269.996 282.296 270.122 282.128 270.22C281.834 270.402 281.372 270.57 280.742 270.57C279.062 270.57 277.732 269.24 277.732 267.35C277.732 265.46 279.062 264.13 280.742 264.13C281.344 264.13 281.764 264.312 282.058 264.48C282.226 264.578 282.366 264.704 282.492 264.83V261.68H283.752V270.5H282.842ZM280.812 269.38C281.778 269.38 282.632 268.54 282.632 267.35C282.632 266.16 281.778 265.32 280.812 265.32C279.846 265.32 278.992 266.16 278.992 267.35C278.992 268.54 279.846 269.38 280.812 269.38Z" fill="#C6C6C6"/>
<rect x="196" y="184" width="14" height="14" rx="7" fill="url(#paint1_linear_234_2609)"/>
<path d="M200.876 194V193.15L203.176 190.75C203.306 190.62 203.416 190.49 203.526 190.36C203.696 190.13 203.876 189.83 203.876 189.55C203.876 189.04 203.576 188.75 202.976 188.75C202.376 188.75 202.026 189.09 202.026 189.65H200.826C200.826 188.5 201.676 187.65 202.976 187.65C204.326 187.65 205.126 188.45 205.126 189.5C205.126 189.98 204.836 190.46 204.546 190.83C204.376 191.05 204.186 191.26 203.976 191.45L202.626 192.85H205.076V194H200.876Z" fill="white"/>
<path d="M214.984 194V186.44H217.984C219.184 186.44 220.144 187.4 220.144 188.54C220.144 189.02 219.94 189.38 219.748 189.62C219.64 189.764 219.508 189.884 219.364 189.98C219.568 190.088 219.748 190.232 219.904 190.412C220.18 190.712 220.444 191.168 220.444 191.84C220.444 192.98 219.424 194 218.044 194H214.984ZM216.124 189.56H217.984C218.596 189.56 219.064 189.08 219.064 188.54C219.064 188 218.596 187.52 217.984 187.52H216.124V189.56ZM216.124 192.92H218.044C218.764 192.92 219.304 192.38 219.304 191.72C219.304 191.06 218.764 190.52 218.044 190.52H216.124V192.92ZM221.589 194V188.6H222.669V194H221.589ZM222.129 186.44C222.501 186.44 222.789 186.728 222.789 187.1C222.789 187.472 222.501 187.76 222.129 187.76C221.757 187.76 221.469 187.472 221.469 187.1C221.469 186.728 221.757 186.44 222.129 186.44ZM226.389 193.04C227.169 193.04 227.889 192.32 227.889 191.3C227.889 190.28 227.169 189.56 226.389 189.56C225.609 189.56 224.889 190.28 224.889 191.3C224.889 192.32 225.609 193.04 226.389 193.04ZM226.389 194.06C224.949 194.06 223.809 192.92 223.809 191.3C223.809 189.68 224.949 188.54 226.389 188.54C227.829 188.54 228.969 189.68 228.969 191.3C228.969 192.92 227.829 194.06 226.389 194.06ZM234.189 194L233.949 193.46C233.841 193.568 233.721 193.676 233.577 193.76C233.325 193.916 232.929 194.06 232.389 194.06C230.949 194.06 229.809 192.92 229.809 191.3C229.809 189.68 230.949 188.54 232.389 188.54C232.905 188.54 233.265 188.696 233.517 188.84C233.661 188.924 233.781 189.032 233.889 189.14V186.44H234.969V194H234.189ZM232.449 193.04C233.277 193.04 234.009 192.32 234.009 191.3C234.009 190.28 233.277 189.56 232.449 189.56C231.621 189.56 230.889 190.28 230.889 191.3C230.889 192.32 231.621 193.04 232.449 193.04ZM239.892 194L239.652 193.46C239.544 193.568 239.424 193.676 239.28 193.76C239.028 193.916 238.632 194.06 238.092 194.06C236.892 194.06 236.232 193.4 236.232 192.44C236.232 191.36 236.952 190.64 239.592 190.64V190.46C239.592 189.92 239.244 189.56 238.572 189.56C237.852 189.56 237.552 189.848 237.492 190.22H236.412C236.472 189.26 237.24 188.54 238.572 188.54C239.832 188.54 240.672 189.38 240.672 190.46V194H239.892ZM239.592 191.888V191.6C237.672 191.6 237.312 191.96 237.312 192.5C237.312 192.8 237.612 193.1 238.152 193.1C239.064 193.1 239.592 192.56 239.592 191.888ZM242.413 192.2V189.62H241.453V188.6H241.873C242.293 188.6 242.593 188.3 242.593 187.88V187.16H243.493V188.6H244.693V189.62H243.493V192.2C243.493 192.68 243.853 193.04 244.333 193.04C244.417 193.04 244.501 193.028 244.585 193.016L244.693 192.98V193.94C244.645 193.964 244.585 193.988 244.525 194C244.405 194.036 244.261 194.06 244.093 194.06C243.133 194.06 242.413 193.34 242.413 192.2ZM249.255 194L249.015 193.46C248.907 193.568 248.787 193.676 248.643 193.76C248.391 193.916 247.995 194.06 247.455 194.06C246.255 194.06 245.595 193.4 245.595 192.44C245.595 191.36 246.315 190.64 248.955 190.64V190.46C248.955 189.92 248.607 189.56 247.935 189.56C247.215 189.56 246.915 189.848 246.855 190.22H245.775C245.835 189.26 246.603 188.54 247.935 188.54C249.195 188.54 250.035 189.38 250.035 190.46V194H249.255ZM248.955 191.888V191.6C247.035 191.6 246.675 191.96 246.675 192.5C246.675 192.8 246.975 193.1 247.515 193.1C248.427 193.1 248.955 192.56 248.955 191.888ZM254.05 194V188.6H255.13V194H254.05ZM254.59 186.44C254.962 186.44 255.25 186.728 255.25 187.1C255.25 187.472 254.962 187.76 254.59 187.76C254.218 187.76 253.93 187.472 253.93 187.1C253.93 186.728 254.218 186.44 254.59 186.44ZM256.57 194V188.6H257.35L257.59 189.14C257.698 189.032 257.818 188.924 257.962 188.84C258.214 188.696 258.61 188.54 259.15 188.54C260.35 188.54 261.31 189.5 261.31 190.88V194H260.23V190.88C260.23 190.172 259.642 189.56 258.97 189.56C258.238 189.56 257.65 190.172 257.65 190.88V194H256.57ZM262.867 194V189.62H262.207V188.6H262.867V188.24C262.867 187.1 263.587 186.38 264.547 186.38C264.727 186.38 264.871 186.404 264.979 186.44L265.147 186.5V187.46L265.039 187.436C264.955 187.424 264.871 187.4 264.787 187.4C264.307 187.4 263.947 187.76 263.947 188.24V188.6H265.147V189.62H263.947V194H262.867ZM268.389 193.04C269.169 193.04 269.889 192.32 269.889 191.3C269.889 190.28 269.169 189.56 268.389 189.56C267.609 189.56 266.889 190.28 266.889 191.3C266.889 192.32 267.609 193.04 268.389 193.04ZM268.389 194.06C266.949 194.06 265.809 192.92 265.809 191.3C265.809 189.68 266.949 188.54 268.389 188.54C269.829 188.54 270.969 189.68 270.969 191.3C270.969 192.92 269.829 194.06 268.389 194.06ZM272.109 194V188.6H272.889L273.129 189.14C273.225 189.032 273.345 188.924 273.477 188.84C273.705 188.696 274.041 188.54 274.509 188.54C274.641 188.54 274.713 188.564 274.773 188.576L274.869 188.6V189.68L274.761 189.656C274.677 189.644 274.593 189.62 274.509 189.62C273.777 189.62 273.189 190.232 273.189 190.94V194H272.109ZM275.824 194V188.6H276.604L276.844 189.14C276.94 189.032 277.06 188.924 277.192 188.84C277.42 188.696 277.744 188.54 278.164 188.54C278.68 188.54 279.04 188.756 279.292 188.96C279.436 189.092 279.556 189.224 279.664 189.38C279.772 189.224 279.916 189.092 280.072 188.96C280.348 188.756 280.744 188.54 281.284 188.54C282.292 188.54 283.144 189.368 283.144 190.76V194H282.064V190.76C282.064 190.04 281.584 189.56 281.044 189.56C280.504 189.56 280.024 190.04 280.024 190.76V194H278.944V190.76C278.944 190.04 278.464 189.56 277.924 189.56C277.384 189.56 276.904 190.04 276.904 190.76V194H275.824ZM287.939 194L287.699 193.46C287.591 193.568 287.471 193.676 287.327 193.76C287.075 193.916 286.679 194.06 286.139 194.06C284.939 194.06 284.279 193.4 284.279 192.44C284.279 191.36 284.999 190.64 287.639 190.64V190.46C287.639 189.92 287.291 189.56 286.619 189.56C285.899 189.56 285.599 189.848 285.539 190.22H284.459C284.519 189.26 285.287 188.54 286.619 188.54C287.879 188.54 288.719 189.38 288.719 190.46V194H287.939ZM287.639 191.888V191.6C285.719 191.6 285.359 191.96 285.359 192.5C285.359 192.8 285.659 193.1 286.199 193.1C287.111 193.1 287.639 192.56 287.639 191.888ZM290.46 192.2V189.62H289.5V188.6H289.92C290.34 188.6 290.64 188.3 290.64 187.88V187.16H291.54V188.6H292.74V189.62H291.54V192.2C291.54 192.68 291.9 193.04 292.38 193.04C292.464 193.04 292.548 193.028 292.632 193.016L292.74 192.98V193.94C292.692 193.964 292.632 193.988 292.572 194C292.452 194.036 292.308 194.06 292.14 194.06C291.18 194.06 290.46 193.34 290.46 192.2ZM293.999 194V188.6H295.079V194H293.999ZM294.539 186.44C294.911 186.44 295.199 186.728 295.199 187.1C295.199 187.472 294.911 187.76 294.539 187.76C294.167 187.76 293.879 187.472 293.879 187.1C293.879 186.728 294.167 186.44 294.539 186.44ZM298.799 193.04C299.579 193.04 300.299 192.32 300.299 191.3C300.299 190.28 299.579 189.56 298.799 189.56C298.019 189.56 297.299 190.28 297.299 191.3C297.299 192.32 298.019 193.04 298.799 193.04ZM298.799 194.06C297.359 194.06 296.219 192.92 296.219 191.3C296.219 189.68 297.359 188.54 298.799 188.54C300.239 188.54 301.379 189.68 301.379 191.3C301.379 192.92 300.239 194.06 298.799 194.06ZM302.519 194V188.6H303.299L303.539 189.14C303.647 189.032 303.767 188.924 303.911 188.84C304.163 188.696 304.559 188.54 305.099 188.54C306.299 188.54 307.259 189.5 307.259 190.88V194H306.179V190.88C306.179 190.172 305.591 189.56 304.919 189.56C304.187 189.56 303.599 190.172 303.599 190.88V194H302.519Z" fill="white"/>
<rect x="196" y="204" width="163" height="4" rx="2" fill="url(#paint2_linear_234_2609)"/>
<rect x="16" y="184" width="14" height="14" rx="7" fill="url(#paint3_linear_234_2609)"/>
<path d="M22.3252 194V189.25L21.5752 189.75L20.9752 188.85L22.6252 187.7H23.5252V194H22.3252Z" fill="white"/>
<path d="M34.1094 194L36.9894 186.44H37.9494L40.8294 194H39.6294L38.9694 192.26H35.9694L35.3094 194H34.1094ZM36.3894 191.18H38.5494L37.4694 188.18L36.3894 191.18ZM45.0842 192.02H46.2242C45.9722 193.172 45.0962 194.06 43.8242 194.06C42.3842 194.06 41.2442 192.92 41.2442 191.3C41.2442 189.68 42.3842 188.54 43.8242 188.54C45.0962 188.54 45.9722 189.428 46.2242 190.58H45.0842C44.9042 189.968 44.4962 189.56 43.8242 189.56C43.0442 189.56 42.3242 190.28 42.3242 191.3C42.3242 192.32 43.0442 193.04 43.8242 193.04C44.4962 193.04 44.9042 192.632 45.0842 192.02ZM50.8498 192.02H51.9898C51.7378 193.172 50.8618 194.06 49.5898 194.06C48.1498 194.06 47.0098 192.92 47.0098 191.3C47.0098 189.68 48.1498 188.54 49.5898 188.54C50.8618 188.54 51.7378 189.428 51.9898 190.58H50.8498C50.6698 189.968 50.2618 189.56 49.5898 189.56C48.8098 189.56 48.0898 190.28 48.0898 191.3C48.0898 192.32 48.8098 193.04 49.5898 193.04C50.2618 193.04 50.6698 192.632 50.8498 192.02ZM55.3555 193.04C56.1355 193.04 56.8555 192.32 56.8555 191.3C56.8555 190.28 56.1355 189.56 55.3555 189.56C54.5755 189.56 53.8555 190.28 53.8555 191.3C53.8555 192.32 54.5755 193.04 55.3555 193.04ZM55.3555 194.06C53.9155 194.06 52.7755 192.92 52.7755 191.3C52.7755 189.68 53.9155 188.54 55.3555 188.54C56.7955 188.54 57.9355 189.68 57.9355 191.3C57.9355 192.92 56.7955 194.06 55.3555 194.06ZM59.0755 191.72V188.6H60.1555V191.72C60.1555 192.452 60.7435 193.04 61.4155 193.04C62.1235 193.04 62.7355 192.452 62.7355 191.72V188.6H63.8155V194H63.0355L62.7955 193.46C62.6875 193.568 62.5675 193.676 62.4235 193.76C62.1715 193.916 61.7755 194.06 61.2355 194.06C60.0355 194.06 59.0755 193.1 59.0755 191.72ZM65.2513 194V188.6H66.0312L66.2713 189.14C66.3793 189.032 66.4993 188.924 66.6433 188.84C66.8953 188.696 67.2913 188.54 67.8313 188.54C69.0313 188.54 69.9913 189.5 69.9913 190.88V194H68.9113V190.88C68.9113 190.172 68.3233 189.56 67.6513 189.56C66.9193 189.56 66.3313 190.172 66.3313 190.88V194H65.2513ZM71.8484 192.2V189.62H70.8884V188.6H71.3084C71.7284 188.6 72.0284 188.3 72.0284 187.88V187.16H72.9284V188.6H74.1284V189.62H72.9284V192.2C72.9284 192.68 73.2884 193.04 73.7684 193.04C73.8524 193.04 73.9364 193.028 74.0204 193.016L74.1284 192.98V193.94C74.0804 193.964 74.0204 193.988 73.9604 194C73.8404 194.036 73.6964 194.06 73.5284 194.06C72.5684 194.06 71.8484 193.34 71.8484 192.2ZM78.0247 194V188.6H79.1047V194H78.0247ZM78.5647 186.44C78.9367 186.44 79.2247 186.728 79.2247 187.1C79.2247 187.472 78.9367 187.76 78.5647 187.76C78.1927 187.76 77.9047 187.472 77.9047 187.1C77.9047 186.728 78.1927 186.44 78.5647 186.44ZM80.5442 194V188.6H81.3242L81.5642 189.14C81.6722 189.032 81.7922 188.924 81.9362 188.84C82.1882 188.696 82.5842 188.54 83.1242 188.54C84.3242 188.54 85.2842 189.5 85.2842 190.88V194H84.2042V190.88C84.2042 190.172 83.6162 189.56 82.9442 189.56C82.2122 189.56 81.6242 190.172 81.6242 190.88V194H80.5442ZM86.8414 194V189.62H86.1814V188.6H86.8414V188.24C86.8414 187.1 87.5614 186.38 88.5214 186.38C88.7014 186.38 88.8454 186.404 88.9534 186.44L89.1214 186.5V187.46L89.0134 187.436C88.9294 187.424 88.8454 187.4 88.7614 187.4C88.2814 187.4 87.9214 187.76 87.9214 188.24V188.6H89.1214V189.62H87.9214V194H86.8414ZM92.3633 193.04C93.1433 193.04 93.8633 192.32 93.8633 191.3C93.8633 190.28 93.1433 189.56 92.3633 189.56C91.5833 189.56 90.8633 190.28 90.8633 191.3C90.8633 192.32 91.5833 193.04 92.3633 193.04ZM92.3633 194.06C90.9233 194.06 89.7833 192.92 89.7833 191.3C89.7833 189.68 90.9233 188.54 92.3633 188.54C93.8033 188.54 94.9433 189.68 94.9433 191.3C94.9433 192.92 93.8033 194.06 92.3633 194.06ZM96.0833 194V188.6H96.8633L97.1033 189.14C97.1993 189.032 97.3193 188.924 97.4513 188.84C97.6793 188.696 98.0153 188.54 98.4833 188.54C98.6153 188.54 98.6873 188.564 98.7473 188.576L98.8433 188.6V189.68L98.7353 189.656C98.6513 189.644 98.5673 189.62 98.4833 189.62C97.7513 189.62 97.1633 190.232 97.1633 190.94V194H96.0833ZM99.7981 194V188.6H100.578L100.818 189.14C100.914 189.032 101.034 188.924 101.166 188.84C101.394 188.696 101.718 188.54 102.138 188.54C102.654 188.54 103.014 188.756 103.266 188.96C103.41 189.092 103.53 189.224 103.638 189.38C103.746 189.224 103.89 189.092 104.046 188.96C104.322 188.756 104.718 188.54 105.258 188.54C106.266 188.54 107.118 189.368 107.118 190.76V194H106.038V190.76C106.038 190.04 105.558 189.56 105.018 189.56C104.478 189.56 103.998 190.04 103.998 190.76V194H102.918V190.76C102.918 190.04 102.438 189.56 101.898 189.56C101.358 189.56 100.878 190.04 100.878 190.76V194H99.7981ZM111.913 194L111.673 193.46C111.565 193.568 111.445 193.676 111.301 193.76C111.049 193.916 110.653 194.06 110.113 194.06C108.913 194.06 108.253 193.4 108.253 192.44C108.253 191.36 108.973 190.64 111.613 190.64V190.46C111.613 189.92 111.265 189.56 110.593 189.56C109.873 189.56 109.573 189.848 109.513 190.22H108.433C108.493 189.26 109.261 188.54 110.593 188.54C111.853 188.54 112.693 189.38 112.693 190.46V194H111.913ZM111.613 191.888V191.6C109.693 191.6 109.333 191.96 109.333 192.5C109.333 192.8 109.633 193.1 110.173 193.1C111.085 193.1 111.613 192.56 111.613 191.888ZM114.434 192.2V189.62H113.474V188.6H113.894C114.314 188.6 114.614 188.3 114.614 187.88V187.16H115.514V188.6H116.714V189.62H115.514V192.2C115.514 192.68 115.874 193.04 116.354 193.04C116.438 193.04 116.522 193.028 116.606 193.016L116.714 192.98V193.94C116.666 193.964 116.606 193.988 116.546 194C116.426 194.036 116.282 194.06 116.114 194.06C115.154 194.06 114.434 193.34 114.434 192.2ZM117.974 194V188.6H119.054V194H117.974ZM118.514 186.44C118.886 186.44 119.174 186.728 119.174 187.1C119.174 187.472 118.886 187.76 118.514 187.76C118.142 187.76 117.854 187.472 117.854 187.1C117.854 186.728 118.142 186.44 118.514 186.44ZM122.773 193.04C123.553 193.04 124.273 192.32 124.273 191.3C124.273 190.28 123.553 189.56 122.773 189.56C121.993 189.56 121.273 190.28 121.273 191.3C121.273 192.32 121.993 193.04 122.773 193.04ZM122.773 194.06C121.333 194.06 120.193 192.92 120.193 191.3C120.193 189.68 121.333 188.54 122.773 188.54C124.213 188.54 125.353 189.68 125.353 191.3C125.353 192.92 124.213 194.06 122.773 194.06ZM126.493 194V188.6H127.273L127.513 189.14C127.621 189.032 127.741 188.924 127.885 188.84C128.137 188.696 128.533 188.54 129.073 188.54C130.273 188.54 131.233 189.5 131.233 190.88V194H130.153V190.88C130.153 190.172 129.565 189.56 128.893 189.56C128.161 189.56 127.573 190.172 127.573 190.88V194H126.493Z" fill="white"/>
<rect x="16" y="204" width="164" height="4" rx="2" fill="url(#paint4_linear_234_2609)"/>
<path d="M81.05 156V147.18H82.38V150.89H86.44V147.18H87.77V156H86.44V152.15H82.38V156H81.05ZM93.7184 154.18H95.0484C94.6424 155.23 93.7884 156.07 92.3184 156.07C90.6384 156.07 89.3084 154.74 89.3084 152.85C89.3084 150.96 90.6244 149.63 92.2484 149.63C93.8724 149.63 95.1884 150.96 95.1884 152.85C95.1884 153.004 95.1604 153.144 95.1464 153.242L95.1184 153.41H90.6384C90.7084 154.194 91.4084 154.88 92.3184 154.88C93.0884 154.88 93.5084 154.46 93.7184 154.18ZM90.6384 152.36H93.9984C93.8444 151.45 93.2424 150.82 92.2484 150.82C91.4084 150.82 90.7924 151.45 90.6384 152.36ZM96.5916 156V147.18H97.8516V156H96.5916ZM99.5978 158.24V149.7H100.508L100.788 150.33C100.914 150.204 101.054 150.078 101.222 149.98C101.516 149.812 101.978 149.63 102.608 149.63C104.288 149.63 105.618 150.96 105.618 152.85C105.618 154.74 104.288 156.07 102.608 156.07C102.006 156.07 101.586 155.902 101.292 155.72C101.124 155.622 100.984 155.496 100.858 155.37V158.24H99.5978ZM102.538 154.88C103.504 154.88 104.358 154.04 104.358 152.85C104.358 151.66 103.504 150.82 102.538 150.82C101.572 150.82 100.718 151.66 100.718 152.85C100.718 154.04 101.572 154.88 102.538 154.88ZM110.029 153.34V149.7H111.289V153.34C111.289 154.194 111.975 154.88 112.759 154.88C113.585 154.88 114.299 154.194 114.299 153.34V149.7H115.559V156H114.649L114.369 155.37C114.243 155.496 114.103 155.622 113.935 155.72C113.641 155.902 113.179 156.07 112.549 156.07C111.149 156.07 110.029 154.95 110.029 153.34ZM116.885 153.97H118.145C118.215 154.53 118.551 154.88 119.265 154.88C120.049 154.88 120.385 154.544 120.385 154.11C120.385 152.99 117.025 153.746 117.025 151.52C117.025 150.47 117.865 149.63 119.195 149.63C120.665 149.63 121.435 150.4 121.505 151.59H120.245C120.175 151.156 119.825 150.82 119.195 150.82C118.565 150.82 118.215 151.17 118.215 151.52C118.215 152.64 121.575 151.884 121.575 154.11C121.575 155.23 120.735 156.07 119.265 156.07C117.711 156.07 116.955 155.314 116.885 153.97ZM126.195 156V150.89H125.425V149.7H126.195V149.28C126.195 147.95 127.035 147.11 128.155 147.11C128.365 147.11 128.533 147.138 128.659 147.18L128.855 147.25V148.37L128.729 148.342C128.631 148.328 128.533 148.3 128.435 148.3C127.875 148.3 127.455 148.72 127.455 149.28V149.7H131.025V156H129.765V150.89H127.455V156H126.195ZM130.395 148.72C129.961 148.72 129.625 148.384 129.625 147.95C129.625 147.516 129.961 147.18 130.395 147.18C130.829 147.18 131.165 147.516 131.165 147.95C131.165 148.384 130.829 148.72 130.395 148.72ZM132.711 156V149.7H133.621L133.901 150.33C134.027 150.204 134.167 150.078 134.335 149.98C134.629 149.812 135.091 149.63 135.721 149.63C137.121 149.63 138.241 150.75 138.241 152.36V156H136.981V152.36C136.981 151.534 136.295 150.82 135.511 150.82C134.657 150.82 133.971 151.534 133.971 152.36V156H132.711ZM139.848 156V149.7H141.108V156H139.848ZM140.478 147.18C140.912 147.18 141.248 147.516 141.248 147.95C141.248 148.384 140.912 148.72 140.478 148.72C140.044 148.72 139.708 148.384 139.708 147.95C139.708 147.516 140.044 147.18 140.478 147.18ZM142.437 153.97H143.697C143.767 154.53 144.103 154.88 144.817 154.88C145.601 154.88 145.937 154.544 145.937 154.11C145.937 152.99 142.577 153.746 142.577 151.52C142.577 150.47 143.417 149.63 144.747 149.63C146.217 149.63 146.987 150.4 147.057 151.59H145.797C145.727 151.156 145.377 150.82 144.747 150.82C144.117 150.82 143.767 151.17 143.767 151.52C143.767 152.64 147.127 151.884 147.127 154.11C147.127 155.23 146.287 156.07 144.817 156.07C143.263 156.07 142.507 155.314 142.437 153.97ZM148.531 156V147.18H149.791V150.33C149.917 150.204 150.071 150.078 150.239 149.98C150.533 149.812 150.981 149.63 151.541 149.63C152.941 149.63 154.061 150.75 154.061 152.36V156H152.801V152.36C152.801 151.534 152.115 150.82 151.331 150.82C150.477 150.82 149.791 151.534 149.791 152.36V156H148.531ZM158.392 153.97H159.652C159.722 154.53 160.058 154.88 160.772 154.88C161.556 154.88 161.892 154.544 161.892 154.11C161.892 152.99 158.532 153.746 158.532 151.52C158.532 150.47 159.372 149.63 160.702 149.63C162.172 149.63 162.942 150.4 163.012 151.59H161.752C161.682 151.156 161.332 150.82 160.702 150.82C160.072 150.82 159.722 151.17 159.722 151.52C159.722 152.64 163.082 151.884 163.082 154.11C163.082 155.23 162.242 156.07 160.772 156.07C159.218 156.07 158.462 155.314 158.392 153.97ZM168.476 154.18H169.806C169.4 155.23 168.546 156.07 167.076 156.07C165.396 156.07 164.066 154.74 164.066 152.85C164.066 150.96 165.382 149.63 167.006 149.63C168.63 149.63 169.946 150.96 169.946 152.85C169.946 153.004 169.918 153.144 169.904 153.242L169.876 153.41H165.396C165.466 154.194 166.166 154.88 167.076 154.88C167.846 154.88 168.266 154.46 168.476 154.18ZM165.396 152.36H168.756C168.602 151.45 168 150.82 167.006 150.82C166.166 150.82 165.55 151.45 165.396 152.36ZM171.839 153.9V150.89H170.719V149.7H171.209C171.699 149.7 172.049 149.35 172.049 148.86V148.02H173.099V149.7H174.499V150.89H173.099V153.9C173.099 154.46 173.519 154.88 174.079 154.88C174.177 154.88 174.275 154.866 174.373 154.852L174.499 154.81V155.93C174.443 155.958 174.373 155.986 174.303 156C174.163 156.042 173.995 156.07 173.799 156.07C172.679 156.07 171.839 155.23 171.839 153.9ZM176.529 153.9V150.89H175.409V149.7H175.899C176.389 149.7 176.739 149.35 176.739 148.86V148.02H177.789V149.7H179.189V150.89H177.789V153.9C177.789 154.46 178.209 154.88 178.769 154.88C178.867 154.88 178.965 154.866 179.063 154.852L179.189 154.81V155.93C179.133 155.958 179.063 155.986 178.993 156C178.853 156.042 178.685 156.07 178.489 156.07C177.369 156.07 176.529 155.23 176.529 153.9ZM180.658 156V149.7H181.918V156H180.658ZM181.288 147.18C181.722 147.18 182.058 147.516 182.058 147.95C182.058 148.384 181.722 148.72 181.288 148.72C180.854 148.72 180.518 148.384 180.518 147.95C180.518 147.516 180.854 147.18 181.288 147.18ZM183.598 156V149.7H184.508L184.788 150.33C184.914 150.204 185.054 150.078 185.222 149.98C185.516 149.812 185.978 149.63 186.608 149.63C188.008 149.63 189.128 150.75 189.128 152.36V156H187.868V152.36C187.868 151.534 187.182 150.82 186.398 150.82C185.544 150.82 184.858 151.534 184.858 152.36V156H183.598ZM190.665 156.42H191.925C192.135 156.854 192.555 157.26 193.395 157.26C194.389 157.26 195.005 156.63 195.005 155.72V155.09C194.879 155.216 194.739 155.342 194.571 155.44C194.277 155.622 193.857 155.79 193.255 155.79C191.715 155.79 190.385 154.446 190.385 152.71C190.385 150.974 191.715 149.63 193.255 149.63C193.885 149.63 194.347 149.812 194.641 149.98C194.809 150.078 194.949 150.204 195.075 150.33L195.355 149.7H196.265V155.72C196.265 157.26 195.145 158.38 193.395 158.38C191.869 158.38 190.931 157.47 190.665 156.42ZM193.409 154.6C194.305 154.6 195.145 153.76 195.145 152.71C195.145 151.66 194.305 150.82 193.395 150.82C192.485 150.82 191.645 151.66 191.645 152.71C191.645 153.76 192.485 154.6 193.409 154.6ZM201.016 153.34V149.7H202.276V153.34C202.276 154.194 202.962 154.88 203.746 154.88C204.572 154.88 205.286 154.194 205.286 153.34V149.7H206.546V156H205.636L205.356 155.37C205.23 155.496 205.09 155.622 204.922 155.72C204.628 155.902 204.166 156.07 203.536 156.07C202.136 156.07 201.016 154.95 201.016 153.34ZM208.221 158.24V149.7H209.131L209.411 150.33C209.537 150.204 209.677 150.078 209.845 149.98C210.139 149.812 210.601 149.63 211.231 149.63C212.911 149.63 214.241 150.96 214.241 152.85C214.241 154.74 212.911 156.07 211.231 156.07C210.629 156.07 210.209 155.902 209.915 155.72C209.747 155.622 209.607 155.496 209.481 155.37V158.24H208.221ZM211.161 154.88C212.127 154.88 212.981 154.04 212.981 152.85C212.981 151.66 212.127 150.82 211.161 150.82C210.195 150.82 209.341 151.66 209.341 152.85C209.341 154.04 210.195 154.88 211.161 154.88ZM219.003 158.24V157.19C219.717 157.19 220.039 156.854 220.193 156.42L220.403 155.79L217.953 149.7H219.283L221.033 154.25L222.783 149.7H224.113L221.453 156.42C220.893 157.82 220.403 158.31 219.423 158.31C219.311 158.31 219.227 158.296 219.129 158.282L219.003 158.24ZM227.752 154.88C228.662 154.88 229.502 154.04 229.502 152.85C229.502 151.66 228.662 150.82 227.752 150.82C226.842 150.82 226.002 151.66 226.002 152.85C226.002 154.04 226.842 154.88 227.752 154.88ZM227.752 156.07C226.072 156.07 224.742 154.74 224.742 152.85C224.742 150.96 226.072 149.63 227.752 149.63C229.432 149.63 230.762 150.96 230.762 152.85C230.762 154.74 229.432 156.07 227.752 156.07ZM232.092 153.34V149.7H233.352V153.34C233.352 154.194 234.038 154.88 234.822 154.88C235.648 154.88 236.362 154.194 236.362 153.34V149.7H237.622V156H236.712L236.432 155.37C236.306 155.496 236.166 155.622 235.998 155.72C235.704 155.902 235.242 156.07 234.612 156.07C233.212 156.07 232.092 154.95 232.092 153.34ZM239.297 156V149.7H240.207L240.487 150.33C240.599 150.204 240.739 150.078 240.893 149.98C241.159 149.812 241.551 149.63 242.097 149.63C242.251 149.63 242.335 149.658 242.405 149.672L242.517 149.7V150.96L242.391 150.932C242.293 150.918 242.195 150.89 242.097 150.89C241.243 150.89 240.557 151.604 240.557 152.43V156H239.297ZM250.697 156L250.417 155.37C250.291 155.496 250.151 155.622 249.983 155.72C249.689 155.902 249.227 156.07 248.597 156.07C247.197 156.07 246.427 155.3 246.427 154.18C246.427 152.92 247.267 152.08 250.347 152.08V151.87C250.347 151.24 249.941 150.82 249.157 150.82C248.317 150.82 247.967 151.156 247.897 151.59H246.637C246.707 150.47 247.603 149.63 249.157 149.63C250.627 149.63 251.607 150.61 251.607 151.87V156H250.697ZM250.347 153.536V153.2C248.107 153.2 247.687 153.62 247.687 154.25C247.687 154.6 248.037 154.95 248.667 154.95C249.731 154.95 250.347 154.32 250.347 153.536ZM257.345 153.69H258.675C258.381 155.034 257.359 156.07 255.875 156.07C254.195 156.07 252.865 154.74 252.865 152.85C252.865 150.96 254.195 149.63 255.875 149.63C257.359 149.63 258.381 150.666 258.675 152.01H257.345C257.135 151.296 256.659 150.82 255.875 150.82C254.965 150.82 254.125 151.66 254.125 152.85C254.125 154.04 254.965 154.88 255.875 154.88C256.659 154.88 257.135 154.404 257.345 153.69ZM264.072 153.69H265.402C265.108 155.034 264.086 156.07 262.602 156.07C260.922 156.07 259.592 154.74 259.592 152.85C259.592 150.96 260.922 149.63 262.602 149.63C264.086 149.63 265.108 150.666 265.402 152.01H264.072C263.862 151.296 263.386 150.82 262.602 150.82C261.692 150.82 260.852 151.66 260.852 152.85C260.852 154.04 261.692 154.88 262.602 154.88C263.386 154.88 263.862 154.404 264.072 153.69ZM269.328 154.88C270.238 154.88 271.078 154.04 271.078 152.85C271.078 151.66 270.238 150.82 269.328 150.82C268.418 150.82 267.578 151.66 267.578 152.85C267.578 154.04 268.418 154.88 269.328 154.88ZM269.328 156.07C267.648 156.07 266.318 154.74 266.318 152.85C266.318 150.96 267.648 149.63 269.328 149.63C271.008 149.63 272.338 150.96 272.338 152.85C272.338 154.74 271.008 156.07 269.328 156.07ZM273.668 153.34V149.7H274.928V153.34C274.928 154.194 275.614 154.88 276.398 154.88C277.224 154.88 277.938 154.194 277.938 153.34V149.7H279.198V156H278.288L278.008 155.37C277.882 155.496 277.742 155.622 277.574 155.72C277.28 155.902 276.818 156.07 276.188 156.07C274.788 156.07 273.668 154.95 273.668 153.34ZM280.873 156V149.7H281.783L282.063 150.33C282.189 150.204 282.329 150.078 282.497 149.98C282.791 149.812 283.253 149.63 283.883 149.63C285.283 149.63 286.403 150.75 286.403 152.36V156H285.143V152.36C285.143 151.534 284.457 150.82 283.673 150.82C282.819 150.82 282.133 151.534 282.133 152.36V156H280.873ZM288.57 153.9V150.89H287.45V149.7H287.94C288.43 149.7 288.78 149.35 288.78 148.86V148.02H289.83V149.7H291.23V150.89H289.83V153.9C289.83 154.46 290.25 154.88 290.81 154.88C290.908 154.88 291.006 154.866 291.104 154.852L291.23 154.81V155.93C291.174 155.958 291.104 155.986 291.034 156C290.894 156.042 290.726 156.07 290.53 156.07C289.41 156.07 288.57 155.23 288.57 153.9ZM292.279 155.3C292.279 154.866 292.615 154.53 293.049 154.53C293.483 154.53 293.819 154.866 293.819 155.3C293.819 155.734 293.483 156.07 293.049 156.07C292.615 156.07 292.279 155.734 292.279 155.3Z" fill="#E4E4E7"/>
<rect x="16.25" y="688.25" width="342.5" height="49.5" rx="7.75" fill="url(#paint5_linear_234_2609)"/>
<rect x="16.25" y="688.25" width="342.5" height="49.5" rx="7.75" stroke="url(#paint6_linear_234_2609)" stroke-width="0.5"/>
<path d="M126.758 714.32L129.158 714.48C128.694 716.4 126.998 718.08 124.518 718.08C121.782 718.08 119.558 715.84 119.558 712.96C119.558 710.08 121.782 707.84 124.518 707.84C126.902 707.84 128.614 709.52 129.078 711.44L126.678 711.6C126.422 710.8 125.718 710.08 124.518 710.08C123.062 710.08 121.878 711.296 121.878 712.96C121.878 714.624 123.062 715.84 124.518 715.84C125.798 715.84 126.518 715.136 126.758 714.32ZM130.284 718V710.64H131.884L132.204 711.44C132.332 711.28 132.492 711.136 132.668 711.008C132.972 710.768 133.404 710.56 133.964 710.56C134.156 710.56 134.316 710.592 134.428 710.608L134.604 710.64V712.88L134.38 712.8C134.236 712.752 134.044 712.72 133.804 712.72C132.988 712.72 132.444 713.28 132.444 714.24V718H130.284ZM140.282 715.68L142.522 715.84C142.138 717.04 140.986 718.16 139.082 718.16C137.098 718.16 135.402 716.48 135.402 714.32C135.402 712.16 137.082 710.48 139.162 710.48C141.162 710.48 142.762 712 142.762 714.32C142.762 714.496 142.73 714.656 142.714 714.8L142.682 715.04H137.642C137.818 715.6 138.346 716.16 139.162 716.16C139.562 716.16 139.85 716.048 140.026 715.92C140.138 715.856 140.218 715.776 140.282 715.68ZM137.642 713.68H140.682C140.506 713.04 139.978 712.48 139.162 712.48C138.346 712.48 137.818 713.04 137.642 713.68ZM148.596 718L148.276 717.28C148.1 717.424 147.892 717.568 147.668 717.68C147.284 717.888 146.756 718.08 146.116 718.08C144.516 718.08 143.636 717.216 143.636 716C143.636 714.544 144.676 713.52 148.036 713.52C148.036 712.8 147.636 712.4 147.076 712.4C146.676 712.4 146.436 712.592 146.292 712.768C146.212 712.88 146.148 712.992 146.116 713.12L143.956 712.96C144.212 711.504 145.22 710.48 147.156 710.48C148.916 710.48 150.196 711.76 150.196 713.52V718H148.596ZM148.036 715.12V714.8C146.18 714.8 145.796 715.2 145.796 715.76C145.796 716.16 146.116 716.48 146.676 716.48C147.492 716.48 148.036 715.936 148.036 715.12ZM152.206 715.36V712.64H151.086V710.8H151.646C152.238 710.8 152.526 710.512 152.526 709.92V708.88H154.366V710.64H155.886V712.64H154.366V715.04C154.366 715.68 154.766 716.08 155.326 716.08C155.502 716.08 155.614 716.064 155.726 716.048L155.886 716V717.92C155.806 717.952 155.71 717.984 155.598 718C155.39 718.048 155.134 718.08 154.846 718.08C153.166 718.08 152.206 717.136 152.206 715.36ZM161.813 715.68L164.053 715.84C163.669 717.04 162.517 718.16 160.613 718.16C158.629 718.16 156.933 716.48 156.933 714.32C156.933 712.16 158.613 710.48 160.693 710.48C162.693 710.48 164.293 712 164.293 714.32C164.293 714.496 164.261 714.656 164.245 714.8L164.213 715.04H159.173C159.349 715.6 159.877 716.16 160.693 716.16C161.093 716.16 161.381 716.048 161.557 715.92C161.669 715.856 161.749 715.776 161.813 715.68ZM159.173 713.68H162.213C162.037 713.04 161.509 712.48 160.693 712.48C159.877 712.48 159.349 713.04 159.173 713.68ZM169.655 720.56V718.72C170.551 718.72 170.935 718.32 171.175 717.68L168.375 710.64H170.695L172.295 715.2L173.895 710.64H176.215L173.255 718C172.503 719.84 171.735 720.64 170.375 720.64C170.199 720.64 170.039 720.624 169.895 720.608L169.655 720.56ZM176.699 714.32C176.699 712.16 178.379 710.48 180.459 710.48C182.539 710.48 184.219 712.16 184.219 714.32C184.219 716.48 182.539 718.16 180.459 718.16C178.379 718.16 176.699 716.48 176.699 714.32ZM182.059 714.32C182.059 713.184 181.355 712.48 180.459 712.48C179.563 712.48 178.859 713.184 178.859 714.32C178.859 715.456 179.563 716.16 180.459 716.16C181.355 716.16 182.059 715.456 182.059 714.32ZM185.423 714.96V710.64H187.583V714.56C187.583 715.52 188.127 716.08 188.943 716.08C189.759 716.08 190.303 715.52 190.303 714.56V710.64H192.463V718H190.863L190.543 717.28C190.367 717.424 190.159 717.568 189.935 717.68C189.551 717.888 189.023 718.08 188.383 718.08C186.639 718.08 185.423 716.88 185.423 714.96ZM194.066 718V710.64H195.666L195.986 711.44C196.114 711.28 196.274 711.136 196.45 711.008C196.754 710.768 197.186 710.56 197.746 710.56C197.938 710.56 198.098 710.592 198.21 710.608L198.386 710.64V712.88L198.162 712.8C198.018 712.752 197.826 712.72 197.586 712.72C196.77 712.72 196.226 713.28 196.226 714.24V718H194.066ZM207.831 718L207.511 717.28C207.335 717.424 207.127 717.568 206.903 717.68C206.519 717.888 205.991 718.08 205.351 718.08C203.751 718.08 202.871 717.216 202.871 716C202.871 714.544 203.911 713.52 207.271 713.52C207.271 712.8 206.871 712.4 206.311 712.4C205.911 712.4 205.671 712.592 205.527 712.768C205.447 712.88 205.383 712.992 205.351 713.12L203.191 712.96C203.447 711.504 204.455 710.48 206.391 710.48C208.151 710.48 209.431 711.76 209.431 713.52V718H207.831ZM207.271 715.12V714.8C205.415 714.8 205.031 715.2 205.031 715.76C205.031 716.16 205.351 716.48 205.911 716.48C206.727 716.48 207.271 715.936 207.271 715.12ZM215.756 715.12L217.916 715.28C217.772 715.808 217.564 716.288 217.26 716.72C216.748 717.44 215.868 718.16 214.396 718.16C212.316 718.16 210.636 716.48 210.636 714.32C210.636 712.16 212.316 710.48 214.396 710.48C215.868 710.48 216.748 711.2 217.26 711.92C217.564 712.352 217.772 712.832 217.916 713.36L215.756 713.52C215.676 713.328 215.58 713.152 215.468 713.008C215.26 712.752 214.908 712.48 214.396 712.48C213.5 712.48 212.796 713.184 212.796 714.32C212.796 715.456 213.5 716.16 214.396 716.16C214.908 716.16 215.26 715.904 215.468 715.648C215.58 715.504 215.676 715.328 215.756 715.12ZM223.913 715.12L226.073 715.28C225.929 715.808 225.721 716.288 225.417 716.72C224.905 717.44 224.025 718.16 222.553 718.16C220.473 718.16 218.793 716.48 218.793 714.32C218.793 712.16 220.473 710.48 222.553 710.48C224.025 710.48 224.905 711.2 225.417 711.92C225.721 712.352 225.929 712.832 226.073 713.36L223.913 713.52C223.833 713.328 223.737 713.152 223.625 713.008C223.417 712.752 223.065 712.48 222.553 712.48C221.657 712.48 220.953 713.184 220.953 714.32C220.953 715.456 221.657 716.16 222.553 716.16C223.065 716.16 223.417 715.904 223.625 715.648C223.737 715.504 223.833 715.328 223.913 715.12ZM226.949 714.32C226.949 712.16 228.629 710.48 230.709 710.48C232.789 710.48 234.469 712.16 234.469 714.32C234.469 716.48 232.789 718.16 230.709 718.16C228.629 718.16 226.949 716.48 226.949 714.32ZM232.309 714.32C232.309 713.184 231.605 712.48 230.709 712.48C229.813 712.48 229.109 713.184 229.109 714.32C229.109 715.456 229.813 716.16 230.709 716.16C231.605 716.16 232.309 715.456 232.309 714.32ZM235.673 714.96V710.64H237.833V714.56C237.833 715.52 238.377 716.08 239.193 716.08C240.009 716.08 240.553 715.52 240.553 714.56V710.64H242.713V718H241.113L240.793 717.28C240.617 717.424 240.409 717.568 240.185 717.68C239.801 717.888 239.273 718.08 238.633 718.08C236.889 718.08 235.673 716.88 235.673 714.96ZM244.316 718V710.64H245.916L246.236 711.36C246.412 711.216 246.604 711.072 246.828 710.96C247.212 710.768 247.756 710.56 248.396 710.56C250.14 710.56 251.356 711.76 251.356 713.68V718H249.196V714.08C249.196 713.12 248.652 712.56 247.836 712.56C247.02 712.56 246.476 713.12 246.476 714.08V718H244.316ZM253.518 715.36V712.64H252.398V710.8H252.958C253.55 710.8 253.838 710.512 253.838 709.92V708.88H255.678V710.64H257.198V712.64H255.678V715.04C255.678 715.68 256.078 716.08 256.638 716.08C256.814 716.08 256.926 716.064 257.038 716.048L257.198 716V717.92C257.118 717.952 257.022 717.984 256.91 718C256.702 718.048 256.446 718.08 256.158 718.08C254.478 718.08 253.518 717.136 253.518 715.36Z" fill="white"/>
<path d="M44.9996 64.9999H34.9996L38.2926 61.7069L36.8786 60.2929L32.5856 64.5859C32.2106 64.961 32 65.4696 32 65.9999C32 66.5303 32.2106 67.0389 32.5856 67.4139L36.8786 71.7069L38.2926 70.2929L34.9996 66.9999H44.9996V64.9999Z" fill="white"/>
<defs>
<filter id="filter0_d_234_2609" x="169" y="41" width="48" height="53.8979" filterUnits="userSpaceOnUse" color-interpolation-filters="sRGB">
<feFlood flood-opacity="0" result="BackgroundImageFix"/>
<feColorMatrix in="SourceAlpha" type="matrix" values="0 0 0 0 0 0 0 0 0 0 0 0 0 0 0 0 0 0 127 0" result="hardAlpha"/>
<feMorphology radius="2" operator="dilate" in="SourceAlpha" result="effect1_dropShadow_234_2609"/>
<feOffset dx="5" dy="5"/>
<feGaussianBlur stdDeviation="3"/>
<feComposite in2="hardAlpha" operator="out"/>
<feColorMatrix type="matrix" values="0 0 0 0 0 0 0 0 0 0 0 0 0 0 0 0 0 0 0.38 0"/>
<feBlend mode="normal" in2="BackgroundImageFix" result="effect1_dropShadow_234_2609"/>
<feBlend mode="normal" in="SourceGraphic" in2="effect1_dropShadow_234_2609" result="shape"/>
</filter>
<linearGradient id="paint0_linear_234_2609" x1="418.527" y1="-580" x2="-859.299" y2="419.827" gradientUnits="userSpaceOnUse">
<stop offset="0.226599" stop-color="#353A40"/>
<stop offset="0.697917" stop-color="#121416"/>
</linearGradient>
<linearGradient id="paint1_linear_234_2609" x1="195.946" y1="194.782" x2="210" y2="183.946" gradientUnits="userSpaceOnUse">
<stop stop-color="#FFA05C"/>
<stop offset="1" stop-color="#F06500"/>
</linearGradient>
<linearGradient id="paint2_linear_234_2609" x1="195.375" y1="207.08" x2="195.64" y2="198.785" gradientUnits="userSpaceOnUse">
<stop stop-color="#FFA05C"/>
<stop offset="1" stop-color="#F06500"/>
</linearGradient>
<linearGradient id="paint3_linear_234_2609" x1="15.9464" y1="194.782" x2="30" y2="183.946" gradientUnits="userSpaceOnUse">
<stop stop-color="#FFA05C"/>
<stop offset="1" stop-color="#F06500"/>
</linearGradient>
<linearGradient id="paint4_linear_234_2609" x1="15.3717" y1="207.08" x2="15.6341" y2="198.785" gradientUnits="userSpaceOnUse">
<stop stop-color="#FFA05C"/>
<stop offset="1" stop-color="#F06500"/>
</linearGradient>
<linearGradient id="paint5_linear_234_2609" x1="14.6858" y1="726.506" x2="33.6336" y2="626.291" gradientUnits="userSpaceOnUse">
<stop stop-color="#FFA05C"/>
<stop offset="1" stop-color="#F06500"/>
</linearGradient>
<linearGradient id="paint6_linear_234_2609" x1="-82.5632" y1="772.674" x2="-48.3476" y2="627.691" gradientUnits="userSpaceOnUse">
<stop stop-color="white"/>
<stop offset="1" stop-color="#CD5B0A"/>
</linearGradient>
<clipPath id="clip0_234_2609">
<rect width="16" height="16" fill="white" transform="translate(24 337)"/>
</clipPath>
</defs>
</svg>
