<svg width="375" height="812" viewBox="0 0 375 812" fill="none" xmlns="http://www.w3.org/2000/svg">
<rect width="375" height="812" fill="url(#paint0_linear_234_2539)"/>
<rect x="121" y="799" width="134" height="5" rx="2.5" fill="white"/>
<path d="M191.045 51.2649C189.324 50.5931 188.841 49.6718 188.019 47.5317C187.272 49.5951 186.78 50.5643 184.945 51.2649C186.77 52.5893 187.394 55.1804 187.99 57.7139C188.595 55.1804 189.22 52.5893 191.045 51.2649Z" fill="white"/>
<path d="M188 81.8979C188 81.8979 188 79.9113 188 77.4641C188 77.4641 185.986 71.2934 184.284 69.7483L172 69.5947C171.991 69.5852 183.972 72.6561 188 81.8979Z" fill="white"/>
<path d="M188 81.8787C188 81.8787 188 79.8922 188 77.445C188 77.445 190.014 71.2742 191.716 69.7291L204 69.5756C204 69.5756 192.028 72.637 188 81.8787Z" fill="white"/>
<path d="M188 71.1781C183.092 71.1781 179.102 67.9056 179.102 63.8941C179.102 59.8731 183.092 56.6101 188 56.6101C192.908 56.6101 196.898 59.8826 196.898 63.8941C196.889 67.9056 192.898 71.1781 188 71.1781ZM188 57.8481C183.773 57.8481 180.331 60.5544 180.331 63.8845C180.331 67.2146 183.773 69.9209 188 69.9209C192.227 69.9209 195.669 67.2146 195.669 63.8845C195.669 60.5544 192.227 57.8481 188 57.8481Z" fill="white"/>
<path d="M192.937 50.5258C190.223 49.8636 190.072 49.4606 189.051 46.7831C188.909 46.3992 188.748 45.9865 188.568 45.5163L187.973 44L187.424 45.5355C187.311 45.8426 187.216 46.1305 187.122 46.3992C186.044 49.451 185.911 49.8349 183.065 50.5354L180.568 51.14L183.065 51.7446C185.457 52.33 186.091 54.9787 186.819 58.0497C186.999 58.8175 187.188 59.614 187.415 60.3817L187.992 62.4163L188.587 60.3817C188.814 59.6044 189.003 58.8079 189.183 58.0305C189.911 54.9691 190.545 52.3204 192.937 51.735L195.434 51.1304L192.937 50.5258ZM188.001 60.209C186.895 56.3895 186.649 51.9749 183.207 51.14C186.649 50.3051 186.639 49.5565 188.001 45.7466C189.514 49.5757 189.353 50.2955 192.795 51.14C189.353 51.9749 189.107 56.3991 188.001 60.209Z" fill="white"/>
<path d="M187.991 58.4146L189.126 61.8982L191.915 61.5911L190.261 63.8847L191.915 66.188L189.126 65.8809L188.001 73.328L186.866 65.8809L184.076 66.188L185.731 63.8847L184.076 61.5911L186.866 61.8982L187.991 58.4146Z" fill="white"/>
<path d="M190.26 63.8844L191.177 62.608C190.941 62.3585 190.761 62.0514 190.676 61.7155L189.135 61.8883L188.511 60.4487C188.18 60.5351 187.83 60.5351 187.499 60.4487L186.875 61.8883L185.333 61.7155C185.239 62.0514 185.068 62.3585 184.832 62.608L185.749 63.8844L184.832 65.1608C185.068 65.4103 185.248 65.7174 185.333 66.0533L186.875 65.8805L187.499 67.32C187.83 67.2337 188.18 67.2337 188.511 67.32L189.135 65.8805L190.676 66.0533C190.771 65.7174 190.941 65.4103 191.177 65.1608L190.26 63.8844Z" fill="white"/>
<path d="M181.381 63.8848L184.52 63.1458C185.267 62.8099 185.712 62.0326 185.627 61.2072L185.428 59.3839L186.884 60.4683C187.537 60.9577 188.435 60.9577 189.088 60.4683L190.544 59.3839L190.345 61.2072C190.26 62.0326 190.705 62.8099 191.452 63.1458L194.601 63.8848L191.452 64.6237C190.705 64.9596 190.26 65.7369 190.345 66.5623L190.544 68.3857L189.097 67.3108C188.445 66.8214 187.546 66.8214 186.894 67.3108L185.438 68.3952L185.636 66.5719C185.721 65.7465 185.277 64.9692 184.53 64.6333" fill="white"/>
<mask id="mask0_234_2539" style="mask-type:luminance" maskUnits="userSpaceOnUse" x="192" y="50" width="12" height="20">
<path d="M192.68 50.1321H203.885V69.0186H192.68V50.1321Z" fill="white"/>
</mask>
<g mask="url(#mask0_234_2539)">
<path d="M195.943 64.3932L194.137 69.0189H200.709C201.153 69.0189 201.56 68.6734 201.787 68.1168L203.896 62.7234L195.943 64.3932Z" fill="white"/>
<path d="M196.083 63.7311L194.607 59.7292L203.884 57.925C203.884 57.925 201.936 62.3108 201.019 62.6947" fill="white"/>
<path d="M192.68 58.0878L200.935 50.1321L200.103 55.9573C199.98 56.8498 199.375 58.0686 198.505 58.3565L194.382 59.2395L192.68 58.0878Z" fill="white"/>
</g>
<mask id="mask1_234_2539" style="mask-type:luminance" maskUnits="userSpaceOnUse" x="172" y="50" width="12" height="20">
<path d="M183.307 50.1321H172.102V69.0186H183.307V50.1321Z" fill="white"/>
</mask>
<g mask="url(#mask1_234_2539)">
<path d="M180.045 64.393L181.851 69.0283H175.279C174.834 69.0283 174.428 68.6828 174.201 68.1262L172.102 62.7232L180.045 64.393Z" fill="white"/>
<path d="M179.894 63.7309L181.378 59.729L172.102 57.9248C172.102 57.9248 174.05 62.3106 174.967 62.6944" fill="white"/>
<path d="M183.308 58.0878L175.053 50.1321L175.885 55.9573C176.008 56.8498 176.613 58.0686 177.483 58.3565L181.606 59.2395L183.308 58.0878Z" fill="white"/>
</g>
<path d="M107.138 126.72H110.138C109.442 129.6 106.874 132.12 103.298 132.12C99.3378 132.12 95.9778 128.76 95.9778 124.44C95.9778 120.12 99.3378 116.76 103.298 116.76C106.754 116.76 109.322 119.28 110.018 122.16H107.018C106.634 120.84 105.338 119.52 103.298 119.52C100.898 119.52 98.8578 121.56 98.8578 124.44C98.8578 127.32 100.898 129.36 103.298 129.36C105.362 129.36 106.634 128.04 107.138 126.72ZM112.047 132V120.96H114.087L114.567 122.16C114.759 121.92 114.999 121.704 115.263 121.512C115.719 121.152 116.367 120.84 117.207 120.84C117.471 120.84 117.639 120.888 117.807 120.912L118.047 120.96V123.84L117.783 123.792C117.615 123.768 117.375 123.72 117.087 123.72C115.743 123.72 114.807 124.68 114.807 126.12V132H112.047ZM126.811 128.64H129.691C129.115 130.296 127.267 132.12 124.771 132.12C121.795 132.12 119.251 129.6 119.251 126.48C119.251 123.36 121.795 120.84 124.771 120.84C127.651 120.84 130.051 123.12 130.051 126.48C130.051 126.744 130.003 126.984 129.979 127.2L129.931 127.56H122.251C122.515 128.64 123.331 129.48 124.771 129.48C125.515 129.48 125.971 129.288 126.331 129.072C126.523 128.952 126.691 128.808 126.811 128.64ZM122.131 125.64H127.411C127.147 124.416 126.211 123.48 124.771 123.48C123.331 123.48 122.395 124.416 122.131 125.64ZM138.926 132L138.446 130.92C138.182 131.136 137.918 131.352 137.606 131.52C137.054 131.832 136.286 132.12 135.326 132.12C132.926 132.12 131.606 130.824 131.606 129C131.606 126.816 133.166 125.28 138.206 125.28C138.206 124.056 137.486 123.36 136.406 123.36C135.662 123.36 135.278 123.672 135.014 123.96C134.87 124.128 134.774 124.344 134.726 124.56H131.966C132.23 122.544 133.886 120.84 136.646 120.84C139.142 120.84 140.966 122.664 140.966 125.16V132H138.926ZM138.206 127.68V127.2C134.966 127.2 134.366 127.8 134.366 128.76C134.366 129.36 134.966 129.96 135.806 129.96C137.246 129.96 138.206 129.024 138.206 127.68ZM144.082 128.16V123.48H142.402V121.2H143.122C144.01 121.2 144.442 120.768 144.442 119.88V118.32H146.842V120.96H149.242V123.48H146.842V128.04C146.842 129 147.442 129.6 148.402 129.6C148.666 129.6 148.81 129.576 148.93 129.552L149.122 129.48V131.88C149.002 131.928 148.882 131.976 148.738 132C148.474 132.072 148.162 132.12 147.802 132.12C145.618 132.12 144.082 130.56 144.082 128.16ZM158.241 128.64H161.121C160.545 130.296 158.697 132.12 156.201 132.12C153.225 132.12 150.681 129.6 150.681 126.48C150.681 123.36 153.225 120.84 156.201 120.84C159.081 120.84 161.481 123.12 161.481 126.48C161.481 126.744 161.433 126.984 161.409 127.2L161.361 127.56H153.681C153.945 128.64 154.761 129.48 156.201 129.48C156.945 129.48 157.401 129.288 157.761 129.072C157.953 128.952 158.121 128.808 158.241 128.64ZM153.561 125.64H158.841C158.577 124.416 157.641 123.48 156.201 123.48C154.761 123.48 153.825 124.416 153.561 125.64ZM175.746 132L175.266 130.92C175.002 131.136 174.738 131.352 174.426 131.52C173.874 131.832 173.106 132.12 172.146 132.12C169.746 132.12 168.426 130.824 168.426 129C168.426 126.816 169.986 125.28 175.026 125.28C175.026 124.056 174.306 123.36 173.226 123.36C172.482 123.36 172.098 123.672 171.834 123.96C171.69 124.128 171.594 124.344 171.546 124.56H168.786C169.05 122.544 170.706 120.84 173.466 120.84C175.962 120.84 177.786 122.664 177.786 125.16V132H175.746ZM175.026 127.68V127.2C171.786 127.2 171.186 127.8 171.186 128.76C171.186 129.36 171.786 129.96 172.626 129.96C174.066 129.96 175.026 129.024 175.026 127.68ZM180.297 132V120.96H182.337L182.817 122.04C183.081 121.824 183.393 121.608 183.705 121.44C184.257 121.152 185.001 120.84 185.937 120.84C188.553 120.84 190.377 122.64 190.377 125.52V132H187.617V125.88C187.617 124.44 186.681 123.48 185.337 123.48C183.993 123.48 183.057 124.44 183.057 125.88V132H180.297ZM196.857 132L202.497 116.88H205.137L210.777 132H207.777L206.697 128.88H200.937L199.857 132H196.857ZM201.897 126.24H205.737L203.817 120.72L201.897 126.24ZM219.304 127.92H222.064C221.56 130.104 219.544 132.12 216.904 132.12C213.928 132.12 211.384 129.6 211.384 126.48C211.384 123.36 213.928 120.84 216.904 120.84C219.544 120.84 221.56 122.856 222.064 125.04H219.304C219.184 124.752 218.992 124.488 218.776 124.272C218.392 123.888 217.792 123.48 216.904 123.48C215.344 123.48 214.144 124.656 214.144 126.48C214.144 128.304 215.344 129.48 216.904 129.48C217.792 129.48 218.392 129.096 218.776 128.712C218.992 128.496 219.184 128.232 219.304 127.92ZM231.304 127.92H234.064C233.56 130.104 231.544 132.12 228.904 132.12C225.928 132.12 223.384 129.6 223.384 126.48C223.384 123.36 225.928 120.84 228.904 120.84C231.544 120.84 233.56 122.856 234.064 125.04H231.304C231.184 124.752 230.992 124.488 230.776 124.272C230.392 123.888 229.792 123.48 228.904 123.48C227.344 123.48 226.144 124.656 226.144 126.48C226.144 128.304 227.344 129.48 228.904 129.48C229.792 129.48 230.392 129.096 230.776 128.712C230.992 128.496 231.184 128.232 231.304 127.92ZM240.904 123.48C239.344 123.48 238.144 124.656 238.144 126.48C238.144 128.304 239.344 129.48 240.904 129.48C242.464 129.48 243.664 128.304 243.664 126.48C243.664 124.656 242.464 123.48 240.904 123.48ZM240.904 120.84C243.88 120.84 246.424 123.36 246.424 126.48C246.424 129.6 243.88 132.12 240.904 132.12C237.928 132.12 235.384 129.6 235.384 126.48C235.384 123.36 237.928 120.84 240.904 120.84ZM248.453 127.44V120.96H251.213V127.08C251.213 128.52 252.149 129.48 253.493 129.48C254.837 129.48 255.773 128.52 255.773 127.08V120.96H258.533V132H256.493L256.013 130.92C255.749 131.136 255.437 131.352 255.125 131.52C254.573 131.832 253.781 132.12 252.893 132.12C250.277 132.12 248.453 130.32 248.453 127.44ZM261.179 132V120.96H263.219L263.699 122.04C263.963 121.824 264.275 121.608 264.587 121.44C265.139 121.152 265.883 120.84 266.819 120.84C269.435 120.84 271.259 122.64 271.259 125.52V132H268.499V125.88C268.499 124.44 267.563 123.48 266.219 123.48C264.875 123.48 263.939 124.44 263.939 125.88V132H261.179ZM274.629 128.16V123.48H272.949V121.2H273.669C274.557 121.2 274.989 120.768 274.989 119.88V118.32H277.389V120.96H279.789V123.48H277.389V128.04C277.389 129 277.989 129.6 278.949 129.6C279.213 129.6 279.357 129.576 279.477 129.552L279.669 129.48V131.88C279.549 131.928 279.429 131.976 279.285 132C279.021 132.072 278.709 132.12 278.349 132.12C276.165 132.12 274.629 130.56 274.629 128.16Z" fill="white"/>
<path d="M17.12 316V307.18H22.72V308.16H18.24V310.96H22.37V311.94H18.24V315.02H22.86V316H17.12ZM24.4705 316V309.7H25.2405L25.5205 310.4C25.6185 310.26 25.7445 310.134 25.8985 310.022C26.1645 309.812 26.5145 309.63 27.0605 309.63C27.6905 309.63 28.1245 309.91 28.4045 310.19C28.5725 310.358 28.7125 310.54 28.8105 310.75C28.9365 310.54 29.0765 310.358 29.2585 310.19C29.5805 309.91 30.0285 309.63 30.7005 309.63C31.8205 309.63 32.8005 310.596 32.8005 312.22V316H31.7505V312.22C31.7505 311.156 31.2045 310.61 30.4905 310.61C29.7765 310.61 29.1605 311.226 29.1605 312.22V316H28.1105V312.22C28.1105 311.156 27.5645 310.61 26.8505 310.61C26.1645 310.61 25.5205 311.282 25.5205 312.22V316H24.4705ZM38.5367 316L38.2567 315.3C38.1167 315.454 37.9627 315.58 37.7807 315.692C37.4587 315.902 36.9967 316.07 36.3667 316.07C35.1067 316.07 34.2667 315.23 34.2667 314.18C34.2667 312.99 35.1067 312.15 38.2567 312.15V311.8C38.2567 311.17 37.7107 310.61 36.9267 310.61C36.1427 310.61 35.8207 310.96 35.6667 311.52H34.5467C34.7007 310.47 35.5267 309.63 36.9267 309.63C38.3267 309.63 39.3067 310.624 39.3067 311.8V316H38.5367ZM38.2567 313.62V313.13C35.7367 313.13 35.3167 313.55 35.3167 314.25C35.3167 314.684 35.7367 315.09 36.3667 315.09C37.4867 315.09 38.2567 314.32 38.2567 313.62ZM41.0545 316V309.7H42.1045V316H41.0545ZM40.9145 307.922C40.9145 307.53 41.1945 307.25 41.5725 307.25C41.9645 307.25 42.2445 307.53 42.2445 307.922C42.2445 308.3 41.9645 308.58 41.5725 308.58C41.1945 308.58 40.9145 308.3 40.9145 307.922ZM43.9956 316V307.18H45.0456V316H43.9956Z" fill="white"/>
<rect x="16" y="324" width="343" height="42" rx="4" fill="#3F3F46"/>
<g clip-path="url(#clip0_234_2539)">
<path d="M30.5858 345.364C30.9615 345.738 31.4702 345.949 32.0005 345.949C32.5308 345.949 33.0394 345.738 33.4152 345.364L39.8545 338.924C39.7062 338.554 39.4504 338.236 39.12 338.012C38.7896 337.788 38.3997 337.667 38.0005 337.667H26.0005C25.6013 337.667 25.2113 337.788 24.8809 338.012C24.5505 338.236 24.2947 338.554 24.1465 338.924L30.5858 345.364Z" fill="#C6C6C6"/>
<path d="M34.3573 346.307C33.7316 346.931 32.8838 347.282 32 347.282C31.1162 347.282 30.2684 346.931 29.6427 346.307L24 340.667V352.334H40V340.667L34.3573 346.307Z" fill="#C6C6C6"/>
</g>
<path d="M49.05 349.5V340.68H54.86V341.94H50.38V344.32H54.51V345.58H50.38V348.24H55V349.5H49.05ZM56.5373 349.5V343.2H57.4473L57.7273 343.83C57.8533 343.704 57.9933 343.578 58.1613 343.48C58.4553 343.312 58.9173 343.13 59.5473 343.13C60.9473 343.13 62.0673 344.25 62.0673 345.86V349.5H60.8073V345.86C60.8073 345.034 60.1213 344.32 59.3373 344.32C58.4833 344.32 57.7973 345.034 57.7973 345.86V349.5H56.5373ZM64.234 347.4V344.39H63.114V343.2H63.604C64.094 343.2 64.444 342.85 64.444 342.36V341.52H65.494V343.2H66.894V344.39H65.494V347.4C65.494 347.96 65.914 348.38 66.474 348.38C66.572 348.38 66.67 348.366 66.768 348.352L66.894 348.31V349.43C66.838 349.458 66.768 349.486 66.698 349.5C66.558 349.542 66.39 349.57 66.194 349.57C65.074 349.57 64.234 348.73 64.234 347.4ZM72.2867 347.68H73.6167C73.2107 348.73 72.3567 349.57 70.8867 349.57C69.2067 349.57 67.8767 348.24 67.8767 346.35C67.8767 344.46 69.1927 343.13 70.8167 343.13C72.4407 343.13 73.7567 344.46 73.7567 346.35C73.7567 346.504 73.7287 346.644 73.7147 346.742L73.6867 346.91H69.2067C69.2767 347.694 69.9767 348.38 70.8867 348.38C71.6567 348.38 72.0767 347.96 72.2867 347.68ZM69.2067 345.86H72.5667C72.4127 344.95 71.8107 344.32 70.8167 344.32C69.9767 344.32 69.3607 344.95 69.2067 345.86ZM75.09 349.5V343.2H76L76.28 343.83C76.392 343.704 76.532 343.578 76.686 343.48C76.952 343.312 77.344 343.13 77.89 343.13C78.044 343.13 78.128 343.158 78.198 343.172L78.31 343.2V344.46L78.184 344.432C78.086 344.418 77.988 344.39 77.89 344.39C77.036 344.39 76.35 345.104 76.35 345.93V349.5H75.09ZM82.8502 351.74V350.69C83.5642 350.69 83.8862 350.354 84.0402 349.92L84.2502 349.29L81.8002 343.2H83.1302L84.8802 347.75L86.6302 343.2H87.9602L85.3002 349.92C84.7402 351.32 84.2502 351.81 83.2702 351.81C83.1582 351.81 83.0742 351.796 82.9762 351.782L82.8502 351.74ZM91.5996 348.38C92.5096 348.38 93.3496 347.54 93.3496 346.35C93.3496 345.16 92.5096 344.32 91.5996 344.32C90.6896 344.32 89.8496 345.16 89.8496 346.35C89.8496 347.54 90.6896 348.38 91.5996 348.38ZM91.5996 349.57C89.9196 349.57 88.5896 348.24 88.5896 346.35C88.5896 344.46 89.9196 343.13 91.5996 343.13C93.2796 343.13 94.6096 344.46 94.6096 346.35C94.6096 348.24 93.2796 349.57 91.5996 349.57ZM95.9396 346.84V343.2H97.1996V346.84C97.1996 347.694 97.8856 348.38 98.6696 348.38C99.4956 348.38 100.21 347.694 100.21 346.84V343.2H101.47V349.5H100.56L100.28 348.87C100.154 348.996 100.014 349.122 99.8456 349.22C99.5516 349.402 99.0896 349.57 98.4596 349.57C97.0596 349.57 95.9396 348.45 95.9396 346.84ZM103.145 349.5V343.2H104.055L104.335 343.83C104.447 343.704 104.587 343.578 104.741 343.48C105.007 343.312 105.399 343.13 105.945 343.13C106.099 343.13 106.183 343.158 106.253 343.172L106.365 343.2V344.46L106.239 344.432C106.141 344.418 106.043 344.39 105.945 344.39C105.091 344.39 104.405 345.104 104.405 345.93V349.5H103.145ZM114.615 347.68H115.945C115.539 348.73 114.685 349.57 113.215 349.57C111.535 349.57 110.205 348.24 110.205 346.35C110.205 344.46 111.521 343.13 113.145 343.13C114.769 343.13 116.085 344.46 116.085 346.35C116.085 346.504 116.057 346.644 116.043 346.742L116.015 346.91H111.535C111.605 347.694 112.305 348.38 113.215 348.38C113.985 348.38 114.405 347.96 114.615 347.68ZM111.535 345.86H114.895C114.741 344.95 114.139 344.32 113.145 344.32C112.305 344.32 111.689 344.95 111.535 345.86ZM117.418 349.5V343.2H118.328L118.608 343.83C118.72 343.704 118.86 343.578 119.014 343.48C119.28 343.312 119.658 343.13 120.148 343.13C120.75 343.13 121.17 343.382 121.464 343.62C121.632 343.774 121.772 343.928 121.898 344.11C122.024 343.928 122.192 343.774 122.374 343.62C122.696 343.382 123.158 343.13 123.788 343.13C124.964 343.13 125.958 344.096 125.958 345.72V349.5H124.698V345.72C124.698 344.88 124.138 344.32 123.508 344.32C122.878 344.32 122.318 344.88 122.318 345.72V349.5H121.058V345.72C121.058 344.88 120.498 344.32 119.868 344.32C119.238 344.32 118.678 344.88 118.678 345.72V349.5H117.418ZM131.553 349.5L131.273 348.87C131.147 348.996 131.007 349.122 130.839 349.22C130.545 349.402 130.083 349.57 129.453 349.57C128.053 349.57 127.283 348.8 127.283 347.68C127.283 346.42 128.123 345.58 131.203 345.58V345.37C131.203 344.74 130.797 344.32 130.013 344.32C129.173 344.32 128.823 344.656 128.753 345.09H127.493C127.563 343.97 128.459 343.13 130.013 343.13C131.483 343.13 132.463 344.11 132.463 345.37V349.5H131.553ZM131.203 347.036V346.7C128.963 346.7 128.543 347.12 128.543 347.75C128.543 348.1 128.893 348.45 129.523 348.45C130.587 348.45 131.203 347.82 131.203 347.036ZM134.07 349.5V343.2H135.33V349.5H134.07ZM134.7 340.68C135.134 340.68 135.47 341.016 135.47 341.45C135.47 341.884 135.134 342.22 134.7 342.22C134.266 342.22 133.93 341.884 133.93 341.45C133.93 341.016 134.266 340.68 134.7 340.68ZM137.08 349.5V340.68H138.34V349.5H137.08ZM147.152 349.5L146.872 348.87C146.746 348.996 146.606 349.122 146.438 349.22C146.144 349.402 145.682 349.57 145.052 349.57C143.652 349.57 142.882 348.8 142.882 347.68C142.882 346.42 143.722 345.58 146.802 345.58V345.37C146.802 344.74 146.396 344.32 145.612 344.32C144.772 344.32 144.422 344.656 144.352 345.09H143.092C143.162 343.97 144.058 343.13 145.612 343.13C147.082 343.13 148.062 344.11 148.062 345.37V349.5H147.152ZM146.802 347.036V346.7C144.562 346.7 144.142 347.12 144.142 347.75C144.142 348.1 144.492 348.45 145.122 348.45C146.186 348.45 146.802 347.82 146.802 347.036ZM154.43 349.5L154.15 348.87C154.024 348.996 153.884 349.122 153.716 349.22C153.422 349.402 152.96 349.57 152.33 349.57C150.65 349.57 149.32 348.24 149.32 346.35C149.32 344.46 150.65 343.13 152.33 343.13C152.932 343.13 153.352 343.312 153.646 343.48C153.814 343.578 153.954 343.704 154.08 343.83V340.68H155.34V349.5H154.43ZM152.4 348.38C153.366 348.38 154.22 347.54 154.22 346.35C154.22 345.16 153.366 344.32 152.4 344.32C151.434 344.32 150.58 345.16 150.58 346.35C150.58 347.54 151.434 348.38 152.4 348.38ZM161.854 349.5L161.574 348.87C161.448 348.996 161.308 349.122 161.14 349.22C160.846 349.402 160.384 349.57 159.754 349.57C158.074 349.57 156.744 348.24 156.744 346.35C156.744 344.46 158.074 343.13 159.754 343.13C160.356 343.13 160.776 343.312 161.07 343.48C161.238 343.578 161.378 343.704 161.504 343.83V340.68H162.764V349.5H161.854ZM159.824 348.38C160.79 348.38 161.644 347.54 161.644 346.35C161.644 345.16 160.79 344.32 159.824 344.32C158.858 344.32 158.004 345.16 158.004 346.35C158.004 347.54 158.858 348.38 159.824 348.38ZM164.518 349.5V343.2H165.428L165.708 343.83C165.82 343.704 165.96 343.578 166.114 343.48C166.38 343.312 166.772 343.13 167.318 343.13C167.472 343.13 167.556 343.158 167.626 343.172L167.738 343.2V344.46L167.612 344.432C167.514 344.418 167.416 344.39 167.318 344.39C166.464 344.39 165.778 345.104 165.778 345.93V349.5H164.518ZM172.912 347.68H174.242C173.836 348.73 172.982 349.57 171.512 349.57C169.832 349.57 168.502 348.24 168.502 346.35C168.502 344.46 169.818 343.13 171.442 343.13C173.066 343.13 174.382 344.46 174.382 346.35C174.382 346.504 174.354 346.644 174.34 346.742L174.312 346.91H169.832C169.902 347.694 170.602 348.38 171.512 348.38C172.282 348.38 172.702 347.96 172.912 347.68ZM169.832 345.86H173.192C173.038 344.95 172.436 344.32 171.442 344.32C170.602 344.32 169.986 344.95 169.832 345.86ZM175.365 347.47H176.625C176.695 348.03 177.031 348.38 177.745 348.38C178.529 348.38 178.865 348.044 178.865 347.61C178.865 346.49 175.505 347.246 175.505 345.02C175.505 343.97 176.345 343.13 177.675 343.13C179.145 343.13 179.915 343.9 179.985 345.09H178.725C178.655 344.656 178.305 344.32 177.675 344.32C177.045 344.32 176.695 344.67 176.695 345.02C176.695 346.14 180.055 345.384 180.055 347.61C180.055 348.73 179.215 349.57 177.745 349.57C176.191 349.57 175.435 348.814 175.365 347.47ZM181.039 347.47H182.299C182.369 348.03 182.705 348.38 183.419 348.38C184.203 348.38 184.539 348.044 184.539 347.61C184.539 346.49 181.179 347.246 181.179 345.02C181.179 343.97 182.019 343.13 183.349 343.13C184.819 343.13 185.589 343.9 185.659 345.09H184.399C184.329 344.656 183.979 344.32 183.349 344.32C182.719 344.32 182.369 344.67 182.369 345.02C182.369 346.14 185.729 345.384 185.729 347.61C185.729 348.73 184.889 349.57 183.419 349.57C181.865 349.57 181.109 348.814 181.039 347.47Z" fill="#C6C6C6"/>
<path d="M16.98 233.92V228.18H18.1V233.92C18.1 235.264 18.926 236.09 20.2 236.09C21.474 236.09 22.3 235.264 22.3 233.92V228.18H23.42V233.92C23.42 235.74 22.09 237.07 20.2 237.07C18.31 237.07 16.98 235.74 16.98 233.92ZM24.8845 235.11H25.9345C26.0045 235.67 26.4105 236.09 27.1945 236.09C27.9085 236.09 28.3145 235.67 28.3145 235.18C28.3145 233.766 25.0245 234.844 25.0245 232.45C25.0245 231.484 25.8645 230.63 27.1245 230.63C28.4685 230.63 29.2245 231.4 29.2945 232.52H28.2445C28.1745 231.96 27.8385 231.61 27.1245 231.61C26.4945 231.61 26.0745 232.016 26.0745 232.45C26.0745 233.864 29.3645 232.8 29.3645 235.18C29.3645 236.23 28.5245 237.07 27.1945 237.07C25.7945 237.07 24.9545 236.23 24.8845 235.11ZM34.958 235.32H36.078C35.658 236.23 34.818 237.07 33.418 237.07C31.738 237.07 30.408 235.74 30.408 233.85C30.408 231.96 31.822 230.63 33.348 230.63C34.888 230.63 36.218 231.876 36.218 233.78C36.218 233.962 36.19 234.088 36.176 234.186L36.148 234.34H31.528C31.598 235.25 32.424 236.09 33.418 236.09C34.244 236.09 34.748 235.614 34.958 235.32ZM31.528 233.43H35.168C35.014 232.38 34.258 231.61 33.348 231.61C32.438 231.61 31.682 232.38 31.528 233.43ZM37.6229 237V230.7H38.3929L38.6729 231.4C38.7989 231.26 38.9529 231.134 39.1349 231.022C39.4569 230.812 39.8909 230.63 40.4929 230.63H40.6329V231.68H40.3529C39.3589 231.68 38.6729 232.366 38.6729 233.43V237H37.6229ZM41.8202 237V230.7H42.5902L42.8702 231.4C42.9962 231.26 43.1502 231.134 43.3322 231.022C43.6542 230.812 44.0882 230.63 44.6902 230.63C46.0202 230.63 47.1402 231.75 47.1402 233.36V237H46.0902V233.36C46.0902 232.31 45.3762 231.61 44.5502 231.61C43.5562 231.61 42.8702 232.296 42.8702 233.36V237H41.8202ZM52.8785 237L52.5985 236.3C52.4585 236.454 52.3045 236.58 52.1225 236.692C51.8005 236.902 51.3385 237.07 50.7085 237.07C49.4485 237.07 48.6085 236.23 48.6085 235.18C48.6085 233.99 49.4485 233.15 52.5985 233.15V232.8C52.5985 232.17 52.0525 231.61 51.2685 231.61C50.4845 231.61 50.1625 231.96 50.0085 232.52H48.8885C49.0425 231.47 49.8685 230.63 51.2685 230.63C52.6685 230.63 53.6485 231.624 53.6485 232.8V237H52.8785ZM52.5985 234.62V234.13C50.0785 234.13 49.6585 234.55 49.6585 235.25C49.6585 235.684 50.0785 236.09 50.7085 236.09C51.8285 236.09 52.5985 235.32 52.5985 234.62ZM55.3963 237V230.7H56.1663L56.4463 231.4C56.5443 231.26 56.6703 231.134 56.8243 231.022C57.0903 230.812 57.4403 230.63 57.9863 230.63C58.6163 230.63 59.0503 230.91 59.3303 231.19C59.4983 231.358 59.6383 231.54 59.7363 231.75C59.8623 231.54 60.0023 231.358 60.1843 231.19C60.5063 230.91 60.9543 230.63 61.6263 230.63C62.7463 230.63 63.7263 231.596 63.7263 233.22V237H62.6763V233.22C62.6763 232.156 62.1303 231.61 61.4163 231.61C60.7023 231.61 60.0863 232.226 60.0863 233.22V237H59.0363V233.22C59.0363 232.156 58.4903 231.61 57.7763 231.61C57.0903 231.61 56.4463 232.282 56.4463 233.22V237H55.3963ZM69.6025 235.32H70.7225C70.3025 236.23 69.4625 237.07 68.0625 237.07C66.3825 237.07 65.0525 235.74 65.0525 233.85C65.0525 231.96 66.4665 230.63 67.9925 230.63C69.5325 230.63 70.8625 231.876 70.8625 233.78C70.8625 233.962 70.8345 234.088 70.8205 234.186L70.7925 234.34H66.1725C66.2425 235.25 67.0685 236.09 68.0625 236.09C68.8885 236.09 69.3925 235.614 69.6025 235.32ZM66.1725 233.43H69.8125C69.6585 232.38 68.9025 231.61 67.9925 231.61C67.0825 231.61 66.3265 232.38 66.1725 233.43Z" fill="white"/>
<rect x="16" y="245" width="343" height="42" rx="4" fill="#3F3F46"/>
<g clip-path="url(#clip1_234_2539)">
<path d="M34.6953 267.334H29.3047C28.4285 267.335 27.5886 267.683 26.9691 268.303C26.3496 268.922 26.0011 269.762 26 270.638V274H38V270.638C37.9989 269.762 37.6504 268.922 37.0309 268.303C36.4114 267.683 35.5715 267.335 34.6953 267.334Z" fill="#C6C6C6"/>
<path d="M32 266C34.2091 266 36 264.209 36 262C36 259.791 34.2091 258 32 258C29.7909 258 28 259.791 28 262C28 264.209 29.7909 266 32 266Z" fill="#C6C6C6"/>
</g>
<path d="M49.05 270.5V261.68H54.86V262.94H50.38V265.32H54.51V266.58H50.38V269.24H55V270.5H49.05ZM56.1173 269.8C56.1173 269.366 56.4533 269.03 56.8873 269.03C57.3213 269.03 57.6573 269.366 57.6573 269.8C57.6573 270.234 57.3213 270.57 56.8873 270.57C56.4533 270.57 56.1173 270.234 56.1173 269.8ZM58.8462 270.92H60.1062C60.3162 271.354 60.7362 271.76 61.5762 271.76C62.5702 271.76 63.1862 271.13 63.1862 270.22V269.59C63.0602 269.716 62.9202 269.842 62.7522 269.94C62.4582 270.122 62.0382 270.29 61.4362 270.29C59.8962 270.29 58.5662 268.946 58.5662 267.21C58.5662 265.474 59.8962 264.13 61.4362 264.13C62.0662 264.13 62.5282 264.312 62.8222 264.48C62.9902 264.578 63.1302 264.704 63.2562 264.83L63.5362 264.2H64.4462V270.22C64.4462 271.76 63.3262 272.88 61.5762 272.88C60.0502 272.88 59.1122 271.97 58.8462 270.92ZM61.5902 269.1C62.4862 269.1 63.3262 268.26 63.3262 267.21C63.3262 266.16 62.4862 265.32 61.5762 265.32C60.6662 265.32 59.8262 266.16 59.8262 267.21C59.8262 268.26 60.6662 269.1 61.5902 269.1ZM68.4974 267.98H69.8274C69.8274 268.82 70.3874 269.38 71.2274 269.38C72.0674 269.38 72.6274 268.82 72.6274 267.98V261.68H73.9574V267.98C73.9574 269.45 72.8374 270.57 71.2274 270.57C69.6174 270.57 68.4974 269.45 68.4974 267.98ZM78.3652 269.38C79.2752 269.38 80.1152 268.54 80.1152 267.35C80.1152 266.16 79.2752 265.32 78.3652 265.32C77.4552 265.32 76.6152 266.16 76.6152 267.35C76.6152 268.54 77.4552 269.38 78.3652 269.38ZM78.3652 270.57C76.6852 270.57 75.3552 269.24 75.3552 267.35C75.3552 265.46 76.6852 264.13 78.3652 264.13C80.0452 264.13 81.3752 265.46 81.3752 267.35C81.3752 269.24 80.0452 270.57 78.3652 270.57ZM82.7752 270.5V261.68H84.0352V264.83C84.1612 264.704 84.3152 264.578 84.4832 264.48C84.7772 264.312 85.2252 264.13 85.7852 264.13C87.1852 264.13 88.3052 265.25 88.3052 266.86V270.5H87.0452V266.86C87.0452 266.034 86.3592 265.32 85.5752 265.32C84.7212 265.32 84.0352 266.034 84.0352 266.86V270.5H82.7752ZM89.9103 270.5V264.2H90.8203L91.1003 264.83C91.2263 264.704 91.3663 264.578 91.5343 264.48C91.8283 264.312 92.2903 264.13 92.9203 264.13C94.3203 264.13 95.4403 265.25 95.4403 266.86V270.5H94.1803V266.86C94.1803 266.034 93.4943 265.32 92.7103 265.32C91.8563 265.32 91.1703 266.034 91.1703 266.86V270.5H89.9103ZM97.607 268.4V265.39H96.487V264.2H96.977C97.467 264.2 97.817 263.85 97.817 263.36V262.52H98.867V264.2H100.267V265.39H98.867V268.4C98.867 268.96 99.287 269.38 99.847 269.38C99.945 269.38 100.043 269.366 100.141 269.352L100.267 269.31V270.43C100.211 270.458 100.141 270.486 100.071 270.5C99.931 270.542 99.763 270.57 99.567 270.57C98.447 270.57 97.607 269.73 97.607 268.4ZM101.806 270.5V261.68H103.066V264.83C103.192 264.704 103.346 264.578 103.514 264.48C103.808 264.312 104.256 264.13 104.816 264.13C106.216 264.13 107.336 265.25 107.336 266.86V270.5H106.076V266.86C106.076 266.034 105.39 265.32 104.606 265.32C103.752 265.32 103.066 266.034 103.066 266.86V270.5H101.806ZM113.002 268.68H114.332C113.926 269.73 113.072 270.57 111.602 270.57C109.922 270.57 108.592 269.24 108.592 267.35C108.592 265.46 109.908 264.13 111.532 264.13C113.156 264.13 114.472 265.46 114.472 267.35C114.472 267.504 114.444 267.644 114.43 267.742L114.402 267.91H109.922C109.992 268.694 110.692 269.38 111.602 269.38C112.372 269.38 112.792 268.96 113.002 268.68ZM109.922 266.86H113.282C113.128 265.95 112.526 265.32 111.532 265.32C110.692 265.32 110.076 265.95 109.922 266.86ZM118.465 269.38C119.375 269.38 120.215 268.54 120.215 267.35C120.215 266.16 119.375 265.32 118.465 265.32C117.555 265.32 116.715 266.16 116.715 267.35C116.715 268.54 117.555 269.38 118.465 269.38ZM118.465 270.57C116.785 270.57 115.455 269.24 115.455 267.35C115.455 265.46 116.785 264.13 118.465 264.13C120.145 264.13 121.475 265.46 121.475 267.35C121.475 269.24 120.145 270.57 118.465 270.57ZM122.805 270.5V264.2H123.715L123.995 264.83C124.121 264.704 124.261 264.578 124.429 264.48C124.723 264.312 125.185 264.13 125.815 264.13C127.215 264.13 128.335 265.25 128.335 266.86V270.5H127.075V266.86C127.075 266.034 126.389 265.32 125.605 265.32C124.751 265.32 124.065 266.034 124.065 266.86V270.5H122.805ZM134.002 268.68H135.332C134.926 269.73 134.072 270.57 132.602 270.57C130.922 270.57 129.592 269.24 129.592 267.35C129.592 265.46 130.908 264.13 132.532 264.13C134.156 264.13 135.472 265.46 135.472 267.35C135.472 267.504 135.444 267.644 135.43 267.742L135.402 267.91H130.922C130.992 268.694 131.692 269.38 132.602 269.38C133.372 269.38 133.792 268.96 134.002 268.68ZM130.922 266.86H134.282C134.128 265.95 133.526 265.32 132.532 265.32C131.692 265.32 131.076 265.95 130.922 266.86Z" fill="#C6C6C6"/>
<path d="M17.12 395V386.18H20.13C21.656 386.18 22.93 387.44 22.93 388.91C22.93 390.38 21.656 391.64 20.13 391.64H18.24V395H17.12ZM18.24 390.66H20.13C21.04 390.66 21.81 389.89 21.81 388.91C21.81 387.93 21.04 387.16 20.13 387.16H18.24V390.66ZM28.1188 395L27.8388 394.3C27.6988 394.454 27.5448 394.58 27.3628 394.692C27.0408 394.902 26.5788 395.07 25.9488 395.07C24.6888 395.07 23.8488 394.23 23.8488 393.18C23.8488 391.99 24.6888 391.15 27.8388 391.15V390.8C27.8388 390.17 27.2928 389.61 26.5088 389.61C25.7248 389.61 25.4028 389.96 25.2488 390.52H24.1288C24.2828 389.47 25.1088 388.63 26.5088 388.63C27.9088 388.63 28.8888 389.624 28.8888 390.8V395H28.1188ZM27.8388 392.62V392.13C25.3188 392.13 24.8988 392.55 24.8988 393.25C24.8988 393.684 25.3188 394.09 25.9488 394.09C27.0688 394.09 27.8388 393.32 27.8388 392.62ZM30.2166 393.11H31.2666C31.3366 393.67 31.7426 394.09 32.5266 394.09C33.2406 394.09 33.6466 393.67 33.6466 393.18C33.6466 391.766 30.3566 392.844 30.3566 390.45C30.3566 389.484 31.1966 388.63 32.4566 388.63C33.8006 388.63 34.5566 389.4 34.6266 390.52H33.5766C33.5066 389.96 33.1706 389.61 32.4566 389.61C31.8266 389.61 31.4066 390.016 31.4066 390.45C31.4066 391.864 34.6966 390.8 34.6966 393.18C34.6966 394.23 33.8566 395.07 32.5266 395.07C31.1266 395.07 30.2866 394.23 30.2166 393.11ZM35.74 393.11H36.79C36.86 393.67 37.266 394.09 38.05 394.09C38.764 394.09 39.17 393.67 39.17 393.18C39.17 391.766 35.88 392.844 35.88 390.45C35.88 389.484 36.72 388.63 37.98 388.63C39.324 388.63 40.08 389.4 40.15 390.52H39.1C39.03 389.96 38.694 389.61 37.98 389.61C37.35 389.61 36.93 390.016 36.93 390.45C36.93 391.864 40.22 390.8 40.22 393.18C40.22 394.23 39.38 395.07 38.05 395.07C36.65 395.07 35.81 394.23 35.74 393.11ZM43.0134 395L40.9134 388.7H42.0334L43.5034 393.18L44.9034 388.7H45.6034L47.0034 393.18L48.4734 388.7H49.5934L47.4934 395H46.6534L45.2534 390.52L43.8534 395H43.0134ZM53.1585 394.09C54.1245 394.09 55.0485 393.194 55.0485 391.85C55.0485 390.506 54.1245 389.61 53.1585 389.61C52.1785 389.61 51.2685 390.506 51.2685 391.85C51.2685 393.194 52.1785 394.09 53.1585 394.09ZM53.1585 395.07C51.5345 395.07 50.2185 393.74 50.2185 391.85C50.2185 389.96 51.5345 388.63 53.1585 388.63C54.7825 388.63 56.0985 389.96 56.0985 391.85C56.0985 393.74 54.7825 395.07 53.1585 395.07ZM57.5018 395V388.7H58.2718L58.5518 389.4C58.6778 389.26 58.8318 389.134 59.0138 389.022C59.3358 388.812 59.7698 388.63 60.3718 388.63H60.5118V389.68H60.2318C59.2378 389.68 58.5518 390.366 58.5518 391.43V395H57.5018ZM64.2891 394.09C65.3391 394.09 66.2491 393.194 66.2491 391.85C66.2491 390.506 65.3391 389.61 64.2891 389.61C63.2391 389.61 62.3291 390.506 62.3291 391.85C62.3291 393.194 63.2391 394.09 64.2891 394.09ZM66.3891 395L66.1091 394.3C65.9691 394.454 65.8151 394.58 65.6331 394.692C65.3111 394.902 64.8491 395.07 64.2191 395.07C62.5951 395.07 61.2791 393.74 61.2791 391.85C61.2791 389.96 62.5951 388.63 64.2191 388.63C64.8491 388.63 65.3111 388.84 65.6331 389.05C65.8151 389.176 65.9691 389.316 66.1091 389.47V386.18H67.1591V395H66.3891Z" fill="white"/>
<rect x="16" y="403" width="343" height="42" rx="4" fill="#3F3F46"/>
<path d="M36.6673 421.333V420.667C36.6673 419.429 36.1757 418.242 35.3005 417.367C34.4253 416.492 33.2383 416 32.0007 416C30.763 416 29.576 416.492 28.7008 417.367C27.8256 418.242 27.334 419.429 27.334 420.667V421.333H25.334V430C25.334 430.53 25.5447 431.039 25.9198 431.414C26.2948 431.789 26.8036 432 27.334 432H36.6673C37.1978 432 37.7065 431.789 38.0815 431.414C38.4566 431.039 38.6673 430.53 38.6673 430V421.333H36.6673ZM32.6673 428H31.334V425.333H32.6673V428ZM35.334 421.333H28.6673V420.667C28.6673 419.783 29.0185 418.935 29.6436 418.31C30.2687 417.685 31.1166 417.333 32.0007 417.333C32.8847 417.333 33.7326 417.685 34.3577 418.31C34.9828 418.935 35.334 419.783 35.334 420.667V421.333Z" fill="#C6C6C6"/>
<path d="M49.05 428.5V419.68H54.86V420.94H50.38V423.32H54.51V424.58H50.38V427.24H55V428.5H49.05ZM56.5373 428.5V422.2H57.4473L57.7273 422.83C57.8533 422.704 57.9933 422.578 58.1613 422.48C58.4553 422.312 58.9173 422.13 59.5473 422.13C60.9473 422.13 62.0673 423.25 62.0673 424.86V428.5H60.8073V424.86C60.8073 424.034 60.1213 423.32 59.3373 423.32C58.4833 423.32 57.7973 424.034 57.7973 424.86V428.5H56.5373ZM64.234 426.4V423.39H63.114V422.2H63.604C64.094 422.2 64.444 421.85 64.444 421.36V420.52H65.494V422.2H66.894V423.39H65.494V426.4C65.494 426.96 65.914 427.38 66.474 427.38C66.572 427.38 66.67 427.366 66.768 427.352L66.894 427.31V428.43C66.838 428.458 66.768 428.486 66.698 428.5C66.558 428.542 66.39 428.57 66.194 428.57C65.074 428.57 64.234 427.73 64.234 426.4ZM72.2867 426.68H73.6167C73.2107 427.73 72.3567 428.57 70.8867 428.57C69.2067 428.57 67.8767 427.24 67.8767 425.35C67.8767 423.46 69.1927 422.13 70.8167 422.13C72.4407 422.13 73.7567 423.46 73.7567 425.35C73.7567 425.504 73.7287 425.644 73.7147 425.742L73.6867 425.91H69.2067C69.2767 426.694 69.9767 427.38 70.8867 427.38C71.6567 427.38 72.0767 426.96 72.2867 426.68ZM69.2067 424.86H72.5667C72.4127 423.95 71.8107 423.32 70.8167 423.32C69.9767 423.32 69.3607 423.95 69.2067 424.86ZM75.09 428.5V422.2H76L76.28 422.83C76.392 422.704 76.532 422.578 76.686 422.48C76.952 422.312 77.344 422.13 77.89 422.13C78.044 422.13 78.128 422.158 78.198 422.172L78.31 422.2V423.46L78.184 423.432C78.086 423.418 77.988 423.39 77.89 423.39C77.036 423.39 76.35 424.104 76.35 424.93V428.5H75.09ZM86.4902 428.5L86.2102 427.87C86.0842 427.996 85.9442 428.122 85.7762 428.22C85.4822 428.402 85.0202 428.57 84.3902 428.57C82.9902 428.57 82.2202 427.8 82.2202 426.68C82.2202 425.42 83.0602 424.58 86.1402 424.58V424.37C86.1402 423.74 85.7342 423.32 84.9502 423.32C84.1102 423.32 83.7602 423.656 83.6902 424.09H82.4302C82.5002 422.97 83.3962 422.13 84.9502 422.13C86.4202 422.13 87.4002 423.11 87.4002 424.37V428.5H86.4902ZM86.1402 426.036V425.7C83.9002 425.7 83.4802 426.12 83.4802 426.75C83.4802 427.1 83.8302 427.45 84.4602 427.45C85.5242 427.45 86.1402 426.82 86.1402 426.036ZM92.0841 430.74V422.2H92.9941L93.2741 422.83C93.4001 422.704 93.5401 422.578 93.7081 422.48C94.0021 422.312 94.4641 422.13 95.0941 422.13C96.7741 422.13 98.1041 423.46 98.1041 425.35C98.1041 427.24 96.7741 428.57 95.0941 428.57C94.4921 428.57 94.0721 428.402 93.7781 428.22C93.6101 428.122 93.4701 427.996 93.3441 427.87V430.74H92.0841ZM95.0241 427.38C95.9901 427.38 96.8441 426.54 96.8441 425.35C96.8441 424.16 95.9901 423.32 95.0241 423.32C94.0581 423.32 93.2041 424.16 93.2041 425.35C93.2041 426.54 94.0581 427.38 95.0241 427.38ZM103.43 428.5L103.15 427.87C103.024 427.996 102.884 428.122 102.716 428.22C102.422 428.402 101.96 428.57 101.33 428.57C99.9296 428.57 99.1596 427.8 99.1596 426.68C99.1596 425.42 99.9996 424.58 103.08 424.58V424.37C103.08 423.74 102.674 423.32 101.89 423.32C101.05 423.32 100.7 423.656 100.63 424.09H99.3696C99.4396 422.97 100.336 422.13 101.89 422.13C103.36 422.13 104.34 423.11 104.34 424.37V428.5H103.43ZM103.08 426.036V425.7C100.84 425.7 100.42 426.12 100.42 426.75C100.42 427.1 100.77 427.45 101.4 427.45C102.464 427.45 103.08 426.82 103.08 426.036ZM105.597 426.47H106.857C106.927 427.03 107.263 427.38 107.977 427.38C108.761 427.38 109.097 427.044 109.097 426.61C109.097 425.49 105.737 426.246 105.737 424.02C105.737 422.97 106.577 422.13 107.907 422.13C109.377 422.13 110.147 422.9 110.217 424.09H108.957C108.887 423.656 108.537 423.32 107.907 423.32C107.277 423.32 106.927 423.67 106.927 424.02C106.927 425.14 110.287 424.384 110.287 426.61C110.287 427.73 109.447 428.57 107.977 428.57C106.423 428.57 105.667 427.814 105.597 426.47ZM111.271 426.47H112.531C112.601 427.03 112.937 427.38 113.651 427.38C114.435 427.38 114.771 427.044 114.771 426.61C114.771 425.49 111.411 426.246 111.411 424.02C111.411 422.97 112.251 422.13 113.581 422.13C115.051 422.13 115.821 422.9 115.891 424.09H114.631C114.561 423.656 114.211 423.32 113.581 423.32C112.951 423.32 112.601 423.67 112.601 424.02C112.601 425.14 115.961 424.384 115.961 426.61C115.961 427.73 115.121 428.57 113.651 428.57C112.097 428.57 111.341 427.814 111.271 426.47ZM118.695 428.5L116.595 422.2H117.855L119.255 426.54L120.655 422.2H121.495L122.895 426.54L124.295 422.2H125.555L123.455 428.5H122.405L121.075 424.37L119.745 428.5H118.695ZM129.197 427.38C130.107 427.38 130.947 426.54 130.947 425.35C130.947 424.16 130.107 423.32 129.197 423.32C128.287 423.32 127.447 424.16 127.447 425.35C127.447 426.54 128.287 427.38 129.197 427.38ZM129.197 428.57C127.517 428.57 126.187 427.24 126.187 425.35C126.187 423.46 127.517 422.13 129.197 422.13C130.877 422.13 132.207 423.46 132.207 425.35C132.207 427.24 130.877 428.57 129.197 428.57ZM133.537 428.5V422.2H134.447L134.727 422.83C134.839 422.704 134.979 422.578 135.133 422.48C135.399 422.312 135.791 422.13 136.337 422.13C136.491 422.13 136.575 422.158 136.645 422.172L136.757 422.2V423.46L136.631 423.432C136.533 423.418 136.435 423.39 136.337 423.39C135.483 423.39 134.797 424.104 134.797 424.93V428.5H133.537ZM142.631 428.5L142.351 427.87C142.225 427.996 142.085 428.122 141.917 428.22C141.623 428.402 141.161 428.57 140.531 428.57C138.851 428.57 137.521 427.24 137.521 425.35C137.521 423.46 138.851 422.13 140.531 422.13C141.133 422.13 141.553 422.312 141.847 422.48C142.015 422.578 142.155 422.704 142.281 422.83V419.68H143.541V428.5H142.631ZM140.601 427.38C141.567 427.38 142.421 426.54 142.421 425.35C142.421 424.16 141.567 423.32 140.601 423.32C139.635 423.32 138.781 424.16 138.781 425.35C138.781 426.54 139.635 427.38 140.601 427.38Z" fill="#C6C6C6"/>
<path d="M350.881 423.454C350.295 422.174 348 418 343 418C338 418 335.705 422.174 335.119 423.454C335.041 423.626 335 423.812 335 424.001C335 424.189 335.041 424.376 335.119 424.547C335.705 425.826 338 430 343 430C348 430 350.295 425.826 350.881 424.546C350.959 424.375 351 424.188 351 424C351 423.812 350.959 423.625 350.881 423.454ZM343 428C342.209 428 341.435 427.765 340.778 427.326C340.12 426.886 339.607 426.262 339.304 425.531C339.002 424.8 338.922 423.996 339.077 423.22C339.231 422.444 339.612 421.731 340.171 421.172C340.731 420.612 341.444 420.231 342.22 420.077C342.995 419.923 343.8 420.002 344.531 420.304C345.262 420.607 345.886 421.12 346.326 421.778C346.765 422.436 347 423.209 347 424C346.999 425.061 346.577 426.077 345.827 426.827C345.077 427.577 344.06 427.999 343 428Z" fill="#C6C6C6"/>
<path d="M343.001 426.666C344.473 426.666 345.667 425.473 345.667 424C345.667 422.527 344.473 421.333 343.001 421.333C341.528 421.333 340.334 422.527 340.334 424C340.334 425.473 341.528 426.666 343.001 426.666Z" fill="#C6C6C6"/>
<path d="M23.21 471.06H24.4C23.91 472.74 22.58 474.07 20.62 474.07C18.45 474.07 16.49 472.11 16.49 469.59C16.49 467.07 18.45 465.11 20.62 465.11C22.51 465.11 23.84 466.44 24.33 468.12H23.14C22.846 467 21.964 466.09 20.62 466.09C19.08 466.09 17.61 467.56 17.61 469.59C17.61 471.62 19.08 473.09 20.62 473.09C22.034 473.09 22.916 472.18 23.21 471.06ZM28.2484 473.09C29.2144 473.09 30.1384 472.194 30.1384 470.85C30.1384 469.506 29.2144 468.61 28.2484 468.61C27.2684 468.61 26.3584 469.506 26.3584 470.85C26.3584 472.194 27.2684 473.09 28.2484 473.09ZM28.2484 474.07C26.6244 474.07 25.3084 472.74 25.3084 470.85C25.3084 468.96 26.6244 467.63 28.2484 467.63C29.8724 467.63 31.1884 468.96 31.1884 470.85C31.1884 472.74 29.8724 474.07 28.2484 474.07ZM32.5916 474V467.7H33.3616L33.6416 468.4C33.7676 468.26 33.9216 468.134 34.1036 468.022C34.4256 467.812 34.8596 467.63 35.4616 467.63C36.7916 467.63 37.9116 468.75 37.9116 470.36V474H36.8616V470.36C36.8616 469.31 36.1476 468.61 35.3216 468.61C34.3276 468.61 33.6416 469.296 33.6416 470.36V474H32.5916ZM39.87 474V468.68H39.1V467.7H39.87V467.21C39.87 465.95 40.724 465.11 41.69 465.11C41.9 465.11 42.054 465.138 42.166 465.18L42.32 465.25V466.16L42.222 466.132C42.166 466.118 42.068 466.09 41.97 466.09C41.34 466.09 40.92 466.496 40.92 467.21V467.7H44.49V474H43.44V468.68H40.92V474H39.87ZM43.3 465.922C43.3 465.53 43.58 465.25 43.958 465.25C44.35 465.25 44.63 465.53 44.63 465.922C44.63 466.3 44.35 466.58 43.958 466.58C43.58 466.58 43.3 466.3 43.3 465.922ZM46.3045 474V467.7H47.0745L47.3545 468.4C47.4805 468.26 47.6345 468.134 47.8165 468.022C48.1385 467.812 48.5725 467.63 49.1745 467.63H49.3145V468.68H49.0345C48.0405 468.68 47.3545 469.366 47.3545 470.43V474H46.3045ZM50.5018 474V467.7H51.2718L51.5518 468.4C51.6498 468.26 51.7758 468.134 51.9298 468.022C52.1958 467.812 52.5458 467.63 53.0918 467.63C53.7218 467.63 54.1558 467.91 54.4358 468.19C54.6038 468.358 54.7438 468.54 54.8418 468.75C54.9678 468.54 55.1078 468.358 55.2898 468.19C55.6118 467.91 56.0598 467.63 56.7318 467.63C57.8518 467.63 58.8318 468.596 58.8318 470.22V474H57.7818V470.22C57.7818 469.156 57.2358 468.61 56.5218 468.61C55.8078 468.61 55.1918 469.226 55.1918 470.22V474H54.1418V470.22C54.1418 469.156 53.5958 468.61 52.8818 468.61C52.1958 468.61 51.5518 469.282 51.5518 470.22V474H50.5018ZM66.4558 473.09C67.5058 473.09 68.4158 472.194 68.4158 470.85C68.4158 469.506 67.5058 468.61 66.4558 468.61C65.4058 468.61 64.4958 469.506 64.4958 470.85C64.4958 472.194 65.4058 473.09 66.4558 473.09ZM63.5858 476.24V467.7H64.3558L64.6358 468.4C64.7618 468.26 64.9298 468.134 65.1118 468.022C65.4338 467.812 65.8958 467.63 66.5258 467.63C68.1498 467.63 69.4658 468.96 69.4658 470.85C69.4658 472.74 68.1498 474.07 66.5258 474.07C65.8958 474.07 65.4338 473.86 65.1118 473.65C64.9298 473.524 64.7618 473.384 64.6358 473.23V476.24H63.5858ZM74.8492 474L74.5692 473.3C74.4292 473.454 74.2752 473.58 74.0932 473.692C73.7712 473.902 73.3092 474.07 72.6792 474.07C71.4192 474.07 70.5792 473.23 70.5792 472.18C70.5792 470.99 71.4192 470.15 74.5692 470.15V469.8C74.5692 469.17 74.0232 468.61 73.2392 468.61C72.4552 468.61 72.1332 468.96 71.9792 469.52H70.8592C71.0132 468.47 71.8392 467.63 73.2392 467.63C74.6392 467.63 75.6192 468.624 75.6192 469.8V474H74.8492ZM74.5692 471.62V471.13C72.0492 471.13 71.6292 471.55 71.6292 472.25C71.6292 472.684 72.0492 473.09 72.6792 473.09C73.7992 473.09 74.5692 472.32 74.5692 471.62ZM76.947 472.11H77.997C78.067 472.67 78.473 473.09 79.257 473.09C79.971 473.09 80.377 472.67 80.377 472.18C80.377 470.766 77.087 471.844 77.087 469.45C77.087 468.484 77.927 467.63 79.187 467.63C80.531 467.63 81.287 468.4 81.357 469.52H80.307C80.237 468.96 79.901 468.61 79.187 468.61C78.557 468.61 78.137 469.016 78.137 469.45C78.137 470.864 81.427 469.8 81.427 472.18C81.427 473.23 80.587 474.07 79.257 474.07C77.857 474.07 77.017 473.23 76.947 472.11ZM82.4705 472.11H83.5205C83.5905 472.67 83.9965 473.09 84.7805 473.09C85.4945 473.09 85.9005 472.67 85.9005 472.18C85.9005 470.766 82.6105 471.844 82.6105 469.45C82.6105 468.484 83.4505 467.63 84.7105 467.63C86.0545 467.63 86.8105 468.4 86.8805 469.52H85.8305C85.7605 468.96 85.4245 468.61 84.7105 468.61C84.0805 468.61 83.6605 469.016 83.6605 469.45C83.6605 470.864 86.9505 469.8 86.9505 472.18C86.9505 473.23 86.1105 474.07 84.7805 474.07C83.3805 474.07 82.5405 473.23 82.4705 472.11ZM89.7439 474L87.6439 467.7H88.7639L90.2339 472.18L91.6339 467.7H92.3339L93.7339 472.18L95.2039 467.7H96.3239L94.2239 474H93.3839L91.9839 469.52L90.5839 474H89.7439ZM99.889 473.09C100.855 473.09 101.779 472.194 101.779 470.85C101.779 469.506 100.855 468.61 99.889 468.61C98.909 468.61 97.999 469.506 97.999 470.85C97.999 472.194 98.909 473.09 99.889 473.09ZM99.889 474.07C98.265 474.07 96.949 472.74 96.949 470.85C96.949 468.96 98.265 467.63 99.889 467.63C101.513 467.63 102.829 468.96 102.829 470.85C102.829 472.74 101.513 474.07 99.889 474.07ZM104.232 474V467.7H105.002L105.282 468.4C105.408 468.26 105.562 468.134 105.744 468.022C106.066 467.812 106.5 467.63 107.102 467.63H107.242V468.68H106.962C105.968 468.68 105.282 469.366 105.282 470.43V474H104.232ZM111.02 473.09C112.07 473.09 112.98 472.194 112.98 470.85C112.98 469.506 112.07 468.61 111.02 468.61C109.97 468.61 109.06 469.506 109.06 470.85C109.06 472.194 109.97 473.09 111.02 473.09ZM113.12 474L112.84 473.3C112.7 473.454 112.546 473.58 112.364 473.692C112.042 473.902 111.58 474.07 110.95 474.07C109.326 474.07 108.01 472.74 108.01 470.85C108.01 468.96 109.326 467.63 110.95 467.63C111.58 467.63 112.042 467.84 112.364 468.05C112.546 468.176 112.7 468.316 112.84 468.47V465.18H113.89V474H113.12Z" fill="white"/>
<rect x="16" y="482" width="343" height="42" rx="4" fill="#3F3F46"/>
<path d="M36.6673 500.333V499.667C36.6673 498.429 36.1757 497.242 35.3005 496.367C34.4253 495.492 33.2383 495 32.0007 495C30.763 495 29.576 495.492 28.7008 496.367C27.8256 497.242 27.334 498.429 27.334 499.667V500.333H25.334V509C25.334 509.53 25.5447 510.039 25.9198 510.414C26.2948 510.789 26.8036 511 27.334 511H36.6673C37.1978 511 37.7065 510.789 38.0815 510.414C38.4566 510.039 38.6673 509.53 38.6673 509V500.333H36.6673ZM32.6673 507H31.334V504.333H32.6673V507ZM35.334 500.333H28.6673V499.667C28.6673 498.783 29.0185 497.935 29.6436 497.31C30.2687 496.685 31.1166 496.333 32.0007 496.333C32.8847 496.333 33.7326 496.685 34.3577 497.31C34.9828 497.935 35.334 498.783 35.334 499.667V500.333Z" fill="#C6C6C6"/>
<path d="M55.14 504.49H56.54C56.134 506.17 54.706 507.57 52.69 507.57C50.45 507.57 48.49 505.61 48.49 503.09C48.49 500.57 50.45 498.61 52.69 498.61C54.65 498.61 56.064 500.01 56.47 501.69H55.07C54.776 500.64 53.978 499.8 52.69 499.8C51.234 499.8 49.82 501.186 49.82 503.09C49.82 504.994 51.234 506.38 52.69 506.38C54.048 506.38 54.846 505.526 55.14 504.49ZM60.4551 506.38C61.3651 506.38 62.2051 505.54 62.2051 504.35C62.2051 503.16 61.3651 502.32 60.4551 502.32C59.5451 502.32 58.7051 503.16 58.7051 504.35C58.7051 505.54 59.5451 506.38 60.4551 506.38ZM60.4551 507.57C58.7751 507.57 57.4451 506.24 57.4451 504.35C57.4451 502.46 58.7751 501.13 60.4551 501.13C62.1351 501.13 63.4651 502.46 63.4651 504.35C63.4651 506.24 62.1351 507.57 60.4551 507.57ZM64.7951 507.5V501.2H65.7051L65.9851 501.83C66.1111 501.704 66.2511 501.578 66.4191 501.48C66.7131 501.312 67.1751 501.13 67.8051 501.13C69.2051 501.13 70.3251 502.25 70.3251 503.86V507.5H69.0651V503.86C69.0651 503.034 68.3791 502.32 67.5951 502.32C66.7411 502.32 66.0551 503.034 66.0551 503.86V507.5H64.7951ZM72.1418 507.5V502.39H71.3718V501.2H72.1418V500.78C72.1418 499.45 72.9818 498.61 74.1018 498.61C74.3118 498.61 74.4798 498.638 74.6058 498.68L74.8018 498.75V499.87L74.6758 499.842C74.5778 499.828 74.4798 499.8 74.3818 499.8C73.8218 499.8 73.4018 500.22 73.4018 500.78V501.2H76.9718V507.5H75.7118V502.39H73.4018V507.5H72.1418ZM76.3418 500.22C75.9078 500.22 75.5718 499.884 75.5718 499.45C75.5718 499.016 75.9078 498.68 76.3418 498.68C76.7758 498.68 77.1118 499.016 77.1118 499.45C77.1118 499.884 76.7758 500.22 76.3418 500.22ZM78.6584 507.5V501.2H79.5684L79.8484 501.83C79.9604 501.704 80.1004 501.578 80.2544 501.48C80.5204 501.312 80.9124 501.13 81.4584 501.13C81.6124 501.13 81.6964 501.158 81.7664 501.172L81.8784 501.2V502.46L81.7524 502.432C81.6544 502.418 81.5564 502.39 81.4584 502.39C80.6044 502.39 79.9184 503.104 79.9184 503.93V507.5H78.6584ZM82.9923 507.5V501.2H83.9023L84.1823 501.83C84.2943 501.704 84.4343 501.578 84.5883 501.48C84.8543 501.312 85.2323 501.13 85.7223 501.13C86.3243 501.13 86.7443 501.382 87.0383 501.62C87.2063 501.774 87.3463 501.928 87.4723 502.11C87.5983 501.928 87.7663 501.774 87.9483 501.62C88.2703 501.382 88.7323 501.13 89.3623 501.13C90.5383 501.13 91.5323 502.096 91.5323 503.72V507.5H90.2723V503.72C90.2723 502.88 89.7123 502.32 89.0823 502.32C88.4523 502.32 87.8923 502.88 87.8923 503.72V507.5H86.6323V503.72C86.6323 502.88 86.0723 502.32 85.4423 502.32C84.8123 502.32 84.2523 502.88 84.2523 503.72V507.5H82.9923ZM96.213 509.74V501.2H97.123L97.403 501.83C97.529 501.704 97.669 501.578 97.837 501.48C98.131 501.312 98.593 501.13 99.223 501.13C100.903 501.13 102.233 502.46 102.233 504.35C102.233 506.24 100.903 507.57 99.223 507.57C98.621 507.57 98.201 507.402 97.907 507.22C97.739 507.122 97.599 506.996 97.473 506.87V509.74H96.213ZM99.153 506.38C100.119 506.38 100.973 505.54 100.973 504.35C100.973 503.16 100.119 502.32 99.153 502.32C98.187 502.32 97.333 503.16 97.333 504.35C97.333 505.54 98.187 506.38 99.153 506.38ZM107.559 507.5L107.279 506.87C107.153 506.996 107.013 507.122 106.845 507.22C106.551 507.402 106.089 507.57 105.459 507.57C104.059 507.57 103.289 506.8 103.289 505.68C103.289 504.42 104.129 503.58 107.209 503.58V503.37C107.209 502.74 106.803 502.32 106.019 502.32C105.179 502.32 104.829 502.656 104.759 503.09H103.499C103.569 501.97 104.465 501.13 106.019 501.13C107.489 501.13 108.469 502.11 108.469 503.37V507.5H107.559ZM107.209 505.036V504.7C104.969 504.7 104.549 505.12 104.549 505.75C104.549 506.1 104.899 506.45 105.529 506.45C106.593 506.45 107.209 505.82 107.209 505.036ZM109.726 505.47H110.986C111.056 506.03 111.392 506.38 112.106 506.38C112.89 506.38 113.226 506.044 113.226 505.61C113.226 504.49 109.866 505.246 109.866 503.02C109.866 501.97 110.706 501.13 112.036 501.13C113.506 501.13 114.276 501.9 114.346 503.09H113.086C113.016 502.656 112.666 502.32 112.036 502.32C111.406 502.32 111.056 502.67 111.056 503.02C111.056 504.14 114.416 503.384 114.416 505.61C114.416 506.73 113.576 507.57 112.106 507.57C110.552 507.57 109.796 506.814 109.726 505.47ZM115.4 505.47H116.66C116.73 506.03 117.066 506.38 117.78 506.38C118.564 506.38 118.9 506.044 118.9 505.61C118.9 504.49 115.54 505.246 115.54 503.02C115.54 501.97 116.38 501.13 117.71 501.13C119.18 501.13 119.95 501.9 120.02 503.09H118.76C118.69 502.656 118.34 502.32 117.71 502.32C117.08 502.32 116.73 502.67 116.73 503.02C116.73 504.14 120.09 503.384 120.09 505.61C120.09 506.73 119.25 507.57 117.78 507.57C116.226 507.57 115.47 506.814 115.4 505.47ZM122.824 507.5L120.724 501.2H121.984L123.384 505.54L124.784 501.2H125.624L127.024 505.54L128.424 501.2H129.684L127.584 507.5H126.534L125.204 503.37L123.874 507.5H122.824ZM133.326 506.38C134.236 506.38 135.076 505.54 135.076 504.35C135.076 503.16 134.236 502.32 133.326 502.32C132.416 502.32 131.576 503.16 131.576 504.35C131.576 505.54 132.416 506.38 133.326 506.38ZM133.326 507.57C131.646 507.57 130.316 506.24 130.316 504.35C130.316 502.46 131.646 501.13 133.326 501.13C135.006 501.13 136.336 502.46 136.336 504.35C136.336 506.24 135.006 507.57 133.326 507.57ZM137.666 507.5V501.2H138.576L138.856 501.83C138.968 501.704 139.108 501.578 139.262 501.48C139.528 501.312 139.92 501.13 140.466 501.13C140.62 501.13 140.704 501.158 140.774 501.172L140.886 501.2V502.46L140.76 502.432C140.662 502.418 140.564 502.39 140.466 502.39C139.612 502.39 138.926 503.104 138.926 503.93V507.5H137.666ZM146.76 507.5L146.48 506.87C146.354 506.996 146.214 507.122 146.046 507.22C145.752 507.402 145.29 507.57 144.66 507.57C142.98 507.57 141.65 506.24 141.65 504.35C141.65 502.46 142.98 501.13 144.66 501.13C145.262 501.13 145.682 501.312 145.976 501.48C146.144 501.578 146.284 501.704 146.41 501.83V498.68H147.67V507.5H146.76ZM144.73 506.38C145.696 506.38 146.55 505.54 146.55 504.35C146.55 503.16 145.696 502.32 144.73 502.32C143.764 502.32 142.91 503.16 142.91 504.35C142.91 505.54 143.764 506.38 144.73 506.38Z" fill="#C6C6C6"/>
<rect x="16" y="184" width="14" height="14" rx="7" fill="url(#paint1_linear_234_2539)"/>
<path d="M22.3252 194V189.25L21.5752 189.75L20.9752 188.85L22.6252 187.7H23.5252V194H22.3252Z" fill="white"/>
<path d="M34.1094 194L36.9894 186.44H37.9494L40.8294 194H39.6294L38.9694 192.26H35.9694L35.3094 194H34.1094ZM36.3894 191.18H38.5494L37.4694 188.18L36.3894 191.18ZM45.0842 192.02H46.2242C45.9722 193.172 45.0962 194.06 43.8242 194.06C42.3842 194.06 41.2442 192.92 41.2442 191.3C41.2442 189.68 42.3842 188.54 43.8242 188.54C45.0962 188.54 45.9722 189.428 46.2242 190.58H45.0842C44.9042 189.968 44.4962 189.56 43.8242 189.56C43.0442 189.56 42.3242 190.28 42.3242 191.3C42.3242 192.32 43.0442 193.04 43.8242 193.04C44.4962 193.04 44.9042 192.632 45.0842 192.02ZM50.8498 192.02H51.9898C51.7378 193.172 50.8618 194.06 49.5898 194.06C48.1498 194.06 47.0098 192.92 47.0098 191.3C47.0098 189.68 48.1498 188.54 49.5898 188.54C50.8618 188.54 51.7378 189.428 51.9898 190.58H50.8498C50.6698 189.968 50.2618 189.56 49.5898 189.56C48.8098 189.56 48.0898 190.28 48.0898 191.3C48.0898 192.32 48.8098 193.04 49.5898 193.04C50.2618 193.04 50.6698 192.632 50.8498 192.02ZM55.3555 193.04C56.1355 193.04 56.8555 192.32 56.8555 191.3C56.8555 190.28 56.1355 189.56 55.3555 189.56C54.5755 189.56 53.8555 190.28 53.8555 191.3C53.8555 192.32 54.5755 193.04 55.3555 193.04ZM55.3555 194.06C53.9155 194.06 52.7755 192.92 52.7755 191.3C52.7755 189.68 53.9155 188.54 55.3555 188.54C56.7955 188.54 57.9355 189.68 57.9355 191.3C57.9355 192.92 56.7955 194.06 55.3555 194.06ZM59.0755 191.72V188.6H60.1555V191.72C60.1555 192.452 60.7435 193.04 61.4155 193.04C62.1235 193.04 62.7355 192.452 62.7355 191.72V188.6H63.8155V194H63.0355L62.7955 193.46C62.6875 193.568 62.5675 193.676 62.4235 193.76C62.1715 193.916 61.7755 194.06 61.2355 194.06C60.0355 194.06 59.0755 193.1 59.0755 191.72ZM65.2513 194V188.6H66.0312L66.2713 189.14C66.3793 189.032 66.4993 188.924 66.6433 188.84C66.8953 188.696 67.2913 188.54 67.8313 188.54C69.0313 188.54 69.9913 189.5 69.9913 190.88V194H68.9113V190.88C68.9113 190.172 68.3233 189.56 67.6513 189.56C66.9193 189.56 66.3313 190.172 66.3313 190.88V194H65.2513ZM71.8484 192.2V189.62H70.8884V188.6H71.3084C71.7284 188.6 72.0284 188.3 72.0284 187.88V187.16H72.9284V188.6H74.1284V189.62H72.9284V192.2C72.9284 192.68 73.2884 193.04 73.7684 193.04C73.8524 193.04 73.9364 193.028 74.0204 193.016L74.1284 192.98V193.94C74.0804 193.964 74.0204 193.988 73.9604 194C73.8404 194.036 73.6964 194.06 73.5284 194.06C72.5684 194.06 71.8484 193.34 71.8484 192.2ZM78.0247 194V188.6H79.1047V194H78.0247ZM78.5647 186.44C78.9367 186.44 79.2247 186.728 79.2247 187.1C79.2247 187.472 78.9367 187.76 78.5647 187.76C78.1927 187.76 77.9047 187.472 77.9047 187.1C77.9047 186.728 78.1927 186.44 78.5647 186.44ZM80.5442 194V188.6H81.3242L81.5642 189.14C81.6722 189.032 81.7922 188.924 81.9362 188.84C82.1882 188.696 82.5842 188.54 83.1242 188.54C84.3242 188.54 85.2842 189.5 85.2842 190.88V194H84.2042V190.88C84.2042 190.172 83.6162 189.56 82.9442 189.56C82.2122 189.56 81.6242 190.172 81.6242 190.88V194H80.5442ZM86.8414 194V189.62H86.1814V188.6H86.8414V188.24C86.8414 187.1 87.5614 186.38 88.5214 186.38C88.7014 186.38 88.8454 186.404 88.9534 186.44L89.1214 186.5V187.46L89.0134 187.436C88.9294 187.424 88.8454 187.4 88.7614 187.4C88.2814 187.4 87.9214 187.76 87.9214 188.24V188.6H89.1214V189.62H87.9214V194H86.8414ZM92.3633 193.04C93.1433 193.04 93.8633 192.32 93.8633 191.3C93.8633 190.28 93.1433 189.56 92.3633 189.56C91.5833 189.56 90.8633 190.28 90.8633 191.3C90.8633 192.32 91.5833 193.04 92.3633 193.04ZM92.3633 194.06C90.9233 194.06 89.7833 192.92 89.7833 191.3C89.7833 189.68 90.9233 188.54 92.3633 188.54C93.8033 188.54 94.9433 189.68 94.9433 191.3C94.9433 192.92 93.8033 194.06 92.3633 194.06ZM96.0833 194V188.6H96.8633L97.1033 189.14C97.1993 189.032 97.3193 188.924 97.4513 188.84C97.6793 188.696 98.0153 188.54 98.4833 188.54C98.6153 188.54 98.6873 188.564 98.7473 188.576L98.8433 188.6V189.68L98.7353 189.656C98.6513 189.644 98.5673 189.62 98.4833 189.62C97.7513 189.62 97.1633 190.232 97.1633 190.94V194H96.0833ZM99.7981 194V188.6H100.578L100.818 189.14C100.914 189.032 101.034 188.924 101.166 188.84C101.394 188.696 101.718 188.54 102.138 188.54C102.654 188.54 103.014 188.756 103.266 188.96C103.41 189.092 103.53 189.224 103.638 189.38C103.746 189.224 103.89 189.092 104.046 188.96C104.322 188.756 104.718 188.54 105.258 188.54C106.266 188.54 107.118 189.368 107.118 190.76V194H106.038V190.76C106.038 190.04 105.558 189.56 105.018 189.56C104.478 189.56 103.998 190.04 103.998 190.76V194H102.918V190.76C102.918 190.04 102.438 189.56 101.898 189.56C101.358 189.56 100.878 190.04 100.878 190.76V194H99.7981ZM111.913 194L111.673 193.46C111.565 193.568 111.445 193.676 111.301 193.76C111.049 193.916 110.653 194.06 110.113 194.06C108.913 194.06 108.253 193.4 108.253 192.44C108.253 191.36 108.973 190.64 111.613 190.64V190.46C111.613 189.92 111.265 189.56 110.593 189.56C109.873 189.56 109.573 189.848 109.513 190.22H108.433C108.493 189.26 109.261 188.54 110.593 188.54C111.853 188.54 112.693 189.38 112.693 190.46V194H111.913ZM111.613 191.888V191.6C109.693 191.6 109.333 191.96 109.333 192.5C109.333 192.8 109.633 193.1 110.173 193.1C111.085 193.1 111.613 192.56 111.613 191.888ZM114.434 192.2V189.62H113.474V188.6H113.894C114.314 188.6 114.614 188.3 114.614 187.88V187.16H115.514V188.6H116.714V189.62H115.514V192.2C115.514 192.68 115.874 193.04 116.354 193.04C116.438 193.04 116.522 193.028 116.606 193.016L116.714 192.98V193.94C116.666 193.964 116.606 193.988 116.546 194C116.426 194.036 116.282 194.06 116.114 194.06C115.154 194.06 114.434 193.34 114.434 192.2ZM117.974 194V188.6H119.054V194H117.974ZM118.514 186.44C118.886 186.44 119.174 186.728 119.174 187.1C119.174 187.472 118.886 187.76 118.514 187.76C118.142 187.76 117.854 187.472 117.854 187.1C117.854 186.728 118.142 186.44 118.514 186.44ZM122.773 193.04C123.553 193.04 124.273 192.32 124.273 191.3C124.273 190.28 123.553 189.56 122.773 189.56C121.993 189.56 121.273 190.28 121.273 191.3C121.273 192.32 121.993 193.04 122.773 193.04ZM122.773 194.06C121.333 194.06 120.193 192.92 120.193 191.3C120.193 189.68 121.333 188.54 122.773 188.54C124.213 188.54 125.353 189.68 125.353 191.3C125.353 192.92 124.213 194.06 122.773 194.06ZM126.493 194V188.6H127.273L127.513 189.14C127.621 189.032 127.741 188.924 127.885 188.84C128.137 188.696 128.533 188.54 129.073 188.54C130.273 188.54 131.233 189.5 131.233 190.88V194H130.153V190.88C130.153 190.172 129.565 189.56 128.893 189.56C128.161 189.56 127.573 190.172 127.573 190.88V194H126.493Z" fill="white"/>
<rect x="16" y="204" width="164" height="4" rx="2" fill="url(#paint2_linear_234_2539)"/>
<rect x="195" y="184" width="14" height="14" rx="7" fill="#3F3F46"/>
<path d="M199.376 194V193.15L201.676 190.75C201.806 190.62 201.916 190.49 202.026 190.36C202.196 190.13 202.376 189.83 202.376 189.55C202.376 189.04 202.076 188.75 201.476 188.75C200.876 188.75 200.526 189.09 200.526 189.65H199.326C199.326 188.5 200.176 187.65 201.476 187.65C202.826 187.65 203.626 188.45 203.626 189.5C203.626 189.98 203.336 190.46 203.046 190.83C202.876 191.05 202.686 191.26 202.476 191.45L201.126 192.85H203.576V194H199.376Z" fill="#A1A1AA"/>
<path d="M213.984 194V186.44H216.984C218.184 186.44 219.144 187.4 219.144 188.54C219.144 189.02 218.94 189.38 218.748 189.62C218.64 189.764 218.508 189.884 218.364 189.98C218.568 190.088 218.748 190.232 218.904 190.412C219.18 190.712 219.444 191.168 219.444 191.84C219.444 192.98 218.424 194 217.044 194H213.984ZM215.124 189.56H216.984C217.596 189.56 218.064 189.08 218.064 188.54C218.064 188 217.596 187.52 216.984 187.52H215.124V189.56ZM215.124 192.92H217.044C217.764 192.92 218.304 192.38 218.304 191.72C218.304 191.06 217.764 190.52 217.044 190.52H215.124V192.92ZM220.589 194V188.6H221.669V194H220.589ZM221.129 186.44C221.501 186.44 221.789 186.728 221.789 187.1C221.789 187.472 221.501 187.76 221.129 187.76C220.757 187.76 220.469 187.472 220.469 187.1C220.469 186.728 220.757 186.44 221.129 186.44ZM225.389 193.04C226.169 193.04 226.889 192.32 226.889 191.3C226.889 190.28 226.169 189.56 225.389 189.56C224.609 189.56 223.889 190.28 223.889 191.3C223.889 192.32 224.609 193.04 225.389 193.04ZM225.389 194.06C223.949 194.06 222.809 192.92 222.809 191.3C222.809 189.68 223.949 188.54 225.389 188.54C226.829 188.54 227.969 189.68 227.969 191.3C227.969 192.92 226.829 194.06 225.389 194.06ZM233.189 194L232.949 193.46C232.841 193.568 232.721 193.676 232.577 193.76C232.325 193.916 231.929 194.06 231.389 194.06C229.949 194.06 228.809 192.92 228.809 191.3C228.809 189.68 229.949 188.54 231.389 188.54C231.905 188.54 232.265 188.696 232.517 188.84C232.661 188.924 232.781 189.032 232.889 189.14V186.44H233.969V194H233.189ZM231.449 193.04C232.277 193.04 233.009 192.32 233.009 191.3C233.009 190.28 232.277 189.56 231.449 189.56C230.621 189.56 229.889 190.28 229.889 191.3C229.889 192.32 230.621 193.04 231.449 193.04ZM238.892 194L238.652 193.46C238.544 193.568 238.424 193.676 238.28 193.76C238.028 193.916 237.632 194.06 237.092 194.06C235.892 194.06 235.232 193.4 235.232 192.44C235.232 191.36 235.952 190.64 238.592 190.64V190.46C238.592 189.92 238.244 189.56 237.572 189.56C236.852 189.56 236.552 189.848 236.492 190.22H235.412C235.472 189.26 236.24 188.54 237.572 188.54C238.832 188.54 239.672 189.38 239.672 190.46V194H238.892ZM238.592 191.888V191.6C236.672 191.6 236.312 191.96 236.312 192.5C236.312 192.8 236.612 193.1 237.152 193.1C238.064 193.1 238.592 192.56 238.592 191.888ZM241.413 192.2V189.62H240.453V188.6H240.873C241.293 188.6 241.593 188.3 241.593 187.88V187.16H242.493V188.6H243.693V189.62H242.493V192.2C242.493 192.68 242.853 193.04 243.333 193.04C243.417 193.04 243.501 193.028 243.585 193.016L243.693 192.98V193.94C243.645 193.964 243.585 193.988 243.525 194C243.405 194.036 243.261 194.06 243.093 194.06C242.133 194.06 241.413 193.34 241.413 192.2ZM248.255 194L248.015 193.46C247.907 193.568 247.787 193.676 247.643 193.76C247.391 193.916 246.995 194.06 246.455 194.06C245.255 194.06 244.595 193.4 244.595 192.44C244.595 191.36 245.315 190.64 247.955 190.64V190.46C247.955 189.92 247.607 189.56 246.935 189.56C246.215 189.56 245.915 189.848 245.855 190.22H244.775C244.835 189.26 245.603 188.54 246.935 188.54C248.195 188.54 249.035 189.38 249.035 190.46V194H248.255ZM247.955 191.888V191.6C246.035 191.6 245.675 191.96 245.675 192.5C245.675 192.8 245.975 193.1 246.515 193.1C247.427 193.1 247.955 192.56 247.955 191.888ZM253.05 194V188.6H254.13V194H253.05ZM253.59 186.44C253.962 186.44 254.25 186.728 254.25 187.1C254.25 187.472 253.962 187.76 253.59 187.76C253.218 187.76 252.93 187.472 252.93 187.1C252.93 186.728 253.218 186.44 253.59 186.44ZM255.57 194V188.6H256.35L256.59 189.14C256.698 189.032 256.818 188.924 256.962 188.84C257.214 188.696 257.61 188.54 258.15 188.54C259.35 188.54 260.31 189.5 260.31 190.88V194H259.23V190.88C259.23 190.172 258.642 189.56 257.97 189.56C257.238 189.56 256.65 190.172 256.65 190.88V194H255.57ZM261.867 194V189.62H261.207V188.6H261.867V188.24C261.867 187.1 262.587 186.38 263.547 186.38C263.727 186.38 263.871 186.404 263.979 186.44L264.147 186.5V187.46L264.039 187.436C263.955 187.424 263.871 187.4 263.787 187.4C263.307 187.4 262.947 187.76 262.947 188.24V188.6H264.147V189.62H262.947V194H261.867ZM267.389 193.04C268.169 193.04 268.889 192.32 268.889 191.3C268.889 190.28 268.169 189.56 267.389 189.56C266.609 189.56 265.889 190.28 265.889 191.3C265.889 192.32 266.609 193.04 267.389 193.04ZM267.389 194.06C265.949 194.06 264.809 192.92 264.809 191.3C264.809 189.68 265.949 188.54 267.389 188.54C268.829 188.54 269.969 189.68 269.969 191.3C269.969 192.92 268.829 194.06 267.389 194.06ZM271.109 194V188.6H271.889L272.129 189.14C272.225 189.032 272.345 188.924 272.477 188.84C272.705 188.696 273.041 188.54 273.509 188.54C273.641 188.54 273.713 188.564 273.773 188.576L273.869 188.6V189.68L273.761 189.656C273.677 189.644 273.593 189.62 273.509 189.62C272.777 189.62 272.189 190.232 272.189 190.94V194H271.109ZM274.824 194V188.6H275.604L275.844 189.14C275.94 189.032 276.06 188.924 276.192 188.84C276.42 188.696 276.744 188.54 277.164 188.54C277.68 188.54 278.04 188.756 278.292 188.96C278.436 189.092 278.556 189.224 278.664 189.38C278.772 189.224 278.916 189.092 279.072 188.96C279.348 188.756 279.744 188.54 280.284 188.54C281.292 188.54 282.144 189.368 282.144 190.76V194H281.064V190.76C281.064 190.04 280.584 189.56 280.044 189.56C279.504 189.56 279.024 190.04 279.024 190.76V194H277.944V190.76C277.944 190.04 277.464 189.56 276.924 189.56C276.384 189.56 275.904 190.04 275.904 190.76V194H274.824ZM286.939 194L286.699 193.46C286.591 193.568 286.471 193.676 286.327 193.76C286.075 193.916 285.679 194.06 285.139 194.06C283.939 194.06 283.279 193.4 283.279 192.44C283.279 191.36 283.999 190.64 286.639 190.64V190.46C286.639 189.92 286.291 189.56 285.619 189.56C284.899 189.56 284.599 189.848 284.539 190.22H283.459C283.519 189.26 284.287 188.54 285.619 188.54C286.879 188.54 287.719 189.38 287.719 190.46V194H286.939ZM286.639 191.888V191.6C284.719 191.6 284.359 191.96 284.359 192.5C284.359 192.8 284.659 193.1 285.199 193.1C286.111 193.1 286.639 192.56 286.639 191.888ZM289.46 192.2V189.62H288.5V188.6H288.92C289.34 188.6 289.64 188.3 289.64 187.88V187.16H290.54V188.6H291.74V189.62H290.54V192.2C290.54 192.68 290.9 193.04 291.38 193.04C291.464 193.04 291.548 193.028 291.632 193.016L291.74 192.98V193.94C291.692 193.964 291.632 193.988 291.572 194C291.452 194.036 291.308 194.06 291.14 194.06C290.18 194.06 289.46 193.34 289.46 192.2ZM292.999 194V188.6H294.079V194H292.999ZM293.539 186.44C293.911 186.44 294.199 186.728 294.199 187.1C294.199 187.472 293.911 187.76 293.539 187.76C293.167 187.76 292.879 187.472 292.879 187.1C292.879 186.728 293.167 186.44 293.539 186.44ZM297.799 193.04C298.579 193.04 299.299 192.32 299.299 191.3C299.299 190.28 298.579 189.56 297.799 189.56C297.019 189.56 296.299 190.28 296.299 191.3C296.299 192.32 297.019 193.04 297.799 193.04ZM297.799 194.06C296.359 194.06 295.219 192.92 295.219 191.3C295.219 189.68 296.359 188.54 297.799 188.54C299.239 188.54 300.379 189.68 300.379 191.3C300.379 192.92 299.239 194.06 297.799 194.06ZM301.519 194V188.6H302.299L302.539 189.14C302.647 189.032 302.767 188.924 302.911 188.84C303.163 188.696 303.559 188.54 304.099 188.54C305.299 188.54 306.259 189.5 306.259 190.88V194H305.179V190.88C305.179 190.172 304.591 189.56 303.919 189.56C303.187 189.56 302.599 190.172 302.599 190.88V194H301.519Z" fill="#A1A1AA"/>
<rect x="195" y="204" width="164" height="4" rx="2" fill="#3F3F46"/>
<path d="M81.05 156V147.18H82.38V150.89H86.44V147.18H87.77V156H86.44V152.15H82.38V156H81.05ZM93.7184 154.18H95.0484C94.6424 155.23 93.7884 156.07 92.3184 156.07C90.6384 156.07 89.3084 154.74 89.3084 152.85C89.3084 150.96 90.6244 149.63 92.2484 149.63C93.8724 149.63 95.1884 150.96 95.1884 152.85C95.1884 153.004 95.1604 153.144 95.1464 153.242L95.1184 153.41H90.6384C90.7084 154.194 91.4084 154.88 92.3184 154.88C93.0884 154.88 93.5084 154.46 93.7184 154.18ZM90.6384 152.36H93.9984C93.8444 151.45 93.2424 150.82 92.2484 150.82C91.4084 150.82 90.7924 151.45 90.6384 152.36ZM96.5916 156V147.18H97.8516V156H96.5916ZM99.5978 158.24V149.7H100.508L100.788 150.33C100.914 150.204 101.054 150.078 101.222 149.98C101.516 149.812 101.978 149.63 102.608 149.63C104.288 149.63 105.618 150.96 105.618 152.85C105.618 154.74 104.288 156.07 102.608 156.07C102.006 156.07 101.586 155.902 101.292 155.72C101.124 155.622 100.984 155.496 100.858 155.37V158.24H99.5978ZM102.538 154.88C103.504 154.88 104.358 154.04 104.358 152.85C104.358 151.66 103.504 150.82 102.538 150.82C101.572 150.82 100.718 151.66 100.718 152.85C100.718 154.04 101.572 154.88 102.538 154.88ZM110.029 153.34V149.7H111.289V153.34C111.289 154.194 111.975 154.88 112.759 154.88C113.585 154.88 114.299 154.194 114.299 153.34V149.7H115.559V156H114.649L114.369 155.37C114.243 155.496 114.103 155.622 113.935 155.72C113.641 155.902 113.179 156.07 112.549 156.07C111.149 156.07 110.029 154.95 110.029 153.34ZM116.885 153.97H118.145C118.215 154.53 118.551 154.88 119.265 154.88C120.049 154.88 120.385 154.544 120.385 154.11C120.385 152.99 117.025 153.746 117.025 151.52C117.025 150.47 117.865 149.63 119.195 149.63C120.665 149.63 121.435 150.4 121.505 151.59H120.245C120.175 151.156 119.825 150.82 119.195 150.82C118.565 150.82 118.215 151.17 118.215 151.52C118.215 152.64 121.575 151.884 121.575 154.11C121.575 155.23 120.735 156.07 119.265 156.07C117.711 156.07 116.955 155.314 116.885 153.97ZM126.195 156V150.89H125.425V149.7H126.195V149.28C126.195 147.95 127.035 147.11 128.155 147.11C128.365 147.11 128.533 147.138 128.659 147.18L128.855 147.25V148.37L128.729 148.342C128.631 148.328 128.533 148.3 128.435 148.3C127.875 148.3 127.455 148.72 127.455 149.28V149.7H131.025V156H129.765V150.89H127.455V156H126.195ZM130.395 148.72C129.961 148.72 129.625 148.384 129.625 147.95C129.625 147.516 129.961 147.18 130.395 147.18C130.829 147.18 131.165 147.516 131.165 147.95C131.165 148.384 130.829 148.72 130.395 148.72ZM132.711 156V149.7H133.621L133.901 150.33C134.027 150.204 134.167 150.078 134.335 149.98C134.629 149.812 135.091 149.63 135.721 149.63C137.121 149.63 138.241 150.75 138.241 152.36V156H136.981V152.36C136.981 151.534 136.295 150.82 135.511 150.82C134.657 150.82 133.971 151.534 133.971 152.36V156H132.711ZM139.848 156V149.7H141.108V156H139.848ZM140.478 147.18C140.912 147.18 141.248 147.516 141.248 147.95C141.248 148.384 140.912 148.72 140.478 148.72C140.044 148.72 139.708 148.384 139.708 147.95C139.708 147.516 140.044 147.18 140.478 147.18ZM142.437 153.97H143.697C143.767 154.53 144.103 154.88 144.817 154.88C145.601 154.88 145.937 154.544 145.937 154.11C145.937 152.99 142.577 153.746 142.577 151.52C142.577 150.47 143.417 149.63 144.747 149.63C146.217 149.63 146.987 150.4 147.057 151.59H145.797C145.727 151.156 145.377 150.82 144.747 150.82C144.117 150.82 143.767 151.17 143.767 151.52C143.767 152.64 147.127 151.884 147.127 154.11C147.127 155.23 146.287 156.07 144.817 156.07C143.263 156.07 142.507 155.314 142.437 153.97ZM148.531 156V147.18H149.791V150.33C149.917 150.204 150.071 150.078 150.239 149.98C150.533 149.812 150.981 149.63 151.541 149.63C152.941 149.63 154.061 150.75 154.061 152.36V156H152.801V152.36C152.801 151.534 152.115 150.82 151.331 150.82C150.477 150.82 149.791 151.534 149.791 152.36V156H148.531ZM158.392 153.97H159.652C159.722 154.53 160.058 154.88 160.772 154.88C161.556 154.88 161.892 154.544 161.892 154.11C161.892 152.99 158.532 153.746 158.532 151.52C158.532 150.47 159.372 149.63 160.702 149.63C162.172 149.63 162.942 150.4 163.012 151.59H161.752C161.682 151.156 161.332 150.82 160.702 150.82C160.072 150.82 159.722 151.17 159.722 151.52C159.722 152.64 163.082 151.884 163.082 154.11C163.082 155.23 162.242 156.07 160.772 156.07C159.218 156.07 158.462 155.314 158.392 153.97ZM168.476 154.18H169.806C169.4 155.23 168.546 156.07 167.076 156.07C165.396 156.07 164.066 154.74 164.066 152.85C164.066 150.96 165.382 149.63 167.006 149.63C168.63 149.63 169.946 150.96 169.946 152.85C169.946 153.004 169.918 153.144 169.904 153.242L169.876 153.41H165.396C165.466 154.194 166.166 154.88 167.076 154.88C167.846 154.88 168.266 154.46 168.476 154.18ZM165.396 152.36H168.756C168.602 151.45 168 150.82 167.006 150.82C166.166 150.82 165.55 151.45 165.396 152.36ZM171.839 153.9V150.89H170.719V149.7H171.209C171.699 149.7 172.049 149.35 172.049 148.86V148.02H173.099V149.7H174.499V150.89H173.099V153.9C173.099 154.46 173.519 154.88 174.079 154.88C174.177 154.88 174.275 154.866 174.373 154.852L174.499 154.81V155.93C174.443 155.958 174.373 155.986 174.303 156C174.163 156.042 173.995 156.07 173.799 156.07C172.679 156.07 171.839 155.23 171.839 153.9ZM176.529 153.9V150.89H175.409V149.7H175.899C176.389 149.7 176.739 149.35 176.739 148.86V148.02H177.789V149.7H179.189V150.89H177.789V153.9C177.789 154.46 178.209 154.88 178.769 154.88C178.867 154.88 178.965 154.866 179.063 154.852L179.189 154.81V155.93C179.133 155.958 179.063 155.986 178.993 156C178.853 156.042 178.685 156.07 178.489 156.07C177.369 156.07 176.529 155.23 176.529 153.9ZM180.658 156V149.7H181.918V156H180.658ZM181.288 147.18C181.722 147.18 182.058 147.516 182.058 147.95C182.058 148.384 181.722 148.72 181.288 148.72C180.854 148.72 180.518 148.384 180.518 147.95C180.518 147.516 180.854 147.18 181.288 147.18ZM183.598 156V149.7H184.508L184.788 150.33C184.914 150.204 185.054 150.078 185.222 149.98C185.516 149.812 185.978 149.63 186.608 149.63C188.008 149.63 189.128 150.75 189.128 152.36V156H187.868V152.36C187.868 151.534 187.182 150.82 186.398 150.82C185.544 150.82 184.858 151.534 184.858 152.36V156H183.598ZM190.665 156.42H191.925C192.135 156.854 192.555 157.26 193.395 157.26C194.389 157.26 195.005 156.63 195.005 155.72V155.09C194.879 155.216 194.739 155.342 194.571 155.44C194.277 155.622 193.857 155.79 193.255 155.79C191.715 155.79 190.385 154.446 190.385 152.71C190.385 150.974 191.715 149.63 193.255 149.63C193.885 149.63 194.347 149.812 194.641 149.98C194.809 150.078 194.949 150.204 195.075 150.33L195.355 149.7H196.265V155.72C196.265 157.26 195.145 158.38 193.395 158.38C191.869 158.38 190.931 157.47 190.665 156.42ZM193.409 154.6C194.305 154.6 195.145 153.76 195.145 152.71C195.145 151.66 194.305 150.82 193.395 150.82C192.485 150.82 191.645 151.66 191.645 152.71C191.645 153.76 192.485 154.6 193.409 154.6ZM201.016 153.34V149.7H202.276V153.34C202.276 154.194 202.962 154.88 203.746 154.88C204.572 154.88 205.286 154.194 205.286 153.34V149.7H206.546V156H205.636L205.356 155.37C205.23 155.496 205.09 155.622 204.922 155.72C204.628 155.902 204.166 156.07 203.536 156.07C202.136 156.07 201.016 154.95 201.016 153.34ZM208.221 158.24V149.7H209.131L209.411 150.33C209.537 150.204 209.677 150.078 209.845 149.98C210.139 149.812 210.601 149.63 211.231 149.63C212.911 149.63 214.241 150.96 214.241 152.85C214.241 154.74 212.911 156.07 211.231 156.07C210.629 156.07 210.209 155.902 209.915 155.72C209.747 155.622 209.607 155.496 209.481 155.37V158.24H208.221ZM211.161 154.88C212.127 154.88 212.981 154.04 212.981 152.85C212.981 151.66 212.127 150.82 211.161 150.82C210.195 150.82 209.341 151.66 209.341 152.85C209.341 154.04 210.195 154.88 211.161 154.88ZM219.003 158.24V157.19C219.717 157.19 220.039 156.854 220.193 156.42L220.403 155.79L217.953 149.7H219.283L221.033 154.25L222.783 149.7H224.113L221.453 156.42C220.893 157.82 220.403 158.31 219.423 158.31C219.311 158.31 219.227 158.296 219.129 158.282L219.003 158.24ZM227.752 154.88C228.662 154.88 229.502 154.04 229.502 152.85C229.502 151.66 228.662 150.82 227.752 150.82C226.842 150.82 226.002 151.66 226.002 152.85C226.002 154.04 226.842 154.88 227.752 154.88ZM227.752 156.07C226.072 156.07 224.742 154.74 224.742 152.85C224.742 150.96 226.072 149.63 227.752 149.63C229.432 149.63 230.762 150.96 230.762 152.85C230.762 154.74 229.432 156.07 227.752 156.07ZM232.092 153.34V149.7H233.352V153.34C233.352 154.194 234.038 154.88 234.822 154.88C235.648 154.88 236.362 154.194 236.362 153.34V149.7H237.622V156H236.712L236.432 155.37C236.306 155.496 236.166 155.622 235.998 155.72C235.704 155.902 235.242 156.07 234.612 156.07C233.212 156.07 232.092 154.95 232.092 153.34ZM239.297 156V149.7H240.207L240.487 150.33C240.599 150.204 240.739 150.078 240.893 149.98C241.159 149.812 241.551 149.63 242.097 149.63C242.251 149.63 242.335 149.658 242.405 149.672L242.517 149.7V150.96L242.391 150.932C242.293 150.918 242.195 150.89 242.097 150.89C241.243 150.89 240.557 151.604 240.557 152.43V156H239.297ZM250.697 156L250.417 155.37C250.291 155.496 250.151 155.622 249.983 155.72C249.689 155.902 249.227 156.07 248.597 156.07C247.197 156.07 246.427 155.3 246.427 154.18C246.427 152.92 247.267 152.08 250.347 152.08V151.87C250.347 151.24 249.941 150.82 249.157 150.82C248.317 150.82 247.967 151.156 247.897 151.59H246.637C246.707 150.47 247.603 149.63 249.157 149.63C250.627 149.63 251.607 150.61 251.607 151.87V156H250.697ZM250.347 153.536V153.2C248.107 153.2 247.687 153.62 247.687 154.25C247.687 154.6 248.037 154.95 248.667 154.95C249.731 154.95 250.347 154.32 250.347 153.536ZM257.345 153.69H258.675C258.381 155.034 257.359 156.07 255.875 156.07C254.195 156.07 252.865 154.74 252.865 152.85C252.865 150.96 254.195 149.63 255.875 149.63C257.359 149.63 258.381 150.666 258.675 152.01H257.345C257.135 151.296 256.659 150.82 255.875 150.82C254.965 150.82 254.125 151.66 254.125 152.85C254.125 154.04 254.965 154.88 255.875 154.88C256.659 154.88 257.135 154.404 257.345 153.69ZM264.072 153.69H265.402C265.108 155.034 264.086 156.07 262.602 156.07C260.922 156.07 259.592 154.74 259.592 152.85C259.592 150.96 260.922 149.63 262.602 149.63C264.086 149.63 265.108 150.666 265.402 152.01H264.072C263.862 151.296 263.386 150.82 262.602 150.82C261.692 150.82 260.852 151.66 260.852 152.85C260.852 154.04 261.692 154.88 262.602 154.88C263.386 154.88 263.862 154.404 264.072 153.69ZM269.328 154.88C270.238 154.88 271.078 154.04 271.078 152.85C271.078 151.66 270.238 150.82 269.328 150.82C268.418 150.82 267.578 151.66 267.578 152.85C267.578 154.04 268.418 154.88 269.328 154.88ZM269.328 156.07C267.648 156.07 266.318 154.74 266.318 152.85C266.318 150.96 267.648 149.63 269.328 149.63C271.008 149.63 272.338 150.96 272.338 152.85C272.338 154.74 271.008 156.07 269.328 156.07ZM273.668 153.34V149.7H274.928V153.34C274.928 154.194 275.614 154.88 276.398 154.88C277.224 154.88 277.938 154.194 277.938 153.34V149.7H279.198V156H278.288L278.008 155.37C277.882 155.496 277.742 155.622 277.574 155.72C277.28 155.902 276.818 156.07 276.188 156.07C274.788 156.07 273.668 154.95 273.668 153.34ZM280.873 156V149.7H281.783L282.063 150.33C282.189 150.204 282.329 150.078 282.497 149.98C282.791 149.812 283.253 149.63 283.883 149.63C285.283 149.63 286.403 150.75 286.403 152.36V156H285.143V152.36C285.143 151.534 284.457 150.82 283.673 150.82C282.819 150.82 282.133 151.534 282.133 152.36V156H280.873ZM288.57 153.9V150.89H287.45V149.7H287.94C288.43 149.7 288.78 149.35 288.78 148.86V148.02H289.83V149.7H291.23V150.89H289.83V153.9C289.83 154.46 290.25 154.88 290.81 154.88C290.908 154.88 291.006 154.866 291.104 154.852L291.23 154.81V155.93C291.174 155.958 291.104 155.986 291.034 156C290.894 156.042 290.726 156.07 290.53 156.07C289.41 156.07 288.57 155.23 288.57 153.9ZM292.279 155.3C292.279 154.866 292.615 154.53 293.049 154.53C293.483 154.53 293.819 154.866 293.819 155.3C293.819 155.734 293.483 156.07 293.049 156.07C292.615 156.07 292.279 155.734 292.279 155.3Z" fill="#E4E4E7"/>
<rect x="16.25" y="688.25" width="342.5" height="49.5" rx="7.75" fill="url(#paint3_linear_234_2539)"/>
<rect x="16.25" y="688.25" width="342.5" height="49.5" rx="7.75" stroke="url(#paint4_linear_234_2539)" stroke-width="0.5"/>
<path d="M164.969 714.32L167.369 714.48C166.905 716.4 165.209 718.08 162.729 718.08C159.993 718.08 157.769 715.84 157.769 712.96C157.769 710.08 159.993 707.84 162.729 707.84C165.113 707.84 166.825 709.52 167.289 711.44L164.889 711.6C164.633 710.8 163.929 710.08 162.729 710.08C161.273 710.08 160.089 711.296 160.089 712.96C160.089 714.624 161.273 715.84 162.729 715.84C164.009 715.84 164.729 715.136 164.969 714.32ZM168.175 714.32C168.175 712.16 169.855 710.48 171.935 710.48C174.015 710.48 175.695 712.16 175.695 714.32C175.695 716.48 174.015 718.16 171.935 718.16C169.855 718.16 168.175 716.48 168.175 714.32ZM173.535 714.32C173.535 713.184 172.831 712.48 171.935 712.48C171.039 712.48 170.335 713.184 170.335 714.32C170.335 715.456 171.039 716.16 171.935 716.16C172.831 716.16 173.535 715.456 173.535 714.32ZM176.98 718V710.64H178.58L178.9 711.36C179.076 711.216 179.268 711.072 179.492 710.96C179.876 710.768 180.42 710.56 181.06 710.56C182.804 710.56 184.02 711.76 184.02 713.68V718H181.86V714.08C181.86 713.12 181.316 712.56 180.5 712.56C179.684 712.56 179.14 713.12 179.14 714.08V718H176.98ZM186.182 715.36V712.64H185.062V710.8H185.622C186.214 710.8 186.502 710.512 186.502 709.92V708.88H188.342V710.64H189.862V712.64H188.342V715.04C188.342 715.68 188.742 716.08 189.302 716.08C189.478 716.08 189.59 716.064 189.702 716.048L189.862 716V717.92C189.782 717.952 189.686 717.984 189.574 718C189.366 718.048 189.11 718.08 188.822 718.08C187.142 718.08 186.182 717.136 186.182 715.36ZM191.386 718V710.64H193.546V718H191.386ZM191.306 708.64C191.306 708 191.866 707.44 192.506 707.44C193.146 707.44 193.706 708 193.706 708.64C193.706 709.28 193.146 709.84 192.506 709.84C191.866 709.84 191.306 709.28 191.306 708.64ZM195.152 718V710.64H196.752L197.072 711.36C197.248 711.216 197.44 711.072 197.664 710.96C198.048 710.768 198.592 710.56 199.232 710.56C200.976 710.56 202.192 711.76 202.192 713.68V718H200.032V714.08C200.032 713.12 199.488 712.56 198.672 712.56C197.856 712.56 197.312 713.12 197.312 714.08V718H195.152ZM203.634 714.96V710.64H205.794V714.56C205.794 715.52 206.338 716.08 207.154 716.08C207.97 716.08 208.514 715.52 208.514 714.56V710.64H210.674V718H209.074L208.754 717.28C208.578 717.424 208.37 717.568 208.146 717.68C207.762 717.888 207.234 718.08 206.594 718.08C204.85 718.08 203.634 716.88 203.634 714.96ZM216.837 715.68L219.077 715.84C218.693 717.04 217.541 718.16 215.637 718.16C213.653 718.16 211.957 716.48 211.957 714.32C211.957 712.16 213.637 710.48 215.717 710.48C217.717 710.48 219.317 712 219.317 714.32C219.317 714.496 219.285 714.656 219.269 714.8L219.237 715.04H214.197C214.373 715.6 214.901 716.16 215.717 716.16C216.117 716.16 216.405 716.048 216.581 715.92C216.693 715.856 216.773 715.776 216.837 715.68ZM214.197 713.68H217.237C217.061 713.04 216.533 712.48 215.717 712.48C214.901 712.48 214.373 713.04 214.197 713.68Z" fill="white"/>
<path d="M44.9996 64.9999H34.9996L38.2926 61.7069L36.8786 60.2929L32.5856 64.5859C32.2106 64.961 32 65.4696 32 65.9999C32 66.5303 32.2106 67.0389 32.5856 67.4139L36.8786 71.7069L38.2926 70.2929L34.9996 66.9999H44.9996V64.9999Z" fill="white"/>
<defs>
<linearGradient id="paint0_linear_234_2539" x1="418.527" y1="-580" x2="-859.299" y2="419.827" gradientUnits="userSpaceOnUse">
<stop offset="0.226599" stop-color="#353A40"/>
<stop offset="0.697917" stop-color="#121416"/>
</linearGradient>
<linearGradient id="paint1_linear_234_2539" x1="15.9464" y1="194.782" x2="30" y2="183.946" gradientUnits="userSpaceOnUse">
<stop stop-color="#FFA05C"/>
<stop offset="1" stop-color="#F06500"/>
</linearGradient>
<linearGradient id="paint2_linear_234_2539" x1="15.3717" y1="207.08" x2="15.6341" y2="198.785" gradientUnits="userSpaceOnUse">
<stop stop-color="#FFA05C"/>
<stop offset="1" stop-color="#F06500"/>
</linearGradient>
<linearGradient id="paint3_linear_234_2539" x1="14.6858" y1="726.506" x2="33.6336" y2="626.291" gradientUnits="userSpaceOnUse">
<stop stop-color="#FFA05C"/>
<stop offset="1" stop-color="#F06500"/>
</linearGradient>
<linearGradient id="paint4_linear_234_2539" x1="-82.5632" y1="772.674" x2="-48.3476" y2="627.691" gradientUnits="userSpaceOnUse">
<stop stop-color="white"/>
<stop offset="1" stop-color="#CD5B0A"/>
</linearGradient>
<clipPath id="clip0_234_2539">
<rect width="16" height="16" fill="white" transform="translate(24 337)"/>
</clipPath>
<clipPath id="clip1_234_2539">
<rect width="16" height="16" fill="white" transform="translate(24 258)"/>
</clipPath>
</defs>
</svg>
