<svg width="375" height="813" viewBox="0 0 375 813" fill="none" xmlns="http://www.w3.org/2000/svg">
<g clip-path="url(#clip0_234_2742)">
<rect width="375" height="813" fill="url(#paint0_linear_234_2742)"/>
<rect x="121" y="800" width="134" height="5" rx="2.5" fill="white"/>
<g clip-path="url(#clip1_234_2742)">
<path opacity="0.35" d="M338.667 17.8333H355.333C356.53 17.8333 357.5 18.8036 357.5 20.0002V26.0002C357.5 27.1967 356.53 28.1663 355.333 28.1663H338.667C337.47 28.1663 336.5 27.1967 336.5 26.0002V20.0002L336.511 19.7786C336.622 18.6859 337.545 17.8333 338.667 17.8333Z" fill="white" stroke="white"/>
<path opacity="0.4" d="M359 21V25C359.805 24.6612 360.328 23.8731 360.328 23C360.328 22.1269 359.805 21.3388 359 21Z" fill="white"/>
<path d="M338 20.6666C338 19.9302 338.597 19.3333 339.333 19.3333H354.667C355.403 19.3333 356 19.9302 356 20.6666V25.3333C356 26.0696 355.403 26.6666 354.667 26.6666H339.333C338.597 26.6666 338 26.0696 338 25.3333V20.6666Z" fill="white"/>
<path fill-rule="evenodd" clip-rule="evenodd" d="M323.33 19.6079C325.546 19.608 327.677 20.4594 329.283 21.9862C329.404 22.1041 329.597 22.1026 329.716 21.9829L330.872 20.8162C330.933 20.7555 330.966 20.6733 330.966 20.5877C330.965 20.5021 330.931 20.4202 330.87 20.3602C326.655 16.3207 320.005 16.3207 315.79 20.3602C315.729 20.4202 315.694 20.502 315.693 20.5876C315.693 20.6732 315.726 20.7555 315.787 20.8162L316.943 21.9829C317.062 22.1028 317.255 22.1043 317.376 21.9862C318.982 20.4593 321.114 19.6079 323.33 19.6079ZM323.33 23.4036C324.547 23.4035 325.721 23.856 326.624 24.6732C326.746 24.7892 326.938 24.7867 327.057 24.6676L328.212 23.5009C328.273 23.4397 328.307 23.3567 328.306 23.2704C328.305 23.1842 328.269 23.1018 328.207 23.0419C325.459 20.4855 321.203 20.4855 318.455 23.0419C318.393 23.1018 318.357 23.1842 318.357 23.2705C318.356 23.3568 318.39 23.4398 318.451 23.5009L319.605 24.6676C319.724 24.7867 319.916 24.7892 320.038 24.6732C320.94 23.8566 322.113 23.4041 323.33 23.4036ZM325.643 25.9574C325.645 26.0439 325.611 26.1273 325.549 26.1879L323.552 28.2036C323.493 28.2628 323.413 28.2961 323.33 28.2961C323.247 28.2961 323.167 28.2628 323.108 28.2036L321.111 26.1879C321.049 26.1272 321.015 26.0438 321.017 25.9573C321.019 25.8708 321.056 25.7889 321.12 25.7309C322.396 24.652 324.264 24.652 325.54 25.7309C325.604 25.7889 325.641 25.8709 325.643 25.9574Z" fill="white"/>
<path fill-rule="evenodd" clip-rule="evenodd" d="M309.666 17.6665H308.666C308.114 17.6665 307.666 18.1142 307.666 18.6665V27.3332C307.666 27.8855 308.114 28.3332 308.666 28.3332H309.666C310.218 28.3332 310.666 27.8855 310.666 27.3332V18.6665C310.666 18.1142 310.218 17.6665 309.666 17.6665ZM303.999 19.9998H304.999C305.552 19.9998 305.999 20.4476 305.999 20.9998V27.3332C305.999 27.8855 305.552 28.3332 304.999 28.3332H303.999C303.447 28.3332 302.999 27.8855 302.999 27.3332V20.9998C302.999 20.4476 303.447 19.9998 303.999 19.9998ZM300.333 22.3332H299.333C298.78 22.3332 298.333 22.7809 298.333 23.3332V27.3332C298.333 27.8855 298.78 28.3332 299.333 28.3332H300.333C300.885 28.3332 301.333 27.8855 301.333 27.3332V23.3332C301.333 22.7809 300.885 22.3332 300.333 22.3332ZM295.666 24.3332H294.666C294.114 24.3332 293.666 24.7809 293.666 25.3332V27.3332C293.666 27.8855 294.114 28.3332 294.666 28.3332H295.666C296.218 28.3332 296.666 27.8855 296.666 27.3332V25.3332C296.666 24.7809 296.218 24.3332 295.666 24.3332Z" fill="white"/>
<path d="M37.3203 28.2563C40.0083 28.2563 41.605 26.1543 41.605 22.5947C41.605 21.2544 41.3486 20.1265 40.8579 19.2549C40.1475 17.8999 38.9243 17.1675 37.3789 17.1675C35.0791 17.1675 33.4531 18.7129 33.4531 20.8809C33.4531 22.917 34.918 24.3965 36.9321 24.3965C38.1699 24.3965 39.1733 23.8179 39.6714 22.8145H39.6934C39.6934 22.8145 39.7227 22.8145 39.73 22.8145C39.7446 22.8145 39.7959 22.8145 39.7959 22.8145C39.7959 25.2314 38.8804 26.6743 37.335 26.6743C36.4268 26.6743 35.7236 26.1763 35.4819 25.3779H33.5996C33.9146 27.1138 35.3867 28.2563 37.3203 28.2563ZM37.3862 22.895C36.1704 22.895 35.3062 22.0308 35.3062 20.8223C35.3062 19.6431 36.2144 18.7422 37.3936 18.7422C38.5728 18.7422 39.481 19.6577 39.481 20.8516C39.481 22.0308 38.5947 22.895 37.3862 22.895Z" fill="white"/>
<path d="M44.6961 28.1538C45.3919 28.1538 45.868 27.6558 45.868 26.9966C45.868 26.3301 45.3919 25.8394 44.6961 25.8394C44.0076 25.8394 43.5242 26.3301 43.5242 26.9966C43.5242 27.6558 44.0076 28.1538 44.6961 28.1538ZM44.6961 22.6606C45.3919 22.6606 45.868 22.1699 45.868 21.5107C45.868 20.8442 45.3919 20.3535 44.6961 20.3535C44.0076 20.3535 43.5242 20.8442 43.5242 21.5107C43.5242 22.1699 44.0076 22.6606 44.6961 22.6606Z" fill="white"/>
<path d="M52.7237 28H54.5328V26.0298H55.961V24.4331H54.5328V17.4312H51.8668C49.9991 20.2437 48.5123 22.5947 47.5602 24.3452V26.0298H52.7237V28ZM49.3106 24.3672C50.5411 22.1992 51.6397 20.4634 52.6505 18.9692H52.753V24.4771H49.3106V24.3672Z" fill="white"/>
<path d="M59.9896 28H61.8793V17.4312H59.997L57.2357 19.3647V21.1812L59.8651 19.3354H59.9896V28Z" fill="white"/>
</g>
<path d="M140.18 67.13H141.98C141.458 69.29 139.622 71.09 137.03 71.09C134.15 71.09 131.63 68.57 131.63 65.33C131.63 62.09 134.15 59.57 137.03 59.57C139.55 59.57 141.368 61.37 141.89 63.53H140.09C139.712 62.18 138.686 61.1 137.03 61.1C135.158 61.1 133.34 62.882 133.34 65.33C133.34 67.778 135.158 69.56 137.03 69.56C138.776 69.56 139.802 68.462 140.18 67.13ZM143.594 71V62.9H144.764L145.124 63.71C145.268 63.548 145.448 63.386 145.646 63.26C145.988 63.044 146.492 62.81 147.194 62.81C147.392 62.81 147.5 62.846 147.59 62.864L147.734 62.9V64.52L147.572 64.484C147.446 64.466 147.32 64.43 147.194 64.43C146.096 64.43 145.214 65.348 145.214 66.41V71H143.594ZM154.386 68.66H156.096C155.574 70.01 154.476 71.09 152.586 71.09C150.426 71.09 148.716 69.38 148.716 66.95C148.716 64.52 150.408 62.81 152.496 62.81C154.584 62.81 156.276 64.52 156.276 66.95C156.276 67.148 156.24 67.328 156.222 67.454L156.186 67.67H150.426C150.516 68.678 151.416 69.56 152.586 69.56C153.576 69.56 154.116 69.02 154.386 68.66ZM150.426 66.32H154.746C154.548 65.15 153.774 64.34 152.496 64.34C151.416 64.34 150.624 65.15 150.426 66.32ZM163.12 71L162.76 70.19C162.598 70.352 162.418 70.514 162.202 70.64C161.824 70.874 161.23 71.09 160.42 71.09C158.62 71.09 157.63 70.1 157.63 68.66C157.63 67.04 158.71 65.96 162.67 65.96V65.69C162.67 64.88 162.148 64.34 161.14 64.34C160.06 64.34 159.61 64.772 159.52 65.33H157.9C157.99 63.89 159.142 62.81 161.14 62.81C163.03 62.81 164.29 64.07 164.29 65.69V71H163.12ZM162.67 67.832V67.4C159.79 67.4 159.25 67.94 159.25 68.75C159.25 69.2 159.7 69.65 160.51 69.65C161.878 69.65 162.67 68.84 162.67 67.832ZM166.902 68.3V64.43H165.462V62.9H166.092C166.722 62.9 167.172 62.45 167.172 61.82V60.74H168.522V62.9H170.322V64.43H168.522V68.3C168.522 69.02 169.062 69.56 169.782 69.56C169.908 69.56 170.034 69.542 170.16 69.524L170.322 69.47V70.91C170.25 70.946 170.16 70.982 170.07 71C169.89 71.054 169.674 71.09 169.422 71.09C167.982 71.09 166.902 70.01 166.902 68.3ZM177.255 68.66H178.965C178.443 70.01 177.345 71.09 175.455 71.09C173.295 71.09 171.585 69.38 171.585 66.95C171.585 64.52 173.277 62.81 175.365 62.81C177.453 62.81 179.145 64.52 179.145 66.95C179.145 67.148 179.109 67.328 179.091 67.454L179.055 67.67H173.295C173.385 68.678 174.285 69.56 175.455 69.56C176.445 69.56 176.985 69.02 177.255 68.66ZM173.295 66.32H177.615C177.417 65.15 176.643 64.34 175.365 64.34C174.285 64.34 173.493 65.15 173.295 66.32ZM185.084 71V59.66H192.554V61.28H186.794V64.34H192.104V65.96H186.794V69.38H192.734V71H185.084ZM193.631 71L196.421 66.86L193.811 62.9H195.611L197.411 65.6L199.211 62.9H201.011L198.401 66.86L201.191 71H199.391L197.411 68.03L195.431 71H193.631ZM207.314 68.66H209.024C208.502 70.01 207.404 71.09 205.514 71.09C203.354 71.09 201.644 69.38 201.644 66.95C201.644 64.52 203.336 62.81 205.424 62.81C207.512 62.81 209.204 64.52 209.204 66.95C209.204 67.148 209.168 67.328 209.15 67.454L209.114 67.67H203.354C203.444 68.678 204.344 69.56 205.514 69.56C206.504 69.56 207.044 69.02 207.314 68.66ZM203.354 66.32H207.674C207.476 65.15 206.702 64.34 205.424 64.34C204.344 64.34 203.552 65.15 203.354 66.32ZM210.918 71V62.9H212.088L212.448 63.71C212.592 63.548 212.772 63.386 212.97 63.26C213.312 63.044 213.816 62.81 214.518 62.81C214.716 62.81 214.824 62.846 214.914 62.864L215.058 62.9V64.52L214.896 64.484C214.77 64.466 214.644 64.43 214.518 64.43C213.42 64.43 212.538 65.348 212.538 66.41V71H210.918ZM221.8 68.03H223.51C223.132 69.758 221.818 71.09 219.91 71.09C217.75 71.09 216.04 69.38 216.04 66.95C216.04 64.52 217.75 62.81 219.91 62.81C221.818 62.81 223.132 64.142 223.51 65.87H221.8C221.53 64.952 220.918 64.34 219.91 64.34C218.74 64.34 217.66 65.42 217.66 66.95C217.66 68.48 218.74 69.56 219.91 69.56C220.918 69.56 221.53 68.948 221.8 68.03ZM225.139 71V62.9H226.759V71H225.139ZM225.949 59.66C226.507 59.66 226.939 60.092 226.939 60.65C226.939 61.208 226.507 61.64 225.949 61.64C225.391 61.64 224.959 61.208 224.959 60.65C224.959 60.092 225.391 59.66 225.949 59.66ZM228.468 68.39H230.088C230.178 69.11 230.61 69.56 231.528 69.56C232.536 69.56 232.968 69.128 232.968 68.57C232.968 67.13 228.648 68.102 228.648 65.24C228.648 63.89 229.728 62.81 231.438 62.81C233.328 62.81 234.318 63.8 234.408 65.33H232.788C232.698 64.772 232.248 64.34 231.438 64.34C230.628 64.34 230.178 64.79 230.178 65.24C230.178 66.68 234.498 65.708 234.498 68.57C234.498 70.01 233.418 71.09 231.528 71.09C229.53 71.09 228.558 70.118 228.468 68.39ZM241.433 68.66H243.143C242.621 70.01 241.523 71.09 239.633 71.09C237.473 71.09 235.763 69.38 235.763 66.95C235.763 64.52 237.455 62.81 239.543 62.81C241.631 62.81 243.323 64.52 243.323 66.95C243.323 67.148 243.287 67.328 243.269 67.454L243.233 67.67H237.473C237.563 68.678 238.463 69.56 239.633 69.56C240.623 69.56 241.163 69.02 241.433 68.66ZM237.473 66.32H241.793C241.595 65.15 240.821 64.34 239.543 64.34C238.463 64.34 237.671 65.15 237.473 66.32Z" fill="#A1A1AA"/>
<path d="M16.7 250.2H18.6C18.6 251.62 19.4 252.4 21 252.4C22.7 252.4 23.5 251.62 23.5 250.6C23.5 247.8 16.8 249.2 16.8 244.8C16.8 242.98 18.5 241.3 21 241.3C23.4 241.3 25.1 243.02 25.1 245.2H23.2C23.2 243.9 22.3 243 21 243C19.6 243 18.7 243.9 18.7 244.8C18.7 247.4 25.4 246 25.4 250.6C25.4 252.42 23.7 254.1 21 254.1C18.3 254.1 16.7 252.5 16.7 250.2ZM27.2 250.2V245H29V250.2C29 251.42 29.98 252.4 31.1 252.4C32.28 252.4 33.3 251.42 33.3 250.2V245H35.1V254H33.8L33.4 253.1C33.22 253.28 33.02 253.46 32.78 253.6C32.36 253.86 31.7 254.1 30.8 254.1C28.8 254.1 27.2 252.5 27.2 250.2ZM37.493 257.2V245H38.793L39.193 245.9C39.373 245.72 39.573 245.54 39.813 245.4C40.233 245.16 40.893 244.9 41.793 244.9C44.193 244.9 46.093 246.8 46.093 249.5C46.093 252.2 44.193 254.1 41.793 254.1C40.933 254.1 40.333 253.86 39.913 253.6C39.673 253.46 39.473 253.28 39.293 253.1V257.2H37.493ZM41.693 252.4C43.073 252.4 44.293 251.2 44.293 249.5C44.293 247.8 43.073 246.6 41.693 246.6C40.313 246.6 39.093 247.8 39.093 249.5C39.093 251.2 40.313 252.4 41.693 252.4ZM53.8008 251.4H55.7008C55.1208 252.9 53.9008 254.1 51.8008 254.1C49.4008 254.1 47.5008 252.2 47.5008 249.5C47.5008 246.8 49.3808 244.9 51.7008 244.9C54.0208 244.9 55.9008 246.8 55.9008 249.5C55.9008 249.72 55.8608 249.92 55.8408 250.06L55.8008 250.3H49.4008C49.5008 251.42 50.5008 252.4 51.8008 252.4C52.9008 252.4 53.5008 251.8 53.8008 251.4ZM49.4008 248.8H54.2008C53.9808 247.5 53.1208 246.6 51.7008 246.6C50.5008 246.6 49.6208 247.5 49.4008 248.8ZM57.8055 254V245H59.1055L59.5055 245.9C59.6655 245.72 59.8655 245.54 60.0855 245.4C60.4655 245.16 61.0255 244.9 61.8055 244.9C62.0255 244.9 62.1455 244.94 62.2455 244.96L62.4055 245V246.8L62.2255 246.76C62.0855 246.74 61.9455 246.7 61.8055 246.7C60.5855 246.7 59.6055 247.72 59.6055 248.9V254H57.8055ZM67.8914 250.2H69.7914C69.7914 251.62 70.5914 252.4 72.1914 252.4C73.8914 252.4 74.6914 251.62 74.6914 250.6C74.6914 247.8 67.9914 249.2 67.9914 244.8C67.9914 242.98 69.6914 241.3 72.1914 241.3C74.5914 241.3 76.2914 243.02 76.2914 245.2H74.3914C74.3914 243.9 73.4914 243 72.1914 243C70.7914 243 69.8914 243.9 69.8914 244.8C69.8914 247.4 76.5914 246 76.5914 250.6C76.5914 252.42 74.8914 254.1 72.1914 254.1C69.4914 254.1 67.8914 252.5 67.8914 250.2ZM84.1914 251.4H86.0914C85.5114 252.9 84.2914 254.1 82.1914 254.1C79.7914 254.1 77.8914 252.2 77.8914 249.5C77.8914 246.8 79.7714 244.9 82.0914 244.9C84.4114 244.9 86.2914 246.8 86.2914 249.5C86.2914 249.72 86.2514 249.92 86.2314 250.06L86.1914 250.3H79.7914C79.8914 251.42 80.8914 252.4 82.1914 252.4C83.2914 252.4 83.8914 251.8 84.1914 251.4ZM79.7914 248.8H84.5914C84.3714 247.5 83.5114 246.6 82.0914 246.6C80.8914 246.6 80.0114 247.5 79.7914 248.8ZM88.9961 251V246.7H87.3961V245H88.0961C88.7961 245 89.2961 244.5 89.2961 243.8V242.6H90.7961V245H92.7961V246.7H90.7961V251C90.7961 251.8 91.3961 252.4 92.1961 252.4C92.3361 252.4 92.4761 252.38 92.6161 252.36L92.7961 252.3V253.9C92.7161 253.94 92.6161 253.98 92.5161 254C92.3161 254.06 92.0761 254.1 91.7961 254.1C90.1961 254.1 88.9961 252.9 88.9961 251Z" fill="white"/>
<path d="M106.08 254.9L105.04 255.62C104.624 255.076 104.256 254.452 103.92 253.764C103.36 252.564 102.8 250.9 102.8 248.9C102.8 246.9 103.36 245.236 103.92 244.036C104.256 243.348 104.624 242.724 105.04 242.18L106.08 242.9C105.712 243.412 105.392 243.988 105.12 244.612C104.624 245.7 104.16 247.172 104.16 248.9C104.16 250.628 104.624 252.1 105.12 253.188C105.392 253.812 105.712 254.388 106.08 254.9ZM119.047 251.22C120.087 251.22 121.047 250.26 121.047 248.9C121.047 247.54 120.087 246.58 119.047 246.58C118.007 246.58 117.047 247.54 117.047 248.9C117.047 250.26 118.007 251.22 119.047 251.22ZM119.047 252.58C117.127 252.58 115.607 251.06 115.607 248.9C115.607 246.74 117.127 245.22 119.047 245.22C120.967 245.22 122.487 246.74 122.487 248.9C122.487 251.06 120.967 252.58 119.047 252.58ZM124.247 252.5V246.66H123.367V245.3H124.247V244.82C124.247 243.3 125.207 242.34 126.487 242.34C126.727 242.34 126.919 242.372 127.063 242.42L127.287 242.5V243.78L127.143 243.748C127.031 243.732 126.919 243.7 126.807 243.7C126.167 243.7 125.687 244.18 125.687 244.82V245.3H127.287V246.66H125.687V252.5H124.247ZM131.765 249.78H133.285C133.365 250.5 134.085 251.22 135.125 251.22C136.245 251.22 137.125 250.34 137.125 249.14C137.125 247.94 136.245 247.06 135.125 247.06C134.485 247.06 134.021 247.364 133.717 247.668C133.541 247.844 133.397 248.052 133.285 248.26H132.005L132.645 242.42H138.005V243.86H133.941L133.685 246.26C133.797 246.164 133.941 246.068 134.117 245.988C134.389 245.844 134.789 245.7 135.285 245.7C137.141 245.7 138.645 247.22 138.645 249.14C138.645 251.06 137.109 252.58 135.125 252.58C133.125 252.58 131.845 251.3 131.765 249.78ZM140.563 255.62L139.523 254.9C139.891 254.388 140.211 253.812 140.483 253.188C140.979 252.1 141.443 250.628 141.443 248.9C141.443 247.172 140.979 245.7 140.483 244.612C140.211 243.988 139.891 243.412 139.523 242.9L140.563 242.18C140.979 242.724 141.347 243.348 141.683 244.036C142.243 245.236 142.803 246.9 142.803 248.9C142.803 250.9 142.243 252.564 141.683 253.764C141.347 254.452 140.979 255.076 140.563 255.62Z" fill="#D4D4D8"/>
<path d="M108.806 252.5V244.5L107.446 245.38L106.726 244.18L109.286 242.42H110.326V252.5H108.806Z" fill="#FFA05C"/>
<rect x="16.5" y="268.5" width="342" height="41" rx="3.5" fill="#3F3F46"/>
<rect x="16.5" y="268.5" width="342" height="41" rx="3.5" stroke="#52525B"/>
<path d="M25.05 293.5V284.68H30.86V285.94H26.38V288.32H30.51V289.58H26.38V292.24H31V293.5H25.05ZM32.5373 293.5V287.2H33.4473L33.7273 287.83C33.8533 287.704 33.9933 287.578 34.1613 287.48C34.4553 287.312 34.9173 287.13 35.5473 287.13C36.9473 287.13 38.0673 288.25 38.0673 289.86V293.5H36.8073V289.86C36.8073 289.034 36.1213 288.32 35.3373 288.32C34.4833 288.32 33.7973 289.034 33.7973 289.86V293.5H32.5373ZM40.234 291.4V288.39H39.114V287.2H39.604C40.094 287.2 40.444 286.85 40.444 286.36V285.52H41.494V287.2H42.894V288.39H41.494V291.4C41.494 291.96 41.914 292.38 42.474 292.38C42.572 292.38 42.67 292.366 42.768 292.352L42.894 292.31V293.43C42.838 293.458 42.768 293.486 42.698 293.5C42.558 293.542 42.39 293.57 42.194 293.57C41.074 293.57 40.234 292.73 40.234 291.4ZM48.2867 291.68H49.6167C49.2107 292.73 48.3567 293.57 46.8867 293.57C45.2067 293.57 43.8767 292.24 43.8767 290.35C43.8767 288.46 45.1927 287.13 46.8167 287.13C48.4407 287.13 49.7567 288.46 49.7567 290.35C49.7567 290.504 49.7287 290.644 49.7147 290.742L49.6867 290.91H45.2067C45.2767 291.694 45.9767 292.38 46.8867 292.38C47.6567 292.38 48.0767 291.96 48.2867 291.68ZM45.2067 289.86H48.5667C48.4127 288.95 47.8107 288.32 46.8167 288.32C45.9767 288.32 45.3607 288.95 45.2067 289.86ZM51.09 293.5V287.2H52L52.28 287.83C52.392 287.704 52.532 287.578 52.686 287.48C52.952 287.312 53.344 287.13 53.89 287.13C54.044 287.13 54.128 287.158 54.198 287.172L54.31 287.2V288.46L54.184 288.432C54.086 288.418 53.988 288.39 53.89 288.39C53.036 288.39 52.35 289.104 52.35 289.93V293.5H51.09ZM62.4902 293.5L62.2102 292.87C62.0842 292.996 61.9442 293.122 61.7762 293.22C61.4822 293.402 61.0202 293.57 60.3902 293.57C58.9902 293.57 58.2202 292.8 58.2202 291.68C58.2202 290.42 59.0602 289.58 62.1402 289.58V289.37C62.1402 288.74 61.7342 288.32 60.9502 288.32C60.1102 288.32 59.7602 288.656 59.6902 289.09H58.4302C58.5002 287.97 59.3962 287.13 60.9502 287.13C62.4202 287.13 63.4002 288.11 63.4002 289.37V293.5H62.4902ZM62.1402 291.036V290.7C59.9002 290.7 59.4802 291.12 59.4802 291.75C59.4802 292.1 59.8302 292.45 60.4602 292.45C61.5242 292.45 62.1402 291.82 62.1402 291.036ZM68.6441 291.4V288.39H67.5241V287.2H68.0141C68.5041 287.2 68.8541 286.85 68.8541 286.36V285.52H69.9041V287.2H71.3041V288.39H69.9041V291.4C69.9041 291.96 70.3241 292.38 70.8841 292.38C70.9821 292.38 71.0801 292.366 71.1781 292.352L71.3041 292.31V293.43C71.2481 293.458 71.1781 293.486 71.1081 293.5C70.9681 293.542 70.8001 293.57 70.6041 293.57C69.4841 293.57 68.6441 292.73 68.6441 291.4ZM72.7736 293.5V287.2H74.0336V293.5H72.7736ZM73.4036 284.68C73.8376 284.68 74.1736 285.016 74.1736 285.45C74.1736 285.884 73.8376 286.22 73.4036 286.22C72.9696 286.22 72.6336 285.884 72.6336 285.45C72.6336 285.016 72.9696 284.68 73.4036 284.68ZM76.273 291.4V288.39H75.153V287.2H75.643C76.133 287.2 76.483 286.85 76.483 286.36V285.52H77.533V287.2H78.933V288.39H77.533V291.4C77.533 291.96 77.953 292.38 78.513 292.38C78.611 292.38 78.709 292.366 78.807 292.352L78.933 292.31V293.43C78.877 293.458 78.807 293.486 78.737 293.5C78.597 293.542 78.429 293.57 78.233 293.57C77.113 293.57 76.273 292.73 76.273 291.4ZM80.4725 293.5V284.68H81.7325V293.5H80.4725ZM87.5387 291.68H88.8687C88.4627 292.73 87.6087 293.57 86.1387 293.57C84.4587 293.57 83.1287 292.24 83.1287 290.35C83.1287 288.46 84.4447 287.13 86.0687 287.13C87.6927 287.13 89.0087 288.46 89.0087 290.35C89.0087 290.504 88.9807 290.644 88.9667 290.742L88.9387 290.91H84.4587C84.5287 291.694 85.2287 292.38 86.1387 292.38C86.9087 292.38 87.3287 291.96 87.5387 291.68ZM84.4587 289.86H87.8187C87.6647 288.95 87.0627 288.32 86.0687 288.32C85.2287 288.32 84.6127 288.95 84.4587 289.86ZM93.6281 293.5V288.39H92.8581V287.2H93.6281V286.78C93.6281 285.45 94.4681 284.61 95.5881 284.61C95.7981 284.61 95.9661 284.638 96.0921 284.68L96.2881 284.75V285.87L96.1621 285.842C96.0641 285.828 95.9661 285.8 95.8681 285.8C95.3081 285.8 94.8881 286.22 94.8881 286.78V287.2H96.2881V288.39H94.8881V293.5H93.6281ZM100.07 292.38C100.98 292.38 101.82 291.54 101.82 290.35C101.82 289.16 100.98 288.32 100.07 288.32C99.1603 288.32 98.3203 289.16 98.3203 290.35C98.3203 291.54 99.1603 292.38 100.07 292.38ZM100.07 293.57C98.3903 293.57 97.0603 292.24 97.0603 290.35C97.0603 288.46 98.3903 287.13 100.07 287.13C101.75 287.13 103.08 288.46 103.08 290.35C103.08 292.24 101.75 293.57 100.07 293.57ZM104.41 293.5V287.2H105.32L105.6 287.83C105.712 287.704 105.852 287.578 106.006 287.48C106.272 287.312 106.664 287.13 107.21 287.13C107.364 287.13 107.448 287.158 107.518 287.172L107.63 287.2V288.46L107.504 288.432C107.406 288.418 107.308 288.39 107.21 288.39C106.356 288.39 105.67 289.104 105.67 289.93V293.5H104.41ZM112.38 291.4V288.39H111.26V287.2H111.75C112.24 287.2 112.59 286.85 112.59 286.36V285.52H113.64V287.2H115.04V288.39H113.64V291.4C113.64 291.96 114.06 292.38 114.62 292.38C114.718 292.38 114.816 292.366 114.914 292.352L115.04 292.31V293.43C114.984 293.458 114.914 293.486 114.844 293.5C114.704 293.542 114.536 293.57 114.34 293.57C113.22 293.57 112.38 292.73 112.38 291.4ZM116.58 293.5V284.68H117.84V287.83C117.966 287.704 118.12 287.578 118.288 287.48C118.582 287.312 119.03 287.13 119.59 287.13C120.99 287.13 122.11 288.25 122.11 289.86V293.5H120.85V289.86C120.85 289.034 120.164 288.32 119.38 288.32C118.526 288.32 117.84 289.034 117.84 289.86V293.5H116.58ZM127.775 291.68H129.105C128.699 292.73 127.845 293.57 126.375 293.57C124.695 293.57 123.365 292.24 123.365 290.35C123.365 288.46 124.681 287.13 126.305 287.13C127.929 287.13 129.245 288.46 129.245 290.35C129.245 290.504 129.217 290.644 129.203 290.742L129.175 290.91H124.695C124.765 291.694 125.465 292.38 126.375 292.38C127.145 292.38 127.565 291.96 127.775 291.68ZM124.695 289.86H128.055C127.901 288.95 127.299 288.32 126.305 288.32C125.465 288.32 124.849 288.95 124.695 289.86ZM137.714 291.68H139.044C138.638 292.73 137.784 293.57 136.314 293.57C134.634 293.57 133.304 292.24 133.304 290.35C133.304 288.46 134.62 287.13 136.244 287.13C137.868 287.13 139.184 288.46 139.184 290.35C139.184 290.504 139.156 290.644 139.142 290.742L139.114 290.91H134.634C134.704 291.694 135.404 292.38 136.314 292.38C137.084 292.38 137.504 291.96 137.714 291.68ZM134.634 289.86H137.994C137.84 288.95 137.238 288.32 136.244 288.32C135.404 288.32 134.788 288.95 134.634 289.86ZM139.678 293.5L141.848 290.28L139.818 287.2H141.218L142.618 289.3L144.018 287.2H145.418L143.388 290.28L145.558 293.5H144.158L142.618 291.19L141.078 293.5H139.678ZM150.32 291.68H151.65C151.244 292.73 150.39 293.57 148.92 293.57C147.24 293.57 145.91 292.24 145.91 290.35C145.91 288.46 147.226 287.13 148.85 287.13C150.474 287.13 151.79 288.46 151.79 290.35C151.79 290.504 151.762 290.644 151.748 290.742L151.72 290.91H147.24C147.31 291.694 148.01 292.38 148.92 292.38C149.69 292.38 150.11 291.96 150.32 291.68ZM147.24 289.86H150.6C150.446 288.95 149.844 288.32 148.85 288.32C148.01 288.32 147.394 288.95 147.24 289.86ZM153.123 293.5V287.2H154.033L154.313 287.83C154.425 287.704 154.565 287.578 154.719 287.48C154.985 287.312 155.377 287.13 155.923 287.13C156.077 287.13 156.161 287.158 156.231 287.172L156.343 287.2V288.46L156.217 288.432C156.119 288.418 156.021 288.39 155.923 288.39C155.069 288.39 154.383 289.104 154.383 289.93V293.5H153.123ZM161.587 291.19H162.917C162.623 292.534 161.601 293.57 160.117 293.57C158.437 293.57 157.107 292.24 157.107 290.35C157.107 288.46 158.437 287.13 160.117 287.13C161.601 287.13 162.623 288.166 162.917 289.51H161.587C161.377 288.796 160.901 288.32 160.117 288.32C159.207 288.32 158.367 289.16 158.367 290.35C158.367 291.54 159.207 292.38 160.117 292.38C160.901 292.38 161.377 291.904 161.587 291.19ZM164.184 293.5V287.2H165.444V293.5H164.184ZM164.814 284.68C165.248 284.68 165.584 285.016 165.584 285.45C165.584 285.884 165.248 286.22 164.814 286.22C164.38 286.22 164.044 285.884 164.044 285.45C164.044 285.016 164.38 284.68 164.814 284.68ZM166.773 291.47H168.033C168.103 292.03 168.439 292.38 169.153 292.38C169.937 292.38 170.273 292.044 170.273 291.61C170.273 290.49 166.913 291.246 166.913 289.02C166.913 287.97 167.753 287.13 169.083 287.13C170.553 287.13 171.323 287.9 171.393 289.09H170.133C170.063 288.656 169.713 288.32 169.083 288.32C168.453 288.32 168.103 288.67 168.103 289.02C168.103 290.14 171.463 289.384 171.463 291.61C171.463 292.73 170.623 293.57 169.153 293.57C167.599 293.57 166.843 292.814 166.773 291.47ZM176.857 291.68H178.187C177.781 292.73 176.927 293.57 175.457 293.57C173.777 293.57 172.447 292.24 172.447 290.35C172.447 288.46 173.763 287.13 175.387 287.13C177.011 287.13 178.327 288.46 178.327 290.35C178.327 290.504 178.299 290.644 178.285 290.742L178.257 290.91H173.777C173.847 291.694 174.547 292.38 175.457 292.38C176.227 292.38 176.647 291.96 176.857 291.68ZM173.777 289.86H177.137C176.983 288.95 176.381 288.32 175.387 288.32C174.547 288.32 173.931 288.95 173.777 289.86Z" fill="#C6C6C6"/>
<rect x="259" y="111" width="50" height="50" rx="4" fill="url(#paint1_radial_234_2742)"/>
<g clip-path="url(#clip2_234_2742)">
<path d="M286.012 136.833L291.633 142.454C292.975 140.869 293.789 138.904 293.958 136.833H286.012Z" fill="url(#paint2_linear_234_2742)"/>
<path d="M283.41 136.589L283.166 136.345V126.042C281.596 126.17 280.078 126.668 278.737 127.495C277.395 128.321 276.268 129.453 275.447 130.797C274.627 132.142 274.135 133.662 274.013 135.232C273.89 136.803 274.141 138.38 274.744 139.836C275.347 141.291 276.285 142.584 277.482 143.608C278.68 144.632 280.102 145.358 281.633 145.728C283.164 146.099 284.762 146.102 286.294 145.737C287.827 145.373 289.252 144.652 290.453 143.633L283.41 136.589Z" fill="url(#paint3_linear_234_2742)"/>
<path d="M284.834 135.167H293.959C293.762 132.812 292.738 130.604 291.067 128.934C289.397 127.263 287.188 126.238 284.834 126.042V135.167Z" fill="url(#paint4_linear_234_2742)"/>
</g>
<path d="M261.21 179.06H262.4C261.91 180.74 260.58 182.07 258.62 182.07C256.45 182.07 254.49 180.11 254.49 177.59C254.49 175.07 256.45 173.11 258.62 173.11C260.51 173.11 261.84 174.44 262.33 176.12H261.14C260.846 175 259.964 174.09 258.62 174.09C257.08 174.09 255.61 175.56 255.61 177.59C255.61 179.62 257.08 181.09 258.62 181.09C260.034 181.09 260.916 180.18 261.21 179.06ZM266.248 181.09C267.214 181.09 268.138 180.194 268.138 178.85C268.138 177.506 267.214 176.61 266.248 176.61C265.268 176.61 264.358 177.506 264.358 178.85C264.358 180.194 265.268 181.09 266.248 181.09ZM266.248 182.07C264.624 182.07 263.308 180.74 263.308 178.85C263.308 176.96 264.624 175.63 266.248 175.63C267.872 175.63 269.188 176.96 269.188 178.85C269.188 180.74 267.872 182.07 266.248 182.07ZM273.112 181.09C274.078 181.09 275.002 180.194 275.002 178.85C275.002 177.506 274.078 176.61 273.112 176.61C272.132 176.61 271.222 177.506 271.222 178.85C271.222 180.194 272.132 181.09 273.112 181.09ZM273.112 182.07C271.488 182.07 270.172 180.74 270.172 178.85C270.172 176.96 271.488 175.63 273.112 175.63C274.736 175.63 276.052 176.96 276.052 178.85C276.052 180.74 274.736 182.07 273.112 182.07ZM277.525 182V173.18H278.575V182H277.525ZM284.801 181.02H286.131C287.755 181.02 289.211 179.55 289.211 177.59C289.211 175.63 287.755 174.16 286.131 174.16H284.801V181.02ZM283.681 182V173.18H286.131C288.441 173.18 290.331 175.07 290.331 177.59C290.331 180.11 288.441 182 286.131 182H283.681ZM294.317 181.09C295.283 181.09 296.207 180.194 296.207 178.85C296.207 177.506 295.283 176.61 294.317 176.61C293.337 176.61 292.427 177.506 292.427 178.85C292.427 180.194 293.337 181.09 294.317 181.09ZM294.317 182.07C292.693 182.07 291.377 180.74 291.377 178.85C291.377 176.96 292.693 175.63 294.317 175.63C295.941 175.63 297.257 176.96 297.257 178.85C297.257 180.74 295.941 182.07 294.317 182.07ZM299.99 182L297.89 175.7H299.01L300.48 180.18L301.88 175.7H302.58L303.98 180.18L305.45 175.7H306.57L304.47 182H303.63L302.23 177.52L300.83 182H299.99ZM307.615 182V175.7H308.385L308.665 176.4C308.791 176.26 308.945 176.134 309.127 176.022C309.449 175.812 309.883 175.63 310.485 175.63C311.815 175.63 312.935 176.75 312.935 178.36V182H311.885V178.36C311.885 177.31 311.171 176.61 310.345 176.61C309.351 176.61 308.665 177.296 308.665 178.36V182H307.615Z" fill="url(#paint5_linear_234_2742)"/>
<rect x="67" y="111" width="50" height="50" rx="4" fill="url(#paint6_radial_234_2742)"/>
<g clip-path="url(#clip3_234_2742)">
<path d="M92 127.667C93.1079 127.669 94.2043 127.891 95.2257 128.32C96.2471 128.749 97.1731 129.377 97.95 130.167H94.5V131.833H98.7858C99.1961 131.833 99.5895 131.67 99.8796 131.38C100.17 131.089 100.333 130.696 100.333 130.286V126H98.6667V128.55C97.228 127.263 95.4478 126.42 93.5407 126.123C91.6336 125.826 89.6812 126.086 87.9191 126.874C86.157 127.662 84.6606 128.943 83.6102 130.562C82.5599 132.181 82.0007 134.07 82 136H83.6667C83.6691 133.791 84.5478 131.672 86.1101 130.11C87.6724 128.548 89.7906 127.669 92 127.667Z" fill="#C1CAD0"/>
<path d="M100.333 136C100.332 137.655 99.8394 139.273 98.9164 140.646C97.9934 142.02 96.6822 143.088 95.1501 143.714C93.6179 144.339 91.9341 144.495 90.3133 144.16C88.6925 143.825 87.2081 143.015 86.0493 141.833H89.4993V140.167H85.2135C84.8032 140.167 84.4099 140.33 84.1198 140.62C83.8296 140.911 83.6665 141.304 83.666 141.714V146H85.3327V143.45C86.7713 144.737 88.5516 145.58 90.4587 145.877C92.3657 146.174 94.3181 145.914 96.0802 145.126C97.8423 144.338 99.3388 143.057 100.389 141.438C101.439 139.819 101.999 137.93 101.999 136H100.333Z" fill="#C1CAD0"/>
</g>
<path d="M70.452 182L67.722 173.18H68.912L70.872 179.55L72.762 173.18H73.462L75.352 179.55L77.312 173.18H78.502L75.772 182H75.002L73.112 175.63L71.222 182H70.452ZM83.1188 182L82.8388 181.3C82.6988 181.454 82.5448 181.58 82.3628 181.692C82.0408 181.902 81.5788 182.07 80.9488 182.07C79.6888 182.07 78.8488 181.23 78.8488 180.18C78.8488 178.99 79.6888 178.15 82.8388 178.15V177.8C82.8388 177.17 82.2928 176.61 81.5088 176.61C80.7248 176.61 80.4028 176.96 80.2488 177.52H79.1288C79.2828 176.47 80.1088 175.63 81.5088 175.63C82.9088 175.63 83.8888 176.624 83.8888 177.8V182H83.1188ZM82.8388 179.62V179.13C80.3188 179.13 79.8988 179.55 79.8988 180.25C79.8988 180.684 80.3188 181.09 80.9488 181.09C82.0688 181.09 82.8388 180.32 82.8388 179.62ZM85.6366 182V175.7H86.4066L86.6866 176.4C86.8126 176.26 86.9666 176.134 87.1486 176.022C87.4706 175.812 87.9046 175.63 88.5066 175.63H88.6466V176.68H88.3666C87.3726 176.68 86.6866 177.366 86.6866 178.43V182H85.6366ZM89.8338 182V175.7H90.6038L90.8838 176.4C90.9818 176.26 91.1078 176.134 91.2618 176.022C91.5278 175.812 91.8778 175.63 92.4238 175.63C93.0538 175.63 93.4878 175.91 93.7678 176.19C93.9358 176.358 94.0758 176.54 94.1738 176.75C94.2998 176.54 94.4398 176.358 94.6218 176.19C94.9438 175.91 95.3918 175.63 96.0638 175.63C97.1838 175.63 98.1638 176.596 98.1638 178.22V182H97.1138V178.22C97.1138 177.156 96.5678 176.61 95.8538 176.61C95.1398 176.61 94.5238 177.226 94.5238 178.22V182H93.4738V178.22C93.4738 177.156 92.9278 176.61 92.2138 176.61C91.5278 176.61 90.8838 177.282 90.8838 178.22V182H89.8338ZM102.918 179.34V175.7H103.968V179.34C103.968 180.39 104.654 181.09 105.508 181.09C106.502 181.09 107.188 180.404 107.188 179.34V175.7H108.238V182H107.468L107.188 181.3C107.062 181.454 106.908 181.58 106.726 181.692C106.404 181.902 105.97 182.07 105.368 182.07C104.038 182.07 102.918 180.95 102.918 179.34ZM112.925 181.09C113.975 181.09 114.885 180.194 114.885 178.85C114.885 177.506 113.975 176.61 112.925 176.61C111.875 176.61 110.965 177.506 110.965 178.85C110.965 180.194 111.875 181.09 112.925 181.09ZM110.055 184.24V175.7H110.825L111.105 176.4C111.231 176.26 111.399 176.134 111.581 176.022C111.903 175.812 112.365 175.63 112.995 175.63C114.619 175.63 115.935 176.96 115.935 178.85C115.935 180.74 114.619 182.07 112.995 182.07C112.365 182.07 111.903 181.86 111.581 181.65C111.399 181.524 111.231 181.384 111.105 181.23V184.24H110.055Z" fill="white"/>
<rect x="163" y="111" width="50" height="50" rx="4" fill="url(#paint7_radial_234_2742)"/>
<path d="M188 126C193.523 126 198 130.477 198 136C198 141.523 193.523 146 188 146C182.477 146 178 141.523 178 136C178 130.477 182.477 126 188 126ZM188 130C187.735 130 187.48 130.105 187.293 130.293C187.105 130.48 187 130.735 187 131V136C187 136.265 187.105 136.52 187.293 136.707L190.293 139.707C190.482 139.889 190.734 139.99 190.996 139.988C191.259 139.985 191.509 139.88 191.695 139.695C191.88 139.509 191.985 139.259 191.988 138.996C191.99 138.734 191.889 138.482 191.707 138.293L189 135.586V131C189 130.735 188.895 130.48 188.707 130.293C188.52 130.105 188.265 130 188 130Z" fill="#C1CAD0"/>
<path d="M175.12 182V173.18H176.03L179.32 180.25L182.61 173.18H183.52V182H182.4V176.05L179.67 182H178.97L176.24 176.05V182H175.12ZM189.537 182L189.257 181.3C189.117 181.454 188.963 181.58 188.781 181.692C188.459 181.902 187.997 182.07 187.367 182.07C186.107 182.07 185.267 181.23 185.267 180.18C185.267 178.99 186.107 178.15 189.257 178.15V177.8C189.257 177.17 188.711 176.61 187.927 176.61C187.143 176.61 186.821 176.96 186.667 177.52H185.547C185.701 176.47 186.527 175.63 187.927 175.63C189.327 175.63 190.307 176.624 190.307 177.8V182H189.537ZM189.257 179.62V179.13C186.737 179.13 186.317 179.55 186.317 180.25C186.317 180.684 186.737 181.09 187.367 181.09C188.487 181.09 189.257 180.32 189.257 179.62ZM192.055 182V175.7H193.105V182H192.055ZM191.915 173.922C191.915 173.53 192.195 173.25 192.573 173.25C192.965 173.25 193.245 173.53 193.245 173.922C193.245 174.3 192.965 174.58 192.573 174.58C192.195 174.58 191.915 174.3 191.915 173.922ZM194.926 182V175.7H195.696L195.976 176.4C196.102 176.26 196.256 176.134 196.438 176.022C196.76 175.812 197.194 175.63 197.796 175.63C199.126 175.63 200.246 176.75 200.246 178.36V182H199.196V178.36C199.196 177.31 198.482 176.61 197.656 176.61C196.662 176.61 195.976 177.296 195.976 178.36V182H194.926Z" fill="white"/>
<rect x="16" y="431" width="150" height="88" rx="8" fill="url(#paint8_radial_234_2742)"/>
<rect x="16.5" y="431.5" width="149" height="87" rx="7.5" stroke="url(#paint9_linear_234_2742)" stroke-opacity="0.4"/>
<path d="M33.05 460V451.18H36.55C38.02 451.18 39.21 452.37 39.21 453.84C39.21 454.862 38.72 455.478 38.23 455.856C37.936 456.08 37.614 456.248 37.25 456.36L39.42 460H37.95L35.92 456.5H34.38V460H33.05ZM34.38 455.24H36.55C37.25 455.24 37.88 454.61 37.88 453.84C37.88 453.07 37.25 452.44 36.55 452.44H34.38V455.24ZM44.734 458.18H46.064C45.658 459.23 44.804 460.07 43.334 460.07C41.654 460.07 40.324 458.74 40.324 456.85C40.324 454.96 41.64 453.63 43.264 453.63C44.888 453.63 46.204 454.96 46.204 456.85C46.204 457.004 46.176 457.144 46.162 457.242L46.134 457.41H41.654C41.724 458.194 42.424 458.88 43.334 458.88C44.104 458.88 44.524 458.46 44.734 458.18ZM41.654 456.36H45.014C44.86 455.45 44.258 454.82 43.264 454.82C42.424 454.82 41.808 455.45 41.654 456.36ZM47.5373 462.24V453.7H48.4473L48.7273 454.33C48.8533 454.204 48.9933 454.078 49.1613 453.98C49.4553 453.812 49.9173 453.63 50.5473 453.63C52.2273 453.63 53.5573 454.96 53.5573 456.85C53.5573 458.74 52.2273 460.07 50.5473 460.07C49.9453 460.07 49.5253 459.902 49.2313 459.72C49.0633 459.622 48.9233 459.496 48.7973 459.37V462.24H47.5373ZM50.4773 458.88C51.4433 458.88 52.2973 458.04 52.2973 456.85C52.2973 455.66 51.4433 454.82 50.4773 454.82C49.5113 454.82 48.6573 455.66 48.6573 456.85C48.6573 458.04 49.5113 458.88 50.4773 458.88ZM54.5427 457.97H55.8027C55.8727 458.53 56.2087 458.88 56.9227 458.88C57.7067 458.88 58.0427 458.544 58.0427 458.11C58.0427 456.99 54.6827 457.746 54.6827 455.52C54.6827 454.47 55.5227 453.63 56.8527 453.63C58.3227 453.63 59.0927 454.4 59.1627 455.59H57.9027C57.8327 455.156 57.4827 454.82 56.8527 454.82C56.2227 454.82 55.8727 455.17 55.8727 455.52C55.8727 456.64 59.2327 455.884 59.2327 458.11C59.2327 459.23 58.3927 460.07 56.9227 460.07C55.3687 460.07 54.6127 459.314 54.5427 457.97ZM60.1466 454.47C60.1466 454.036 60.4826 453.7 60.9166 453.7C61.3506 453.7 61.6866 454.036 61.6866 454.47C61.6866 454.904 61.3506 455.24 60.9166 455.24C60.4826 455.24 60.1466 454.904 60.1466 454.47ZM60.1466 459.3C60.1466 458.866 60.4826 458.53 60.9166 458.53C61.3506 458.53 61.6866 458.866 61.6866 459.3C61.6866 459.734 61.3506 460.07 60.9166 460.07C60.4826 460.07 60.1466 459.734 60.1466 459.3Z" fill="#A1A1AA"/>
<path d="M33.44 493L39.2 480.64H32.72V477.88H42.44V480.04L36.44 493H33.44ZM49.7497 493V481.96H51.7897L52.2697 483.16C52.4617 482.92 52.7017 482.704 52.9657 482.512C53.4217 482.152 54.0697 481.84 54.9097 481.84C55.1737 481.84 55.3417 481.888 55.5097 481.912L55.7497 481.96V484.84L55.4857 484.792C55.3177 484.768 55.0777 484.72 54.7897 484.72C53.4457 484.72 52.5097 485.68 52.5097 487.12V493H49.7497ZM64.5144 489.64H67.3944C66.8184 491.296 64.9704 493.12 62.4744 493.12C59.4984 493.12 56.9544 490.6 56.9544 487.48C56.9544 484.36 59.4984 481.84 62.4744 481.84C65.3544 481.84 67.7544 484.12 67.7544 487.48C67.7544 487.744 67.7064 487.984 67.6824 488.2L67.6344 488.56H59.9544C60.2184 489.64 61.0344 490.48 62.4744 490.48C63.2184 490.48 63.6744 490.288 64.0344 490.072C64.2264 489.952 64.3944 489.808 64.5144 489.64ZM59.8344 486.64H65.1144C64.8504 485.416 63.9144 484.48 62.4744 484.48C61.0344 484.48 60.0984 485.416 59.8344 486.64ZM69.7888 496.84V481.96H71.8288L72.3088 483.04C72.5488 482.824 72.8368 482.608 73.1488 482.44C73.7008 482.152 74.4688 481.84 75.4288 481.84C78.1888 481.84 80.5887 484.216 80.5887 487.48C80.5887 490.744 78.1888 493.12 75.4288 493.12C74.4928 493.12 73.8208 492.856 73.3168 492.592C73.0288 492.424 72.7648 492.256 72.5488 492.04V496.84H69.7888ZM75.0688 490.48C76.6288 490.48 77.8288 489.304 77.8288 487.48C77.8288 485.656 76.6288 484.48 75.0688 484.48C73.5088 484.48 72.3088 485.656 72.3088 487.48C72.3088 489.304 73.5088 490.48 75.0688 490.48ZM82.0325 489.52H84.6725C84.7925 490.264 85.3925 490.84 86.3525 490.84C87.3125 490.84 87.9125 490.24 87.9125 489.64C87.9125 488.08 82.2725 489.016 82.2725 485.2C82.2725 483.4 83.8325 481.84 86.2325 481.84C88.8965 481.84 90.2885 483.28 90.5525 485.2H87.9125C87.7925 484.72 87.1925 484.12 86.3525 484.12C85.5125 484.12 85.0325 484.6 85.0325 485.2C85.0325 486.736 90.6725 485.824 90.6725 489.76C90.6725 491.56 89.0885 493.12 86.5925 493.12C83.7125 493.12 82.2485 491.704 82.0325 489.52Z" fill="white"/>
<path d="M145 462.293H131L137.293 456C137.481 455.813 137.735 455.707 138 455.707C138.265 455.707 138.519 455.813 138.707 456L145 462.293Z" fill="#A1A1AA"/>
<path d="M131 488H145L138.707 494.293C138.519 494.48 138.265 494.586 138 494.586C137.735 494.586 137.481 494.48 137.293 494.293L131 488Z" fill="#A1A1AA"/>
<rect x="16" y="533" width="150" height="88" rx="8" fill="url(#paint10_radial_234_2742)"/>
<rect x="16.5" y="533.5" width="149" height="87" rx="7.5" stroke="url(#paint11_linear_234_2742)" stroke-opacity="0.4"/>
<path d="M34.87 562L32.14 553.18H33.47L35.36 559.27L37.18 553.18H38.02L39.84 559.27L41.73 553.18H43.06L40.33 562H39.42L37.6 556.12L35.78 562H34.87ZM47.6734 560.18H49.0034C48.5974 561.23 47.7434 562.07 46.2734 562.07C44.5934 562.07 43.2634 560.74 43.2634 558.85C43.2634 556.96 44.5794 555.63 46.2034 555.63C47.8274 555.63 49.1434 556.96 49.1434 558.85C49.1434 559.004 49.1154 559.144 49.1014 559.242L49.0734 559.41H44.5934C44.6634 560.194 45.3634 560.88 46.2734 560.88C47.0434 560.88 47.4634 560.46 47.6734 560.18ZM44.5934 558.36H47.9534C47.7994 557.45 47.1974 556.82 46.2034 556.82C45.3634 556.82 44.7474 557.45 44.5934 558.36ZM50.4767 562V555.7H51.7367V562H50.4767ZM51.1067 553.18C51.5407 553.18 51.8767 553.516 51.8767 553.95C51.8767 554.384 51.5407 554.72 51.1067 554.72C50.6727 554.72 50.3367 554.384 50.3367 553.95C50.3367 553.516 50.6727 553.18 51.1067 553.18ZM53.3462 562.42H54.6062C54.8162 562.854 55.2362 563.26 56.0762 563.26C57.0702 563.26 57.6862 562.63 57.6862 561.72V561.09C57.5602 561.216 57.4202 561.342 57.2522 561.44C56.9582 561.622 56.5382 561.79 55.9362 561.79C54.3962 561.79 53.0662 560.446 53.0662 558.71C53.0662 556.974 54.3962 555.63 55.9362 555.63C56.5662 555.63 57.0282 555.812 57.3222 555.98C57.4902 556.078 57.6302 556.204 57.7562 556.33L58.0362 555.7H58.9462V561.72C58.9462 563.26 57.8262 564.38 56.0762 564.38C54.5502 564.38 53.6122 563.47 53.3462 562.42ZM56.0902 560.6C56.9862 560.6 57.8262 559.76 57.8262 558.71C57.8262 557.66 56.9862 556.82 56.0762 556.82C55.1662 556.82 54.3262 557.66 54.3262 558.71C54.3262 559.76 55.1662 560.6 56.0902 560.6ZM60.6913 562V553.18H61.9513V556.33C62.0773 556.204 62.2313 556.078 62.3993 555.98C62.6933 555.812 63.1413 555.63 63.7013 555.63C65.1013 555.63 66.2213 556.75 66.2213 558.36V562H64.9613V558.36C64.9613 557.534 64.2753 556.82 63.4913 556.82C62.6373 556.82 61.9513 557.534 61.9513 558.36V562H60.6913ZM68.3863 559.9V556.89H67.2663V555.7H67.7563C68.2463 555.7 68.5963 555.35 68.5963 554.86V554.02H69.6463V555.7H71.0463V556.89H69.6463V559.9C69.6463 560.46 70.0663 560.88 70.6263 560.88C70.7243 560.88 70.8223 560.866 70.9203 560.852L71.0463 560.81V561.93C70.9903 561.958 70.9203 561.986 70.8503 562C70.7103 562.042 70.5423 562.07 70.3463 562.07C69.2263 562.07 68.3863 561.23 68.3863 559.9ZM72.0958 556.47C72.0958 556.036 72.4318 555.7 72.8658 555.7C73.2998 555.7 73.6358 556.036 73.6358 556.47C73.6358 556.904 73.2998 557.24 72.8658 557.24C72.4318 557.24 72.0958 556.904 72.0958 556.47ZM72.0958 561.3C72.0958 560.866 72.4318 560.53 72.8658 560.53C73.2998 560.53 73.6358 560.866 73.6358 561.3C73.6358 561.734 73.2998 562.07 72.8658 562.07C72.4318 562.07 72.0958 561.734 72.0958 561.3Z" fill="#A1A1AA"/>
<path d="M35.6 595V583.6L33.8 584.8L32.36 582.64L36.32 579.88H38.48V595H35.6ZM40.7591 590.8H43.6391C43.7591 591.52 44.6951 592.48 46.0391 592.48C47.5991 592.48 48.6791 591.4 48.6791 589.84C48.6791 588.28 47.5991 587.2 46.0391 587.2C45.1751 587.2 44.5751 587.608 44.1911 587.992C43.9751 588.208 43.7831 588.472 43.6391 588.76H41.1191L42.0791 579.88H50.4791V582.64H44.4791L44.1191 585.4C44.3351 585.28 44.5511 585.16 44.8151 585.04C45.2231 584.872 45.7991 584.68 46.3991 584.68C49.3991 584.68 51.5591 586.84 51.5591 589.84C51.5591 592.816 49.2791 595.12 46.0391 595.12C43.0151 595.12 41.0231 593.08 40.7591 590.8ZM59.4734 582.52C57.7934 582.52 56.1134 584.2 56.1134 587.44C56.1134 590.68 57.7934 592.36 59.4734 592.36C61.1534 592.36 62.8334 590.68 62.8334 587.44C62.8334 584.2 61.1534 582.52 59.4734 582.52ZM59.4734 579.76C62.8334 579.76 65.7134 582.64 65.7134 587.44C65.7134 592.24 62.8334 595.12 59.4734 595.12C56.1134 595.12 53.2334 592.24 53.2334 587.44C53.2334 582.64 56.1134 579.76 59.4734 579.76ZM73.3747 595V579.88H76.1347V595H73.3747ZM78.7653 595V579.88H81.5253V584.92C81.7413 584.728 82.0053 584.56 82.2933 584.392C82.7973 584.128 83.4693 583.84 84.4053 583.84C87.1653 583.84 89.5653 586.216 89.5653 589.48C89.5653 592.744 87.1653 595.12 84.4053 595.12C83.4453 595.12 82.6773 594.832 82.1253 594.52C81.8133 594.352 81.5253 594.136 81.2853 593.92L80.8053 595H78.7653ZM84.0453 592.48C85.6053 592.48 86.8053 591.304 86.8053 589.48C86.8053 587.656 85.6053 586.48 84.0453 586.48C82.4853 586.48 81.2853 587.656 81.2853 589.48C81.2853 591.304 82.4853 592.48 84.0453 592.48ZM91.0091 591.52H93.6491C93.7691 592.264 94.3691 592.84 95.3291 592.84C96.2891 592.84 96.8891 592.24 96.8891 591.64C96.8891 590.08 91.2491 591.016 91.2491 587.2C91.2491 585.4 92.8091 583.84 95.2091 583.84C97.8731 583.84 99.2651 585.28 99.5291 587.2H96.8891C96.7691 586.72 96.1691 586.12 95.3291 586.12C94.4891 586.12 94.0091 586.6 94.0091 587.2C94.0091 588.736 99.6491 587.824 99.6491 591.76C99.6491 593.56 98.0651 595.12 95.5691 595.12C92.6891 595.12 91.2251 593.704 91.0091 591.52Z" fill="white"/>
<path d="M145 564.293H131L137.293 558C137.481 557.813 137.735 557.707 138 557.707C138.265 557.707 138.519 557.813 138.707 558L145 564.293Z" fill="#A1A1AA"/>
<path d="M131 590H145L138.707 596.293C138.519 596.48 138.265 596.586 138 596.586C137.735 596.586 137.481 596.48 137.293 596.293L131 590Z" fill="#A1A1AA"/>
<rect x="209" y="533" width="150" height="88" rx="8" fill="url(#paint12_radial_234_2742)"/>
<rect x="209.5" y="533.5" width="149" height="87" rx="7.5" stroke="url(#paint13_linear_234_2742)" stroke-opacity="0.4"/>
<path d="M226.05 562V553.18H229.55C231.02 553.18 232.21 554.37 232.21 555.84C232.21 556.862 231.72 557.478 231.23 557.856C230.936 558.08 230.614 558.248 230.25 558.36L232.42 562H230.95L228.92 558.5H227.38V562H226.05ZM227.38 557.24H229.55C230.25 557.24 230.88 556.61 230.88 555.84C230.88 555.07 230.25 554.44 229.55 554.44H227.38V557.24ZM237.734 560.18H239.064C238.658 561.23 237.804 562.07 236.334 562.07C234.654 562.07 233.324 560.74 233.324 558.85C233.324 556.96 234.64 555.63 236.264 555.63C237.888 555.63 239.204 556.96 239.204 558.85C239.204 559.004 239.176 559.144 239.162 559.242L239.134 559.41H234.654C234.724 560.194 235.424 560.88 236.334 560.88C237.104 560.88 237.524 560.46 237.734 560.18ZM234.654 558.36H238.014C237.86 557.45 237.258 556.82 236.264 556.82C235.424 556.82 234.808 557.45 234.654 558.36ZM240.187 559.97H241.447C241.517 560.53 241.853 560.88 242.567 560.88C243.351 560.88 243.687 560.544 243.687 560.11C243.687 558.99 240.327 559.746 240.327 557.52C240.327 556.47 241.167 555.63 242.497 555.63C243.967 555.63 244.737 556.4 244.807 557.59H243.547C243.477 557.156 243.127 556.82 242.497 556.82C241.867 556.82 241.517 557.17 241.517 557.52C241.517 558.64 244.877 557.884 244.877 560.11C244.877 561.23 244.037 562.07 242.567 562.07C241.013 562.07 240.257 561.314 240.187 559.97ZM246.771 559.9V556.89H245.651V555.7H246.141C246.631 555.7 246.981 555.35 246.981 554.86V554.02H248.031V555.7H249.431V556.89H248.031V559.9C248.031 560.46 248.451 560.88 249.011 560.88C249.109 560.88 249.207 560.866 249.305 560.852L249.431 560.81V561.93C249.375 561.958 249.305 561.986 249.235 562C249.095 562.042 248.927 562.07 248.731 562.07C247.611 562.07 246.771 561.23 246.771 559.9ZM254.537 559.9V556.89H253.417V555.7H253.907C254.397 555.7 254.747 555.35 254.747 554.86V554.02H255.797V555.7H257.197V556.89H255.797V559.9C255.797 560.46 256.217 560.88 256.777 560.88C256.875 560.88 256.973 560.866 257.071 560.852L257.197 560.81V561.93C257.141 561.958 257.071 561.986 257.001 562C256.861 562.042 256.693 562.07 256.497 562.07C255.377 562.07 254.537 561.23 254.537 559.9ZM258.666 562V555.7H259.926V562H258.666ZM259.296 553.18C259.73 553.18 260.066 553.516 260.066 553.95C260.066 554.384 259.73 554.72 259.296 554.72C258.862 554.72 258.526 554.384 258.526 553.95C258.526 553.516 258.862 553.18 259.296 553.18ZM261.606 562V555.7H262.516L262.796 556.33C262.908 556.204 263.048 556.078 263.202 555.98C263.468 555.812 263.846 555.63 264.336 555.63C264.938 555.63 265.358 555.882 265.652 556.12C265.82 556.274 265.96 556.428 266.086 556.61C266.212 556.428 266.38 556.274 266.562 556.12C266.884 555.882 267.346 555.63 267.976 555.63C269.152 555.63 270.146 556.596 270.146 558.22V562H268.886V558.22C268.886 557.38 268.326 556.82 267.696 556.82C267.066 556.82 266.506 557.38 266.506 558.22V562H265.246V558.22C265.246 557.38 264.686 556.82 264.056 556.82C263.426 556.82 262.866 557.38 262.866 558.22V562H261.606ZM275.81 560.18H277.14C276.734 561.23 275.88 562.07 274.41 562.07C272.73 562.07 271.4 560.74 271.4 558.85C271.4 556.96 272.716 555.63 274.34 555.63C275.964 555.63 277.28 556.96 277.28 558.85C277.28 559.004 277.252 559.144 277.238 559.242L277.21 559.41H272.73C272.8 560.194 273.5 560.88 274.41 560.88C275.18 560.88 275.6 560.46 275.81 560.18ZM272.73 558.36H276.09C275.936 557.45 275.334 556.82 274.34 556.82C273.5 556.82 272.884 557.45 272.73 558.36ZM278.613 562V555.7H279.523L279.803 556.33C279.915 556.204 280.055 556.078 280.209 555.98C280.475 555.812 280.867 555.63 281.413 555.63C281.567 555.63 281.651 555.658 281.721 555.672L281.833 555.7V556.96L281.707 556.932C281.609 556.918 281.511 556.89 281.413 556.89C280.559 556.89 279.873 557.604 279.873 558.43V562H278.613ZM282.527 556.47C282.527 556.036 282.863 555.7 283.297 555.7C283.731 555.7 284.067 556.036 284.067 556.47C284.067 556.904 283.731 557.24 283.297 557.24C282.863 557.24 282.527 556.904 282.527 556.47ZM282.527 561.3C282.527 560.866 282.863 560.53 283.297 560.53C283.731 560.53 284.067 560.866 284.067 561.3C284.067 561.734 283.731 562.07 283.297 562.07C282.863 562.07 282.527 561.734 282.527 561.3Z" fill="#A1A1AA"/>
<path d="M225.72 590.56C225.72 589.192 226.32 588.232 226.92 587.656C227.28 587.32 227.664 587.056 228.12 586.84C227.784 586.624 227.472 586.384 227.208 586.096C226.752 585.592 226.32 584.872 226.32 583.84C226.32 581.68 228.24 579.76 231.12 579.76C234 579.76 235.92 581.68 235.92 583.84C235.92 584.872 235.464 585.592 235.008 586.096C234.744 586.384 234.432 586.624 234.12 586.84C234.576 587.056 234.96 587.32 235.32 587.656C235.92 588.232 236.52 589.192 236.52 590.56C236.52 592.96 234.384 595.12 231.12 595.12C227.856 595.12 225.72 592.96 225.72 590.56ZM228.6 590.44C228.6 591.664 229.56 592.6 231.12 592.6C232.68 592.6 233.64 591.664 233.64 590.44C233.64 589.216 232.68 588.28 231.12 588.28C229.56 588.28 228.6 589.216 228.6 590.44ZM229.08 584.08C229.08 585.04 229.896 585.88 231.12 585.88C232.344 585.88 233.16 585.04 233.16 584.08C233.16 583.12 232.344 582.28 231.12 582.28C229.896 582.28 229.08 583.12 229.08 584.08ZM244.434 582.52C242.754 582.52 241.074 584.2 241.074 587.44C241.074 590.68 242.754 592.36 244.434 592.36C246.114 592.36 247.794 590.68 247.794 587.44C247.794 584.2 246.114 582.52 244.434 582.52ZM244.434 579.76C247.794 579.76 250.674 582.64 250.674 587.44C250.674 592.24 247.794 595.12 244.434 595.12C241.074 595.12 238.194 592.24 238.194 587.44C238.194 582.64 241.074 579.76 244.434 579.76ZM252.345 591.52H254.985C255.105 592.264 255.705 592.84 256.665 592.84C257.625 592.84 258.225 592.24 258.225 591.64C258.225 590.08 252.585 591.016 252.585 587.2C252.585 585.4 254.145 583.84 256.545 583.84C259.209 583.84 260.601 585.28 260.865 587.2H258.225C258.105 586.72 257.505 586.12 256.665 586.12C255.825 586.12 255.345 586.6 255.345 587.2C255.345 588.736 260.985 587.824 260.985 591.76C260.985 593.56 259.401 595.12 256.905 595.12C254.025 595.12 252.561 593.704 252.345 591.52Z" fill="white"/>
<path d="M338 564.293H324L330.293 558C330.481 557.813 330.735 557.707 331 557.707C331.265 557.707 331.519 557.813 331.707 558L338 564.293Z" fill="#A1A1AA"/>
<path d="M324 590H338L331.707 596.293C331.519 596.48 331.265 596.586 331 596.586C330.735 596.586 330.481 596.48 330.293 596.293L324 590Z" fill="#A1A1AA"/>
<rect x="209" y="431" width="150" height="88" rx="8" fill="url(#paint14_radial_234_2742)"/>
<rect x="209.5" y="431.5" width="149" height="87" rx="7.5" stroke="url(#paint15_linear_234_2742)" stroke-opacity="0.4"/>
<path d="M225.49 457.34H226.82C226.82 458.334 227.38 458.88 228.5 458.88C229.69 458.88 230.25 458.334 230.25 457.62C230.25 455.66 225.56 456.64 225.56 453.56C225.56 452.286 226.75 451.11 228.5 451.11C230.18 451.11 231.37 452.314 231.37 453.84H230.04C230.04 452.93 229.41 452.3 228.5 452.3C227.52 452.3 226.89 452.93 226.89 453.56C226.89 455.38 231.58 454.4 231.58 457.62C231.58 458.894 230.39 460.07 228.5 460.07C226.61 460.07 225.49 458.95 225.49 457.34ZM236.9 458.18H238.23C237.824 459.23 236.97 460.07 235.5 460.07C233.82 460.07 232.49 458.74 232.49 456.85C232.49 454.96 233.806 453.63 235.43 453.63C237.054 453.63 238.37 454.96 238.37 456.85C238.37 457.004 238.342 457.144 238.328 457.242L238.3 457.41H233.82C233.89 458.194 234.59 458.88 235.5 458.88C236.27 458.88 236.69 458.46 236.9 458.18ZM233.82 456.36H237.18C237.026 455.45 236.424 454.82 235.43 454.82C234.59 454.82 233.974 455.45 233.82 456.36ZM240.263 457.9V454.89H239.143V453.7H239.633C240.123 453.7 240.473 453.35 240.473 452.86V452.02H241.523V453.7H242.923V454.89H241.523V457.9C241.523 458.46 241.943 458.88 242.503 458.88C242.601 458.88 242.699 458.866 242.797 458.852L242.923 458.81V459.93C242.867 459.958 242.797 459.986 242.727 460C242.587 460.042 242.419 460.07 242.223 460.07C241.103 460.07 240.263 459.23 240.263 457.9ZM243.906 457.97H245.166C245.236 458.53 245.572 458.88 246.286 458.88C247.07 458.88 247.406 458.544 247.406 458.11C247.406 456.99 244.046 457.746 244.046 455.52C244.046 454.47 244.886 453.63 246.216 453.63C247.686 453.63 248.456 454.4 248.526 455.59H247.266C247.196 455.156 246.846 454.82 246.216 454.82C245.586 454.82 245.236 455.17 245.236 455.52C245.236 456.64 248.596 455.884 248.596 458.11C248.596 459.23 247.756 460.07 246.286 460.07C244.732 460.07 243.976 459.314 243.906 457.97ZM249.51 454.47C249.51 454.036 249.846 453.7 250.28 453.7C250.714 453.7 251.05 454.036 251.05 454.47C251.05 454.904 250.714 455.24 250.28 455.24C249.846 455.24 249.51 454.904 249.51 454.47ZM249.51 459.3C249.51 458.866 249.846 458.53 250.28 458.53C250.714 458.53 251.05 458.866 251.05 459.3C251.05 459.734 250.714 460.07 250.28 460.07C249.846 460.07 249.51 459.734 249.51 459.3Z" fill="#A1A1AA"/>
<path d="M228.6 493V481.6L226.8 482.8L225.36 480.64L229.32 477.88H231.48V493H228.6ZM240.239 480.52C238.559 480.52 236.879 482.2 236.879 485.44C236.879 488.68 238.559 490.36 240.239 490.36C241.919 490.36 243.599 488.68 243.599 485.44C243.599 482.2 241.919 480.52 240.239 480.52ZM240.239 477.76C243.599 477.76 246.479 480.64 246.479 485.44C246.479 490.24 243.599 493.12 240.239 493.12C236.879 493.12 233.999 490.24 233.999 485.44C233.999 480.64 236.879 477.76 240.239 477.76ZM253.54 489.52H256.18C256.3 490.264 256.9 490.84 257.86 490.84C258.82 490.84 259.42 490.24 259.42 489.64C259.42 488.08 253.78 489.016 253.78 485.2C253.78 483.4 255.34 481.84 257.74 481.84C260.404 481.84 261.796 483.28 262.06 485.2H259.42C259.3 484.72 258.7 484.12 257.86 484.12C257.02 484.12 256.54 484.6 256.54 485.2C256.54 486.736 262.18 485.824 262.18 489.76C262.18 491.56 260.596 493.12 258.1 493.12C255.22 493.12 253.756 491.704 253.54 489.52ZM271.178 489.64H274.058C273.482 491.296 271.634 493.12 269.138 493.12C266.162 493.12 263.618 490.6 263.618 487.48C263.618 484.36 266.162 481.84 269.138 481.84C272.018 481.84 274.418 484.12 274.418 487.48C274.418 487.744 274.37 487.984 274.346 488.2L274.298 488.56H266.618C266.882 489.64 267.698 490.48 269.138 490.48C269.882 490.48 270.338 490.288 270.698 490.072C270.89 489.952 271.058 489.808 271.178 489.64ZM266.498 486.64H271.778C271.514 485.416 270.578 484.48 269.138 484.48C267.698 484.48 266.762 485.416 266.498 486.64ZM277.293 489.16V484.48H275.613V482.2H276.333C277.221 482.2 277.653 481.768 277.653 480.88V479.32H280.053V481.96H282.453V484.48H280.053V489.04C280.053 490 280.653 490.6 281.613 490.6C281.877 490.6 282.021 490.576 282.141 490.552L282.333 490.48V492.88C282.213 492.928 282.093 492.976 281.949 493C281.685 493.072 281.373 493.12 281.013 493.12C278.829 493.12 277.293 491.56 277.293 489.16ZM283.892 489.52H286.532C286.652 490.264 287.252 490.84 288.212 490.84C289.172 490.84 289.772 490.24 289.772 489.64C289.772 488.08 284.132 489.016 284.132 485.2C284.132 483.4 285.692 481.84 288.092 481.84C290.756 481.84 292.148 483.28 292.412 485.2H289.772C289.652 484.72 289.052 484.12 288.212 484.12C287.372 484.12 286.892 484.6 286.892 485.2C286.892 486.736 292.532 485.824 292.532 489.76C292.532 491.56 290.948 493.12 288.452 493.12C285.572 493.12 284.108 491.704 283.892 489.52Z" fill="white"/>
<path d="M338 462.293H324L330.293 456C330.481 455.813 330.735 455.707 331 455.707C331.265 455.707 331.519 455.813 331.707 456L338 462.293Z" fill="#A1A1AA"/>
<path d="M324 488H338L331.707 494.293C331.519 494.48 331.265 494.586 331 494.586C330.735 494.586 330.481 494.48 330.293 494.293L324 488Z" fill="#A1A1AA"/>
<rect x="16.25" y="729.25" width="342.5" height="49.5" rx="7.75" fill="url(#paint16_linear_234_2742)"/>
<rect x="16.25" y="729.25" width="342.5" height="49.5" rx="7.75" stroke="url(#paint17_linear_234_2742)" stroke-width="0.5"/>
<path d="M160.093 758.5V748.42H162.173L166.253 754.34V748.42H168.573V758.5H166.493L162.413 752.58V758.5H160.093ZM174.899 756.18L177.139 756.34C176.755 757.54 175.603 758.66 173.699 758.66C171.715 758.66 170.019 756.98 170.019 754.82C170.019 752.66 171.699 750.98 173.779 750.98C175.779 750.98 177.379 752.5 177.379 754.82C177.379 754.996 177.347 755.156 177.331 755.3L177.299 755.54H172.259C172.435 756.1 172.963 756.66 173.779 756.66C174.179 756.66 174.467 756.548 174.643 756.42C174.755 756.356 174.835 756.276 174.899 756.18ZM172.259 754.18H175.299C175.123 753.54 174.595 752.98 173.779 752.98C172.963 752.98 172.435 753.54 172.259 754.18ZM177.693 758.5L180.093 754.74L177.853 751.14H180.253L181.453 753.22L182.653 751.14H185.053L182.813 754.74L185.213 758.5H182.813L181.453 756.26L180.093 758.5H177.693ZM186.573 755.86V753.14H185.453V751.3H186.013C186.605 751.3 186.893 751.012 186.893 750.42V749.38H188.733V751.14H190.253V753.14H188.733V755.54C188.733 756.18 189.133 756.58 189.693 756.58C189.869 756.58 189.981 756.564 190.093 756.548L190.253 756.5V758.42C190.173 758.452 190.077 758.484 189.965 758.5C189.757 758.548 189.501 758.58 189.213 758.58C187.533 758.58 186.573 757.636 186.573 755.86ZM195.144 756.26L197.224 756.1C197.304 756.596 197.624 756.9 198.184 756.9C198.744 756.9 199.064 756.58 199.064 756.26C199.064 755.476 195.304 755.86 195.304 753.22C195.304 752.02 196.36 750.98 198.104 750.98C200.024 750.98 200.984 751.94 201.224 753.22L199.144 753.38C199.064 753.06 198.76 752.74 198.264 752.74C197.768 752.74 197.544 752.98 197.544 753.3C197.544 754.1 201.304 753.7 201.304 756.34C201.304 757.54 200.2 758.66 198.344 758.66C196.344 758.66 195.384 757.716 195.144 756.26ZM207.149 756.18L209.389 756.34C209.005 757.54 207.853 758.66 205.949 758.66C203.965 758.66 202.269 756.98 202.269 754.82C202.269 752.66 203.949 750.98 206.029 750.98C208.029 750.98 209.629 752.5 209.629 754.82C209.629 754.996 209.597 755.156 209.581 755.3L209.549 755.54H204.509C204.685 756.1 205.213 756.66 206.029 756.66C206.429 756.66 206.717 756.548 206.893 756.42C207.005 756.356 207.085 756.276 207.149 756.18ZM204.509 754.18H207.549C207.373 753.54 206.845 752.98 206.029 752.98C205.213 752.98 204.685 753.54 204.509 754.18ZM211.463 755.86V753.14H210.343V751.3H210.903C211.495 751.3 211.783 751.012 211.783 750.42V749.38H213.623V751.14H215.143V753.14H213.623V755.54C213.623 756.18 214.023 756.58 214.583 756.58C214.759 756.58 214.871 756.564 214.983 756.548L215.143 756.5V758.42C215.063 758.452 214.967 758.484 214.855 758.5C214.647 758.548 214.391 758.58 214.103 758.58C212.423 758.58 211.463 757.636 211.463 755.86Z" fill="white"/>
<path d="M17.05 337V328.18H22.86V329.44H18.38V331.82H22.51V333.08H18.38V335.74H23V337H17.05ZM23.6973 337L25.8673 333.78L23.8373 330.7H25.2373L26.6373 332.8L28.0373 330.7H29.4373L27.4073 333.78L29.5773 337H28.1773L26.6373 334.69L25.0973 337H23.6973ZM34.3395 335.18H35.6695C35.2635 336.23 34.4095 337.07 32.9395 337.07C31.2595 337.07 29.9295 335.74 29.9295 333.85C29.9295 331.96 31.2455 330.63 32.8695 330.63C34.4935 330.63 35.8095 331.96 35.8095 333.85C35.8095 334.004 35.7815 334.144 35.7675 334.242L35.7395 334.41H31.2595C31.3295 335.194 32.0295 335.88 32.9395 335.88C33.7095 335.88 34.1295 335.46 34.3395 335.18ZM31.2595 333.36H34.6195C34.4655 332.45 33.8635 331.82 32.8695 331.82C32.0295 331.82 31.4135 332.45 31.2595 333.36ZM37.1427 337V330.7H38.0527L38.3327 331.33C38.4447 331.204 38.5847 331.078 38.7387 330.98C39.0047 330.812 39.3967 330.63 39.9427 330.63C40.0967 330.63 40.1807 330.658 40.2507 330.672L40.3627 330.7V331.96L40.2367 331.932C40.1387 331.918 40.0407 331.89 39.9427 331.89C39.0887 331.89 38.4027 332.604 38.4027 333.43V337H37.1427ZM45.6067 334.69H46.9367C46.6427 336.034 45.6207 337.07 44.1367 337.07C42.4567 337.07 41.1267 335.74 41.1267 333.85C41.1267 331.96 42.4567 330.63 44.1367 330.63C45.6207 330.63 46.6427 331.666 46.9367 333.01H45.6067C45.3967 332.296 44.9207 331.82 44.1367 331.82C43.2267 331.82 42.3867 332.66 42.3867 333.85C42.3867 335.04 43.2267 335.88 44.1367 335.88C44.9207 335.88 45.3967 335.404 45.6067 334.69ZM48.2033 337V330.7H49.4633V337H48.2033ZM48.8333 328.18C49.2673 328.18 49.6033 328.516 49.6033 328.95C49.6033 329.384 49.2673 329.72 48.8333 329.72C48.3993 329.72 48.0633 329.384 48.0633 328.95C48.0633 328.516 48.3993 328.18 48.8333 328.18ZM50.7927 334.97H52.0527C52.1227 335.53 52.4587 335.88 53.1727 335.88C53.9567 335.88 54.2927 335.544 54.2927 335.11C54.2927 333.99 50.9327 334.746 50.9327 332.52C50.9327 331.47 51.7727 330.63 53.1027 330.63C54.5727 330.63 55.3427 331.4 55.4127 332.59H54.1527C54.0827 332.156 53.7327 331.82 53.1027 331.82C52.4727 331.82 52.1227 332.17 52.1227 332.52C52.1227 333.64 55.4827 332.884 55.4827 335.11C55.4827 336.23 54.6427 337.07 53.1727 337.07C51.6187 337.07 50.8627 336.314 50.7927 334.97ZM60.8766 335.18H62.2066C61.8006 336.23 60.9466 337.07 59.4766 337.07C57.7966 337.07 56.4666 335.74 56.4666 333.85C56.4666 331.96 57.7826 330.63 59.4066 330.63C61.0306 330.63 62.3466 331.96 62.3466 333.85C62.3466 334.004 62.3186 334.144 62.3046 334.242L62.2766 334.41H57.7966C57.8666 335.194 58.5666 335.88 59.4766 335.88C60.2466 335.88 60.6666 335.46 60.8766 335.18ZM57.7966 333.36H61.1566C61.0026 332.45 60.4006 331.82 59.4066 331.82C58.5666 331.82 57.9506 332.45 57.7966 333.36ZM71.516 337L71.236 336.37C71.11 336.496 70.97 336.622 70.802 336.72C70.508 336.902 70.046 337.07 69.416 337.07C67.736 337.07 66.406 335.74 66.406 333.85C66.406 331.96 67.736 330.63 69.416 330.63C70.018 330.63 70.438 330.812 70.732 330.98C70.9 331.078 71.04 331.204 71.166 331.33V328.18H72.426V337H71.516ZM69.486 335.88C70.452 335.88 71.306 335.04 71.306 333.85C71.306 332.66 70.452 331.82 69.486 331.82C68.52 331.82 67.666 332.66 67.666 333.85C67.666 335.04 68.52 335.88 69.486 335.88ZM74.1798 334.34V330.7H75.4398V334.34C75.4398 335.194 76.1258 335.88 76.9098 335.88C77.7358 335.88 78.4498 335.194 78.4498 334.34V330.7H79.7098V337H78.7998L78.5198 336.37C78.3938 336.496 78.2538 336.622 78.0858 336.72C77.7918 336.902 77.3298 337.07 76.6998 337.07C75.2998 337.07 74.1798 335.95 74.1798 334.34ZM81.3849 337V330.7H82.2949L82.5749 331.33C82.6869 331.204 82.8269 331.078 82.9809 330.98C83.2469 330.812 83.6389 330.63 84.1849 330.63C84.3389 330.63 84.4229 330.658 84.4929 330.672L84.6049 330.7V331.96L84.4789 331.932C84.3809 331.918 84.2829 331.89 84.1849 331.89C83.3309 331.89 82.6449 332.604 82.6449 333.43V337H81.3849ZM89.7089 337L89.4289 336.37C89.3029 336.496 89.1629 336.622 88.9949 336.72C88.7009 336.902 88.2389 337.07 87.6089 337.07C86.2089 337.07 85.4389 336.3 85.4389 335.18C85.4389 333.92 86.2789 333.08 89.3589 333.08V332.87C89.3589 332.24 88.9529 331.82 88.1689 331.82C87.3289 331.82 86.9789 332.156 86.9089 332.59H85.6489C85.7189 331.47 86.6149 330.63 88.1689 330.63C89.6389 330.63 90.6189 331.61 90.6189 332.87V337H89.7089ZM89.3589 334.536V334.2C87.1189 334.2 86.6989 334.62 86.6989 335.25C86.6989 335.6 87.0489 335.95 87.6789 335.95C88.7429 335.95 89.3589 335.32 89.3589 334.536ZM92.65 334.9V331.89H91.53V330.7H92.02C92.51 330.7 92.86 330.35 92.86 329.86V329.02H93.91V330.7H95.31V331.89H93.91V334.9C93.91 335.46 94.33 335.88 94.89 335.88C94.988 335.88 95.086 335.866 95.184 335.852L95.31 335.81V336.93C95.254 336.958 95.184 336.986 95.114 337C94.974 337.042 94.806 337.07 94.61 337.07C93.49 337.07 92.65 336.23 92.65 334.9ZM96.7795 337V330.7H98.0395V337H96.7795ZM97.4095 328.18C97.8435 328.18 98.1795 328.516 98.1795 328.95C98.1795 329.384 97.8435 329.72 97.4095 329.72C96.9755 329.72 96.6395 329.384 96.6395 328.95C96.6395 328.516 96.9755 328.18 97.4095 328.18ZM102.379 335.88C103.289 335.88 104.129 335.04 104.129 333.85C104.129 332.66 103.289 331.82 102.379 331.82C101.469 331.82 100.629 332.66 100.629 333.85C100.629 335.04 101.469 335.88 102.379 335.88ZM102.379 337.07C100.699 337.07 99.3689 335.74 99.3689 333.85C99.3689 331.96 100.699 330.63 102.379 330.63C104.059 330.63 105.389 331.96 105.389 333.85C105.389 335.74 104.059 337.07 102.379 337.07ZM106.719 337V330.7H107.629L107.909 331.33C108.035 331.204 108.175 331.078 108.343 330.98C108.637 330.812 109.099 330.63 109.729 330.63C111.129 330.63 112.249 331.75 112.249 333.36V337H110.989V333.36C110.989 332.534 110.303 331.82 109.519 331.82C108.665 331.82 107.979 332.534 107.979 333.36V337H106.719Z" fill="white"/>
<rect x="16.5" y="345.5" width="342" height="41" rx="3.5" stroke="#52525B"/>
<path d="M24.56 370.5V369.52L28.06 365.74C28.214 365.572 28.354 365.404 28.48 365.222C28.69 364.9 28.9 364.522 28.9 364.13C28.9 363.346 28.354 362.8 27.36 362.8C26.45 362.8 25.82 363.43 25.82 364.34H24.49C24.49 362.73 25.61 361.61 27.36 361.61C29.11 361.61 30.23 362.73 30.23 364.2C30.23 364.76 29.922 365.348 29.6 365.782C29.418 366.034 29.208 366.272 28.97 366.51L26.464 369.24H30.23V370.5H24.56ZM34.7111 370.5V364.2H35.6211L35.9011 364.83C36.0131 364.704 36.1531 364.578 36.3071 364.48C36.5731 364.312 36.9511 364.13 37.4411 364.13C38.0431 364.13 38.4631 364.382 38.7571 364.62C38.9251 364.774 39.0651 364.928 39.1911 365.11C39.3171 364.928 39.4851 364.774 39.6671 364.62C39.9891 364.382 40.4511 364.13 41.0811 364.13C42.2571 364.13 43.2511 365.096 43.2511 366.72V370.5H41.9911V366.72C41.9911 365.88 41.4311 365.32 40.8011 365.32C40.1711 365.32 39.6111 365.88 39.6111 366.72V370.5H38.3511V366.72C38.3511 365.88 37.7911 365.32 37.1611 365.32C36.5311 365.32 35.9711 365.88 35.9711 366.72V370.5H34.7111ZM47.5156 369.38C48.4256 369.38 49.2656 368.54 49.2656 367.35C49.2656 366.16 48.4256 365.32 47.5156 365.32C46.6056 365.32 45.7656 366.16 45.7656 367.35C45.7656 368.54 46.6056 369.38 47.5156 369.38ZM47.5156 370.57C45.8356 370.57 44.5056 369.24 44.5056 367.35C44.5056 365.46 45.8356 364.13 47.5156 364.13C49.1956 364.13 50.5256 365.46 50.5256 367.35C50.5256 369.24 49.1956 370.57 47.5156 370.57ZM51.8556 370.5V364.2H52.7656L53.0456 364.83C53.1716 364.704 53.3116 364.578 53.4796 364.48C53.7736 364.312 54.2356 364.13 54.8656 364.13C56.2656 364.13 57.3856 365.25 57.3856 366.86V370.5H56.1256V366.86C56.1256 366.034 55.4396 365.32 54.6556 365.32C53.8016 365.32 53.1156 366.034 53.1156 366.86V370.5H51.8556ZM59.5523 368.4V365.39H58.4323V364.2H58.9223C59.4123 364.2 59.7623 363.85 59.7623 363.36V362.52H60.8123V364.2H62.2123V365.39H60.8123V368.4C60.8123 368.96 61.2323 369.38 61.7923 369.38C61.8903 369.38 61.9883 369.366 62.0863 369.352L62.2123 369.31V370.43C62.1563 370.458 62.0863 370.486 62.0163 370.5C61.8763 370.542 61.7083 370.57 61.5123 370.57C60.3923 370.57 59.5523 369.73 59.5523 368.4ZM63.7518 370.5V361.68H65.0118V364.83C65.1378 364.704 65.2918 364.578 65.4598 364.48C65.7538 364.312 66.2018 364.13 66.7618 364.13C68.1618 364.13 69.2818 365.25 69.2818 366.86V370.5H68.0218V366.86C68.0218 366.034 67.3358 365.32 66.5518 365.32C65.6978 365.32 65.0118 366.034 65.0118 366.86V370.5H63.7518ZM70.5369 368.47H71.7969C71.8669 369.03 72.2029 369.38 72.9169 369.38C73.7009 369.38 74.0369 369.044 74.0369 368.61C74.0369 367.49 70.6769 368.246 70.6769 366.02C70.6769 364.97 71.5169 364.13 72.8469 364.13C74.3169 364.13 75.0869 364.9 75.1569 366.09H73.8969C73.8269 365.656 73.4769 365.32 72.8469 365.32C72.2169 365.32 71.8669 365.67 71.8669 366.02C71.8669 367.14 75.2269 366.384 75.2269 368.61C75.2269 369.73 74.3869 370.57 72.9169 370.57C71.3629 370.57 70.6069 369.814 70.5369 368.47Z" fill="#C6C6C6"/>
<path d="M332 363H346L339.707 369.293C339.519 369.48 339.265 369.586 339 369.586C338.735 369.586 338.481 369.48 338.293 369.293L332 363Z" fill="#A1A1AA"/>
<path d="M44.9996 65H34.9996L38.2926 61.707L36.8786 60.293L32.5856 64.586C32.2106 64.961 32 65.4696 32 66C32 66.5303 32.2106 67.0389 32.5856 67.414L36.8786 71.707L38.2926 70.293L34.9996 67H44.9996V65Z" fill="white"/>
</g>
<defs>
<linearGradient id="paint0_linear_234_2742" x1="418.527" y1="-580.714" x2="-860.493" y2="418.816" gradientUnits="userSpaceOnUse">
<stop offset="0.226599" stop-color="#353A40"/>
<stop offset="0.697917" stop-color="#121416"/>
</linearGradient>
<radialGradient id="paint1_radial_234_2742" cx="0" cy="0" r="1" gradientUnits="userSpaceOnUse" gradientTransform="translate(284.073 47.4583) rotate(90) scale(88.5417 29.8649)">
<stop stop-color="#EA8945"/>
<stop offset="0.974245" stop-color="#161512"/>
</radialGradient>
<linearGradient id="paint2_linear_234_2742" x1="285.981" y1="141.162" x2="291.794" y2="134.826" gradientUnits="userSpaceOnUse">
<stop stop-color="#FFA05C"/>
<stop offset="1" stop-color="#F06500"/>
</linearGradient>
<linearGradient id="paint3_linear_234_2742" x1="273.919" y1="141.418" x2="292.689" y2="129.481" gradientUnits="userSpaceOnUse">
<stop stop-color="#FFA05C"/>
<stop offset="1" stop-color="#F06500"/>
</linearGradient>
<linearGradient id="paint4_linear_234_2742" x1="284.799" y1="133.069" x2="293.959" y2="126.007" gradientUnits="userSpaceOnUse">
<stop stop-color="#FFA05C"/>
<stop offset="1" stop-color="#F06500"/>
</linearGradient>
<linearGradient id="paint5_linear_234_2742" x1="253.77" y1="182.092" x2="265.196" y2="151" gradientUnits="userSpaceOnUse">
<stop stop-color="#FFA05C"/>
<stop offset="1" stop-color="#F06500"/>
</linearGradient>
<radialGradient id="paint6_radial_234_2742" cx="0" cy="0" r="1" gradientUnits="userSpaceOnUse" gradientTransform="translate(92.0729 47.4583) rotate(90) scale(88.5417 29.8649)">
<stop stop-color="#EA8945"/>
<stop offset="0.974245" stop-color="#161512"/>
</radialGradient>
<radialGradient id="paint7_radial_234_2742" cx="0" cy="0" r="1" gradientUnits="userSpaceOnUse" gradientTransform="translate(188.073 47.4583) rotate(90) scale(88.5417 29.8649)">
<stop stop-color="#EA8945"/>
<stop offset="0.974245" stop-color="#161512"/>
</radialGradient>
<radialGradient id="paint8_radial_234_2742" cx="0" cy="0" r="1" gradientUnits="userSpaceOnUse" gradientTransform="translate(91.2187 319.167) rotate(90) scale(155.833 89.5948)">
<stop stop-color="#EA8945"/>
<stop offset="0.974245" stop-color="#161512"/>
</radialGradient>
<linearGradient id="paint9_linear_234_2742" x1="152.383" y1="426.947" x2="24.004" y2="529.063" gradientUnits="userSpaceOnUse">
<stop offset="0.0709612" stop-color="#505962"/>
<stop offset="0.507086" stop-opacity="0"/>
<stop offset="1"/>
</linearGradient>
<radialGradient id="paint10_radial_234_2742" cx="0" cy="0" r="1" gradientUnits="userSpaceOnUse" gradientTransform="translate(91.2187 421.167) rotate(90) scale(155.833 89.5948)">
<stop stop-color="#EA8945"/>
<stop offset="0.974245" stop-color="#161512"/>
</radialGradient>
<linearGradient id="paint11_linear_234_2742" x1="152.383" y1="528.947" x2="24.004" y2="631.063" gradientUnits="userSpaceOnUse">
<stop offset="0.0709612" stop-color="#505962"/>
<stop offset="0.507086" stop-opacity="0"/>
<stop offset="1"/>
</linearGradient>
<radialGradient id="paint12_radial_234_2742" cx="0" cy="0" r="1" gradientUnits="userSpaceOnUse" gradientTransform="translate(284.219 421.167) rotate(90) scale(155.833 89.5948)">
<stop stop-color="#EA8945"/>
<stop offset="0.974245" stop-color="#161512"/>
</radialGradient>
<linearGradient id="paint13_linear_234_2742" x1="345.383" y1="528.947" x2="217.004" y2="631.063" gradientUnits="userSpaceOnUse">
<stop offset="0.0709612" stop-color="#505962"/>
<stop offset="0.507086" stop-opacity="0"/>
<stop offset="1"/>
</linearGradient>
<radialGradient id="paint14_radial_234_2742" cx="0" cy="0" r="1" gradientUnits="userSpaceOnUse" gradientTransform="translate(284.219 319.167) rotate(90) scale(155.833 89.5948)">
<stop stop-color="#EA8945"/>
<stop offset="0.974245" stop-color="#161512"/>
</radialGradient>
<linearGradient id="paint15_linear_234_2742" x1="345.383" y1="426.947" x2="217.004" y2="529.063" gradientUnits="userSpaceOnUse">
<stop offset="0.0709612" stop-color="#505962"/>
<stop offset="0.507086" stop-opacity="0"/>
<stop offset="1"/>
</linearGradient>
<linearGradient id="paint16_linear_234_2742" x1="14.6858" y1="767.506" x2="33.6336" y2="667.291" gradientUnits="userSpaceOnUse">
<stop stop-color="#FFA05C"/>
<stop offset="1" stop-color="#F06500"/>
</linearGradient>
<linearGradient id="paint17_linear_234_2742" x1="-82.5632" y1="813.674" x2="-48.3476" y2="668.691" gradientUnits="userSpaceOnUse">
<stop stop-color="white"/>
<stop offset="1" stop-color="#CD5B0A"/>
</linearGradient>
<clipPath id="clip0_234_2742">
<rect width="375" height="813" fill="white"/>
</clipPath>
<clipPath id="clip1_234_2742">
<rect width="375" height="44" fill="white"/>
</clipPath>
<clipPath id="clip2_234_2742">
<rect width="20" height="20" fill="white" transform="translate(274 126)"/>
</clipPath>
<clipPath id="clip3_234_2742">
<rect width="20" height="20" fill="white" transform="translate(82 126)"/>
</clipPath>
</defs>
</svg>
