<svg width="375" height="813" viewBox="0 0 375 813" fill="none" xmlns="http://www.w3.org/2000/svg">
<g clip-path="url(#clip0_234_2683)">
<rect width="375" height="813" fill="url(#paint0_linear_234_2683)"/>
<rect x="121" y="800" width="134" height="5" rx="2.5" fill="white"/>
<g clip-path="url(#clip1_234_2683)">
<path opacity="0.35" d="M338.667 17.8333H355.333C356.53 17.8333 357.5 18.8036 357.5 20.0002V26.0002C357.5 27.1967 356.53 28.1663 355.333 28.1663H338.667C337.47 28.1663 336.5 27.1967 336.5 26.0002V20.0002L336.511 19.7786C336.622 18.6859 337.545 17.8333 338.667 17.8333Z" fill="white" stroke="white"/>
<path opacity="0.4" d="M359 21V25C359.805 24.6612 360.328 23.8731 360.328 23C360.328 22.1269 359.805 21.3388 359 21Z" fill="white"/>
<path d="M338 20.6666C338 19.9302 338.597 19.3333 339.333 19.3333H354.667C355.403 19.3333 356 19.9302 356 20.6666V25.3333C356 26.0696 355.403 26.6666 354.667 26.6666H339.333C338.597 26.6666 338 26.0696 338 25.3333V20.6666Z" fill="white"/>
<path fill-rule="evenodd" clip-rule="evenodd" d="M323.33 19.6079C325.546 19.608 327.677 20.4594 329.283 21.9862C329.404 22.1041 329.597 22.1026 329.716 21.9829L330.872 20.8162C330.933 20.7555 330.966 20.6733 330.966 20.5877C330.965 20.5021 330.931 20.4202 330.87 20.3602C326.655 16.3207 320.005 16.3207 315.79 20.3602C315.729 20.4202 315.694 20.502 315.693 20.5876C315.693 20.6732 315.726 20.7555 315.787 20.8162L316.943 21.9829C317.062 22.1028 317.255 22.1043 317.376 21.9862C318.982 20.4593 321.114 19.6079 323.33 19.6079ZM323.33 23.4036C324.547 23.4035 325.721 23.856 326.624 24.6732C326.746 24.7892 326.938 24.7867 327.057 24.6676L328.212 23.5009C328.273 23.4397 328.307 23.3567 328.306 23.2704C328.305 23.1842 328.269 23.1018 328.207 23.0419C325.459 20.4855 321.203 20.4855 318.455 23.0419C318.393 23.1018 318.357 23.1842 318.357 23.2705C318.356 23.3568 318.39 23.4398 318.451 23.5009L319.605 24.6676C319.724 24.7867 319.916 24.7892 320.038 24.6732C320.94 23.8566 322.113 23.4041 323.33 23.4036ZM325.643 25.9574C325.645 26.0439 325.611 26.1273 325.549 26.1879L323.552 28.2036C323.493 28.2628 323.413 28.2961 323.33 28.2961C323.247 28.2961 323.167 28.2628 323.108 28.2036L321.111 26.1879C321.049 26.1272 321.015 26.0438 321.017 25.9573C321.019 25.8708 321.056 25.7889 321.12 25.7309C322.396 24.652 324.264 24.652 325.54 25.7309C325.604 25.7889 325.641 25.8709 325.643 25.9574Z" fill="white"/>
<path fill-rule="evenodd" clip-rule="evenodd" d="M309.666 17.6665H308.666C308.114 17.6665 307.666 18.1142 307.666 18.6665V27.3332C307.666 27.8855 308.114 28.3332 308.666 28.3332H309.666C310.218 28.3332 310.666 27.8855 310.666 27.3332V18.6665C310.666 18.1142 310.218 17.6665 309.666 17.6665ZM303.999 19.9998H304.999C305.552 19.9998 305.999 20.4476 305.999 20.9998V27.3332C305.999 27.8855 305.552 28.3332 304.999 28.3332H303.999C303.447 28.3332 302.999 27.8855 302.999 27.3332V20.9998C302.999 20.4476 303.447 19.9998 303.999 19.9998ZM300.333 22.3332H299.333C298.78 22.3332 298.333 22.7809 298.333 23.3332V27.3332C298.333 27.8855 298.78 28.3332 299.333 28.3332H300.333C300.885 28.3332 301.333 27.8855 301.333 27.3332V23.3332C301.333 22.7809 300.885 22.3332 300.333 22.3332ZM295.666 24.3332H294.666C294.114 24.3332 293.666 24.7809 293.666 25.3332V27.3332C293.666 27.8855 294.114 28.3332 294.666 28.3332H295.666C296.218 28.3332 296.666 27.8855 296.666 27.3332V25.3332C296.666 24.7809 296.218 24.3332 295.666 24.3332Z" fill="white"/>
<path d="M37.3203 28.2563C40.0083 28.2563 41.605 26.1543 41.605 22.5947C41.605 21.2544 41.3486 20.1265 40.8579 19.2549C40.1475 17.8999 38.9243 17.1675 37.3789 17.1675C35.0791 17.1675 33.4531 18.7129 33.4531 20.8809C33.4531 22.917 34.918 24.3965 36.9321 24.3965C38.1699 24.3965 39.1733 23.8179 39.6714 22.8145H39.6934C39.6934 22.8145 39.7227 22.8145 39.73 22.8145C39.7446 22.8145 39.7959 22.8145 39.7959 22.8145C39.7959 25.2314 38.8804 26.6743 37.335 26.6743C36.4268 26.6743 35.7236 26.1763 35.4819 25.3779H33.5996C33.9146 27.1138 35.3867 28.2563 37.3203 28.2563ZM37.3862 22.895C36.1704 22.895 35.3062 22.0308 35.3062 20.8223C35.3062 19.6431 36.2144 18.7422 37.3936 18.7422C38.5728 18.7422 39.481 19.6577 39.481 20.8516C39.481 22.0308 38.5947 22.895 37.3862 22.895Z" fill="white"/>
<path d="M44.6961 28.1538C45.3919 28.1538 45.868 27.6558 45.868 26.9966C45.868 26.3301 45.3919 25.8394 44.6961 25.8394C44.0076 25.8394 43.5242 26.3301 43.5242 26.9966C43.5242 27.6558 44.0076 28.1538 44.6961 28.1538ZM44.6961 22.6606C45.3919 22.6606 45.868 22.1699 45.868 21.5107C45.868 20.8442 45.3919 20.3535 44.6961 20.3535C44.0076 20.3535 43.5242 20.8442 43.5242 21.5107C43.5242 22.1699 44.0076 22.6606 44.6961 22.6606Z" fill="white"/>
<path d="M52.7237 28H54.5328V26.0298H55.961V24.4331H54.5328V17.4312H51.8668C49.9991 20.2437 48.5123 22.5947 47.5602 24.3452V26.0298H52.7237V28ZM49.3106 24.3672C50.5411 22.1992 51.6397 20.4634 52.6505 18.9692H52.753V24.4771H49.3106V24.3672Z" fill="white"/>
<path d="M59.9896 28H61.8793V17.4312H59.997L57.2357 19.3647V21.1812L59.8651 19.3354H59.9896V28Z" fill="white"/>
</g>
<path d="M140.18 67.13H141.98C141.458 69.29 139.622 71.09 137.03 71.09C134.15 71.09 131.63 68.57 131.63 65.33C131.63 62.09 134.15 59.57 137.03 59.57C139.55 59.57 141.368 61.37 141.89 63.53H140.09C139.712 62.18 138.686 61.1 137.03 61.1C135.158 61.1 133.34 62.882 133.34 65.33C133.34 67.778 135.158 69.56 137.03 69.56C138.776 69.56 139.802 68.462 140.18 67.13ZM143.594 71V62.9H144.764L145.124 63.71C145.268 63.548 145.448 63.386 145.646 63.26C145.988 63.044 146.492 62.81 147.194 62.81C147.392 62.81 147.5 62.846 147.59 62.864L147.734 62.9V64.52L147.572 64.484C147.446 64.466 147.32 64.43 147.194 64.43C146.096 64.43 145.214 65.348 145.214 66.41V71H143.594ZM154.386 68.66H156.096C155.574 70.01 154.476 71.09 152.586 71.09C150.426 71.09 148.716 69.38 148.716 66.95C148.716 64.52 150.408 62.81 152.496 62.81C154.584 62.81 156.276 64.52 156.276 66.95C156.276 67.148 156.24 67.328 156.222 67.454L156.186 67.67H150.426C150.516 68.678 151.416 69.56 152.586 69.56C153.576 69.56 154.116 69.02 154.386 68.66ZM150.426 66.32H154.746C154.548 65.15 153.774 64.34 152.496 64.34C151.416 64.34 150.624 65.15 150.426 66.32ZM163.12 71L162.76 70.19C162.598 70.352 162.418 70.514 162.202 70.64C161.824 70.874 161.23 71.09 160.42 71.09C158.62 71.09 157.63 70.1 157.63 68.66C157.63 67.04 158.71 65.96 162.67 65.96V65.69C162.67 64.88 162.148 64.34 161.14 64.34C160.06 64.34 159.61 64.772 159.52 65.33H157.9C157.99 63.89 159.142 62.81 161.14 62.81C163.03 62.81 164.29 64.07 164.29 65.69V71H163.12ZM162.67 67.832V67.4C159.79 67.4 159.25 67.94 159.25 68.75C159.25 69.2 159.7 69.65 160.51 69.65C161.878 69.65 162.67 68.84 162.67 67.832ZM166.902 68.3V64.43H165.462V62.9H166.092C166.722 62.9 167.172 62.45 167.172 61.82V60.74H168.522V62.9H170.322V64.43H168.522V68.3C168.522 69.02 169.062 69.56 169.782 69.56C169.908 69.56 170.034 69.542 170.16 69.524L170.322 69.47V70.91C170.25 70.946 170.16 70.982 170.07 71C169.89 71.054 169.674 71.09 169.422 71.09C167.982 71.09 166.902 70.01 166.902 68.3ZM177.255 68.66H178.965C178.443 70.01 177.345 71.09 175.455 71.09C173.295 71.09 171.585 69.38 171.585 66.95C171.585 64.52 173.277 62.81 175.365 62.81C177.453 62.81 179.145 64.52 179.145 66.95C179.145 67.148 179.109 67.328 179.091 67.454L179.055 67.67H173.295C173.385 68.678 174.285 69.56 175.455 69.56C176.445 69.56 176.985 69.02 177.255 68.66ZM173.295 66.32H177.615C177.417 65.15 176.643 64.34 175.365 64.34C174.285 64.34 173.493 65.15 173.295 66.32ZM185.084 71V59.66H192.554V61.28H186.794V64.34H192.104V65.96H186.794V69.38H192.734V71H185.084ZM193.631 71L196.421 66.86L193.811 62.9H195.611L197.411 65.6L199.211 62.9H201.011L198.401 66.86L201.191 71H199.391L197.411 68.03L195.431 71H193.631ZM207.314 68.66H209.024C208.502 70.01 207.404 71.09 205.514 71.09C203.354 71.09 201.644 69.38 201.644 66.95C201.644 64.52 203.336 62.81 205.424 62.81C207.512 62.81 209.204 64.52 209.204 66.95C209.204 67.148 209.168 67.328 209.15 67.454L209.114 67.67H203.354C203.444 68.678 204.344 69.56 205.514 69.56C206.504 69.56 207.044 69.02 207.314 68.66ZM203.354 66.32H207.674C207.476 65.15 206.702 64.34 205.424 64.34C204.344 64.34 203.552 65.15 203.354 66.32ZM210.918 71V62.9H212.088L212.448 63.71C212.592 63.548 212.772 63.386 212.97 63.26C213.312 63.044 213.816 62.81 214.518 62.81C214.716 62.81 214.824 62.846 214.914 62.864L215.058 62.9V64.52L214.896 64.484C214.77 64.466 214.644 64.43 214.518 64.43C213.42 64.43 212.538 65.348 212.538 66.41V71H210.918ZM221.8 68.03H223.51C223.132 69.758 221.818 71.09 219.91 71.09C217.75 71.09 216.04 69.38 216.04 66.95C216.04 64.52 217.75 62.81 219.91 62.81C221.818 62.81 223.132 64.142 223.51 65.87H221.8C221.53 64.952 220.918 64.34 219.91 64.34C218.74 64.34 217.66 65.42 217.66 66.95C217.66 68.48 218.74 69.56 219.91 69.56C220.918 69.56 221.53 68.948 221.8 68.03ZM225.139 71V62.9H226.759V71H225.139ZM225.949 59.66C226.507 59.66 226.939 60.092 226.939 60.65C226.939 61.208 226.507 61.64 225.949 61.64C225.391 61.64 224.959 61.208 224.959 60.65C224.959 60.092 225.391 59.66 225.949 59.66ZM228.468 68.39H230.088C230.178 69.11 230.61 69.56 231.528 69.56C232.536 69.56 232.968 69.128 232.968 68.57C232.968 67.13 228.648 68.102 228.648 65.24C228.648 63.89 229.728 62.81 231.438 62.81C233.328 62.81 234.318 63.8 234.408 65.33H232.788C232.698 64.772 232.248 64.34 231.438 64.34C230.628 64.34 230.178 64.79 230.178 65.24C230.178 66.68 234.498 65.708 234.498 68.57C234.498 70.01 233.418 71.09 231.528 71.09C229.53 71.09 228.558 70.118 228.468 68.39ZM241.433 68.66H243.143C242.621 70.01 241.523 71.09 239.633 71.09C237.473 71.09 235.763 69.38 235.763 66.95C235.763 64.52 237.455 62.81 239.543 62.81C241.631 62.81 243.323 64.52 243.323 66.95C243.323 67.148 243.287 67.328 243.269 67.454L243.233 67.67H237.473C237.563 68.678 238.463 69.56 239.633 69.56C240.623 69.56 241.163 69.02 241.433 68.66ZM237.473 66.32H241.793C241.595 65.15 240.821 64.34 239.543 64.34C238.463 64.34 237.671 65.15 237.473 66.32Z" fill="#A1A1AA"/>
<path d="M17.5 254V241.4H22.5C24.6 241.4 26.3 243.1 26.3 245.2C26.3 246.66 25.6 247.54 24.9 248.08C24.48 248.4 24.02 248.64 23.5 248.8L26.6 254H24.5L21.6 249H19.4V254H17.5ZM19.4 247.2H22.5C23.5 247.2 24.4 246.3 24.4 245.2C24.4 244.1 23.5 243.2 22.5 243.2H19.4V247.2ZM34.1914 251.4H36.0914C35.5114 252.9 34.2914 254.1 32.1914 254.1C29.7914 254.1 27.8914 252.2 27.8914 249.5C27.8914 246.8 29.7714 244.9 32.0914 244.9C34.4114 244.9 36.2914 246.8 36.2914 249.5C36.2914 249.72 36.2514 249.92 36.2314 250.06L36.1914 250.3H29.7914C29.8914 251.42 30.8914 252.4 32.1914 252.4C33.2914 252.4 33.8914 251.8 34.1914 251.4ZM29.7914 248.8H34.5914C34.3714 247.5 33.5114 246.6 32.0914 246.6C30.8914 246.6 30.0114 247.5 29.7914 248.8ZM38.0961 254.6H39.8961C40.1961 255.22 40.7961 255.8 41.9961 255.8C43.4161 255.8 44.2961 254.9 44.2961 253.6V252.7C44.1161 252.88 43.9161 253.06 43.6761 253.2C43.2561 253.46 42.6561 253.7 41.7961 253.7C39.5961 253.7 37.6961 251.78 37.6961 249.3C37.6961 246.82 39.5961 244.9 41.7961 244.9C42.6961 244.9 43.3561 245.16 43.7761 245.4C44.0161 245.54 44.2161 245.72 44.3961 245.9L44.7961 245H46.0961V253.6C46.0961 255.8 44.4961 257.4 41.9961 257.4C39.8161 257.4 38.4761 256.1 38.0961 254.6ZM42.0161 252C43.2961 252 44.4961 250.8 44.4961 249.3C44.4961 247.8 43.2961 246.6 41.9961 246.6C40.6961 246.6 39.4961 247.8 39.4961 249.3C39.4961 250.8 40.6961 252 42.0161 252ZM48.4891 250.2V245H50.2891V250.2C50.2891 251.42 51.2691 252.4 52.3891 252.4C53.5691 252.4 54.5891 251.42 54.5891 250.2V245H56.3891V254H55.0891L54.6891 253.1C54.5091 253.28 54.3091 253.46 54.0691 253.6C53.6491 253.86 52.9891 254.1 52.0891 254.1C50.0891 254.1 48.4891 252.5 48.4891 250.2ZM58.882 254V241.4H60.682V254H58.882ZM68.8766 254L68.4766 253.1C68.2966 253.28 68.0966 253.46 67.8566 253.6C67.4366 253.86 66.7766 254.1 65.8766 254.1C63.8766 254.1 62.7766 253 62.7766 251.4C62.7766 249.6 63.9766 248.4 68.3766 248.4V248.1C68.3766 247.2 67.7966 246.6 66.6766 246.6C65.4766 246.6 64.9766 247.08 64.8766 247.7H63.0766C63.1766 246.1 64.4566 244.9 66.6766 244.9C68.7766 244.9 70.1766 246.3 70.1766 248.1V254H68.8766ZM68.3766 250.48V250C65.1766 250 64.5766 250.6 64.5766 251.5C64.5766 252 65.0766 252.5 65.9766 252.5C67.4966 252.5 68.3766 251.6 68.3766 250.48ZM72.4734 254V245H73.7734L74.1734 245.9C74.3334 245.72 74.5334 245.54 74.7534 245.4C75.1334 245.16 75.6934 244.9 76.4734 244.9C76.6934 244.9 76.8134 244.94 76.9134 244.96L77.0734 245V246.8L76.8934 246.76C76.7534 246.74 76.6134 246.7 76.4734 246.7C75.2534 246.7 74.2734 247.72 74.2734 248.9V254H72.4734ZM88.8594 251.4H90.7594C90.1794 252.9 88.9594 254.1 86.8594 254.1C84.4594 254.1 82.5594 252.2 82.5594 249.5C82.5594 246.8 84.4394 244.9 86.7594 244.9C89.0794 244.9 90.9594 246.8 90.9594 249.5C90.9594 249.72 90.9194 249.92 90.8994 250.06L90.8594 250.3H84.4594C84.5594 251.42 85.5594 252.4 86.8594 252.4C87.9594 252.4 88.5594 251.8 88.8594 251.4ZM84.4594 248.8H89.2594C89.0394 247.5 88.1794 246.6 86.7594 246.6C85.5594 246.6 84.6794 247.5 84.4594 248.8ZM91.6641 254L94.7641 249.4L91.8641 245H93.8641L95.8641 248L97.8641 245H99.8641L96.9641 249.4L100.064 254H98.0641L95.8641 250.7L93.6641 254H91.6641ZM106.867 251.4H108.767C108.187 252.9 106.967 254.1 104.867 254.1C102.467 254.1 100.567 252.2 100.567 249.5C100.567 246.8 102.447 244.9 104.767 244.9C107.087 244.9 108.967 246.8 108.967 249.5C108.967 249.72 108.927 249.92 108.907 250.06L108.867 250.3H102.467C102.567 251.42 103.567 252.4 104.867 252.4C105.967 252.4 106.567 251.8 106.867 251.4ZM102.467 248.8H107.267C107.047 247.5 106.187 246.6 104.767 246.6C103.567 246.6 102.687 247.5 102.467 248.8ZM110.872 254V245H112.172L112.572 245.9C112.732 245.72 112.932 245.54 113.152 245.4C113.532 245.16 114.092 244.9 114.872 244.9C115.092 244.9 115.212 244.94 115.312 244.96L115.472 245V246.8L115.292 246.76C115.152 246.74 115.012 246.7 114.872 246.7C113.652 246.7 112.672 247.72 112.672 248.9V254H110.872ZM122.963 250.7H124.863C124.443 252.62 122.983 254.1 120.863 254.1C118.463 254.1 116.563 252.2 116.563 249.5C116.563 246.8 118.463 244.9 120.863 244.9C122.983 244.9 124.443 246.38 124.863 248.3H122.963C122.663 247.28 121.983 246.6 120.863 246.6C119.563 246.6 118.363 247.8 118.363 249.5C118.363 251.2 119.563 252.4 120.863 252.4C121.983 252.4 122.663 251.72 122.963 250.7ZM126.673 254V245H128.473V254H126.673ZM127.573 241.4C128.193 241.4 128.673 241.88 128.673 242.5C128.673 243.12 128.193 243.6 127.573 243.6C126.953 243.6 126.473 243.12 126.473 242.5C126.473 241.88 126.953 241.4 127.573 241.4ZM130.372 251.1H132.172C132.272 251.9 132.752 252.4 133.772 252.4C134.892 252.4 135.372 251.92 135.372 251.3C135.372 249.7 130.572 250.78 130.572 247.6C130.572 246.1 131.772 244.9 133.672 244.9C135.772 244.9 136.872 246 136.972 247.7H135.172C135.072 247.08 134.572 246.6 133.672 246.6C132.772 246.6 132.272 247.1 132.272 247.6C132.272 249.2 137.072 248.12 137.072 251.3C137.072 252.9 135.872 254.1 133.772 254.1C131.552 254.1 130.472 253.02 130.372 251.1ZM144.777 251.4H146.677C146.097 252.9 144.877 254.1 142.777 254.1C140.377 254.1 138.477 252.2 138.477 249.5C138.477 246.8 140.357 244.9 142.677 244.9C144.997 244.9 146.877 246.8 146.877 249.5C146.877 249.72 146.837 249.92 146.817 250.06L146.777 250.3H140.377C140.477 251.42 141.477 252.4 142.777 252.4C143.877 252.4 144.477 251.8 144.777 251.4ZM140.377 248.8H145.177C144.957 247.5 144.097 246.6 142.677 246.6C141.477 246.6 140.597 247.5 140.377 248.8Z" fill="white"/>
<rect x="16.5" y="268.5" width="342" height="41" rx="3.5" fill="#3F3F46"/>
<rect x="16.5" y="268.5" width="342" height="41" rx="3.5" stroke="#52525B"/>
<path d="M25.05 293.5V284.68H30.86V285.94H26.38V288.32H30.51V289.58H26.38V292.24H31V293.5H25.05ZM32.5373 293.5V287.2H33.4473L33.7273 287.83C33.8533 287.704 33.9933 287.578 34.1613 287.48C34.4553 287.312 34.9173 287.13 35.5473 287.13C36.9473 287.13 38.0673 288.25 38.0673 289.86V293.5H36.8073V289.86C36.8073 289.034 36.1213 288.32 35.3373 288.32C34.4833 288.32 33.7973 289.034 33.7973 289.86V293.5H32.5373ZM40.234 291.4V288.39H39.114V287.2H39.604C40.094 287.2 40.444 286.85 40.444 286.36V285.52H41.494V287.2H42.894V288.39H41.494V291.4C41.494 291.96 41.914 292.38 42.474 292.38C42.572 292.38 42.67 292.366 42.768 292.352L42.894 292.31V293.43C42.838 293.458 42.768 293.486 42.698 293.5C42.558 293.542 42.39 293.57 42.194 293.57C41.074 293.57 40.234 292.73 40.234 291.4ZM48.2867 291.68H49.6167C49.2107 292.73 48.3567 293.57 46.8867 293.57C45.2067 293.57 43.8767 292.24 43.8767 290.35C43.8767 288.46 45.1927 287.13 46.8167 287.13C48.4407 287.13 49.7567 288.46 49.7567 290.35C49.7567 290.504 49.7287 290.644 49.7147 290.742L49.6867 290.91H45.2067C45.2767 291.694 45.9767 292.38 46.8867 292.38C47.6567 292.38 48.0767 291.96 48.2867 291.68ZM45.2067 289.86H48.5667C48.4127 288.95 47.8107 288.32 46.8167 288.32C45.9767 288.32 45.3607 288.95 45.2067 289.86ZM51.09 293.5V287.2H52L52.28 287.83C52.392 287.704 52.532 287.578 52.686 287.48C52.952 287.312 53.344 287.13 53.89 287.13C54.044 287.13 54.128 287.158 54.198 287.172L54.31 287.2V288.46L54.184 288.432C54.086 288.418 53.988 288.39 53.89 288.39C53.036 288.39 52.35 289.104 52.35 289.93V293.5H51.09ZM62.4902 293.5L62.2102 292.87C62.0842 292.996 61.9442 293.122 61.7762 293.22C61.4822 293.402 61.0202 293.57 60.3902 293.57C58.9902 293.57 58.2202 292.8 58.2202 291.68C58.2202 290.42 59.0602 289.58 62.1402 289.58V289.37C62.1402 288.74 61.7342 288.32 60.9502 288.32C60.1102 288.32 59.7602 288.656 59.6902 289.09H58.4302C58.5002 287.97 59.3962 287.13 60.9502 287.13C62.4202 287.13 63.4002 288.11 63.4002 289.37V293.5H62.4902ZM62.1402 291.036V290.7C59.9002 290.7 59.4802 291.12 59.4802 291.75C59.4802 292.1 59.8302 292.45 60.4602 292.45C61.5242 292.45 62.1402 291.82 62.1402 291.036ZM68.6441 291.4V288.39H67.5241V287.2H68.0141C68.5041 287.2 68.8541 286.85 68.8541 286.36V285.52H69.9041V287.2H71.3041V288.39H69.9041V291.4C69.9041 291.96 70.3241 292.38 70.8841 292.38C70.9821 292.38 71.0801 292.366 71.1781 292.352L71.3041 292.31V293.43C71.2481 293.458 71.1781 293.486 71.1081 293.5C70.9681 293.542 70.8001 293.57 70.6041 293.57C69.4841 293.57 68.6441 292.73 68.6441 291.4ZM72.7736 293.5V287.2H74.0336V293.5H72.7736ZM73.4036 284.68C73.8376 284.68 74.1736 285.016 74.1736 285.45C74.1736 285.884 73.8376 286.22 73.4036 286.22C72.9696 286.22 72.6336 285.884 72.6336 285.45C72.6336 285.016 72.9696 284.68 73.4036 284.68ZM76.273 291.4V288.39H75.153V287.2H75.643C76.133 287.2 76.483 286.85 76.483 286.36V285.52H77.533V287.2H78.933V288.39H77.533V291.4C77.533 291.96 77.953 292.38 78.513 292.38C78.611 292.38 78.709 292.366 78.807 292.352L78.933 292.31V293.43C78.877 293.458 78.807 293.486 78.737 293.5C78.597 293.542 78.429 293.57 78.233 293.57C77.113 293.57 76.273 292.73 76.273 291.4ZM80.4725 293.5V284.68H81.7325V293.5H80.4725ZM87.5387 291.68H88.8687C88.4627 292.73 87.6087 293.57 86.1387 293.57C84.4587 293.57 83.1287 292.24 83.1287 290.35C83.1287 288.46 84.4447 287.13 86.0687 287.13C87.6927 287.13 89.0087 288.46 89.0087 290.35C89.0087 290.504 88.9807 290.644 88.9667 290.742L88.9387 290.91H84.4587C84.5287 291.694 85.2287 292.38 86.1387 292.38C86.9087 292.38 87.3287 291.96 87.5387 291.68ZM84.4587 289.86H87.8187C87.6647 288.95 87.0627 288.32 86.0687 288.32C85.2287 288.32 84.6127 288.95 84.4587 289.86ZM93.6281 293.5V288.39H92.8581V287.2H93.6281V286.78C93.6281 285.45 94.4681 284.61 95.5881 284.61C95.7981 284.61 95.9661 284.638 96.0921 284.68L96.2881 284.75V285.87L96.1621 285.842C96.0641 285.828 95.9661 285.8 95.8681 285.8C95.3081 285.8 94.8881 286.22 94.8881 286.78V287.2H96.2881V288.39H94.8881V293.5H93.6281ZM100.07 292.38C100.98 292.38 101.82 291.54 101.82 290.35C101.82 289.16 100.98 288.32 100.07 288.32C99.1603 288.32 98.3203 289.16 98.3203 290.35C98.3203 291.54 99.1603 292.38 100.07 292.38ZM100.07 293.57C98.3903 293.57 97.0603 292.24 97.0603 290.35C97.0603 288.46 98.3903 287.13 100.07 287.13C101.75 287.13 103.08 288.46 103.08 290.35C103.08 292.24 101.75 293.57 100.07 293.57ZM104.41 293.5V287.2H105.32L105.6 287.83C105.712 287.704 105.852 287.578 106.006 287.48C106.272 287.312 106.664 287.13 107.21 287.13C107.364 287.13 107.448 287.158 107.518 287.172L107.63 287.2V288.46L107.504 288.432C107.406 288.418 107.308 288.39 107.21 288.39C106.356 288.39 105.67 289.104 105.67 289.93V293.5H104.41ZM112.38 291.4V288.39H111.26V287.2H111.75C112.24 287.2 112.59 286.85 112.59 286.36V285.52H113.64V287.2H115.04V288.39H113.64V291.4C113.64 291.96 114.06 292.38 114.62 292.38C114.718 292.38 114.816 292.366 114.914 292.352L115.04 292.31V293.43C114.984 293.458 114.914 293.486 114.844 293.5C114.704 293.542 114.536 293.57 114.34 293.57C113.22 293.57 112.38 292.73 112.38 291.4ZM116.58 293.5V284.68H117.84V287.83C117.966 287.704 118.12 287.578 118.288 287.48C118.582 287.312 119.03 287.13 119.59 287.13C120.99 287.13 122.11 288.25 122.11 289.86V293.5H120.85V289.86C120.85 289.034 120.164 288.32 119.38 288.32C118.526 288.32 117.84 289.034 117.84 289.86V293.5H116.58ZM127.775 291.68H129.105C128.699 292.73 127.845 293.57 126.375 293.57C124.695 293.57 123.365 292.24 123.365 290.35C123.365 288.46 124.681 287.13 126.305 287.13C127.929 287.13 129.245 288.46 129.245 290.35C129.245 290.504 129.217 290.644 129.203 290.742L129.175 290.91H124.695C124.765 291.694 125.465 292.38 126.375 292.38C127.145 292.38 127.565 291.96 127.775 291.68ZM124.695 289.86H128.055C127.901 288.95 127.299 288.32 126.305 288.32C125.465 288.32 124.849 288.95 124.695 289.86ZM137.714 291.68H139.044C138.638 292.73 137.784 293.57 136.314 293.57C134.634 293.57 133.304 292.24 133.304 290.35C133.304 288.46 134.62 287.13 136.244 287.13C137.868 287.13 139.184 288.46 139.184 290.35C139.184 290.504 139.156 290.644 139.142 290.742L139.114 290.91H134.634C134.704 291.694 135.404 292.38 136.314 292.38C137.084 292.38 137.504 291.96 137.714 291.68ZM134.634 289.86H137.994C137.84 288.95 137.238 288.32 136.244 288.32C135.404 288.32 134.788 288.95 134.634 289.86ZM139.678 293.5L141.848 290.28L139.818 287.2H141.218L142.618 289.3L144.018 287.2H145.418L143.388 290.28L145.558 293.5H144.158L142.618 291.19L141.078 293.5H139.678ZM150.32 291.68H151.65C151.244 292.73 150.39 293.57 148.92 293.57C147.24 293.57 145.91 292.24 145.91 290.35C145.91 288.46 147.226 287.13 148.85 287.13C150.474 287.13 151.79 288.46 151.79 290.35C151.79 290.504 151.762 290.644 151.748 290.742L151.72 290.91H147.24C147.31 291.694 148.01 292.38 148.92 292.38C149.69 292.38 150.11 291.96 150.32 291.68ZM147.24 289.86H150.6C150.446 288.95 149.844 288.32 148.85 288.32C148.01 288.32 147.394 288.95 147.24 289.86ZM153.123 293.5V287.2H154.033L154.313 287.83C154.425 287.704 154.565 287.578 154.719 287.48C154.985 287.312 155.377 287.13 155.923 287.13C156.077 287.13 156.161 287.158 156.231 287.172L156.343 287.2V288.46L156.217 288.432C156.119 288.418 156.021 288.39 155.923 288.39C155.069 288.39 154.383 289.104 154.383 289.93V293.5H153.123ZM161.587 291.19H162.917C162.623 292.534 161.601 293.57 160.117 293.57C158.437 293.57 157.107 292.24 157.107 290.35C157.107 288.46 158.437 287.13 160.117 287.13C161.601 287.13 162.623 288.166 162.917 289.51H161.587C161.377 288.796 160.901 288.32 160.117 288.32C159.207 288.32 158.367 289.16 158.367 290.35C158.367 291.54 159.207 292.38 160.117 292.38C160.901 292.38 161.377 291.904 161.587 291.19ZM164.184 293.5V287.2H165.444V293.5H164.184ZM164.814 284.68C165.248 284.68 165.584 285.016 165.584 285.45C165.584 285.884 165.248 286.22 164.814 286.22C164.38 286.22 164.044 285.884 164.044 285.45C164.044 285.016 164.38 284.68 164.814 284.68ZM166.773 291.47H168.033C168.103 292.03 168.439 292.38 169.153 292.38C169.937 292.38 170.273 292.044 170.273 291.61C170.273 290.49 166.913 291.246 166.913 289.02C166.913 287.97 167.753 287.13 169.083 287.13C170.553 287.13 171.323 287.9 171.393 289.09H170.133C170.063 288.656 169.713 288.32 169.083 288.32C168.453 288.32 168.103 288.67 168.103 289.02C168.103 290.14 171.463 289.384 171.463 291.61C171.463 292.73 170.623 293.57 169.153 293.57C167.599 293.57 166.843 292.814 166.773 291.47ZM176.857 291.68H178.187C177.781 292.73 176.927 293.57 175.457 293.57C173.777 293.57 172.447 292.24 172.447 290.35C172.447 288.46 173.763 287.13 175.387 287.13C177.011 287.13 178.327 288.46 178.327 290.35C178.327 290.504 178.299 290.644 178.285 290.742L178.257 290.91H173.777C173.847 291.694 174.547 292.38 175.457 292.38C176.227 292.38 176.647 291.96 176.857 291.68ZM173.777 289.86H177.137C176.983 288.95 176.381 288.32 175.387 288.32C174.547 288.32 173.931 288.95 173.777 289.86Z" fill="#C6C6C6"/>
<rect x="68" y="112" width="48" height="48" rx="3" fill="url(#paint1_radial_234_2683)"/>
<rect x="68" y="112" width="48" height="48" rx="3" stroke="url(#paint2_linear_234_2683)" stroke-width="2"/>
<g clip-path="url(#clip2_234_2683)">
<path d="M92 127.667C93.1079 127.669 94.2043 127.891 95.2257 128.32C96.2471 128.749 97.1731 129.377 97.95 130.167H94.5V131.833H98.7858C99.1961 131.833 99.5895 131.67 99.8796 131.38C100.17 131.089 100.333 130.696 100.333 130.286V126H98.6667V128.55C97.228 127.263 95.4478 126.42 93.5407 126.123C91.6336 125.826 89.6812 126.086 87.9191 126.874C86.157 127.662 84.6606 128.943 83.6102 130.562C82.5599 132.181 82.0007 134.07 82 136H83.6667C83.6691 133.791 84.5478 131.672 86.1101 130.11C87.6724 128.548 89.7906 127.669 92 127.667Z" fill="url(#paint3_linear_234_2683)"/>
<path d="M100.333 136C100.332 137.655 99.8394 139.273 98.9164 140.646C97.9934 142.02 96.6822 143.088 95.1501 143.714C93.6179 144.339 91.9341 144.495 90.3133 144.16C88.6925 143.825 87.2081 143.015 86.0493 141.833H89.4993V140.167H85.2135C84.8032 140.167 84.4099 140.33 84.1198 140.62C83.8296 140.911 83.6665 141.304 83.666 141.714V146H85.3327V143.45C86.7713 144.737 88.5516 145.58 90.4587 145.877C92.3657 146.174 94.3181 145.914 96.0802 145.126C97.8423 144.338 99.3388 143.057 100.389 141.438C101.439 139.819 101.999 137.93 101.999 136H100.333Z" fill="url(#paint4_linear_234_2683)"/>
</g>
<path d="M70.37 182L67.64 173.18H68.83L70.79 179.55L72.68 173.18H73.38L75.27 179.55L77.23 173.18H78.42L75.69 182H74.92L73.03 175.63L71.14 182H70.37ZM83.0367 182L82.7567 181.3C82.6167 181.454 82.4627 181.58 82.2807 181.692C81.9587 181.902 81.4967 182.07 80.8667 182.07C79.6067 182.07 78.7667 181.23 78.7667 180.18C78.7667 178.99 79.6067 178.15 82.7567 178.15V177.8C82.7567 177.17 82.2107 176.61 81.4267 176.61C80.6427 176.61 80.3207 176.96 80.1667 177.52H79.0467C79.2007 176.47 80.0267 175.63 81.4267 175.63C82.8267 175.63 83.8067 176.624 83.8067 177.8V182H83.0367ZM82.7567 179.62V179.13C80.2367 179.13 79.8167 179.55 79.8167 180.25C79.8167 180.684 80.2367 181.09 80.8667 181.09C81.9867 181.09 82.7567 180.32 82.7567 179.62ZM85.5545 182V175.7H86.3245L86.6045 176.4C86.7305 176.26 86.8845 176.134 87.0665 176.022C87.3885 175.812 87.8225 175.63 88.4245 175.63H88.5645V176.68H88.2845C87.2905 176.68 86.6045 177.366 86.6045 178.43V182H85.5545ZM89.7518 182V175.7H90.5218L90.8018 176.4C90.8998 176.26 91.0258 176.134 91.1798 176.022C91.4458 175.812 91.7958 175.63 92.3418 175.63C92.9718 175.63 93.4058 175.91 93.6858 176.19C93.8538 176.358 93.9938 176.54 94.0918 176.75C94.2178 176.54 94.3578 176.358 94.5398 176.19C94.8618 175.91 95.3098 175.63 95.9818 175.63C97.1018 175.63 98.0818 176.596 98.0818 178.22V182H97.0318V178.22C97.0318 177.156 96.4858 176.61 95.7718 176.61C95.0578 176.61 94.4418 177.226 94.4418 178.22V182H93.3918V178.22C93.3918 177.156 92.8458 176.61 92.1318 176.61C91.4458 176.61 90.8018 177.282 90.8018 178.22V182H89.7518ZM102.836 179.34V175.7H103.886V179.34C103.886 180.39 104.572 181.09 105.426 181.09C106.42 181.09 107.106 180.404 107.106 179.34V175.7H108.156V182H107.386L107.106 181.3C106.98 181.454 106.826 181.58 106.644 181.692C106.322 181.902 105.888 182.07 105.286 182.07C103.956 182.07 102.836 180.95 102.836 179.34ZM112.843 181.09C113.893 181.09 114.803 180.194 114.803 178.85C114.803 177.506 113.893 176.61 112.843 176.61C111.793 176.61 110.883 177.506 110.883 178.85C110.883 180.194 111.793 181.09 112.843 181.09ZM109.973 184.24V175.7H110.743L111.023 176.4C111.149 176.26 111.317 176.134 111.499 176.022C111.821 175.812 112.283 175.63 112.913 175.63C114.537 175.63 115.853 176.96 115.853 178.85C115.853 180.74 114.537 182.07 112.913 182.07C112.283 182.07 111.821 181.86 111.499 181.65C111.317 181.524 111.149 181.384 111.023 181.23V184.24H109.973Z" fill="url(#paint5_linear_234_2683)"/>
<rect x="163" y="111" width="50" height="50" rx="4" fill="url(#paint6_radial_234_2683)"/>
<path d="M188 126C193.523 126 198 130.477 198 136C198 141.523 193.523 146 188 146C182.477 146 178 141.523 178 136C178 130.477 182.477 126 188 126ZM188 130C187.735 130 187.48 130.105 187.293 130.293C187.105 130.48 187 130.735 187 131V136C187 136.265 187.105 136.52 187.293 136.707L190.293 139.707C190.482 139.889 190.734 139.99 190.996 139.988C191.259 139.985 191.509 139.88 191.695 139.695C191.88 139.509 191.985 139.259 191.988 138.996C191.99 138.734 191.889 138.482 191.707 138.293L189 135.586V131C189 130.735 188.895 130.48 188.707 130.293C188.52 130.105 188.265 130 188 130Z" fill="#C1CAD0"/>
<path d="M175.12 182V173.18H176.03L179.32 180.25L182.61 173.18H183.52V182H182.4V176.05L179.67 182H178.97L176.24 176.05V182H175.12ZM189.537 182L189.257 181.3C189.117 181.454 188.963 181.58 188.781 181.692C188.459 181.902 187.997 182.07 187.367 182.07C186.107 182.07 185.267 181.23 185.267 180.18C185.267 178.99 186.107 178.15 189.257 178.15V177.8C189.257 177.17 188.711 176.61 187.927 176.61C187.143 176.61 186.821 176.96 186.667 177.52H185.547C185.701 176.47 186.527 175.63 187.927 175.63C189.327 175.63 190.307 176.624 190.307 177.8V182H189.537ZM189.257 179.62V179.13C186.737 179.13 186.317 179.55 186.317 180.25C186.317 180.684 186.737 181.09 187.367 181.09C188.487 181.09 189.257 180.32 189.257 179.62ZM192.055 182V175.7H193.105V182H192.055ZM191.915 173.922C191.915 173.53 192.195 173.25 192.573 173.25C192.965 173.25 193.245 173.53 193.245 173.922C193.245 174.3 192.965 174.58 192.573 174.58C192.195 174.58 191.915 174.3 191.915 173.922ZM194.926 182V175.7H195.696L195.976 176.4C196.102 176.26 196.256 176.134 196.438 176.022C196.76 175.812 197.194 175.63 197.796 175.63C199.126 175.63 200.246 176.75 200.246 178.36V182H199.196V178.36C199.196 177.31 198.482 176.61 197.656 176.61C196.662 176.61 195.976 177.296 195.976 178.36V182H194.926Z" fill="white"/>
<rect x="259" y="111" width="50" height="50" rx="4" fill="url(#paint7_radial_234_2683)"/>
<g clip-path="url(#clip3_234_2683)">
<path d="M286.012 136.833L291.633 142.454C292.975 140.869 293.789 138.904 293.958 136.833H286.012Z" fill="#C1CAD0"/>
<path d="M283.41 136.589L283.166 136.345V126.042C281.596 126.17 280.078 126.668 278.737 127.495C277.395 128.321 276.268 129.453 275.447 130.797C274.627 132.142 274.135 133.662 274.013 135.232C273.89 136.803 274.141 138.38 274.744 139.836C275.347 141.291 276.285 142.584 277.482 143.608C278.68 144.632 280.102 145.358 281.633 145.728C283.164 146.099 284.762 146.102 286.294 145.737C287.827 145.373 289.252 144.652 290.453 143.633L283.41 136.589Z" fill="#C1CAD0"/>
<path d="M284.834 135.167H293.959C293.762 132.812 292.738 130.604 291.067 128.934C289.397 127.263 287.188 126.238 284.834 126.042V135.167Z" fill="#C1CAD0"/>
</g>
<path d="M261.21 179.06H262.4C261.91 180.74 260.58 182.07 258.62 182.07C256.45 182.07 254.49 180.11 254.49 177.59C254.49 175.07 256.45 173.11 258.62 173.11C260.51 173.11 261.84 174.44 262.33 176.12H261.14C260.846 175 259.964 174.09 258.62 174.09C257.08 174.09 255.61 175.56 255.61 177.59C255.61 179.62 257.08 181.09 258.62 181.09C260.034 181.09 260.916 180.18 261.21 179.06ZM266.248 181.09C267.214 181.09 268.138 180.194 268.138 178.85C268.138 177.506 267.214 176.61 266.248 176.61C265.268 176.61 264.358 177.506 264.358 178.85C264.358 180.194 265.268 181.09 266.248 181.09ZM266.248 182.07C264.624 182.07 263.308 180.74 263.308 178.85C263.308 176.96 264.624 175.63 266.248 175.63C267.872 175.63 269.188 176.96 269.188 178.85C269.188 180.74 267.872 182.07 266.248 182.07ZM273.112 181.09C274.078 181.09 275.002 180.194 275.002 178.85C275.002 177.506 274.078 176.61 273.112 176.61C272.132 176.61 271.222 177.506 271.222 178.85C271.222 180.194 272.132 181.09 273.112 181.09ZM273.112 182.07C271.488 182.07 270.172 180.74 270.172 178.85C270.172 176.96 271.488 175.63 273.112 175.63C274.736 175.63 276.052 176.96 276.052 178.85C276.052 180.74 274.736 182.07 273.112 182.07ZM277.525 182V173.18H278.575V182H277.525ZM284.801 181.02H286.131C287.755 181.02 289.211 179.55 289.211 177.59C289.211 175.63 287.755 174.16 286.131 174.16H284.801V181.02ZM283.681 182V173.18H286.131C288.441 173.18 290.331 175.07 290.331 177.59C290.331 180.11 288.441 182 286.131 182H283.681ZM294.317 181.09C295.283 181.09 296.207 180.194 296.207 178.85C296.207 177.506 295.283 176.61 294.317 176.61C293.337 176.61 292.427 177.506 292.427 178.85C292.427 180.194 293.337 181.09 294.317 181.09ZM294.317 182.07C292.693 182.07 291.377 180.74 291.377 178.85C291.377 176.96 292.693 175.63 294.317 175.63C295.941 175.63 297.257 176.96 297.257 178.85C297.257 180.74 295.941 182.07 294.317 182.07ZM299.99 182L297.89 175.7H299.01L300.48 180.18L301.88 175.7H302.58L303.98 180.18L305.45 175.7H306.57L304.47 182H303.63L302.23 177.52L300.83 182H299.99ZM307.615 182V175.7H308.385L308.665 176.4C308.791 176.26 308.945 176.134 309.127 176.022C309.449 175.812 309.883 175.63 310.485 175.63C311.815 175.63 312.935 176.75 312.935 178.36V182H311.885V178.36C311.885 177.31 311.171 176.61 310.345 176.61C309.351 176.61 308.665 177.296 308.665 178.36V182H307.615Z" fill="white"/>
<rect x="16" y="431" width="150" height="88" rx="8" fill="url(#paint8_radial_234_2683)"/>
<rect x="16.5" y="431.5" width="149" height="87" rx="7.5" stroke="url(#paint9_linear_234_2683)" stroke-opacity="0.4"/>
<path d="M33.05 460V451.18H36.55C38.02 451.18 39.21 452.37 39.21 453.84C39.21 454.862 38.72 455.478 38.23 455.856C37.936 456.08 37.614 456.248 37.25 456.36L39.42 460H37.95L35.92 456.5H34.38V460H33.05ZM34.38 455.24H36.55C37.25 455.24 37.88 454.61 37.88 453.84C37.88 453.07 37.25 452.44 36.55 452.44H34.38V455.24ZM44.734 458.18H46.064C45.658 459.23 44.804 460.07 43.334 460.07C41.654 460.07 40.324 458.74 40.324 456.85C40.324 454.96 41.64 453.63 43.264 453.63C44.888 453.63 46.204 454.96 46.204 456.85C46.204 457.004 46.176 457.144 46.162 457.242L46.134 457.41H41.654C41.724 458.194 42.424 458.88 43.334 458.88C44.104 458.88 44.524 458.46 44.734 458.18ZM41.654 456.36H45.014C44.86 455.45 44.258 454.82 43.264 454.82C42.424 454.82 41.808 455.45 41.654 456.36ZM47.5373 462.24V453.7H48.4473L48.7273 454.33C48.8533 454.204 48.9933 454.078 49.1613 453.98C49.4553 453.812 49.9173 453.63 50.5473 453.63C52.2273 453.63 53.5573 454.96 53.5573 456.85C53.5573 458.74 52.2273 460.07 50.5473 460.07C49.9453 460.07 49.5253 459.902 49.2313 459.72C49.0633 459.622 48.9233 459.496 48.7973 459.37V462.24H47.5373ZM50.4773 458.88C51.4433 458.88 52.2973 458.04 52.2973 456.85C52.2973 455.66 51.4433 454.82 50.4773 454.82C49.5113 454.82 48.6573 455.66 48.6573 456.85C48.6573 458.04 49.5113 458.88 50.4773 458.88ZM54.5427 457.97H55.8027C55.8727 458.53 56.2087 458.88 56.9227 458.88C57.7067 458.88 58.0427 458.544 58.0427 458.11C58.0427 456.99 54.6827 457.746 54.6827 455.52C54.6827 454.47 55.5227 453.63 56.8527 453.63C58.3227 453.63 59.0927 454.4 59.1627 455.59H57.9027C57.8327 455.156 57.4827 454.82 56.8527 454.82C56.2227 454.82 55.8727 455.17 55.8727 455.52C55.8727 456.64 59.2327 455.884 59.2327 458.11C59.2327 459.23 58.3927 460.07 56.9227 460.07C55.3687 460.07 54.6127 459.314 54.5427 457.97ZM60.1466 454.47C60.1466 454.036 60.4826 453.7 60.9166 453.7C61.3506 453.7 61.6866 454.036 61.6866 454.47C61.6866 454.904 61.3506 455.24 60.9166 455.24C60.4826 455.24 60.1466 454.904 60.1466 454.47ZM60.1466 459.3C60.1466 458.866 60.4826 458.53 60.9166 458.53C61.3506 458.53 61.6866 458.866 61.6866 459.3C61.6866 459.734 61.3506 460.07 60.9166 460.07C60.4826 460.07 60.1466 459.734 60.1466 459.3Z" fill="#A1A1AA"/>
<path d="M33.44 493L39.2 480.64H32.72V477.88H42.44V480.04L36.44 493H33.44ZM49.7497 493V481.96H51.7897L52.2697 483.16C52.4617 482.92 52.7017 482.704 52.9657 482.512C53.4217 482.152 54.0697 481.84 54.9097 481.84C55.1737 481.84 55.3417 481.888 55.5097 481.912L55.7497 481.96V484.84L55.4857 484.792C55.3177 484.768 55.0777 484.72 54.7897 484.72C53.4457 484.72 52.5097 485.68 52.5097 487.12V493H49.7497ZM64.5144 489.64H67.3944C66.8184 491.296 64.9704 493.12 62.4744 493.12C59.4984 493.12 56.9544 490.6 56.9544 487.48C56.9544 484.36 59.4984 481.84 62.4744 481.84C65.3544 481.84 67.7544 484.12 67.7544 487.48C67.7544 487.744 67.7064 487.984 67.6824 488.2L67.6344 488.56H59.9544C60.2184 489.64 61.0344 490.48 62.4744 490.48C63.2184 490.48 63.6744 490.288 64.0344 490.072C64.2264 489.952 64.3944 489.808 64.5144 489.64ZM59.8344 486.64H65.1144C64.8504 485.416 63.9144 484.48 62.4744 484.48C61.0344 484.48 60.0984 485.416 59.8344 486.64ZM69.7888 496.84V481.96H71.8288L72.3088 483.04C72.5488 482.824 72.8368 482.608 73.1488 482.44C73.7008 482.152 74.4688 481.84 75.4288 481.84C78.1888 481.84 80.5887 484.216 80.5887 487.48C80.5887 490.744 78.1888 493.12 75.4288 493.12C74.4928 493.12 73.8208 492.856 73.3168 492.592C73.0288 492.424 72.7648 492.256 72.5488 492.04V496.84H69.7888ZM75.0688 490.48C76.6288 490.48 77.8288 489.304 77.8288 487.48C77.8288 485.656 76.6288 484.48 75.0688 484.48C73.5088 484.48 72.3088 485.656 72.3088 487.48C72.3088 489.304 73.5088 490.48 75.0688 490.48ZM82.0325 489.52H84.6725C84.7925 490.264 85.3925 490.84 86.3525 490.84C87.3125 490.84 87.9125 490.24 87.9125 489.64C87.9125 488.08 82.2725 489.016 82.2725 485.2C82.2725 483.4 83.8325 481.84 86.2325 481.84C88.8965 481.84 90.2885 483.28 90.5525 485.2H87.9125C87.7925 484.72 87.1925 484.12 86.3525 484.12C85.5125 484.12 85.0325 484.6 85.0325 485.2C85.0325 486.736 90.6725 485.824 90.6725 489.76C90.6725 491.56 89.0885 493.12 86.5925 493.12C83.7125 493.12 82.2485 491.704 82.0325 489.52Z" fill="white"/>
<path d="M145 462.293H131L137.293 456C137.481 455.813 137.735 455.707 138 455.707C138.265 455.707 138.519 455.813 138.707 456L145 462.293Z" fill="#A1A1AA"/>
<path d="M131 488H145L138.707 494.293C138.519 494.48 138.265 494.586 138 494.586C137.735 494.586 137.481 494.48 137.293 494.293L131 488Z" fill="#A1A1AA"/>
<rect x="16" y="533" width="150" height="88" rx="8" fill="url(#paint10_radial_234_2683)"/>
<rect x="16.5" y="533.5" width="149" height="87" rx="7.5" stroke="url(#paint11_linear_234_2683)" stroke-opacity="0.4"/>
<path d="M34.87 562L32.14 553.18H33.47L35.36 559.27L37.18 553.18H38.02L39.84 559.27L41.73 553.18H43.06L40.33 562H39.42L37.6 556.12L35.78 562H34.87ZM47.6734 560.18H49.0034C48.5974 561.23 47.7434 562.07 46.2734 562.07C44.5934 562.07 43.2634 560.74 43.2634 558.85C43.2634 556.96 44.5794 555.63 46.2034 555.63C47.8274 555.63 49.1434 556.96 49.1434 558.85C49.1434 559.004 49.1154 559.144 49.1014 559.242L49.0734 559.41H44.5934C44.6634 560.194 45.3634 560.88 46.2734 560.88C47.0434 560.88 47.4634 560.46 47.6734 560.18ZM44.5934 558.36H47.9534C47.7994 557.45 47.1974 556.82 46.2034 556.82C45.3634 556.82 44.7474 557.45 44.5934 558.36ZM50.4767 562V555.7H51.7367V562H50.4767ZM51.1067 553.18C51.5407 553.18 51.8767 553.516 51.8767 553.95C51.8767 554.384 51.5407 554.72 51.1067 554.72C50.6727 554.72 50.3367 554.384 50.3367 553.95C50.3367 553.516 50.6727 553.18 51.1067 553.18ZM53.3462 562.42H54.6062C54.8162 562.854 55.2362 563.26 56.0762 563.26C57.0702 563.26 57.6862 562.63 57.6862 561.72V561.09C57.5602 561.216 57.4202 561.342 57.2522 561.44C56.9582 561.622 56.5382 561.79 55.9362 561.79C54.3962 561.79 53.0662 560.446 53.0662 558.71C53.0662 556.974 54.3962 555.63 55.9362 555.63C56.5662 555.63 57.0282 555.812 57.3222 555.98C57.4902 556.078 57.6302 556.204 57.7562 556.33L58.0362 555.7H58.9462V561.72C58.9462 563.26 57.8262 564.38 56.0762 564.38C54.5502 564.38 53.6122 563.47 53.3462 562.42ZM56.0902 560.6C56.9862 560.6 57.8262 559.76 57.8262 558.71C57.8262 557.66 56.9862 556.82 56.0762 556.82C55.1662 556.82 54.3262 557.66 54.3262 558.71C54.3262 559.76 55.1662 560.6 56.0902 560.6ZM60.6913 562V553.18H61.9513V556.33C62.0773 556.204 62.2313 556.078 62.3993 555.98C62.6933 555.812 63.1413 555.63 63.7013 555.63C65.1013 555.63 66.2213 556.75 66.2213 558.36V562H64.9613V558.36C64.9613 557.534 64.2753 556.82 63.4913 556.82C62.6373 556.82 61.9513 557.534 61.9513 558.36V562H60.6913ZM68.3863 559.9V556.89H67.2663V555.7H67.7563C68.2463 555.7 68.5963 555.35 68.5963 554.86V554.02H69.6463V555.7H71.0463V556.89H69.6463V559.9C69.6463 560.46 70.0663 560.88 70.6263 560.88C70.7243 560.88 70.8223 560.866 70.9203 560.852L71.0463 560.81V561.93C70.9903 561.958 70.9203 561.986 70.8503 562C70.7103 562.042 70.5423 562.07 70.3463 562.07C69.2263 562.07 68.3863 561.23 68.3863 559.9ZM72.0958 556.47C72.0958 556.036 72.4318 555.7 72.8658 555.7C73.2998 555.7 73.6358 556.036 73.6358 556.47C73.6358 556.904 73.2998 557.24 72.8658 557.24C72.4318 557.24 72.0958 556.904 72.0958 556.47ZM72.0958 561.3C72.0958 560.866 72.4318 560.53 72.8658 560.53C73.2998 560.53 73.6358 560.866 73.6358 561.3C73.6358 561.734 73.2998 562.07 72.8658 562.07C72.4318 562.07 72.0958 561.734 72.0958 561.3Z" fill="#A1A1AA"/>
<path d="M35.6 595V583.6L33.8 584.8L32.36 582.64L36.32 579.88H38.48V595H35.6ZM40.7591 590.8H43.6391C43.7591 591.52 44.6951 592.48 46.0391 592.48C47.5991 592.48 48.6791 591.4 48.6791 589.84C48.6791 588.28 47.5991 587.2 46.0391 587.2C45.1751 587.2 44.5751 587.608 44.1911 587.992C43.9751 588.208 43.7831 588.472 43.6391 588.76H41.1191L42.0791 579.88H50.4791V582.64H44.4791L44.1191 585.4C44.3351 585.28 44.5511 585.16 44.8151 585.04C45.2231 584.872 45.7991 584.68 46.3991 584.68C49.3991 584.68 51.5591 586.84 51.5591 589.84C51.5591 592.816 49.2791 595.12 46.0391 595.12C43.0151 595.12 41.0231 593.08 40.7591 590.8ZM59.4734 582.52C57.7934 582.52 56.1134 584.2 56.1134 587.44C56.1134 590.68 57.7934 592.36 59.4734 592.36C61.1534 592.36 62.8334 590.68 62.8334 587.44C62.8334 584.2 61.1534 582.52 59.4734 582.52ZM59.4734 579.76C62.8334 579.76 65.7134 582.64 65.7134 587.44C65.7134 592.24 62.8334 595.12 59.4734 595.12C56.1134 595.12 53.2334 592.24 53.2334 587.44C53.2334 582.64 56.1134 579.76 59.4734 579.76ZM73.3747 595V579.88H76.1347V595H73.3747ZM78.7653 595V579.88H81.5253V584.92C81.7413 584.728 82.0053 584.56 82.2933 584.392C82.7973 584.128 83.4693 583.84 84.4053 583.84C87.1653 583.84 89.5653 586.216 89.5653 589.48C89.5653 592.744 87.1653 595.12 84.4053 595.12C83.4453 595.12 82.6773 594.832 82.1253 594.52C81.8133 594.352 81.5253 594.136 81.2853 593.92L80.8053 595H78.7653ZM84.0453 592.48C85.6053 592.48 86.8053 591.304 86.8053 589.48C86.8053 587.656 85.6053 586.48 84.0453 586.48C82.4853 586.48 81.2853 587.656 81.2853 589.48C81.2853 591.304 82.4853 592.48 84.0453 592.48ZM91.0091 591.52H93.6491C93.7691 592.264 94.3691 592.84 95.3291 592.84C96.2891 592.84 96.8891 592.24 96.8891 591.64C96.8891 590.08 91.2491 591.016 91.2491 587.2C91.2491 585.4 92.8091 583.84 95.2091 583.84C97.8731 583.84 99.2651 585.28 99.5291 587.2H96.8891C96.7691 586.72 96.1691 586.12 95.3291 586.12C94.4891 586.12 94.0091 586.6 94.0091 587.2C94.0091 588.736 99.6491 587.824 99.6491 591.76C99.6491 593.56 98.0651 595.12 95.5691 595.12C92.6891 595.12 91.2251 593.704 91.0091 591.52Z" fill="white"/>
<path d="M145 564.293H131L137.293 558C137.481 557.813 137.735 557.707 138 557.707C138.265 557.707 138.519 557.813 138.707 558L145 564.293Z" fill="#A1A1AA"/>
<path d="M131 590H145L138.707 596.293C138.519 596.48 138.265 596.586 138 596.586C137.735 596.586 137.481 596.48 137.293 596.293L131 590Z" fill="#A1A1AA"/>
<rect x="209" y="533" width="150" height="88" rx="8" fill="url(#paint12_radial_234_2683)"/>
<rect x="209.5" y="533.5" width="149" height="87" rx="7.5" stroke="url(#paint13_linear_234_2683)" stroke-opacity="0.4"/>
<path d="M226.05 562V553.18H229.55C231.02 553.18 232.21 554.37 232.21 555.84C232.21 556.862 231.72 557.478 231.23 557.856C230.936 558.08 230.614 558.248 230.25 558.36L232.42 562H230.95L228.92 558.5H227.38V562H226.05ZM227.38 557.24H229.55C230.25 557.24 230.88 556.61 230.88 555.84C230.88 555.07 230.25 554.44 229.55 554.44H227.38V557.24ZM237.734 560.18H239.064C238.658 561.23 237.804 562.07 236.334 562.07C234.654 562.07 233.324 560.74 233.324 558.85C233.324 556.96 234.64 555.63 236.264 555.63C237.888 555.63 239.204 556.96 239.204 558.85C239.204 559.004 239.176 559.144 239.162 559.242L239.134 559.41H234.654C234.724 560.194 235.424 560.88 236.334 560.88C237.104 560.88 237.524 560.46 237.734 560.18ZM234.654 558.36H238.014C237.86 557.45 237.258 556.82 236.264 556.82C235.424 556.82 234.808 557.45 234.654 558.36ZM240.187 559.97H241.447C241.517 560.53 241.853 560.88 242.567 560.88C243.351 560.88 243.687 560.544 243.687 560.11C243.687 558.99 240.327 559.746 240.327 557.52C240.327 556.47 241.167 555.63 242.497 555.63C243.967 555.63 244.737 556.4 244.807 557.59H243.547C243.477 557.156 243.127 556.82 242.497 556.82C241.867 556.82 241.517 557.17 241.517 557.52C241.517 558.64 244.877 557.884 244.877 560.11C244.877 561.23 244.037 562.07 242.567 562.07C241.013 562.07 240.257 561.314 240.187 559.97ZM246.771 559.9V556.89H245.651V555.7H246.141C246.631 555.7 246.981 555.35 246.981 554.86V554.02H248.031V555.7H249.431V556.89H248.031V559.9C248.031 560.46 248.451 560.88 249.011 560.88C249.109 560.88 249.207 560.866 249.305 560.852L249.431 560.81V561.93C249.375 561.958 249.305 561.986 249.235 562C249.095 562.042 248.927 562.07 248.731 562.07C247.611 562.07 246.771 561.23 246.771 559.9ZM254.537 559.9V556.89H253.417V555.7H253.907C254.397 555.7 254.747 555.35 254.747 554.86V554.02H255.797V555.7H257.197V556.89H255.797V559.9C255.797 560.46 256.217 560.88 256.777 560.88C256.875 560.88 256.973 560.866 257.071 560.852L257.197 560.81V561.93C257.141 561.958 257.071 561.986 257.001 562C256.861 562.042 256.693 562.07 256.497 562.07C255.377 562.07 254.537 561.23 254.537 559.9ZM258.666 562V555.7H259.926V562H258.666ZM259.296 553.18C259.73 553.18 260.066 553.516 260.066 553.95C260.066 554.384 259.73 554.72 259.296 554.72C258.862 554.72 258.526 554.384 258.526 553.95C258.526 553.516 258.862 553.18 259.296 553.18ZM261.606 562V555.7H262.516L262.796 556.33C262.908 556.204 263.048 556.078 263.202 555.98C263.468 555.812 263.846 555.63 264.336 555.63C264.938 555.63 265.358 555.882 265.652 556.12C265.82 556.274 265.96 556.428 266.086 556.61C266.212 556.428 266.38 556.274 266.562 556.12C266.884 555.882 267.346 555.63 267.976 555.63C269.152 555.63 270.146 556.596 270.146 558.22V562H268.886V558.22C268.886 557.38 268.326 556.82 267.696 556.82C267.066 556.82 266.506 557.38 266.506 558.22V562H265.246V558.22C265.246 557.38 264.686 556.82 264.056 556.82C263.426 556.82 262.866 557.38 262.866 558.22V562H261.606ZM275.81 560.18H277.14C276.734 561.23 275.88 562.07 274.41 562.07C272.73 562.07 271.4 560.74 271.4 558.85C271.4 556.96 272.716 555.63 274.34 555.63C275.964 555.63 277.28 556.96 277.28 558.85C277.28 559.004 277.252 559.144 277.238 559.242L277.21 559.41H272.73C272.8 560.194 273.5 560.88 274.41 560.88C275.18 560.88 275.6 560.46 275.81 560.18ZM272.73 558.36H276.09C275.936 557.45 275.334 556.82 274.34 556.82C273.5 556.82 272.884 557.45 272.73 558.36ZM278.613 562V555.7H279.523L279.803 556.33C279.915 556.204 280.055 556.078 280.209 555.98C280.475 555.812 280.867 555.63 281.413 555.63C281.567 555.63 281.651 555.658 281.721 555.672L281.833 555.7V556.96L281.707 556.932C281.609 556.918 281.511 556.89 281.413 556.89C280.559 556.89 279.873 557.604 279.873 558.43V562H278.613ZM282.527 556.47C282.527 556.036 282.863 555.7 283.297 555.7C283.731 555.7 284.067 556.036 284.067 556.47C284.067 556.904 283.731 557.24 283.297 557.24C282.863 557.24 282.527 556.904 282.527 556.47ZM282.527 561.3C282.527 560.866 282.863 560.53 283.297 560.53C283.731 560.53 284.067 560.866 284.067 561.3C284.067 561.734 283.731 562.07 283.297 562.07C282.863 562.07 282.527 561.734 282.527 561.3Z" fill="#A1A1AA"/>
<path d="M225.72 590.56C225.72 589.192 226.32 588.232 226.92 587.656C227.28 587.32 227.664 587.056 228.12 586.84C227.784 586.624 227.472 586.384 227.208 586.096C226.752 585.592 226.32 584.872 226.32 583.84C226.32 581.68 228.24 579.76 231.12 579.76C234 579.76 235.92 581.68 235.92 583.84C235.92 584.872 235.464 585.592 235.008 586.096C234.744 586.384 234.432 586.624 234.12 586.84C234.576 587.056 234.96 587.32 235.32 587.656C235.92 588.232 236.52 589.192 236.52 590.56C236.52 592.96 234.384 595.12 231.12 595.12C227.856 595.12 225.72 592.96 225.72 590.56ZM228.6 590.44C228.6 591.664 229.56 592.6 231.12 592.6C232.68 592.6 233.64 591.664 233.64 590.44C233.64 589.216 232.68 588.28 231.12 588.28C229.56 588.28 228.6 589.216 228.6 590.44ZM229.08 584.08C229.08 585.04 229.896 585.88 231.12 585.88C232.344 585.88 233.16 585.04 233.16 584.08C233.16 583.12 232.344 582.28 231.12 582.28C229.896 582.28 229.08 583.12 229.08 584.08ZM244.434 582.52C242.754 582.52 241.074 584.2 241.074 587.44C241.074 590.68 242.754 592.36 244.434 592.36C246.114 592.36 247.794 590.68 247.794 587.44C247.794 584.2 246.114 582.52 244.434 582.52ZM244.434 579.76C247.794 579.76 250.674 582.64 250.674 587.44C250.674 592.24 247.794 595.12 244.434 595.12C241.074 595.12 238.194 592.24 238.194 587.44C238.194 582.64 241.074 579.76 244.434 579.76ZM252.345 591.52H254.985C255.105 592.264 255.705 592.84 256.665 592.84C257.625 592.84 258.225 592.24 258.225 591.64C258.225 590.08 252.585 591.016 252.585 587.2C252.585 585.4 254.145 583.84 256.545 583.84C259.209 583.84 260.601 585.28 260.865 587.2H258.225C258.105 586.72 257.505 586.12 256.665 586.12C255.825 586.12 255.345 586.6 255.345 587.2C255.345 588.736 260.985 587.824 260.985 591.76C260.985 593.56 259.401 595.12 256.905 595.12C254.025 595.12 252.561 593.704 252.345 591.52Z" fill="white"/>
<path d="M338 564.293H324L330.293 558C330.481 557.813 330.735 557.707 331 557.707C331.265 557.707 331.519 557.813 331.707 558L338 564.293Z" fill="#A1A1AA"/>
<path d="M324 590H338L331.707 596.293C331.519 596.48 331.265 596.586 331 596.586C330.735 596.586 330.481 596.48 330.293 596.293L324 590Z" fill="#A1A1AA"/>
<rect x="209" y="431" width="150" height="88" rx="8" fill="url(#paint14_radial_234_2683)"/>
<rect x="209.5" y="431.5" width="149" height="87" rx="7.5" stroke="url(#paint15_linear_234_2683)" stroke-opacity="0.4"/>
<path d="M225.49 457.34H226.82C226.82 458.334 227.38 458.88 228.5 458.88C229.69 458.88 230.25 458.334 230.25 457.62C230.25 455.66 225.56 456.64 225.56 453.56C225.56 452.286 226.75 451.11 228.5 451.11C230.18 451.11 231.37 452.314 231.37 453.84H230.04C230.04 452.93 229.41 452.3 228.5 452.3C227.52 452.3 226.89 452.93 226.89 453.56C226.89 455.38 231.58 454.4 231.58 457.62C231.58 458.894 230.39 460.07 228.5 460.07C226.61 460.07 225.49 458.95 225.49 457.34ZM236.9 458.18H238.23C237.824 459.23 236.97 460.07 235.5 460.07C233.82 460.07 232.49 458.74 232.49 456.85C232.49 454.96 233.806 453.63 235.43 453.63C237.054 453.63 238.37 454.96 238.37 456.85C238.37 457.004 238.342 457.144 238.328 457.242L238.3 457.41H233.82C233.89 458.194 234.59 458.88 235.5 458.88C236.27 458.88 236.69 458.46 236.9 458.18ZM233.82 456.36H237.18C237.026 455.45 236.424 454.82 235.43 454.82C234.59 454.82 233.974 455.45 233.82 456.36ZM240.263 457.9V454.89H239.143V453.7H239.633C240.123 453.7 240.473 453.35 240.473 452.86V452.02H241.523V453.7H242.923V454.89H241.523V457.9C241.523 458.46 241.943 458.88 242.503 458.88C242.601 458.88 242.699 458.866 242.797 458.852L242.923 458.81V459.93C242.867 459.958 242.797 459.986 242.727 460C242.587 460.042 242.419 460.07 242.223 460.07C241.103 460.07 240.263 459.23 240.263 457.9ZM243.906 457.97H245.166C245.236 458.53 245.572 458.88 246.286 458.88C247.07 458.88 247.406 458.544 247.406 458.11C247.406 456.99 244.046 457.746 244.046 455.52C244.046 454.47 244.886 453.63 246.216 453.63C247.686 453.63 248.456 454.4 248.526 455.59H247.266C247.196 455.156 246.846 454.82 246.216 454.82C245.586 454.82 245.236 455.17 245.236 455.52C245.236 456.64 248.596 455.884 248.596 458.11C248.596 459.23 247.756 460.07 246.286 460.07C244.732 460.07 243.976 459.314 243.906 457.97ZM249.51 454.47C249.51 454.036 249.846 453.7 250.28 453.7C250.714 453.7 251.05 454.036 251.05 454.47C251.05 454.904 250.714 455.24 250.28 455.24C249.846 455.24 249.51 454.904 249.51 454.47ZM249.51 459.3C249.51 458.866 249.846 458.53 250.28 458.53C250.714 458.53 251.05 458.866 251.05 459.3C251.05 459.734 250.714 460.07 250.28 460.07C249.846 460.07 249.51 459.734 249.51 459.3Z" fill="#A1A1AA"/>
<path d="M228.6 493V481.6L226.8 482.8L225.36 480.64L229.32 477.88H231.48V493H228.6ZM240.239 480.52C238.559 480.52 236.879 482.2 236.879 485.44C236.879 488.68 238.559 490.36 240.239 490.36C241.919 490.36 243.599 488.68 243.599 485.44C243.599 482.2 241.919 480.52 240.239 480.52ZM240.239 477.76C243.599 477.76 246.479 480.64 246.479 485.44C246.479 490.24 243.599 493.12 240.239 493.12C236.879 493.12 233.999 490.24 233.999 485.44C233.999 480.64 236.879 477.76 240.239 477.76ZM253.54 489.52H256.18C256.3 490.264 256.9 490.84 257.86 490.84C258.82 490.84 259.42 490.24 259.42 489.64C259.42 488.08 253.78 489.016 253.78 485.2C253.78 483.4 255.34 481.84 257.74 481.84C260.404 481.84 261.796 483.28 262.06 485.2H259.42C259.3 484.72 258.7 484.12 257.86 484.12C257.02 484.12 256.54 484.6 256.54 485.2C256.54 486.736 262.18 485.824 262.18 489.76C262.18 491.56 260.596 493.12 258.1 493.12C255.22 493.12 253.756 491.704 253.54 489.52ZM271.178 489.64H274.058C273.482 491.296 271.634 493.12 269.138 493.12C266.162 493.12 263.618 490.6 263.618 487.48C263.618 484.36 266.162 481.84 269.138 481.84C272.018 481.84 274.418 484.12 274.418 487.48C274.418 487.744 274.37 487.984 274.346 488.2L274.298 488.56H266.618C266.882 489.64 267.698 490.48 269.138 490.48C269.882 490.48 270.338 490.288 270.698 490.072C270.89 489.952 271.058 489.808 271.178 489.64ZM266.498 486.64H271.778C271.514 485.416 270.578 484.48 269.138 484.48C267.698 484.48 266.762 485.416 266.498 486.64ZM277.293 489.16V484.48H275.613V482.2H276.333C277.221 482.2 277.653 481.768 277.653 480.88V479.32H280.053V481.96H282.453V484.48H280.053V489.04C280.053 490 280.653 490.6 281.613 490.6C281.877 490.6 282.021 490.576 282.141 490.552L282.333 490.48V492.88C282.213 492.928 282.093 492.976 281.949 493C281.685 493.072 281.373 493.12 281.013 493.12C278.829 493.12 277.293 491.56 277.293 489.16ZM283.892 489.52H286.532C286.652 490.264 287.252 490.84 288.212 490.84C289.172 490.84 289.772 490.24 289.772 489.64C289.772 488.08 284.132 489.016 284.132 485.2C284.132 483.4 285.692 481.84 288.092 481.84C290.756 481.84 292.148 483.28 292.412 485.2H289.772C289.652 484.72 289.052 484.12 288.212 484.12C287.372 484.12 286.892 484.6 286.892 485.2C286.892 486.736 292.532 485.824 292.532 489.76C292.532 491.56 290.948 493.12 288.452 493.12C285.572 493.12 284.108 491.704 283.892 489.52Z" fill="white"/>
<path d="M338 462.293H324L330.293 456C330.481 455.813 330.735 455.707 331 455.707C331.265 455.707 331.519 455.813 331.707 456L338 462.293Z" fill="#A1A1AA"/>
<path d="M324 488H338L331.707 494.293C331.519 494.48 331.265 494.586 331 494.586C330.735 494.586 330.481 494.48 330.293 494.293L324 488Z" fill="#A1A1AA"/>
<rect x="16.25" y="729.25" width="340.5" height="49.5" rx="7.75" fill="url(#paint16_linear_234_2683)"/>
<rect x="16.25" y="729.25" width="340.5" height="49.5" rx="7.75" stroke="url(#paint17_linear_234_2683)" stroke-width="0.5"/>
<path d="M141.844 754.82L144.244 754.98C143.78 756.9 142.084 758.58 139.604 758.58C136.868 758.58 134.644 756.34 134.644 753.46C134.644 750.58 136.868 748.34 139.604 748.34C141.988 748.34 143.7 750.02 144.164 751.94L141.764 752.1C141.508 751.3 140.804 750.58 139.604 750.58C138.148 750.58 136.964 751.796 136.964 753.46C136.964 755.124 138.148 756.34 139.604 756.34C140.884 756.34 141.604 755.636 141.844 754.82ZM145.37 758.5V751.14H146.97L147.29 751.94C147.418 751.78 147.578 751.636 147.754 751.508C148.058 751.268 148.49 751.06 149.05 751.06C149.242 751.06 149.402 751.092 149.514 751.108L149.69 751.14V753.38L149.466 753.3C149.322 753.252 149.13 753.22 148.89 753.22C148.074 753.22 147.53 753.78 147.53 754.74V758.5H145.37ZM155.368 756.18L157.608 756.34C157.224 757.54 156.072 758.66 154.168 758.66C152.184 758.66 150.488 756.98 150.488 754.82C150.488 752.66 152.168 750.98 154.248 750.98C156.248 750.98 157.848 752.5 157.848 754.82C157.848 754.996 157.816 755.156 157.8 755.3L157.768 755.54H152.728C152.904 756.1 153.432 756.66 154.248 756.66C154.648 756.66 154.936 756.548 155.112 756.42C155.224 756.356 155.304 756.276 155.368 756.18ZM152.728 754.18H155.768C155.592 753.54 155.064 752.98 154.248 752.98C153.432 752.98 152.904 753.54 152.728 754.18ZM163.682 758.5L163.362 757.78C163.186 757.924 162.978 758.068 162.754 758.18C162.37 758.388 161.842 758.58 161.202 758.58C159.602 758.58 158.722 757.716 158.722 756.5C158.722 755.044 159.762 754.02 163.122 754.02C163.122 753.3 162.722 752.9 162.162 752.9C161.762 752.9 161.522 753.092 161.378 753.268C161.298 753.38 161.234 753.492 161.202 753.62L159.042 753.46C159.298 752.004 160.306 750.98 162.242 750.98C164.002 750.98 165.282 752.26 165.282 754.02V758.5H163.682ZM163.122 755.62V755.3C161.266 755.3 160.882 755.7 160.882 756.26C160.882 756.66 161.202 756.98 161.762 756.98C162.578 756.98 163.122 756.436 163.122 755.62ZM167.292 755.86V753.14H166.172V751.3H166.732C167.324 751.3 167.612 751.012 167.612 750.42V749.38H169.452V751.14H170.972V753.14H169.452V755.54C169.452 756.18 169.852 756.58 170.412 756.58C170.588 756.58 170.7 756.564 170.812 756.548L170.972 756.5V758.42C170.892 758.452 170.796 758.484 170.684 758.5C170.476 758.548 170.22 758.58 169.932 758.58C168.252 758.58 167.292 757.636 167.292 755.86ZM176.899 756.18L179.139 756.34C178.755 757.54 177.603 758.66 175.699 758.66C173.715 758.66 172.019 756.98 172.019 754.82C172.019 752.66 173.699 750.98 175.779 750.98C177.779 750.98 179.379 752.5 179.379 754.82C179.379 754.996 179.347 755.156 179.331 755.3L179.299 755.54H174.259C174.435 756.1 174.963 756.66 175.779 756.66C176.179 756.66 176.467 756.548 176.643 756.42C176.755 756.356 176.835 756.276 176.899 756.18ZM174.259 754.18H177.299C177.123 753.54 176.595 752.98 175.779 752.98C174.963 752.98 174.435 753.54 174.259 754.18ZM185.941 758.5L183.461 751.14H185.701L186.981 755.46L188.341 751.14H189.781L191.141 755.46L192.421 751.14H194.661L192.181 758.5H190.341L189.061 754.42L187.781 758.5H185.941ZM195.144 754.82C195.144 752.66 196.824 750.98 198.904 750.98C200.984 750.98 202.664 752.66 202.664 754.82C202.664 756.98 200.984 758.66 198.904 758.66C196.824 758.66 195.144 756.98 195.144 754.82ZM200.504 754.82C200.504 753.684 199.8 752.98 198.904 752.98C198.008 752.98 197.304 753.684 197.304 754.82C197.304 755.956 198.008 756.66 198.904 756.66C199.8 756.66 200.504 755.956 200.504 754.82ZM203.948 758.5V751.14H205.548L205.868 751.94C205.996 751.78 206.156 751.636 206.332 751.508C206.636 751.268 207.068 751.06 207.628 751.06C207.82 751.06 207.98 751.092 208.092 751.108L208.268 751.14V753.38L208.044 753.3C207.9 753.252 207.708 753.22 207.468 753.22C206.652 753.22 206.108 753.78 206.108 754.74V758.5H203.948ZM209.386 758.5V748.42H211.546V754.1L213.546 751.14H216.026L213.546 754.66L216.266 758.5H213.786L211.546 755.22V758.5H209.386ZM216.425 754.82C216.425 752.66 218.105 750.98 220.185 750.98C222.265 750.98 223.945 752.66 223.945 754.82C223.945 756.98 222.265 758.66 220.185 758.66C218.105 758.66 216.425 756.98 216.425 754.82ZM221.785 754.82C221.785 753.684 221.081 752.98 220.185 752.98C219.289 752.98 218.585 753.684 218.585 754.82C218.585 755.956 219.289 756.66 220.185 756.66C221.081 756.66 221.785 755.956 221.785 754.82ZM225.15 755.46V751.14H227.31V755.06C227.31 756.02 227.854 756.58 228.67 756.58C229.486 756.58 230.03 756.02 230.03 755.06V751.14H232.19V758.5H230.59L230.27 757.78C230.094 757.924 229.886 758.068 229.662 758.18C229.278 758.388 228.75 758.58 228.11 758.58C226.366 758.58 225.15 757.38 225.15 755.46ZM234.432 755.86V753.14H233.312V751.3H233.872C234.464 751.3 234.752 751.012 234.752 750.42V749.38H236.592V751.14H238.112V753.14H236.592V755.54C236.592 756.18 236.992 756.58 237.552 756.58C237.728 756.58 237.84 756.564 237.952 756.548L238.112 756.5V758.42C238.032 758.452 237.936 758.484 237.824 758.5C237.616 758.548 237.36 758.58 237.072 758.58C235.392 758.58 234.432 757.636 234.432 755.86Z" fill="white"/>
<path d="M16.49 334.34H17.82C17.82 335.334 18.38 335.88 19.5 335.88C20.69 335.88 21.25 335.334 21.25 334.62C21.25 332.66 16.56 333.64 16.56 330.56C16.56 329.286 17.75 328.11 19.5 328.11C21.18 328.11 22.37 329.314 22.37 330.84H21.04C21.04 329.93 20.41 329.3 19.5 329.3C18.52 329.3 17.89 329.93 17.89 330.56C17.89 332.38 22.58 331.4 22.58 334.62C22.58 335.894 21.39 337.07 19.5 337.07C17.61 337.07 16.49 335.95 16.49 334.34ZM27.9 335.18H29.23C28.824 336.23 27.97 337.07 26.5 337.07C24.82 337.07 23.49 335.74 23.49 333.85C23.49 331.96 24.806 330.63 26.43 330.63C28.054 330.63 29.37 331.96 29.37 333.85C29.37 334.004 29.342 334.144 29.328 334.242L29.3 334.41H24.82C24.89 335.194 25.59 335.88 26.5 335.88C27.27 335.88 27.69 335.46 27.9 335.18ZM24.82 333.36H28.18C28.026 332.45 27.424 331.82 26.43 331.82C25.59 331.82 24.974 332.45 24.82 333.36ZM31.2633 334.9V331.89H30.1433V330.7H30.6333C31.1233 330.7 31.4733 330.35 31.4733 329.86V329.02H32.5233V330.7H33.9233V331.89H32.5233V334.9C32.5233 335.46 32.9433 335.88 33.5033 335.88C33.6013 335.88 33.6993 335.866 33.7973 335.852L33.9233 335.81V336.93C33.8673 336.958 33.7973 336.986 33.7273 337C33.5873 337.042 33.4193 337.07 33.2233 337.07C32.1033 337.07 31.2633 336.23 31.2633 334.9ZM45.1889 337L44.8389 336.16C44.6569 336.342 44.4329 336.496 44.1809 336.622C43.7469 336.846 43.1169 337.07 42.3189 337.07C40.0789 337.07 38.1189 335.11 38.1189 332.59C38.1189 330.07 40.0789 328.11 42.3189 328.11C44.2789 328.11 45.6929 329.524 46.0989 331.05H44.6989C44.3909 330.14 43.6069 329.3 42.3189 329.3C40.8629 329.3 39.4489 330.686 39.4489 332.59C39.4489 334.494 40.8629 335.88 42.3189 335.88C43.7049 335.88 44.6849 334.886 44.9089 333.71H42.2489V332.45H46.1689V337H45.1889ZM50.5078 335.88C51.4178 335.88 52.2578 335.04 52.2578 333.85C52.2578 332.66 51.4178 331.82 50.5078 331.82C49.5978 331.82 48.7578 332.66 48.7578 333.85C48.7578 335.04 49.5978 335.88 50.5078 335.88ZM50.5078 337.07C48.8278 337.07 47.4978 335.74 47.4978 333.85C47.4978 331.96 48.8278 330.63 50.5078 330.63C52.1878 330.63 53.5178 331.96 53.5178 333.85C53.5178 335.74 52.1878 337.07 50.5078 337.07ZM58.8378 337L58.5578 336.37C58.4318 336.496 58.2918 336.622 58.1238 336.72C57.8298 336.902 57.3678 337.07 56.7378 337.07C55.3378 337.07 54.5678 336.3 54.5678 335.18C54.5678 333.92 55.4078 333.08 58.4878 333.08V332.87C58.4878 332.24 58.0818 331.82 57.2978 331.82C56.4578 331.82 56.1078 332.156 56.0378 332.59H54.7778C54.8478 331.47 55.7438 330.63 57.2978 330.63C58.7678 330.63 59.7478 331.61 59.7478 332.87V337H58.8378ZM58.4878 334.536V334.2C56.2478 334.2 55.8278 334.62 55.8278 335.25C55.8278 335.6 56.1778 335.95 56.8078 335.95C57.8718 335.95 58.4878 335.32 58.4878 334.536ZM61.4256 337V328.18H62.6856V337H61.4256Z" fill="white"/>
<path d="M88 332C88 333.582 87.5308 335.129 86.6518 336.445C85.7727 337.76 84.5233 338.786 83.0615 339.391C81.5997 339.997 79.9911 340.155 78.4393 339.846C76.8874 339.538 75.462 338.776 74.3431 337.657C73.2243 336.538 72.4624 335.113 72.1537 333.561C71.845 332.009 72.0035 330.4 72.609 328.939C73.2145 327.477 74.2398 326.227 75.5554 325.348C76.871 324.469 78.4178 324 80 324C82.121 324.002 84.1545 324.846 85.6543 326.346C87.1541 327.845 87.9977 329.879 88 332ZM81.3333 332C81.3333 331.646 81.1929 331.307 80.9428 331.057C80.6928 330.807 80.3536 330.667 80 330.667H78.6667V332H80V336.667H81.3333V332ZM80 327.333C79.8022 327.333 79.6089 327.392 79.4444 327.502C79.28 327.612 79.1518 327.768 79.0761 327.951C79.0004 328.133 78.9806 328.334 79.0192 328.528C79.0578 328.722 79.153 328.901 79.2929 329.04C79.4327 329.18 79.6109 329.276 79.8049 329.314C79.9989 329.353 80.2 329.333 80.3827 329.257C80.5654 329.182 80.7216 329.053 80.8315 328.889C80.9414 328.724 81 328.531 81 328.333C81 328.068 80.8946 327.814 80.7071 327.626C80.5196 327.439 80.2652 327.333 80 327.333Z" fill="#A1A1AA"/>
<rect x="16.5" y="349.5" width="342" height="41" rx="3.5" stroke="#52525B"/>
<path d="M24.56 374.5V373.52L28.06 369.74C28.214 369.572 28.354 369.404 28.48 369.222C28.69 368.9 28.9 368.522 28.9 368.13C28.9 367.346 28.354 366.8 27.36 366.8C26.45 366.8 25.82 367.43 25.82 368.34H24.49C24.49 366.73 25.61 365.61 27.36 365.61C29.11 365.61 30.23 366.73 30.23 368.2C30.23 368.76 29.922 369.348 29.6 369.782C29.418 370.034 29.208 370.272 28.97 370.51L26.464 373.24H30.23V374.5H24.56ZM34.7111 374.5V368.2H35.6211L35.9011 368.83C36.0131 368.704 36.1531 368.578 36.3071 368.48C36.5731 368.312 36.9511 368.13 37.4411 368.13C38.0431 368.13 38.4631 368.382 38.7571 368.62C38.9251 368.774 39.0651 368.928 39.1911 369.11C39.3171 368.928 39.4851 368.774 39.6671 368.62C39.9891 368.382 40.4511 368.13 41.0811 368.13C42.2571 368.13 43.2511 369.096 43.2511 370.72V374.5H41.9911V370.72C41.9911 369.88 41.4311 369.32 40.8011 369.32C40.1711 369.32 39.6111 369.88 39.6111 370.72V374.5H38.3511V370.72C38.3511 369.88 37.7911 369.32 37.1611 369.32C36.5311 369.32 35.9711 369.88 35.9711 370.72V374.5H34.7111ZM47.5156 373.38C48.4256 373.38 49.2656 372.54 49.2656 371.35C49.2656 370.16 48.4256 369.32 47.5156 369.32C46.6056 369.32 45.7656 370.16 45.7656 371.35C45.7656 372.54 46.6056 373.38 47.5156 373.38ZM47.5156 374.57C45.8356 374.57 44.5056 373.24 44.5056 371.35C44.5056 369.46 45.8356 368.13 47.5156 368.13C49.1956 368.13 50.5256 369.46 50.5256 371.35C50.5256 373.24 49.1956 374.57 47.5156 374.57ZM51.8556 374.5V368.2H52.7656L53.0456 368.83C53.1716 368.704 53.3116 368.578 53.4796 368.48C53.7736 368.312 54.2356 368.13 54.8656 368.13C56.2656 368.13 57.3856 369.25 57.3856 370.86V374.5H56.1256V370.86C56.1256 370.034 55.4396 369.32 54.6556 369.32C53.8016 369.32 53.1156 370.034 53.1156 370.86V374.5H51.8556ZM59.5523 372.4V369.39H58.4323V368.2H58.9223C59.4123 368.2 59.7623 367.85 59.7623 367.36V366.52H60.8123V368.2H62.2123V369.39H60.8123V372.4C60.8123 372.96 61.2323 373.38 61.7923 373.38C61.8903 373.38 61.9883 373.366 62.0863 373.352L62.2123 373.31V374.43C62.1563 374.458 62.0863 374.486 62.0163 374.5C61.8763 374.542 61.7083 374.57 61.5123 374.57C60.3923 374.57 59.5523 373.73 59.5523 372.4ZM63.7518 374.5V365.68H65.0118V368.83C65.1378 368.704 65.2918 368.578 65.4598 368.48C65.7538 368.312 66.2018 368.13 66.7618 368.13C68.1618 368.13 69.2818 369.25 69.2818 370.86V374.5H68.0218V370.86C68.0218 370.034 67.3358 369.32 66.5518 369.32C65.6978 369.32 65.0118 370.034 65.0118 370.86V374.5H63.7518ZM70.5369 372.47H71.7969C71.8669 373.03 72.2029 373.38 72.9169 373.38C73.7009 373.38 74.0369 373.044 74.0369 372.61C74.0369 371.49 70.6769 372.246 70.6769 370.02C70.6769 368.97 71.5169 368.13 72.8469 368.13C74.3169 368.13 75.0869 368.9 75.1569 370.09H73.8969C73.8269 369.656 73.4769 369.32 72.8469 369.32C72.2169 369.32 71.8669 369.67 71.8669 370.02C71.8669 371.14 75.2269 370.384 75.2269 372.61C75.2269 373.73 74.3869 374.57 72.9169 374.57C71.3629 374.57 70.6069 373.814 70.5369 372.47Z" fill="#C6C6C6"/>
<path d="M332 367H346L339.707 373.293C339.519 373.48 339.265 373.586 339 373.586C338.735 373.586 338.481 373.48 338.293 373.293L332 367Z" fill="#A1A1AA"/>
<path d="M44.9996 65H34.9996L38.2926 61.707L36.8786 60.293L32.5856 64.586C32.2106 64.961 32 65.4696 32 66C32 66.5303 32.2106 67.0389 32.5856 67.414L36.8786 71.707L38.2926 70.293L34.9996 67H44.9996V65Z" fill="white"/>
</g>
<defs>
<linearGradient id="paint0_linear_234_2683" x1="418.527" y1="-580.714" x2="-860.493" y2="418.816" gradientUnits="userSpaceOnUse">
<stop offset="0.226599" stop-color="#353A40"/>
<stop offset="0.697917" stop-color="#121416"/>
</linearGradient>
<radialGradient id="paint1_radial_234_2683" cx="0" cy="0" r="1" gradientUnits="userSpaceOnUse" gradientTransform="translate(92.0729 47.4583) rotate(90) scale(88.5417 29.8649)">
<stop stop-color="#EA8945"/>
<stop offset="0.974245" stop-color="#161512"/>
</radialGradient>
<linearGradient id="paint2_linear_234_2683" x1="66.8084" y1="149.506" x2="117" y2="110.808" gradientUnits="userSpaceOnUse">
<stop stop-color="#FFA05C"/>
<stop offset="1" stop-color="#F06500"/>
</linearGradient>
<linearGradient id="paint3_linear_234_2683" x1="81.9298" y1="133.701" x2="91.7175" y2="119.866" gradientUnits="userSpaceOnUse">
<stop stop-color="#FFA05C"/>
<stop offset="1" stop-color="#F06500"/>
</linearGradient>
<linearGradient id="paint4_linear_234_2683" x1="83.5958" y1="143.701" x2="93.3836" y2="129.866" gradientUnits="userSpaceOnUse">
<stop stop-color="#FFA05C"/>
<stop offset="1" stop-color="#F06500"/>
</linearGradient>
<linearGradient id="paint5_linear_234_2683" x1="67.3123" y1="182.092" x2="80.5187" y2="152.744" gradientUnits="userSpaceOnUse">
<stop stop-color="#FFA05C"/>
<stop offset="1" stop-color="#F06500"/>
</linearGradient>
<radialGradient id="paint6_radial_234_2683" cx="0" cy="0" r="1" gradientUnits="userSpaceOnUse" gradientTransform="translate(188.073 47.4583) rotate(90) scale(88.5417 29.8649)">
<stop stop-color="#EA8945"/>
<stop offset="0.974245" stop-color="#161512"/>
</radialGradient>
<radialGradient id="paint7_radial_234_2683" cx="0" cy="0" r="1" gradientUnits="userSpaceOnUse" gradientTransform="translate(284.073 47.4583) rotate(90) scale(88.5417 29.8649)">
<stop stop-color="#EA8945"/>
<stop offset="0.974245" stop-color="#161512"/>
</radialGradient>
<radialGradient id="paint8_radial_234_2683" cx="0" cy="0" r="1" gradientUnits="userSpaceOnUse" gradientTransform="translate(91.2187 319.167) rotate(90) scale(155.833 89.5948)">
<stop stop-color="#EA8945"/>
<stop offset="0.974245" stop-color="#161512"/>
</radialGradient>
<linearGradient id="paint9_linear_234_2683" x1="152.383" y1="426.947" x2="24.004" y2="529.063" gradientUnits="userSpaceOnUse">
<stop offset="0.0709612" stop-color="#505962"/>
<stop offset="0.507086" stop-opacity="0"/>
<stop offset="1"/>
</linearGradient>
<radialGradient id="paint10_radial_234_2683" cx="0" cy="0" r="1" gradientUnits="userSpaceOnUse" gradientTransform="translate(91.2187 421.167) rotate(90) scale(155.833 89.5948)">
<stop stop-color="#EA8945"/>
<stop offset="0.974245" stop-color="#161512"/>
</radialGradient>
<linearGradient id="paint11_linear_234_2683" x1="152.383" y1="528.947" x2="24.004" y2="631.063" gradientUnits="userSpaceOnUse">
<stop offset="0.0709612" stop-color="#505962"/>
<stop offset="0.507086" stop-opacity="0"/>
<stop offset="1"/>
</linearGradient>
<radialGradient id="paint12_radial_234_2683" cx="0" cy="0" r="1" gradientUnits="userSpaceOnUse" gradientTransform="translate(284.219 421.167) rotate(90) scale(155.833 89.5948)">
<stop stop-color="#EA8945"/>
<stop offset="0.974245" stop-color="#161512"/>
</radialGradient>
<linearGradient id="paint13_linear_234_2683" x1="345.383" y1="528.947" x2="217.004" y2="631.063" gradientUnits="userSpaceOnUse">
<stop offset="0.0709612" stop-color="#505962"/>
<stop offset="0.507086" stop-opacity="0"/>
<stop offset="1"/>
</linearGradient>
<radialGradient id="paint14_radial_234_2683" cx="0" cy="0" r="1" gradientUnits="userSpaceOnUse" gradientTransform="translate(284.219 319.167) rotate(90) scale(155.833 89.5948)">
<stop stop-color="#EA8945"/>
<stop offset="0.974245" stop-color="#161512"/>
</radialGradient>
<linearGradient id="paint15_linear_234_2683" x1="345.383" y1="426.947" x2="217.004" y2="529.063" gradientUnits="userSpaceOnUse">
<stop offset="0.0709612" stop-color="#505962"/>
<stop offset="0.507086" stop-opacity="0"/>
<stop offset="1"/>
</linearGradient>
<linearGradient id="paint16_linear_234_2683" x1="14.6935" y1="767.506" x2="33.7446" y2="667.332" gradientUnits="userSpaceOnUse">
<stop stop-color="#FFA05C"/>
<stop offset="1" stop-color="#F06500"/>
</linearGradient>
<linearGradient id="paint17_linear_234_2683" x1="-81.9885" y1="813.674" x2="-47.5935" y2="668.781" gradientUnits="userSpaceOnUse">
<stop stop-color="white"/>
<stop offset="1" stop-color="#CD5B0A"/>
</linearGradient>
<clipPath id="clip0_234_2683">
<rect width="375" height="813" fill="white"/>
</clipPath>
<clipPath id="clip1_234_2683">
<rect width="375" height="44" fill="white"/>
</clipPath>
<clipPath id="clip2_234_2683">
<rect width="20" height="20" fill="white" transform="translate(82 126)"/>
</clipPath>
<clipPath id="clip3_234_2683">
<rect width="20" height="20" fill="white" transform="translate(274 126)"/>
</clipPath>
</defs>
</svg>
