<svg width="375" height="813" viewBox="0 0 375 813" fill="none" xmlns="http://www.w3.org/2000/svg">
<g clip-path="url(#clip0_234_3813)">
<rect width="375" height="813" fill="url(#paint0_linear_234_3813)"/>
<rect x="121" y="800" width="134" height="5" rx="2.5" fill="white"/>
<g clip-path="url(#clip1_234_3813)">
<path opacity="0.35" d="M338.667 17.833H355.333C356.53 17.833 357.5 18.8034 357.5 20V26C357.5 27.1965 356.53 28.166 355.333 28.166H338.667C337.47 28.166 336.5 27.1965 336.5 26V20L336.511 19.7783C336.622 18.6857 337.545 17.833 338.667 17.833Z" fill="white" stroke="white"/>
<path opacity="0.4" d="M359 20.9995V24.9995C359.805 24.6607 360.328 23.8726 360.328 22.9995C360.328 22.1264 359.805 21.3383 359 20.9995Z" fill="white"/>
<path d="M338 20.6663C338 19.93 338.597 19.333 339.333 19.333H354.667C355.403 19.333 356 19.93 356 20.6663V25.333C356 26.0694 355.403 26.6663 354.667 26.6663H339.333C338.597 26.6663 338 26.0694 338 25.333V20.6663Z" fill="white"/>
<path fill-rule="evenodd" clip-rule="evenodd" d="M323.33 19.6079C325.546 19.608 327.677 20.4594 329.283 21.9862C329.404 22.1041 329.597 22.1026 329.716 21.9829L330.872 20.8162C330.933 20.7555 330.966 20.6733 330.966 20.5877C330.965 20.5021 330.931 20.4202 330.87 20.3602C326.655 16.3207 320.005 16.3207 315.79 20.3602C315.729 20.4202 315.694 20.502 315.693 20.5876C315.693 20.6732 315.726 20.7555 315.787 20.8162L316.943 21.9829C317.062 22.1028 317.255 22.1043 317.376 21.9862C318.982 20.4593 321.114 19.6079 323.33 19.6079ZM323.33 23.4036C324.547 23.4035 325.721 23.856 326.624 24.6732C326.746 24.7892 326.938 24.7867 327.057 24.6676L328.212 23.5009C328.273 23.4397 328.307 23.3567 328.306 23.2704C328.305 23.1842 328.269 23.1018 328.207 23.0419C325.459 20.4855 321.203 20.4855 318.455 23.0419C318.393 23.1018 318.357 23.1842 318.357 23.2705C318.356 23.3568 318.39 23.4398 318.451 23.5009L319.605 24.6676C319.724 24.7867 319.916 24.7892 320.038 24.6732C320.94 23.8566 322.113 23.4041 323.33 23.4036ZM325.643 25.9574C325.645 26.0439 325.611 26.1273 325.549 26.1879L323.552 28.2036C323.493 28.2628 323.413 28.2961 323.33 28.2961C323.247 28.2961 323.167 28.2628 323.108 28.2036L321.111 26.1879C321.049 26.1272 321.015 26.0438 321.017 25.9573C321.019 25.8708 321.056 25.7889 321.12 25.7309C322.396 24.652 324.264 24.652 325.54 25.7309C325.604 25.7889 325.641 25.8709 325.643 25.9574Z" fill="white"/>
<path fill-rule="evenodd" clip-rule="evenodd" d="M309.666 17.6665H308.666C308.114 17.6665 307.666 18.1142 307.666 18.6665V27.3332C307.666 27.8855 308.114 28.3332 308.666 28.3332H309.666C310.218 28.3332 310.666 27.8855 310.666 27.3332V18.6665C310.666 18.1142 310.218 17.6665 309.666 17.6665ZM303.999 19.9998H304.999C305.552 19.9998 305.999 20.4476 305.999 20.9998V27.3332C305.999 27.8855 305.552 28.3332 304.999 28.3332H303.999C303.447 28.3332 302.999 27.8855 302.999 27.3332V20.9998C302.999 20.4476 303.447 19.9998 303.999 19.9998ZM300.333 22.3332H299.333C298.78 22.3332 298.333 22.7809 298.333 23.3332V27.3332C298.333 27.8855 298.78 28.3332 299.333 28.3332H300.333C300.885 28.3332 301.333 27.8855 301.333 27.3332V23.3332C301.333 22.7809 300.885 22.3332 300.333 22.3332ZM295.666 24.3332H294.666C294.114 24.3332 293.666 24.7809 293.666 25.3332V27.3332C293.666 27.8855 294.114 28.3332 294.666 28.3332H295.666C296.218 28.3332 296.666 27.8855 296.666 27.3332V25.3332C296.666 24.7809 296.218 24.3332 295.666 24.3332Z" fill="white"/>
<path d="M37.3203 28.2563C40.0083 28.2563 41.605 26.1543 41.605 22.5947C41.605 21.2544 41.3486 20.1265 40.8579 19.2549C40.1475 17.8999 38.9243 17.1675 37.3789 17.1675C35.0791 17.1675 33.4531 18.7129 33.4531 20.8809C33.4531 22.917 34.918 24.3965 36.9321 24.3965C38.1699 24.3965 39.1733 23.8179 39.6714 22.8145H39.6934C39.6934 22.8145 39.7227 22.8145 39.73 22.8145C39.7446 22.8145 39.7959 22.8145 39.7959 22.8145C39.7959 25.2314 38.8804 26.6743 37.335 26.6743C36.4268 26.6743 35.7236 26.1763 35.4819 25.3779H33.5996C33.9146 27.1138 35.3867 28.2563 37.3203 28.2563ZM37.3862 22.895C36.1704 22.895 35.3062 22.0308 35.3062 20.8223C35.3062 19.6431 36.2144 18.7422 37.3936 18.7422C38.5728 18.7422 39.481 19.6577 39.481 20.8516C39.481 22.0308 38.5947 22.895 37.3862 22.895Z" fill="white"/>
<path d="M44.6961 28.1538C45.3919 28.1538 45.868 27.6558 45.868 26.9966C45.868 26.3301 45.3919 25.8394 44.6961 25.8394C44.0076 25.8394 43.5242 26.3301 43.5242 26.9966C43.5242 27.6558 44.0076 28.1538 44.6961 28.1538ZM44.6961 22.6606C45.3919 22.6606 45.868 22.1699 45.868 21.5107C45.868 20.8442 45.3919 20.3535 44.6961 20.3535C44.0076 20.3535 43.5242 20.8442 43.5242 21.5107C43.5242 22.1699 44.0076 22.6606 44.6961 22.6606Z" fill="white"/>
<path d="M52.7237 28H54.5328V26.0298H55.961V24.4331H54.5328V17.4312H51.8668C49.9991 20.2437 48.5123 22.5947 47.5602 24.3452V26.0298H52.7237V28ZM49.3106 24.3672C50.5411 22.1992 51.6397 20.4634 52.6505 18.9692H52.753V24.4771H49.3106V24.3672Z" fill="white"/>
<path d="M59.9896 28H61.8793V17.4312H59.997L57.2357 19.3647V21.1812L59.8651 19.3354H59.9896V28Z" fill="white"/>
</g>
<path d="M158.932 67.58H160.642C160.642 68.858 161.362 69.56 162.802 69.56C164.332 69.56 165.052 68.858 165.052 67.94C165.052 65.42 159.022 66.68 159.022 62.72C159.022 61.082 160.552 59.57 162.802 59.57C164.962 59.57 166.492 61.118 166.492 63.08H164.782C164.782 61.91 163.972 61.1 162.802 61.1C161.542 61.1 160.732 61.91 160.732 62.72C160.732 65.06 166.762 63.8 166.762 67.94C166.762 69.578 165.232 71.09 162.802 71.09C160.372 71.09 158.932 69.65 158.932 67.58ZM173.602 68.66H175.312C174.79 70.01 173.692 71.09 171.802 71.09C169.642 71.09 167.932 69.38 167.932 66.95C167.932 64.52 169.624 62.81 171.712 62.81C173.8 62.81 175.492 64.52 175.492 66.95C175.492 67.148 175.456 67.328 175.438 67.454L175.402 67.67H169.642C169.732 68.678 170.632 69.56 171.802 69.56C172.792 69.56 173.332 69.02 173.602 68.66ZM169.642 66.32H173.962C173.764 65.15 172.99 64.34 171.712 64.34C170.632 64.34 169.84 65.15 169.642 66.32ZM177.926 68.3V64.43H176.486V62.9H177.116C177.746 62.9 178.196 62.45 178.196 61.82V60.74H179.546V62.9H181.346V64.43H179.546V68.3C179.546 69.02 180.086 69.56 180.806 69.56C180.932 69.56 181.058 69.542 181.184 69.524L181.346 69.47V70.91C181.274 70.946 181.184 70.982 181.094 71C180.914 71.054 180.698 71.09 180.446 71.09C179.006 71.09 177.926 70.01 177.926 68.3ZM183.955 68.3V64.43H182.515V62.9H183.145C183.775 62.9 184.225 62.45 184.225 61.82V60.74H185.575V62.9H187.375V64.43H185.575V68.3C185.575 69.02 186.115 69.56 186.835 69.56C186.961 69.56 187.087 69.542 187.213 69.524L187.375 69.47V70.91C187.303 70.946 187.213 70.982 187.123 71C186.943 71.054 186.727 71.09 186.475 71.09C185.035 71.09 183.955 70.01 183.955 68.3ZM189.265 71V62.9H190.885V71H189.265ZM190.075 59.66C190.633 59.66 191.065 60.092 191.065 60.65C191.065 61.208 190.633 61.64 190.075 61.64C189.517 61.64 189.085 61.208 189.085 60.65C189.085 60.092 189.517 59.66 190.075 59.66ZM193.044 71V62.9H194.214L194.574 63.71C194.736 63.548 194.916 63.386 195.132 63.26C195.51 63.044 196.104 62.81 196.914 62.81C198.714 62.81 200.154 64.25 200.154 66.32V71H198.534V66.32C198.534 65.258 197.652 64.34 196.644 64.34C195.546 64.34 194.664 65.258 194.664 66.32V71H193.044ZM202.13 71.54H203.75C204.02 72.098 204.56 72.62 205.64 72.62C206.918 72.62 207.71 71.81 207.71 70.64V69.83C207.548 69.992 207.368 70.154 207.152 70.28C206.774 70.514 206.234 70.73 205.46 70.73C203.48 70.73 201.77 69.002 201.77 66.77C201.77 64.538 203.48 62.81 205.46 62.81C206.27 62.81 206.864 63.044 207.242 63.26C207.458 63.386 207.638 63.548 207.8 63.71L208.16 62.9H209.33V70.64C209.33 72.62 207.89 74.06 205.64 74.06C203.678 74.06 202.472 72.89 202.13 71.54ZM205.658 69.2C206.81 69.2 207.89 68.12 207.89 66.77C207.89 65.42 206.81 64.34 205.64 64.34C204.47 64.34 203.39 65.42 203.39 66.77C203.39 68.12 204.47 69.2 205.658 69.2ZM211.033 68.39H212.653C212.743 69.11 213.175 69.56 214.093 69.56C215.101 69.56 215.533 69.128 215.533 68.57C215.533 67.13 211.213 68.102 211.213 65.24C211.213 63.89 212.293 62.81 214.003 62.81C215.893 62.81 216.883 63.8 216.973 65.33H215.353C215.263 64.772 214.813 64.34 214.003 64.34C213.193 64.34 212.743 64.79 212.743 65.24C212.743 66.68 217.063 65.708 217.063 68.57C217.063 70.01 215.983 71.09 214.093 71.09C212.095 71.09 211.123 70.118 211.033 68.39Z" fill="#A1A1AA"/>
<path d="M44.9996 65H34.9996L38.2926 61.707L36.8786 60.293L32.5856 64.586C32.2106 64.961 32 65.4696 32 66C32 66.5303 32.2106 67.0389 32.5856 67.414L36.8786 71.707L38.2926 70.293L34.9996 67H44.9996V65Z" fill="white"/>
<rect x="121" y="800" width="134" height="5" rx="2.5" fill="white"/>
<g filter="url(#filter0_ddd_234_3813)">
<mask id="path-12-outside-1_234_3813" maskUnits="userSpaceOnUse" x="33.0987" y="104.964" width="47.8131" height="47.8131" fill="black">
<rect fill="white" x="33.0987" y="104.964" width="47.8131" height="47.8131"/>
<path d="M34.7741 129.39C34.5585 117.039 44.3969 106.851 56.7488 106.635C69.1006 106.419 79.2885 116.258 79.5041 128.61C79.7198 140.961 69.8814 151.149 57.5295 151.365C45.1777 151.581 34.9897 141.742 34.7741 129.39ZM72.4045 128.734C72.2573 120.303 65.3035 113.587 56.8727 113.735C48.4419 113.882 41.7267 120.836 41.8738 129.266C42.021 137.697 48.9748 144.412 57.4056 144.265C65.8364 144.118 72.5516 137.164 72.4045 128.734Z"/>
</mask>
<path d="M34.7741 129.39C34.5585 117.039 44.3969 106.851 56.7488 106.635C69.1006 106.419 79.2885 116.258 79.5041 128.61C79.7198 140.961 69.8814 151.149 57.5295 151.365C45.1777 151.581 34.9897 141.742 34.7741 129.39ZM72.4045 128.734C72.2573 120.303 65.3035 113.587 56.8727 113.735C48.4419 113.882 41.7267 120.836 41.8738 129.266C42.021 137.697 48.9748 144.412 57.4056 144.265C65.8364 144.118 72.5516 137.164 72.4045 128.734Z" fill="url(#paint1_linear_234_3813)"/>
<path d="M34.7741 129.39C34.5585 117.039 44.3969 106.851 56.7488 106.635C69.1006 106.419 79.2885 116.258 79.5041 128.61C79.7198 140.961 69.8814 151.149 57.5295 151.365C45.1777 151.581 34.9897 141.742 34.7741 129.39ZM72.4045 128.734C72.2573 120.303 65.3035 113.587 56.8727 113.735C48.4419 113.882 41.7267 120.836 41.8738 129.266C42.021 137.697 48.9748 144.412 57.4056 144.265C65.8364 144.118 72.5516 137.164 72.4045 128.734Z" stroke="url(#paint2_linear_234_3813)" stroke-width="2" mask="url(#path-12-outside-1_234_3813)"/>
</g>
<g filter="url(#filter1_di_234_3813)">
<circle cx="57" cy="129" r="25" transform="rotate(-90 57 129)" fill="url(#paint3_linear_234_3813)"/>
<circle cx="57" cy="129" r="24.5" transform="rotate(-90 57 129)" stroke="url(#paint4_linear_234_3813)" stroke-opacity="0.4"/>
</g>
<g filter="url(#filter2_df_234_3813)">
<circle cx="57" cy="129" r="21" transform="rotate(-90 57 129)" fill="url(#paint5_linear_234_3813)"/>
</g>
<g filter="url(#filter3_ddf_234_3813)">
<circle cx="57" cy="129" r="13" transform="rotate(-90 57 129)" fill="url(#paint6_linear_234_3813)"/>
</g>
<g clip-path="url(#clip2_234_3813)">
<path d="M60.3692 130.667H53.6308C52.5357 130.668 51.4857 131.104 50.7114 131.878C49.937 132.653 49.5013 133.703 49.5 134.798V139H64.5V134.798C64.4987 133.703 64.063 132.653 63.2886 131.878C62.5143 131.104 61.4643 130.668 60.3692 130.667Z" fill="#FFA05C"/>
<path d="M57 129C59.7614 129 62 126.761 62 124C62 121.239 59.7614 119 57 119C54.2386 119 52 121.239 52 124C52 126.761 54.2386 129 57 129Z" fill="#FFA05C"/>
</g>
<path d="M98.4844 133.5L102.324 123.42H103.444L107.284 133.5H105.924L104.964 131.02H100.804L99.8444 133.5H98.4844ZM101.204 129.9H104.564L102.884 125.5L101.204 129.9ZM113.121 130.94H114.321C113.985 132.396 112.801 133.58 111.201 133.58C109.345 133.58 107.841 132.06 107.841 129.9C107.841 127.74 109.345 126.22 111.201 126.22C112.801 126.22 113.985 127.404 114.321 128.86H113.121C112.865 128.06 112.145 127.34 111.201 127.34C110.081 127.34 109.041 128.364 109.041 129.9C109.041 131.436 110.081 132.46 111.201 132.46C112.145 132.46 112.865 131.74 113.121 130.94ZM120.637 130.94H121.837C121.501 132.396 120.317 133.58 118.717 133.58C116.861 133.58 115.357 132.06 115.357 129.9C115.357 127.74 116.861 126.22 118.717 126.22C120.317 126.22 121.501 127.404 121.837 128.86H120.637C120.381 128.06 119.661 127.34 118.717 127.34C117.597 127.34 116.557 128.364 116.557 129.9C116.557 131.436 117.597 132.46 118.717 132.46C119.661 132.46 120.381 131.74 120.637 130.94ZM126.233 132.46C127.337 132.46 128.393 131.436 128.393 129.9C128.393 128.364 127.337 127.34 126.233 127.34C125.113 127.34 124.073 128.364 124.073 129.9C124.073 131.436 125.113 132.46 126.233 132.46ZM126.233 133.58C124.377 133.58 122.873 132.06 122.873 129.9C122.873 127.74 124.377 126.22 126.233 126.22C128.089 126.22 129.593 127.74 129.593 129.9C129.593 132.06 128.089 133.58 126.233 133.58ZM131.196 130.46V126.3H132.396V130.46C132.396 131.66 133.18 132.46 134.156 132.46C135.292 132.46 136.076 131.676 136.076 130.46V126.3H137.276V133.5H136.396L136.076 132.7C135.932 132.876 135.756 133.02 135.548 133.148C135.18 133.388 134.684 133.58 133.996 133.58C132.476 133.58 131.196 132.3 131.196 130.46ZM139.353 133.5V126.3H140.233L140.553 127.1C140.697 126.94 140.873 126.796 141.081 126.668C141.449 126.428 141.945 126.22 142.633 126.22C144.153 126.22 145.433 127.5 145.433 129.34V133.5H144.233V129.34C144.233 128.14 143.417 127.34 142.473 127.34C141.337 127.34 140.553 128.124 140.553 129.34V133.5H139.353ZM147.991 131.18V127.42H146.711V126.3H147.271C147.863 126.3 148.151 126.012 148.151 125.42V124.38H149.191V126.3H150.791V127.42H149.191V131.18C149.191 131.996 149.671 132.46 150.391 132.46C150.503 132.46 150.599 132.444 150.679 132.428L150.791 132.38V133.42C150.743 133.452 150.679 133.484 150.615 133.5C150.471 133.548 150.295 133.58 150.071 133.58C148.967 133.58 147.991 132.62 147.991 131.18Z" fill="white"/>
<line x1="-4.37114e-08" y1="176.5" x2="375" y2="176.5" stroke="url(#paint7_linear_234_3813)" stroke-opacity="0.4"/>
<line x1="-4.37114e-08" y1="176.5" x2="375" y2="176.5" stroke="url(#paint8_linear_234_3813)" stroke-opacity="0.4"/>
<g filter="url(#filter4_ddd_234_3813)">
<mask id="path-22-outside-2_234_3813" maskUnits="userSpaceOnUse" x="33.0987" y="200.964" width="47.8131" height="47.8131" fill="black">
<rect fill="white" x="33.0987" y="200.964" width="47.8131" height="47.8131"/>
<path d="M34.7741 225.39C34.5585 213.039 44.3969 202.851 56.7488 202.635C69.1006 202.419 79.2885 212.258 79.5041 224.61C79.7198 236.961 69.8814 247.149 57.5295 247.365C45.1777 247.581 34.9897 237.742 34.7741 225.39ZM72.4045 224.734C72.2573 216.303 65.3035 209.587 56.8727 209.735C48.4419 209.882 41.7267 216.836 41.8738 225.266C42.021 233.697 48.9748 240.412 57.4056 240.265C65.8364 240.118 72.5516 233.164 72.4045 224.734Z"/>
</mask>
<path d="M34.7741 225.39C34.5585 213.039 44.3969 202.851 56.7488 202.635C69.1006 202.419 79.2885 212.258 79.5041 224.61C79.7198 236.961 69.8814 247.149 57.5295 247.365C45.1777 247.581 34.9897 237.742 34.7741 225.39ZM72.4045 224.734C72.2573 216.303 65.3035 209.587 56.8727 209.735C48.4419 209.882 41.7267 216.836 41.8738 225.266C42.021 233.697 48.9748 240.412 57.4056 240.265C65.8364 240.118 72.5516 233.164 72.4045 224.734Z" fill="url(#paint9_linear_234_3813)"/>
<path d="M34.7741 225.39C34.5585 213.039 44.3969 202.851 56.7488 202.635C69.1006 202.419 79.2885 212.258 79.5041 224.61C79.7198 236.961 69.8814 247.149 57.5295 247.365C45.1777 247.581 34.9897 237.742 34.7741 225.39ZM72.4045 224.734C72.2573 216.303 65.3035 209.587 56.8727 209.735C48.4419 209.882 41.7267 216.836 41.8738 225.266C42.021 233.697 48.9748 240.412 57.4056 240.265C65.8364 240.118 72.5516 233.164 72.4045 224.734Z" stroke="url(#paint10_linear_234_3813)" stroke-width="2" mask="url(#path-22-outside-2_234_3813)"/>
</g>
<g filter="url(#filter5_i_234_3813)">
<circle cx="57" cy="225" r="25" transform="rotate(-90 57 225)" fill="url(#paint11_linear_234_3813)"/>
</g>
<circle cx="57" cy="225" r="24.5" transform="rotate(-90 57 225)" stroke="url(#paint12_linear_234_3813)" stroke-opacity="0.4"/>
<g filter="url(#filter6_df_234_3813)">
<circle cx="57" cy="225" r="21" transform="rotate(-90 57 225)" fill="url(#paint13_linear_234_3813)"/>
</g>
<g filter="url(#filter7_ddf_234_3813)">
<circle cx="57" cy="225" r="13" transform="rotate(-90 57 225)" fill="url(#paint14_linear_234_3813)"/>
</g>
<path d="M62.8327 221.667V220.833C62.8327 219.286 62.2181 217.803 61.1241 216.709C60.0302 215.615 58.5464 215 56.9993 215C55.4523 215 53.9685 215.615 52.8746 216.709C51.7806 217.803 51.166 219.286 51.166 220.833V221.667H48.666V232.5C48.666 233.163 48.9294 233.799 49.3982 234.268C49.8671 234.737 50.503 235 51.166 235H62.8327C63.4957 235 64.1316 234.737 64.6005 234.268C65.0693 233.799 65.3327 233.163 65.3327 232.5V221.667H62.8327ZM57.8327 230H56.166V226.667H57.8327V230ZM61.166 221.667H52.8327V220.833C52.8327 219.728 53.2717 218.668 54.0531 217.887C54.8345 217.106 55.8943 216.667 56.9993 216.667C58.1044 216.667 59.1642 217.106 59.9456 217.887C60.727 218.668 61.166 219.728 61.166 220.833V221.667Z" fill="#FFA05C"/>
<path d="M99.4831 229.5V219.42H102.923C104.667 219.42 106.123 220.86 106.123 222.54C106.123 224.22 104.667 225.66 102.923 225.66H100.763V229.5H99.4831ZM100.763 224.54H102.923C103.963 224.54 104.843 223.66 104.843 222.54C104.843 221.42 103.963 220.54 102.923 220.54H100.763V224.54ZM112.053 229.5L111.733 228.7C111.573 228.876 111.397 229.02 111.189 229.148C110.821 229.388 110.293 229.58 109.573 229.58C108.133 229.58 107.173 228.62 107.173 227.42C107.173 226.06 108.133 225.1 111.733 225.1V224.7C111.733 223.98 111.109 223.34 110.213 223.34C109.317 223.34 108.949 223.74 108.773 224.38H107.493C107.669 223.18 108.613 222.22 110.213 222.22C111.813 222.22 112.933 223.356 112.933 224.7V229.5H112.053ZM111.733 226.78V226.22C108.853 226.22 108.373 226.7 108.373 227.5C108.373 227.996 108.853 228.46 109.573 228.46C110.853 228.46 111.733 227.58 111.733 226.78ZM114.451 227.34H115.651C115.731 227.98 116.195 228.46 117.091 228.46C117.907 228.46 118.371 227.98 118.371 227.42C118.371 225.804 114.611 227.036 114.611 224.3C114.611 223.196 115.571 222.22 117.011 222.22C118.547 222.22 119.411 223.1 119.491 224.38H118.291C118.211 223.74 117.827 223.34 117.011 223.34C116.291 223.34 115.811 223.804 115.811 224.3C115.811 225.916 119.571 224.7 119.571 227.42C119.571 228.62 118.611 229.58 117.091 229.58C115.491 229.58 114.531 228.62 114.451 227.34ZM120.763 227.34H121.963C122.043 227.98 122.507 228.46 123.403 228.46C124.219 228.46 124.683 227.98 124.683 227.42C124.683 225.804 120.923 227.036 120.923 224.3C120.923 223.196 121.883 222.22 123.323 222.22C124.859 222.22 125.723 223.1 125.803 224.38H124.603C124.523 223.74 124.139 223.34 123.323 223.34C122.603 223.34 122.123 223.804 122.123 224.3C122.123 225.916 125.883 224.7 125.883 227.42C125.883 228.62 124.923 229.58 123.403 229.58C121.803 229.58 120.843 228.62 120.763 227.34ZM129.076 229.5L126.676 222.3H127.956L129.636 227.42L131.236 222.3H132.036L133.636 227.42L135.316 222.3H136.596L134.196 229.5H133.236L131.636 224.38L130.036 229.5H129.076ZM140.67 228.46C141.774 228.46 142.83 227.436 142.83 225.9C142.83 224.364 141.774 223.34 140.67 223.34C139.55 223.34 138.51 224.364 138.51 225.9C138.51 227.436 139.55 228.46 140.67 228.46ZM140.67 229.58C138.814 229.58 137.31 228.06 137.31 225.9C137.31 223.74 138.814 222.22 140.67 222.22C142.526 222.22 144.03 223.74 144.03 225.9C144.03 228.06 142.526 229.58 140.67 229.58ZM145.634 229.5V222.3H146.514L146.834 223.1C146.978 222.94 147.154 222.796 147.362 222.668C147.73 222.428 148.226 222.22 148.914 222.22H149.074V223.42H148.754C147.618 223.42 146.834 224.204 146.834 225.42V229.5H145.634ZM153.391 228.46C154.591 228.46 155.631 227.436 155.631 225.9C155.631 224.364 154.591 223.34 153.391 223.34C152.191 223.34 151.151 224.364 151.151 225.9C151.151 227.436 152.191 228.46 153.391 228.46ZM155.791 229.5L155.471 228.7C155.311 228.876 155.135 229.02 154.927 229.148C154.559 229.388 154.031 229.58 153.311 229.58C151.455 229.58 149.951 228.06 149.951 225.9C149.951 223.74 151.455 222.22 153.311 222.22C154.031 222.22 154.559 222.46 154.927 222.7C155.135 222.844 155.311 223.004 155.471 223.18V219.42H156.671V229.5H155.791Z" fill="white"/>
<line x1="-4.37114e-08" y1="272.5" x2="375" y2="272.5" stroke="url(#paint15_linear_234_3813)" stroke-opacity="0.4"/>
<line x1="-4.37114e-08" y1="272.5" x2="375" y2="272.5" stroke="url(#paint16_linear_234_3813)" stroke-opacity="0.4"/>
<g filter="url(#filter8_ddd_234_3813)">
<mask id="path-31-outside-3_234_3813" maskUnits="userSpaceOnUse" x="33.0987" y="296.964" width="47.8131" height="47.8131" fill="black">
<rect fill="white" x="33.0987" y="296.964" width="47.8131" height="47.8131"/>
<path d="M34.7741 321.39C34.5585 309.039 44.3969 298.851 56.7488 298.635C69.1006 298.419 79.2885 308.258 79.5041 320.61C79.7198 332.961 69.8814 343.149 57.5295 343.365C45.1777 343.581 34.9897 333.742 34.7741 321.39ZM72.4045 320.734C72.2573 312.303 65.3035 305.587 56.8727 305.735C48.4419 305.882 41.7267 312.836 41.8738 321.266C42.021 329.697 48.9748 336.412 57.4056 336.265C65.8364 336.118 72.5516 329.164 72.4045 320.734Z"/>
</mask>
<path d="M34.7741 321.39C34.5585 309.039 44.3969 298.851 56.7488 298.635C69.1006 298.419 79.2885 308.258 79.5041 320.61C79.7198 332.961 69.8814 343.149 57.5295 343.365C45.1777 343.581 34.9897 333.742 34.7741 321.39ZM72.4045 320.734C72.2573 312.303 65.3035 305.587 56.8727 305.735C48.4419 305.882 41.7267 312.836 41.8738 321.266C42.021 329.697 48.9748 336.412 57.4056 336.265C65.8364 336.118 72.5516 329.164 72.4045 320.734Z" fill="url(#paint17_linear_234_3813)"/>
<path d="M34.7741 321.39C34.5585 309.039 44.3969 298.851 56.7488 298.635C69.1006 298.419 79.2885 308.258 79.5041 320.61C79.7198 332.961 69.8814 343.149 57.5295 343.365C45.1777 343.581 34.9897 333.742 34.7741 321.39ZM72.4045 320.734C72.2573 312.303 65.3035 305.587 56.8727 305.735C48.4419 305.882 41.7267 312.836 41.8738 321.266C42.021 329.697 48.9748 336.412 57.4056 336.265C65.8364 336.118 72.5516 329.164 72.4045 320.734Z" stroke="url(#paint18_linear_234_3813)" stroke-width="2" mask="url(#path-31-outside-3_234_3813)"/>
</g>
<g filter="url(#filter9_i_234_3813)">
<circle cx="57" cy="321" r="25" transform="rotate(-90 57 321)" fill="url(#paint19_linear_234_3813)"/>
</g>
<circle cx="57" cy="321" r="24.5" transform="rotate(-90 57 321)" stroke="url(#paint20_linear_234_3813)" stroke-opacity="0.4"/>
<g filter="url(#filter10_df_234_3813)">
<circle cx="57" cy="321" r="21" transform="rotate(-90 57 321)" fill="url(#paint21_linear_234_3813)"/>
</g>
<g filter="url(#filter11_ddf_234_3813)">
<circle cx="57" cy="321" r="13" transform="rotate(-90 57 321)" fill="url(#paint22_linear_234_3813)"/>
</g>
<g clip-path="url(#clip3_234_3813)">
<path d="M67 321C67 322.978 66.4135 324.911 65.3147 326.556C64.2159 328.2 62.6541 329.482 60.8268 330.239C58.9996 330.996 56.9889 331.194 55.0491 330.808C53.1093 330.422 51.3275 329.47 49.9289 328.071C48.5304 326.673 47.578 324.891 47.1922 322.951C46.8063 321.011 47.0043 319 47.7612 317.173C48.5181 315.346 49.7998 313.784 51.4443 312.685C53.0888 311.586 55.0222 311 57 311C59.6513 311.003 62.1932 312.057 64.0679 313.932C65.9426 315.807 66.9971 318.349 67 321ZM57.8333 322.881C57.8229 322.591 57.889 322.303 58.0251 322.047C58.1611 321.791 58.3623 321.575 58.6083 321.421C59.1233 321.137 59.5541 320.722 59.8569 320.218C60.1598 319.715 60.324 319.14 60.333 318.552C60.3419 317.964 60.1951 317.384 59.9077 316.871C59.6202 316.358 59.2022 315.931 58.6961 315.632C58.19 315.332 57.6138 315.173 57.0259 315.168C56.438 315.163 55.8593 315.314 55.3486 315.606C54.8379 315.897 54.4134 316.318 54.118 316.826C53.8226 317.335 53.6669 317.912 53.6667 318.5H55.3333C55.3331 318.255 55.387 318.013 55.4912 317.791C55.5953 317.569 55.7471 317.372 55.9359 317.216C56.1246 317.059 56.3455 316.946 56.5829 316.885C56.8202 316.824 57.0682 316.815 57.3092 316.861C57.6384 316.925 57.941 317.085 58.1785 317.322C58.416 317.559 58.5776 317.861 58.6425 318.19C58.7081 318.535 58.6628 318.893 58.5131 319.211C58.3635 319.529 58.1171 319.791 57.8092 319.961C57.2993 320.256 56.878 320.683 56.5891 321.197C56.3002 321.71 56.1543 322.292 56.1667 322.881V323.5H57.8333V322.881ZM57.8333 325.167H56.1667V326.833H57.8333V325.167Z" fill="#FFA05C"/>
</g>
<path d="M99.5222 325.5V315.42H100.802V319.82H105.682V315.42H106.962V325.5H105.682V320.94H100.802V325.5H99.5222ZM114.002 323.58H115.282C114.802 324.62 113.842 325.58 112.242 325.58C110.322 325.58 108.802 324.06 108.802 321.9C108.802 319.74 110.418 318.22 112.162 318.22C113.922 318.22 115.442 319.644 115.442 321.82C115.442 322.028 115.41 322.172 115.394 322.284L115.362 322.46H110.082C110.162 323.5 111.106 324.46 112.242 324.46C113.186 324.46 113.762 323.916 114.002 323.58ZM110.082 321.42H114.242C114.066 320.22 113.202 319.34 112.162 319.34C111.122 319.34 110.258 320.22 110.082 321.42ZM117.128 325.5V315.42H118.328V325.5H117.128ZM123.765 324.46C124.965 324.46 126.005 323.436 126.005 321.9C126.005 320.364 124.965 319.34 123.765 319.34C122.565 319.34 121.525 320.364 121.525 321.9C121.525 323.436 122.565 324.46 123.765 324.46ZM120.485 328.06V318.3H121.365L121.685 319.1C121.829 318.94 122.021 318.796 122.229 318.668C122.597 318.428 123.125 318.22 123.845 318.22C125.701 318.22 127.205 319.74 127.205 321.9C127.205 324.06 125.701 325.58 123.845 325.58C123.125 325.58 122.597 325.34 122.229 325.1C122.021 324.956 121.829 324.796 121.685 324.62V328.06H120.485Z" fill="white"/>
<line x1="-4.37114e-08" y1="368.5" x2="375" y2="368.5" stroke="url(#paint23_linear_234_3813)" stroke-opacity="0.4"/>
<line x1="-4.37114e-08" y1="368.5" x2="375" y2="368.5" stroke="url(#paint24_linear_234_3813)" stroke-opacity="0.4"/>
<g filter="url(#filter12_ddd_234_3813)">
<mask id="path-40-outside-4_234_3813" maskUnits="userSpaceOnUse" x="33.0987" y="392.964" width="47.8131" height="47.8131" fill="black">
<rect fill="white" x="33.0987" y="392.964" width="47.8131" height="47.8131"/>
<path d="M34.7741 417.39C34.5585 405.039 44.3969 394.851 56.7488 394.635C69.1006 394.419 79.2885 404.258 79.5041 416.61C79.7198 428.961 69.8814 439.149 57.5295 439.365C45.1777 439.581 34.9897 429.742 34.7741 417.39ZM72.4045 416.734C72.2573 408.303 65.3035 401.587 56.8727 401.735C48.4419 401.882 41.7267 408.836 41.8738 417.266C42.021 425.697 48.9748 432.412 57.4056 432.265C65.8364 432.118 72.5516 425.164 72.4045 416.734Z"/>
</mask>
<path d="M34.7741 417.39C34.5585 405.039 44.3969 394.851 56.7488 394.635C69.1006 394.419 79.2885 404.258 79.5041 416.61C79.7198 428.961 69.8814 439.149 57.5295 439.365C45.1777 439.581 34.9897 429.742 34.7741 417.39ZM72.4045 416.734C72.2573 408.303 65.3035 401.587 56.8727 401.735C48.4419 401.882 41.7267 408.836 41.8738 417.266C42.021 425.697 48.9748 432.412 57.4056 432.265C65.8364 432.118 72.5516 425.164 72.4045 416.734Z" fill="url(#paint25_linear_234_3813)"/>
<path d="M34.7741 417.39C34.5585 405.039 44.3969 394.851 56.7488 394.635C69.1006 394.419 79.2885 404.258 79.5041 416.61C79.7198 428.961 69.8814 439.149 57.5295 439.365C45.1777 439.581 34.9897 429.742 34.7741 417.39ZM72.4045 416.734C72.2573 408.303 65.3035 401.587 56.8727 401.735C48.4419 401.882 41.7267 408.836 41.8738 417.266C42.021 425.697 48.9748 432.412 57.4056 432.265C65.8364 432.118 72.5516 425.164 72.4045 416.734Z" stroke="url(#paint26_linear_234_3813)" stroke-width="2" mask="url(#path-40-outside-4_234_3813)"/>
</g>
<g filter="url(#filter13_i_234_3813)">
<circle cx="57" cy="417" r="25" transform="rotate(-90 57 417)" fill="url(#paint27_linear_234_3813)"/>
</g>
<circle cx="57" cy="417" r="24.5" transform="rotate(-90 57 417)" stroke="url(#paint28_linear_234_3813)" stroke-opacity="0.4"/>
<g filter="url(#filter14_df_234_3813)">
<circle cx="57" cy="417" r="21" transform="rotate(-90 57 417)" fill="url(#paint29_linear_234_3813)"/>
</g>
<g filter="url(#filter15_ddf_234_3813)">
<circle cx="57" cy="417" r="13" transform="rotate(-90 57 417)" fill="url(#paint30_linear_234_3813)"/>
</g>
<g clip-path="url(#clip4_234_3813)">
<path d="M66.9791 421.39L63.5416 426.96L62.125 426.084L65.5625 420.514L66.9791 421.39ZM53.4791 408.473L52.6066 407.052L46.9941 410.487L47.8633 411.908L53.4791 408.473ZM63.8158 411.362L65.3991 409.778L64.2225 408.598L62.6466 410.174C61.5088 409.272 60.1175 408.748 58.6672 408.675C57.2169 408.602 55.78 408.984 54.5575 409.768L48.9225 412.892C48.6226 413.09 48.3706 413.353 48.1847 413.66C47.9988 413.968 47.8836 414.313 47.8476 414.671C47.8115 415.029 47.8555 415.39 47.9762 415.729C48.097 416.067 48.2915 416.375 48.5458 416.629L57.3658 425.453C57.5895 425.679 57.8558 425.858 58.1493 425.981C58.4428 426.103 58.7577 426.167 59.0758 426.167C59.1803 426.167 59.2846 426.16 59.3883 426.148C59.7542 426.103 60.1048 425.975 60.4131 425.773C60.7214 425.571 60.9789 425.3 61.1658 424.983L64.4391 419.161C65.1188 417.945 65.4223 416.555 65.3114 415.167C65.2004 413.778 64.6799 412.454 63.8158 411.362ZM49.4991 422.236C49.4942 422.919 49.667 423.591 50.0004 424.187C50.3338 424.783 50.8164 425.282 51.4009 425.635C51.9853 425.988 52.6516 426.183 53.3341 426.2C54.0167 426.218 54.6921 426.058 55.2941 425.736L49.9658 420.403C49.6632 420.967 49.503 421.596 49.4991 422.236Z" fill="#FFA05C"/>
</g>
<path d="M99.6394 421.5V411.42H100.759L105.799 419.02V411.42H107.079V421.5H105.959L100.919 413.9V421.5H99.6394ZM112.279 420.46C113.383 420.46 114.439 419.436 114.439 417.9C114.439 416.364 113.383 415.34 112.279 415.34C111.159 415.34 110.119 416.364 110.119 417.9C110.119 419.436 111.159 420.46 112.279 420.46ZM112.279 421.58C110.423 421.58 108.919 420.06 108.919 417.9C108.919 415.74 110.423 414.22 112.279 414.22C114.135 414.22 115.639 415.74 115.639 417.9C115.639 420.06 114.135 421.58 112.279 421.58ZM117.803 419.18V415.42H116.523V414.3H117.083C117.675 414.3 117.963 414.012 117.963 413.42V412.38H119.003V414.3H120.603V415.42H119.003V419.18C119.003 419.996 119.483 420.46 120.203 420.46C120.315 420.46 120.411 420.444 120.491 420.428L120.603 420.38V421.42C120.555 421.452 120.491 421.484 120.427 421.5C120.283 421.548 120.107 421.58 119.883 421.58C118.779 421.58 117.803 420.62 117.803 419.18ZM122.368 421.5V414.3H123.568V421.5H122.368ZM122.208 412.268C122.208 411.82 122.528 411.5 122.96 411.5C123.408 411.5 123.728 411.82 123.728 412.268C123.728 412.7 123.408 413.02 122.96 413.02C122.528 413.02 122.208 412.7 122.208 412.268ZM125.889 421.5V415.42H125.009V414.3H125.889V413.74C125.889 412.3 126.865 411.34 127.969 411.34C128.209 411.34 128.385 411.372 128.513 411.42L128.689 411.5V412.54L128.577 412.508C128.513 412.492 128.401 412.46 128.289 412.46C127.569 412.46 127.089 412.924 127.089 413.74V414.3H131.169V421.5H129.969V415.42H127.089V421.5H125.889ZM129.809 412.268C129.809 411.82 130.129 411.5 130.561 411.5C131.009 411.5 131.329 411.82 131.329 412.268C131.329 412.7 131.009 413.02 130.561 413.02C130.129 413.02 129.809 412.7 129.809 412.268ZM138.043 418.94H139.243C138.907 420.396 137.723 421.58 136.123 421.58C134.267 421.58 132.763 420.06 132.763 417.9C132.763 415.74 134.267 414.22 136.123 414.22C137.723 414.22 138.907 415.404 139.243 416.86H138.043C137.787 416.06 137.067 415.34 136.123 415.34C135.003 415.34 133.963 416.364 133.963 417.9C133.963 419.436 135.003 420.46 136.123 420.46C137.067 420.46 137.787 419.74 138.043 418.94ZM145.319 421.5L144.999 420.7C144.839 420.876 144.663 421.02 144.455 421.148C144.087 421.388 143.559 421.58 142.839 421.58C141.399 421.58 140.439 420.62 140.439 419.42C140.439 418.06 141.399 417.1 144.999 417.1V416.7C144.999 415.98 144.375 415.34 143.479 415.34C142.583 415.34 142.215 415.74 142.039 416.38H140.759C140.935 415.18 141.879 414.22 143.479 414.22C145.079 414.22 146.199 415.356 146.199 416.7V421.5H145.319ZM144.999 418.78V418.22C142.119 418.22 141.639 418.7 141.639 419.5C141.639 419.996 142.119 420.46 142.839 420.46C144.119 420.46 144.999 419.58 144.999 418.78ZM148.6 419.18V415.42H147.32V414.3H147.88C148.472 414.3 148.76 414.012 148.76 413.42V412.38H149.8V414.3H151.4V415.42H149.8V419.18C149.8 419.996 150.28 420.46 151 420.46C151.112 420.46 151.208 420.444 151.288 420.428L151.4 420.38V421.42C151.352 421.452 151.288 421.484 151.224 421.5C151.08 421.548 150.904 421.58 150.68 421.58C149.576 421.58 148.6 420.62 148.6 419.18ZM153.165 421.5V414.3H154.365V421.5H153.165ZM153.005 412.268C153.005 411.82 153.325 411.5 153.757 411.5C154.205 411.5 154.525 411.82 154.525 412.268C154.525 412.7 154.205 413.02 153.757 413.02C153.325 413.02 153.005 412.7 153.005 412.268ZM159.326 420.46C160.43 420.46 161.486 419.436 161.486 417.9C161.486 416.364 160.43 415.34 159.326 415.34C158.206 415.34 157.166 416.364 157.166 417.9C157.166 419.436 158.206 420.46 159.326 420.46ZM159.326 421.58C157.47 421.58 155.966 420.06 155.966 417.9C155.966 415.74 157.47 414.22 159.326 414.22C161.182 414.22 162.686 415.74 162.686 417.9C162.686 420.06 161.182 421.58 159.326 421.58ZM164.29 421.5V414.3H165.17L165.49 415.1C165.634 414.94 165.81 414.796 166.018 414.668C166.386 414.428 166.882 414.22 167.57 414.22C169.09 414.22 170.37 415.5 170.37 417.34V421.5H169.17V417.34C169.17 416.14 168.354 415.34 167.41 415.34C166.274 415.34 165.49 416.124 165.49 417.34V421.5H164.29ZM171.888 419.34H173.088C173.168 419.98 173.632 420.46 174.528 420.46C175.344 420.46 175.808 419.98 175.808 419.42C175.808 417.804 172.048 419.036 172.048 416.3C172.048 415.196 173.008 414.22 174.448 414.22C175.984 414.22 176.848 415.1 176.928 416.38H175.728C175.648 415.74 175.264 415.34 174.448 415.34C173.728 415.34 173.248 415.804 173.248 416.3C173.248 417.916 177.008 416.7 177.008 419.42C177.008 420.62 176.048 421.58 174.528 421.58C172.928 421.58 171.968 420.62 171.888 419.34Z" fill="white"/>
<line x1="-4.37114e-08" y1="464.5" x2="375" y2="464.5" stroke="url(#paint31_linear_234_3813)" stroke-opacity="0.4"/>
<line x1="-4.37114e-08" y1="464.5" x2="375" y2="464.5" stroke="url(#paint32_linear_234_3813)" stroke-opacity="0.4"/>
<g filter="url(#filter16_ddd_234_3813)">
<mask id="path-49-outside-5_234_3813" maskUnits="userSpaceOnUse" x="33.0987" y="488.964" width="47.8131" height="47.8131" fill="black">
<rect fill="white" x="33.0987" y="488.964" width="47.8131" height="47.8131"/>
<path d="M34.7741 513.39C34.5585 501.039 44.3969 490.851 56.7488 490.635C69.1006 490.419 79.2885 500.258 79.5041 512.61C79.7198 524.961 69.8814 535.149 57.5295 535.365C45.1777 535.581 34.9897 525.742 34.7741 513.39ZM72.4045 512.734C72.2573 504.303 65.3035 497.587 56.8727 497.735C48.4419 497.882 41.7267 504.836 41.8738 513.266C42.021 521.697 48.9748 528.412 57.4056 528.265C65.8364 528.118 72.5516 521.164 72.4045 512.734Z"/>
</mask>
<path d="M34.7741 513.39C34.5585 501.039 44.3969 490.851 56.7488 490.635C69.1006 490.419 79.2885 500.258 79.5041 512.61C79.7198 524.961 69.8814 535.149 57.5295 535.365C45.1777 535.581 34.9897 525.742 34.7741 513.39ZM72.4045 512.734C72.2573 504.303 65.3035 497.587 56.8727 497.735C48.4419 497.882 41.7267 504.836 41.8738 513.266C42.021 521.697 48.9748 528.412 57.4056 528.265C65.8364 528.118 72.5516 521.164 72.4045 512.734Z" fill="url(#paint33_linear_234_3813)"/>
<path d="M34.7741 513.39C34.5585 501.039 44.3969 490.851 56.7488 490.635C69.1006 490.419 79.2885 500.258 79.5041 512.61C79.7198 524.961 69.8814 535.149 57.5295 535.365C45.1777 535.581 34.9897 525.742 34.7741 513.39ZM72.4045 512.734C72.2573 504.303 65.3035 497.587 56.8727 497.735C48.4419 497.882 41.7267 504.836 41.8738 513.266C42.021 521.697 48.9748 528.412 57.4056 528.265C65.8364 528.118 72.5516 521.164 72.4045 512.734Z" stroke="url(#paint34_linear_234_3813)" stroke-width="2" mask="url(#path-49-outside-5_234_3813)"/>
</g>
<g filter="url(#filter17_i_234_3813)">
<circle cx="57" cy="513" r="25" transform="rotate(-90 57 513)" fill="url(#paint35_linear_234_3813)"/>
</g>
<circle cx="57" cy="513" r="24.5" transform="rotate(-90 57 513)" stroke="url(#paint36_linear_234_3813)" stroke-opacity="0.4"/>
<g filter="url(#filter18_df_234_3813)">
<circle cx="57" cy="513" r="21" transform="rotate(-90 57 513)" fill="url(#paint37_linear_234_3813)"/>
</g>
<g filter="url(#filter19_ddf_234_3813)">
<circle cx="57" cy="513" r="13" transform="rotate(-90 57 513)" fill="url(#paint38_linear_234_3813)"/>
</g>
<g clip-path="url(#clip5_234_3813)">
<path d="M67 506.333V508H63.6667V511.333H62V508H58.6667V506.333H62V503H63.6667V506.333H67ZM57 515.851C57.6629 515.852 58.299 515.589 58.7683 515.121L61.1408 512.75C59.6637 512.303 58.424 511.289 57.6936 509.93C56.9632 508.571 56.8019 506.978 57.245 505.5H49.5C49.001 505.5 48.5136 505.65 48.1006 505.93C47.6875 506.211 47.3678 506.608 47.1825 507.071L55.2317 515.121C55.701 515.589 56.3371 515.852 57 515.851ZM59.9467 516.3C59.1645 517.08 58.1048 517.518 57 517.518C55.8952 517.518 54.8355 517.08 54.0533 516.3L47 509.25V523H67V511.245C66.0092 512.258 64.682 512.875 63.2683 512.978L59.9467 516.3Z" fill="#FFA05C"/>
</g>
<path d="M99.5144 517.5V507.42H105.674V508.54H100.794V511.9H104.794V513.02H100.794V517.5H99.5144ZM111.51 515.58H112.79C112.31 516.62 111.35 517.58 109.75 517.58C107.83 517.58 106.31 516.06 106.31 513.9C106.31 511.74 107.926 510.22 109.67 510.22C111.43 510.22 112.95 511.644 112.95 513.82C112.95 514.028 112.918 514.172 112.902 514.284L112.87 514.46H107.59C107.67 515.5 108.614 516.46 109.75 516.46C110.694 516.46 111.27 515.916 111.51 515.58ZM107.59 513.42H111.75C111.574 512.22 110.71 511.34 109.67 511.34C108.63 511.34 107.766 512.22 107.59 513.42ZM119.276 515.58H120.556C120.076 516.62 119.116 517.58 117.516 517.58C115.596 517.58 114.076 516.06 114.076 513.9C114.076 511.74 115.692 510.22 117.436 510.22C119.196 510.22 120.716 511.644 120.716 513.82C120.716 514.028 120.684 514.172 120.668 514.284L120.636 514.46H115.356C115.436 515.5 116.38 516.46 117.516 516.46C118.46 516.46 119.036 515.916 119.276 515.58ZM115.356 513.42H119.516C119.34 512.22 118.476 511.34 117.436 511.34C116.396 511.34 115.532 512.22 115.356 513.42ZM125.281 516.46C126.481 516.46 127.521 515.436 127.521 513.9C127.521 512.364 126.481 511.34 125.281 511.34C124.081 511.34 123.041 512.364 123.041 513.9C123.041 515.436 124.081 516.46 125.281 516.46ZM127.681 517.5L127.361 516.7C127.201 516.876 127.025 517.02 126.817 517.148C126.449 517.388 125.921 517.58 125.201 517.58C123.345 517.58 121.841 516.06 121.841 513.9C121.841 511.74 123.345 510.22 125.201 510.22C125.921 510.22 126.449 510.46 126.817 510.7C127.025 510.844 127.201 511.004 127.361 511.18V507.42H128.561V517.5H127.681ZM134.088 516.46C135.288 516.46 136.328 515.436 136.328 513.9C136.328 512.364 135.288 511.34 134.088 511.34C132.888 511.34 131.848 512.364 131.848 513.9C131.848 515.436 132.888 516.46 134.088 516.46ZM130.808 517.5V507.42H132.008V511.18C132.152 511.004 132.344 510.844 132.552 510.7C132.92 510.46 133.448 510.22 134.168 510.22C136.024 510.22 137.528 511.74 137.528 513.9C137.528 516.06 136.024 517.58 134.168 517.58C133.448 517.58 132.92 517.388 132.552 517.148C132.344 517.02 132.152 516.876 132.008 516.7L131.688 517.5H130.808ZM143.694 517.5L143.374 516.7C143.214 516.876 143.038 517.02 142.83 517.148C142.462 517.388 141.934 517.58 141.214 517.58C139.774 517.58 138.814 516.62 138.814 515.42C138.814 514.06 139.774 513.1 143.374 513.1V512.7C143.374 511.98 142.75 511.34 141.854 511.34C140.958 511.34 140.59 511.74 140.414 512.38H139.134C139.31 511.18 140.254 510.22 141.854 510.22C143.454 510.22 144.574 511.356 144.574 512.7V517.5H143.694ZM143.374 514.78V514.22C140.494 514.22 140.014 514.7 140.014 515.5C140.014 515.996 140.494 516.46 141.214 516.46C142.494 516.46 143.374 515.58 143.374 514.78ZM151.371 514.94H152.571C152.235 516.396 151.051 517.58 149.451 517.58C147.595 517.58 146.091 516.06 146.091 513.9C146.091 511.74 147.595 510.22 149.451 510.22C151.051 510.22 152.235 511.404 152.571 512.86H151.371C151.115 512.06 150.395 511.34 149.451 511.34C148.331 511.34 147.291 512.364 147.291 513.9C147.291 515.436 148.331 516.46 149.451 516.46C150.395 516.46 151.115 515.74 151.371 514.94ZM154.167 517.5V507.42H155.367V513.74L158.087 510.3H159.447L156.727 513.66L159.847 517.5H158.407L155.367 513.74V517.5H154.167Z" fill="white"/>
<line x1="-4.37114e-08" y1="560.5" x2="375" y2="560.5" stroke="url(#paint39_linear_234_3813)" stroke-opacity="0.4"/>
<line x1="-4.37114e-08" y1="560.5" x2="375" y2="560.5" stroke="url(#paint40_linear_234_3813)" stroke-opacity="0.4"/>
<g filter="url(#filter20_ddd_234_3813)">
<mask id="path-58-outside-6_234_3813" maskUnits="userSpaceOnUse" x="33.0987" y="584.965" width="47.8131" height="47.8131" fill="black">
<rect fill="white" x="33.0987" y="584.965" width="47.8131" height="47.8131"/>
<path d="M34.7741 609.391C34.5585 597.039 44.3969 586.851 56.7488 586.635C69.1006 586.42 79.2885 596.258 79.5041 608.61C79.7198 620.962 69.8814 631.15 57.5295 631.365C45.1777 631.581 34.9897 621.743 34.7741 609.391ZM72.4045 608.734C72.2573 600.303 65.3035 593.588 56.8727 593.735C48.4419 593.882 41.7267 600.836 41.8738 609.267C42.021 617.698 48.9748 624.413 57.4056 624.266C65.8364 624.119 72.5516 617.165 72.4045 608.734Z"/>
</mask>
<path d="M34.7741 609.391C34.5585 597.039 44.3969 586.851 56.7488 586.635C69.1006 586.42 79.2885 596.258 79.5041 608.61C79.7198 620.962 69.8814 631.15 57.5295 631.365C45.1777 631.581 34.9897 621.743 34.7741 609.391ZM72.4045 608.734C72.2573 600.303 65.3035 593.588 56.8727 593.735C48.4419 593.882 41.7267 600.836 41.8738 609.267C42.021 617.698 48.9748 624.413 57.4056 624.266C65.8364 624.119 72.5516 617.165 72.4045 608.734Z" fill="url(#paint41_linear_234_3813)"/>
<path d="M34.7741 609.391C34.5585 597.039 44.3969 586.851 56.7488 586.635C69.1006 586.42 79.2885 596.258 79.5041 608.61C79.7198 620.962 69.8814 631.15 57.5295 631.365C45.1777 631.581 34.9897 621.743 34.7741 609.391ZM72.4045 608.734C72.2573 600.303 65.3035 593.588 56.8727 593.735C48.4419 593.882 41.7267 600.836 41.8738 609.267C42.021 617.698 48.9748 624.413 57.4056 624.266C65.8364 624.119 72.5516 617.165 72.4045 608.734Z" stroke="url(#paint42_linear_234_3813)" stroke-width="2" mask="url(#path-58-outside-6_234_3813)"/>
</g>
<g filter="url(#filter21_i_234_3813)">
<circle cx="57" cy="609" r="25" transform="rotate(-90 57 609)" fill="url(#paint43_linear_234_3813)"/>
</g>
<circle cx="57" cy="609" r="24.5" transform="rotate(-90 57 609)" stroke="url(#paint44_linear_234_3813)" stroke-opacity="0.4"/>
<g filter="url(#filter22_df_234_3813)">
<circle cx="57" cy="609" r="21" transform="rotate(-90 57 609)" fill="url(#paint45_linear_234_3813)"/>
</g>
<g filter="url(#filter23_ddf_234_3813)">
<circle cx="57" cy="609" r="13" transform="rotate(-90 57 609)" fill="url(#paint46_linear_234_3813)"/>
</g>
<g clip-path="url(#clip6_234_3813)">
<path d="M65.3333 604.833C65.7754 604.833 66.1993 604.658 66.5118 604.345C66.8244 604.033 67 603.609 67 603.167V599H65.3333V603.167H61.97C61.5665 602.181 60.8787 601.337 59.9942 600.744C59.1097 600.15 58.0686 599.833 57.0033 599.833C55.9381 599.833 54.897 600.15 54.0125 600.744C53.128 601.337 52.4402 602.181 52.0367 603.167H48.6667V599H47V603.167C47 603.609 47.1756 604.033 47.4882 604.345C47.8007 604.658 48.2246 604.833 48.6667 604.833H51.5708L50.7267 608.167H47V609.833H50.3042L50.1833 610.311L50.1667 610.417C50.1295 610.702 50.11 610.989 50.1083 611.277C50.1074 611.916 50.1958 612.552 50.3708 613.167H48.6667C48.2246 613.167 47.8007 613.342 47.4882 613.655C47.1756 613.967 47 614.391 47 614.833V619H48.6667V614.833H51.0992C51.7122 615.85 52.5776 616.692 53.6115 617.275C54.6453 617.859 55.8126 618.166 57 618.166C58.1874 618.166 59.3547 617.859 60.3885 617.275C61.4224 616.692 62.2878 615.85 62.9008 614.833H65.3333V619H67V614.833C67 614.391 66.8244 613.967 66.5118 613.655C66.1993 613.342 65.7754 613.167 65.3333 613.167H63.6292C63.8052 612.551 63.8941 611.913 63.8933 611.273C63.8909 610.986 63.8709 610.7 63.8333 610.417L63.6875 609.833H67V608.167H63.2683L62.4275 604.833H65.3333Z" fill="#FFA05C"/>
</g>
<path d="M99.4128 613.5V603.42H103.173C104.853 603.42 106.213 604.78 106.213 606.38C106.213 607.548 105.653 608.252 105.093 608.684C104.757 608.94 104.389 609.132 103.989 609.26L106.453 613.5H105.013L102.613 609.34H100.693V613.5H99.4128ZM100.693 608.22H103.173C104.117 608.22 104.933 607.404 104.933 606.38C104.933 605.356 104.117 604.54 103.173 604.54H100.693V608.22ZM112.768 611.58H114.048C113.568 612.62 112.608 613.58 111.008 613.58C109.088 613.58 107.568 612.06 107.568 609.9C107.568 607.74 109.184 606.22 110.928 606.22C112.688 606.22 114.208 607.644 114.208 609.82C114.208 610.028 114.176 610.172 114.16 610.284L114.128 610.46H108.848C108.928 611.5 109.872 612.46 111.008 612.46C111.952 612.46 112.528 611.916 112.768 611.58ZM108.848 609.42H113.008C112.832 608.22 111.968 607.34 110.928 607.34C109.888 607.34 109.024 608.22 108.848 609.42ZM119.093 612.46C120.293 612.46 121.333 611.436 121.333 609.9C121.333 608.364 120.293 607.34 119.093 607.34C117.893 607.34 116.853 608.364 116.853 609.9C116.853 611.436 117.893 612.46 119.093 612.46ZM115.813 616.06V606.3H116.693L117.013 607.1C117.157 606.94 117.349 606.796 117.557 606.668C117.925 606.428 118.453 606.22 119.173 606.22C121.029 606.22 122.533 607.74 122.533 609.9C122.533 612.06 121.029 613.58 119.173 613.58C118.453 613.58 117.925 613.34 117.557 613.1C117.349 612.956 117.157 612.796 117.013 612.62V616.06H115.813ZM127.006 612.46C128.11 612.46 129.166 611.436 129.166 609.9C129.166 608.364 128.11 607.34 127.006 607.34C125.886 607.34 124.846 608.364 124.846 609.9C124.846 611.436 125.886 612.46 127.006 612.46ZM127.006 613.58C125.15 613.58 123.646 612.06 123.646 609.9C123.646 607.74 125.15 606.22 127.006 606.22C128.862 606.22 130.366 607.74 130.366 609.9C130.366 612.06 128.862 613.58 127.006 613.58ZM131.97 613.5V606.3H132.85L133.17 607.1C133.314 606.94 133.49 606.796 133.698 606.668C134.066 606.428 134.562 606.22 135.25 606.22H135.41V607.42H135.09C133.954 607.42 133.17 608.204 133.17 609.42V613.5H131.97ZM137.327 611.18V607.42H136.047V606.3H136.607C137.199 606.3 137.487 606.012 137.487 605.42V604.38H138.527V606.3H140.127V607.42H138.527V611.18C138.527 611.996 139.007 612.46 139.727 612.46C139.839 612.46 139.935 612.444 140.015 612.428L140.127 612.38V613.42C140.079 613.452 140.015 613.484 139.951 613.5C139.807 613.548 139.631 613.58 139.407 613.58C138.303 613.58 137.327 612.62 137.327 611.18ZM145.569 613.5V603.42H149.329C150.993 603.42 152.209 604.604 152.209 606.14C152.209 606.86 151.921 607.356 151.649 607.676C151.473 607.868 151.297 608.028 151.089 608.14C151.361 608.284 151.617 608.46 151.841 608.684C152.225 609.068 152.609 609.708 152.609 610.62C152.609 612.108 151.249 613.5 149.409 613.5H145.569ZM146.849 607.66H149.329C150.289 607.66 151.009 606.94 151.009 606.14C151.009 605.26 150.289 604.54 149.329 604.54H146.849V607.66ZM146.849 612.38H149.409C150.545 612.38 151.329 611.58 151.329 610.54C151.329 609.596 150.513 608.78 149.409 608.78H146.849V612.38ZM154.282 610.46V606.3H155.482V610.46C155.482 611.66 156.266 612.46 157.242 612.46C158.378 612.46 159.162 611.676 159.162 610.46V606.3H160.362V613.5H159.482L159.162 612.7C159.018 612.876 158.842 613.02 158.634 613.148C158.266 613.388 157.77 613.58 157.082 613.58C155.562 613.58 154.282 612.3 154.282 610.46ZM162.358 614.06H163.558C163.798 614.62 164.278 615.1 165.318 615.1C166.534 615.1 167.318 614.3 167.318 613.26V612.3C167.174 612.476 167.014 612.636 166.822 612.78C166.486 613.02 165.958 613.26 165.238 613.26C163.398 613.26 161.958 611.836 161.958 609.74C161.958 607.644 163.398 606.22 165.238 606.22C165.958 606.22 166.486 606.428 166.822 606.668C167.014 606.796 167.174 606.94 167.318 607.1L167.638 606.3H168.518V613.26C168.518 614.94 167.238 616.22 165.318 616.22C163.67 616.22 162.662 615.26 162.358 614.06ZM165.318 612.14C166.518 612.14 167.478 611.18 167.478 609.74C167.478 608.3 166.518 607.34 165.318 607.34C164.118 607.34 163.158 608.3 163.158 609.74C163.158 611.18 164.118 612.14 165.318 612.14ZM170.115 611.34H171.315C171.395 611.98 171.859 612.46 172.755 612.46C173.571 612.46 174.035 611.98 174.035 611.42C174.035 609.804 170.275 611.036 170.275 608.3C170.275 607.196 171.235 606.22 172.675 606.22C174.211 606.22 175.075 607.1 175.155 608.38H173.955C173.875 607.74 173.491 607.34 172.675 607.34C171.955 607.34 171.475 607.804 171.475 608.3C171.475 609.916 175.235 608.7 175.235 611.42C175.235 612.62 174.275 613.58 172.755 613.58C171.155 613.58 170.195 612.62 170.115 611.34Z" fill="white"/>
<line x1="-4.37114e-08" y1="656.5" x2="375" y2="656.5" stroke="url(#paint47_linear_234_3813)" stroke-opacity="0.4"/>
<line x1="-4.37114e-08" y1="656.5" x2="375" y2="656.5" stroke="url(#paint48_linear_234_3813)" stroke-opacity="0.4"/>
<g filter="url(#filter24_ddd_234_3813)">
<mask id="path-67-outside-7_234_3813" maskUnits="userSpaceOnUse" x="33.0987" y="680.965" width="47.8131" height="47.8131" fill="black">
<rect fill="white" x="33.0987" y="680.965" width="47.8131" height="47.8131"/>
<path d="M34.7741 705.391C34.5585 693.039 44.3969 682.851 56.7488 682.635C69.1006 682.42 79.2885 692.258 79.5041 704.61C79.7198 716.962 69.8814 727.15 57.5295 727.365C45.1777 727.581 34.9897 717.743 34.7741 705.391ZM72.4045 704.734C72.2573 696.303 65.3035 689.588 56.8727 689.735C48.4419 689.882 41.7267 696.836 41.8738 705.267C42.021 713.698 48.9748 720.413 57.4056 720.266C65.8364 720.119 72.5516 713.165 72.4045 704.734Z"/>
</mask>
<path d="M34.7741 705.391C34.5585 693.039 44.3969 682.851 56.7488 682.635C69.1006 682.42 79.2885 692.258 79.5041 704.61C79.7198 716.962 69.8814 727.15 57.5295 727.365C45.1777 727.581 34.9897 717.743 34.7741 705.391ZM72.4045 704.734C72.2573 696.303 65.3035 689.588 56.8727 689.735C48.4419 689.882 41.7267 696.836 41.8738 705.267C42.021 713.698 48.9748 720.413 57.4056 720.266C65.8364 720.119 72.5516 713.165 72.4045 704.734Z" fill="url(#paint49_linear_234_3813)"/>
<path d="M34.7741 705.391C34.5585 693.039 44.3969 682.851 56.7488 682.635C69.1006 682.42 79.2885 692.258 79.5041 704.61C79.7198 716.962 69.8814 727.15 57.5295 727.365C45.1777 727.581 34.9897 717.743 34.7741 705.391ZM72.4045 704.734C72.2573 696.303 65.3035 689.588 56.8727 689.735C48.4419 689.882 41.7267 696.836 41.8738 705.267C42.021 713.698 48.9748 720.413 57.4056 720.266C65.8364 720.119 72.5516 713.165 72.4045 704.734Z" stroke="url(#paint50_linear_234_3813)" stroke-width="2" mask="url(#path-67-outside-7_234_3813)"/>
</g>
<g filter="url(#filter25_i_234_3813)">
<circle cx="57" cy="705" r="25" transform="rotate(-90 57 705)" fill="url(#paint51_linear_234_3813)"/>
</g>
<circle cx="57" cy="705" r="24.5" transform="rotate(-90 57 705)" stroke="url(#paint52_linear_234_3813)" stroke-opacity="0.4"/>
<g filter="url(#filter26_df_234_3813)">
<circle cx="57" cy="705" r="21" transform="rotate(-90 57 705)" fill="url(#paint53_linear_234_3813)"/>
</g>
<g filter="url(#filter27_ddf_234_3813)">
<circle cx="57" cy="705" r="13" transform="rotate(-90 57 705)" fill="url(#paint54_linear_234_3813)"/>
</g>
<g clip-path="url(#clip7_234_3813)">
<path d="M65.9687 703.526L61.8437 699.401L60.6662 700.583L64.2495 704.166H52.5137V705.833H64.2495L60.6662 709.416L61.8445 710.594L65.9695 706.469C66.163 706.276 66.3165 706.046 66.4213 705.793C66.526 705.54 66.5799 705.27 66.5799 704.996C66.5799 704.722 66.526 704.451 66.4213 704.198C66.3165 703.946 66.163 703.716 65.9695 703.523L65.9687 703.526Z" fill="#F12B10"/>
<path d="M55.73 712.5C55.73 712.721 55.6422 712.933 55.4859 713.089C55.3296 713.246 55.1177 713.333 54.8967 713.333H49.5C49.279 713.333 49.067 713.246 48.9107 713.089C48.7545 712.933 48.6667 712.721 48.6667 712.5V697.5C48.6667 697.279 48.7545 697.067 48.9107 696.911C49.067 696.754 49.279 696.667 49.5 696.667H54.8967C55.1177 696.667 55.3296 696.754 55.4859 696.911C55.6422 697.067 55.73 697.279 55.73 697.5V701.944H57.3967V697.5C57.3967 696.837 57.1333 696.201 56.6644 695.732C56.1956 695.263 55.5597 695 54.8967 695H49.5C48.837 695 48.2011 695.263 47.7322 695.732C47.2634 696.201 47 696.837 47 697.5V712.5C47 713.163 47.2634 713.799 47.7322 714.268C48.2011 714.737 48.837 715 49.5 715H54.8967C55.5597 715 56.1956 714.737 56.6644 714.268C57.1333 713.799 57.3967 713.163 57.3967 712.5V708.056H55.73V712.5Z" fill="#F12B10"/>
</g>
<path d="M99.4597 709.5V699.42H100.74V708.38H105.54V709.5H99.4597ZM109.615 708.46C110.719 708.46 111.775 707.436 111.775 705.9C111.775 704.364 110.719 703.34 109.615 703.34C108.495 703.34 107.455 704.364 107.455 705.9C107.455 707.436 108.495 708.46 109.615 708.46ZM109.615 709.58C107.759 709.58 106.255 708.06 106.255 705.9C106.255 703.74 107.759 702.22 109.615 702.22C111.471 702.22 112.975 703.74 112.975 705.9C112.975 708.06 111.471 709.58 109.615 709.58ZM114.499 710.06H115.699C115.939 710.62 116.419 711.1 117.459 711.1C118.675 711.1 119.459 710.3 119.459 709.26V708.3C119.315 708.476 119.155 708.636 118.963 708.78C118.627 709.02 118.099 709.26 117.379 709.26C115.539 709.26 114.099 707.836 114.099 705.74C114.099 703.644 115.539 702.22 117.379 702.22C118.099 702.22 118.627 702.428 118.963 702.668C119.155 702.796 119.315 702.94 119.459 703.1L119.779 702.3H120.659V709.26C120.659 710.94 119.379 712.22 117.459 712.22C115.811 712.22 114.803 711.26 114.499 710.06ZM117.459 708.14C118.659 708.14 119.619 707.18 119.619 705.74C119.619 704.3 118.659 703.34 117.459 703.34C116.259 703.34 115.299 704.3 115.299 705.74C115.299 707.18 116.259 708.14 117.459 708.14ZM125.615 708.46C126.719 708.46 127.775 707.436 127.775 705.9C127.775 704.364 126.719 703.34 125.615 703.34C124.495 703.34 123.455 704.364 123.455 705.9C123.455 707.436 124.495 708.46 125.615 708.46ZM125.615 709.58C123.759 709.58 122.255 708.06 122.255 705.9C122.255 703.74 123.759 702.22 125.615 702.22C127.471 702.22 128.975 703.74 128.975 705.9C128.975 708.06 127.471 709.58 125.615 709.58ZM130.579 706.46V702.3H131.779V706.46C131.779 707.66 132.563 708.46 133.539 708.46C134.675 708.46 135.459 707.676 135.459 706.46V702.3H136.659V709.5H135.779L135.459 708.7C135.315 708.876 135.139 709.02 134.931 709.148C134.563 709.388 134.067 709.58 133.379 709.58C131.859 709.58 130.579 708.3 130.579 706.46ZM139.295 707.18V703.42H138.015V702.3H138.575C139.167 702.3 139.455 702.012 139.455 701.42V700.38H140.495V702.3H142.095V703.42H140.495V707.18C140.495 707.996 140.975 708.46 141.695 708.46C141.807 708.46 141.903 708.444 141.983 708.428L142.095 708.38V709.42C142.047 709.452 141.983 709.484 141.919 709.5C141.775 709.548 141.599 709.58 141.375 709.58C140.271 709.58 139.295 708.62 139.295 707.18Z" fill="#F12B10"/>
<line x1="-4.37114e-08" y1="752.5" x2="375" y2="752.5" stroke="url(#paint55_linear_234_3813)" stroke-opacity="0.4"/>
</g>
<defs>
<filter id="filter0_ddd_234_3813" x="-102.229" y="13.6313" width="286.736" height="286.737" filterUnits="userSpaceOnUse" color-interpolation-filters="sRGB">
<feFlood flood-opacity="0" result="BackgroundImageFix"/>
<feColorMatrix in="SourceAlpha" type="matrix" values="0 0 0 0 0 0 0 0 0 0 0 0 0 0 0 0 0 0 127 0" result="hardAlpha"/>
<feOffset dx="-16" dy="28"/>
<feGaussianBlur stdDeviation="60"/>
<feColorMatrix type="matrix" values="0 0 0 0 1 0 0 0 0 0.627451 0 0 0 0 0.360784 0 0 0 0.1 0"/>
<feBlend mode="normal" in2="BackgroundImageFix" result="effect1_dropShadow_234_3813"/>
<feColorMatrix in="SourceAlpha" type="matrix" values="0 0 0 0 0 0 0 0 0 0 0 0 0 0 0 0 0 0 127 0" result="hardAlpha"/>
<feOffset dx="-2" dy="2"/>
<feGaussianBlur stdDeviation="12"/>
<feColorMatrix type="matrix" values="0 0 0 0 1 0 0 0 0 0.627451 0 0 0 0 0.360784 0 0 0 0.1 0"/>
<feBlend mode="normal" in2="effect1_dropShadow_234_3813" result="effect2_dropShadow_234_3813"/>
<feColorMatrix in="SourceAlpha" type="matrix" values="0 0 0 0 0 0 0 0 0 0 0 0 0 0 0 0 0 0 127 0" result="hardAlpha"/>
<feOffset dx="-16" dy="20"/>
<feGaussianBlur stdDeviation="20"/>
<feColorMatrix type="matrix" values="0 0 0 0 1 0 0 0 0 0.335 0 0 0 0 0.125 0 0 0 0.15 0"/>
<feBlend mode="soft-light" in2="effect2_dropShadow_234_3813" result="effect3_dropShadow_234_3813"/>
<feBlend mode="normal" in="SourceGraphic" in2="effect3_dropShadow_234_3813" result="shape"/>
</filter>
<filter id="filter1_di_234_3813" x="16" y="94" width="82" height="74" filterUnits="userSpaceOnUse" color-interpolation-filters="sRGB">
<feFlood flood-opacity="0" result="BackgroundImageFix"/>
<feColorMatrix in="SourceAlpha" type="matrix" values="0 0 0 0 0 0 0 0 0 0 0 0 0 0 0 0 0 0 127 0" result="hardAlpha"/>
<feOffset dx="4" dy="2"/>
<feGaussianBlur stdDeviation="6"/>
<feColorMatrix type="matrix" values="0 0 0 0 0.909 0 0 0 0 0.93084 0 0 0 0 0.951 0 0 0 0.05 0"/>
<feBlend mode="normal" in2="BackgroundImageFix" result="effect1_dropShadow_234_3813"/>
<feBlend mode="normal" in="SourceGraphic" in2="effect1_dropShadow_234_3813" result="shape"/>
<feColorMatrix in="SourceAlpha" type="matrix" values="0 0 0 0 0 0 0 0 0 0 0 0 0 0 0 0 0 0 127 0" result="hardAlpha"/>
<feOffset dx="-16" dy="-6"/>
<feGaussianBlur stdDeviation="40"/>
<feComposite in2="hardAlpha" operator="arithmetic" k2="-1" k3="1"/>
<feColorMatrix type="matrix" values="0 0 0 0 0.974 0 0 0 0 0.974889 0 0 0 0 0.976 0 0 0 0.03 0"/>
<feBlend mode="normal" in2="shape" result="effect2_innerShadow_234_3813"/>
</filter>
<filter id="filter2_df_234_3813" x="-10" y="62" width="158" height="158" filterUnits="userSpaceOnUse" color-interpolation-filters="sRGB">
<feFlood flood-opacity="0" result="BackgroundImageFix"/>
<feColorMatrix in="SourceAlpha" type="matrix" values="0 0 0 0 0 0 0 0 0 0 0 0 0 0 0 0 0 0 127 0" result="hardAlpha"/>
<feOffset dx="12" dy="12"/>
<feGaussianBlur stdDeviation="29"/>
<feColorMatrix type="matrix" values="0 0 0 0 0 0 0 0 0 0 0 0 0 0 0 0 0 0 0.74 0"/>
<feBlend mode="normal" in2="BackgroundImageFix" result="effect1_dropShadow_234_3813"/>
<feBlend mode="normal" in="SourceGraphic" in2="effect1_dropShadow_234_3813" result="shape"/>
<feGaussianBlur stdDeviation="4" result="effect2_foregroundBlur_234_3813"/>
</filter>
<filter id="filter3_ddf_234_3813" x="-2" y="70" width="142" height="142" filterUnits="userSpaceOnUse" color-interpolation-filters="sRGB">
<feFlood flood-opacity="0" result="BackgroundImageFix"/>
<feColorMatrix in="SourceAlpha" type="matrix" values="0 0 0 0 0 0 0 0 0 0 0 0 0 0 0 0 0 0 127 0" result="hardAlpha"/>
<feOffset dx="12" dy="12"/>
<feGaussianBlur stdDeviation="29"/>
<feColorMatrix type="matrix" values="0 0 0 0 0 0 0 0 0 0 0 0 0 0 0 0 0 0 0.74 0"/>
<feBlend mode="normal" in2="BackgroundImageFix" result="effect1_dropShadow_234_3813"/>
<feColorMatrix in="SourceAlpha" type="matrix" values="0 0 0 0 0 0 0 0 0 0 0 0 0 0 0 0 0 0 127 0" result="hardAlpha"/>
<feOffset dx="-4" dy="-4"/>
<feGaussianBlur stdDeviation="3"/>
<feColorMatrix type="matrix" values="0 0 0 0 0.763833 0 0 0 0 0.783333 0 0 0 0 0.802833 0 0 0 0.12 0"/>
<feBlend mode="normal" in2="effect1_dropShadow_234_3813" result="effect2_dropShadow_234_3813"/>
<feBlend mode="normal" in="SourceGraphic" in2="effect2_dropShadow_234_3813" result="shape"/>
<feGaussianBlur stdDeviation="4" result="effect3_foregroundBlur_234_3813"/>
</filter>
<filter id="filter4_ddd_234_3813" x="-102.229" y="109.631" width="286.736" height="286.737" filterUnits="userSpaceOnUse" color-interpolation-filters="sRGB">
<feFlood flood-opacity="0" result="BackgroundImageFix"/>
<feColorMatrix in="SourceAlpha" type="matrix" values="0 0 0 0 0 0 0 0 0 0 0 0 0 0 0 0 0 0 127 0" result="hardAlpha"/>
<feOffset dx="-16" dy="28"/>
<feGaussianBlur stdDeviation="60"/>
<feColorMatrix type="matrix" values="0 0 0 0 1 0 0 0 0 0.627451 0 0 0 0 0.360784 0 0 0 0.1 0"/>
<feBlend mode="normal" in2="BackgroundImageFix" result="effect1_dropShadow_234_3813"/>
<feColorMatrix in="SourceAlpha" type="matrix" values="0 0 0 0 0 0 0 0 0 0 0 0 0 0 0 0 0 0 127 0" result="hardAlpha"/>
<feOffset dx="-2" dy="2"/>
<feGaussianBlur stdDeviation="12"/>
<feColorMatrix type="matrix" values="0 0 0 0 1 0 0 0 0 0.627451 0 0 0 0 0.360784 0 0 0 0.1 0"/>
<feBlend mode="normal" in2="effect1_dropShadow_234_3813" result="effect2_dropShadow_234_3813"/>
<feColorMatrix in="SourceAlpha" type="matrix" values="0 0 0 0 0 0 0 0 0 0 0 0 0 0 0 0 0 0 127 0" result="hardAlpha"/>
<feOffset dx="-16" dy="20"/>
<feGaussianBlur stdDeviation="20"/>
<feColorMatrix type="matrix" values="0 0 0 0 1 0 0 0 0 0.335 0 0 0 0 0.125 0 0 0 0.15 0"/>
<feBlend mode="soft-light" in2="effect2_dropShadow_234_3813" result="effect3_dropShadow_234_3813"/>
<feBlend mode="normal" in="SourceGraphic" in2="effect3_dropShadow_234_3813" result="shape"/>
</filter>
<filter id="filter5_i_234_3813" x="16" y="194" width="66" height="56" filterUnits="userSpaceOnUse" color-interpolation-filters="sRGB">
<feFlood flood-opacity="0" result="BackgroundImageFix"/>
<feBlend mode="normal" in="SourceGraphic" in2="BackgroundImageFix" result="shape"/>
<feColorMatrix in="SourceAlpha" type="matrix" values="0 0 0 0 0 0 0 0 0 0 0 0 0 0 0 0 0 0 127 0" result="hardAlpha"/>
<feOffset dx="-16" dy="-6"/>
<feGaussianBlur stdDeviation="40"/>
<feComposite in2="hardAlpha" operator="arithmetic" k2="-1" k3="1"/>
<feColorMatrix type="matrix" values="0 0 0 0 0.974 0 0 0 0 0.974889 0 0 0 0 0.976 0 0 0 0.03 0"/>
<feBlend mode="normal" in2="shape" result="effect1_innerShadow_234_3813"/>
</filter>
<filter id="filter6_df_234_3813" x="-10" y="158" width="158" height="158" filterUnits="userSpaceOnUse" color-interpolation-filters="sRGB">
<feFlood flood-opacity="0" result="BackgroundImageFix"/>
<feColorMatrix in="SourceAlpha" type="matrix" values="0 0 0 0 0 0 0 0 0 0 0 0 0 0 0 0 0 0 127 0" result="hardAlpha"/>
<feOffset dx="12" dy="12"/>
<feGaussianBlur stdDeviation="29"/>
<feColorMatrix type="matrix" values="0 0 0 0 0 0 0 0 0 0 0 0 0 0 0 0 0 0 0.74 0"/>
<feBlend mode="normal" in2="BackgroundImageFix" result="effect1_dropShadow_234_3813"/>
<feBlend mode="normal" in="SourceGraphic" in2="effect1_dropShadow_234_3813" result="shape"/>
<feGaussianBlur stdDeviation="4" result="effect2_foregroundBlur_234_3813"/>
</filter>
<filter id="filter7_ddf_234_3813" x="-2" y="166" width="142" height="142" filterUnits="userSpaceOnUse" color-interpolation-filters="sRGB">
<feFlood flood-opacity="0" result="BackgroundImageFix"/>
<feColorMatrix in="SourceAlpha" type="matrix" values="0 0 0 0 0 0 0 0 0 0 0 0 0 0 0 0 0 0 127 0" result="hardAlpha"/>
<feOffset dx="12" dy="12"/>
<feGaussianBlur stdDeviation="29"/>
<feColorMatrix type="matrix" values="0 0 0 0 0 0 0 0 0 0 0 0 0 0 0 0 0 0 0.74 0"/>
<feBlend mode="normal" in2="BackgroundImageFix" result="effect1_dropShadow_234_3813"/>
<feColorMatrix in="SourceAlpha" type="matrix" values="0 0 0 0 0 0 0 0 0 0 0 0 0 0 0 0 0 0 127 0" result="hardAlpha"/>
<feOffset dx="-12" dy="-10"/>
<feGaussianBlur stdDeviation="16"/>
<feColorMatrix type="matrix" values="0 0 0 0 0.763833 0 0 0 0 0.783333 0 0 0 0 0.802833 0 0 0 0.12 0"/>
<feBlend mode="normal" in2="effect1_dropShadow_234_3813" result="effect2_dropShadow_234_3813"/>
<feBlend mode="normal" in="SourceGraphic" in2="effect2_dropShadow_234_3813" result="shape"/>
<feGaussianBlur stdDeviation="4" result="effect3_foregroundBlur_234_3813"/>
</filter>
<filter id="filter8_ddd_234_3813" x="-102.229" y="205.631" width="286.736" height="286.737" filterUnits="userSpaceOnUse" color-interpolation-filters="sRGB">
<feFlood flood-opacity="0" result="BackgroundImageFix"/>
<feColorMatrix in="SourceAlpha" type="matrix" values="0 0 0 0 0 0 0 0 0 0 0 0 0 0 0 0 0 0 127 0" result="hardAlpha"/>
<feOffset dx="-16" dy="28"/>
<feGaussianBlur stdDeviation="60"/>
<feColorMatrix type="matrix" values="0 0 0 0 1 0 0 0 0 0.627451 0 0 0 0 0.360784 0 0 0 0.1 0"/>
<feBlend mode="normal" in2="BackgroundImageFix" result="effect1_dropShadow_234_3813"/>
<feColorMatrix in="SourceAlpha" type="matrix" values="0 0 0 0 0 0 0 0 0 0 0 0 0 0 0 0 0 0 127 0" result="hardAlpha"/>
<feOffset dx="-2" dy="2"/>
<feGaussianBlur stdDeviation="12"/>
<feColorMatrix type="matrix" values="0 0 0 0 1 0 0 0 0 0.627451 0 0 0 0 0.360784 0 0 0 0.1 0"/>
<feBlend mode="normal" in2="effect1_dropShadow_234_3813" result="effect2_dropShadow_234_3813"/>
<feColorMatrix in="SourceAlpha" type="matrix" values="0 0 0 0 0 0 0 0 0 0 0 0 0 0 0 0 0 0 127 0" result="hardAlpha"/>
<feOffset dx="-16" dy="20"/>
<feGaussianBlur stdDeviation="20"/>
<feColorMatrix type="matrix" values="0 0 0 0 1 0 0 0 0 0.335 0 0 0 0 0.125 0 0 0 0.15 0"/>
<feBlend mode="soft-light" in2="effect2_dropShadow_234_3813" result="effect3_dropShadow_234_3813"/>
<feBlend mode="normal" in="SourceGraphic" in2="effect3_dropShadow_234_3813" result="shape"/>
</filter>
<filter id="filter9_i_234_3813" x="16" y="290" width="66" height="56" filterUnits="userSpaceOnUse" color-interpolation-filters="sRGB">
<feFlood flood-opacity="0" result="BackgroundImageFix"/>
<feBlend mode="normal" in="SourceGraphic" in2="BackgroundImageFix" result="shape"/>
<feColorMatrix in="SourceAlpha" type="matrix" values="0 0 0 0 0 0 0 0 0 0 0 0 0 0 0 0 0 0 127 0" result="hardAlpha"/>
<feOffset dx="-16" dy="-6"/>
<feGaussianBlur stdDeviation="40"/>
<feComposite in2="hardAlpha" operator="arithmetic" k2="-1" k3="1"/>
<feColorMatrix type="matrix" values="0 0 0 0 0.974 0 0 0 0 0.974889 0 0 0 0 0.976 0 0 0 0.03 0"/>
<feBlend mode="normal" in2="shape" result="effect1_innerShadow_234_3813"/>
</filter>
<filter id="filter10_df_234_3813" x="-10" y="254" width="158" height="158" filterUnits="userSpaceOnUse" color-interpolation-filters="sRGB">
<feFlood flood-opacity="0" result="BackgroundImageFix"/>
<feColorMatrix in="SourceAlpha" type="matrix" values="0 0 0 0 0 0 0 0 0 0 0 0 0 0 0 0 0 0 127 0" result="hardAlpha"/>
<feOffset dx="12" dy="12"/>
<feGaussianBlur stdDeviation="29"/>
<feColorMatrix type="matrix" values="0 0 0 0 0 0 0 0 0 0 0 0 0 0 0 0 0 0 0.74 0"/>
<feBlend mode="normal" in2="BackgroundImageFix" result="effect1_dropShadow_234_3813"/>
<feBlend mode="normal" in="SourceGraphic" in2="effect1_dropShadow_234_3813" result="shape"/>
<feGaussianBlur stdDeviation="4" result="effect2_foregroundBlur_234_3813"/>
</filter>
<filter id="filter11_ddf_234_3813" x="-2" y="262" width="142" height="142" filterUnits="userSpaceOnUse" color-interpolation-filters="sRGB">
<feFlood flood-opacity="0" result="BackgroundImageFix"/>
<feColorMatrix in="SourceAlpha" type="matrix" values="0 0 0 0 0 0 0 0 0 0 0 0 0 0 0 0 0 0 127 0" result="hardAlpha"/>
<feOffset dx="12" dy="12"/>
<feGaussianBlur stdDeviation="29"/>
<feColorMatrix type="matrix" values="0 0 0 0 0 0 0 0 0 0 0 0 0 0 0 0 0 0 0.74 0"/>
<feBlend mode="normal" in2="BackgroundImageFix" result="effect1_dropShadow_234_3813"/>
<feColorMatrix in="SourceAlpha" type="matrix" values="0 0 0 0 0 0 0 0 0 0 0 0 0 0 0 0 0 0 127 0" result="hardAlpha"/>
<feOffset dx="-12" dy="-10"/>
<feGaussianBlur stdDeviation="16"/>
<feColorMatrix type="matrix" values="0 0 0 0 0.763833 0 0 0 0 0.783333 0 0 0 0 0.802833 0 0 0 0.12 0"/>
<feBlend mode="normal" in2="effect1_dropShadow_234_3813" result="effect2_dropShadow_234_3813"/>
<feBlend mode="normal" in="SourceGraphic" in2="effect2_dropShadow_234_3813" result="shape"/>
<feGaussianBlur stdDeviation="4" result="effect3_foregroundBlur_234_3813"/>
</filter>
<filter id="filter12_ddd_234_3813" x="-102.229" y="301.631" width="286.736" height="286.737" filterUnits="userSpaceOnUse" color-interpolation-filters="sRGB">
<feFlood flood-opacity="0" result="BackgroundImageFix"/>
<feColorMatrix in="SourceAlpha" type="matrix" values="0 0 0 0 0 0 0 0 0 0 0 0 0 0 0 0 0 0 127 0" result="hardAlpha"/>
<feOffset dx="-16" dy="28"/>
<feGaussianBlur stdDeviation="60"/>
<feColorMatrix type="matrix" values="0 0 0 0 1 0 0 0 0 0.627451 0 0 0 0 0.360784 0 0 0 0.1 0"/>
<feBlend mode="normal" in2="BackgroundImageFix" result="effect1_dropShadow_234_3813"/>
<feColorMatrix in="SourceAlpha" type="matrix" values="0 0 0 0 0 0 0 0 0 0 0 0 0 0 0 0 0 0 127 0" result="hardAlpha"/>
<feOffset dx="-2" dy="2"/>
<feGaussianBlur stdDeviation="12"/>
<feColorMatrix type="matrix" values="0 0 0 0 1 0 0 0 0 0.627451 0 0 0 0 0.360784 0 0 0 0.1 0"/>
<feBlend mode="normal" in2="effect1_dropShadow_234_3813" result="effect2_dropShadow_234_3813"/>
<feColorMatrix in="SourceAlpha" type="matrix" values="0 0 0 0 0 0 0 0 0 0 0 0 0 0 0 0 0 0 127 0" result="hardAlpha"/>
<feOffset dx="-16" dy="20"/>
<feGaussianBlur stdDeviation="20"/>
<feColorMatrix type="matrix" values="0 0 0 0 1 0 0 0 0 0.335 0 0 0 0 0.125 0 0 0 0.15 0"/>
<feBlend mode="soft-light" in2="effect2_dropShadow_234_3813" result="effect3_dropShadow_234_3813"/>
<feBlend mode="normal" in="SourceGraphic" in2="effect3_dropShadow_234_3813" result="shape"/>
</filter>
<filter id="filter13_i_234_3813" x="16" y="386" width="66" height="56" filterUnits="userSpaceOnUse" color-interpolation-filters="sRGB">
<feFlood flood-opacity="0" result="BackgroundImageFix"/>
<feBlend mode="normal" in="SourceGraphic" in2="BackgroundImageFix" result="shape"/>
<feColorMatrix in="SourceAlpha" type="matrix" values="0 0 0 0 0 0 0 0 0 0 0 0 0 0 0 0 0 0 127 0" result="hardAlpha"/>
<feOffset dx="-16" dy="-6"/>
<feGaussianBlur stdDeviation="40"/>
<feComposite in2="hardAlpha" operator="arithmetic" k2="-1" k3="1"/>
<feColorMatrix type="matrix" values="0 0 0 0 0.974 0 0 0 0 0.974889 0 0 0 0 0.976 0 0 0 0.03 0"/>
<feBlend mode="normal" in2="shape" result="effect1_innerShadow_234_3813"/>
</filter>
<filter id="filter14_df_234_3813" x="-10" y="350" width="158" height="158" filterUnits="userSpaceOnUse" color-interpolation-filters="sRGB">
<feFlood flood-opacity="0" result="BackgroundImageFix"/>
<feColorMatrix in="SourceAlpha" type="matrix" values="0 0 0 0 0 0 0 0 0 0 0 0 0 0 0 0 0 0 127 0" result="hardAlpha"/>
<feOffset dx="12" dy="12"/>
<feGaussianBlur stdDeviation="29"/>
<feColorMatrix type="matrix" values="0 0 0 0 0 0 0 0 0 0 0 0 0 0 0 0 0 0 0.74 0"/>
<feBlend mode="normal" in2="BackgroundImageFix" result="effect1_dropShadow_234_3813"/>
<feBlend mode="normal" in="SourceGraphic" in2="effect1_dropShadow_234_3813" result="shape"/>
<feGaussianBlur stdDeviation="4" result="effect2_foregroundBlur_234_3813"/>
</filter>
<filter id="filter15_ddf_234_3813" x="-2" y="358" width="142" height="142" filterUnits="userSpaceOnUse" color-interpolation-filters="sRGB">
<feFlood flood-opacity="0" result="BackgroundImageFix"/>
<feColorMatrix in="SourceAlpha" type="matrix" values="0 0 0 0 0 0 0 0 0 0 0 0 0 0 0 0 0 0 127 0" result="hardAlpha"/>
<feOffset dx="12" dy="12"/>
<feGaussianBlur stdDeviation="29"/>
<feColorMatrix type="matrix" values="0 0 0 0 0 0 0 0 0 0 0 0 0 0 0 0 0 0 0.74 0"/>
<feBlend mode="normal" in2="BackgroundImageFix" result="effect1_dropShadow_234_3813"/>
<feColorMatrix in="SourceAlpha" type="matrix" values="0 0 0 0 0 0 0 0 0 0 0 0 0 0 0 0 0 0 127 0" result="hardAlpha"/>
<feOffset dx="-12" dy="-10"/>
<feGaussianBlur stdDeviation="16"/>
<feColorMatrix type="matrix" values="0 0 0 0 0.763833 0 0 0 0 0.783333 0 0 0 0 0.802833 0 0 0 0.12 0"/>
<feBlend mode="normal" in2="effect1_dropShadow_234_3813" result="effect2_dropShadow_234_3813"/>
<feBlend mode="normal" in="SourceGraphic" in2="effect2_dropShadow_234_3813" result="shape"/>
<feGaussianBlur stdDeviation="4" result="effect3_foregroundBlur_234_3813"/>
</filter>
<filter id="filter16_ddd_234_3813" x="-102.229" y="397.631" width="286.736" height="286.737" filterUnits="userSpaceOnUse" color-interpolation-filters="sRGB">
<feFlood flood-opacity="0" result="BackgroundImageFix"/>
<feColorMatrix in="SourceAlpha" type="matrix" values="0 0 0 0 0 0 0 0 0 0 0 0 0 0 0 0 0 0 127 0" result="hardAlpha"/>
<feOffset dx="-16" dy="28"/>
<feGaussianBlur stdDeviation="60"/>
<feColorMatrix type="matrix" values="0 0 0 0 1 0 0 0 0 0.627451 0 0 0 0 0.360784 0 0 0 0.1 0"/>
<feBlend mode="normal" in2="BackgroundImageFix" result="effect1_dropShadow_234_3813"/>
<feColorMatrix in="SourceAlpha" type="matrix" values="0 0 0 0 0 0 0 0 0 0 0 0 0 0 0 0 0 0 127 0" result="hardAlpha"/>
<feOffset dx="-2" dy="2"/>
<feGaussianBlur stdDeviation="12"/>
<feColorMatrix type="matrix" values="0 0 0 0 1 0 0 0 0 0.627451 0 0 0 0 0.360784 0 0 0 0.1 0"/>
<feBlend mode="normal" in2="effect1_dropShadow_234_3813" result="effect2_dropShadow_234_3813"/>
<feColorMatrix in="SourceAlpha" type="matrix" values="0 0 0 0 0 0 0 0 0 0 0 0 0 0 0 0 0 0 127 0" result="hardAlpha"/>
<feOffset dx="-16" dy="20"/>
<feGaussianBlur stdDeviation="20"/>
<feColorMatrix type="matrix" values="0 0 0 0 1 0 0 0 0 0.335 0 0 0 0 0.125 0 0 0 0.15 0"/>
<feBlend mode="soft-light" in2="effect2_dropShadow_234_3813" result="effect3_dropShadow_234_3813"/>
<feBlend mode="normal" in="SourceGraphic" in2="effect3_dropShadow_234_3813" result="shape"/>
</filter>
<filter id="filter17_i_234_3813" x="16" y="482" width="66" height="56" filterUnits="userSpaceOnUse" color-interpolation-filters="sRGB">
<feFlood flood-opacity="0" result="BackgroundImageFix"/>
<feBlend mode="normal" in="SourceGraphic" in2="BackgroundImageFix" result="shape"/>
<feColorMatrix in="SourceAlpha" type="matrix" values="0 0 0 0 0 0 0 0 0 0 0 0 0 0 0 0 0 0 127 0" result="hardAlpha"/>
<feOffset dx="-16" dy="-6"/>
<feGaussianBlur stdDeviation="40"/>
<feComposite in2="hardAlpha" operator="arithmetic" k2="-1" k3="1"/>
<feColorMatrix type="matrix" values="0 0 0 0 0.974 0 0 0 0 0.974889 0 0 0 0 0.976 0 0 0 0.03 0"/>
<feBlend mode="normal" in2="shape" result="effect1_innerShadow_234_3813"/>
</filter>
<filter id="filter18_df_234_3813" x="-10" y="446" width="158" height="158" filterUnits="userSpaceOnUse" color-interpolation-filters="sRGB">
<feFlood flood-opacity="0" result="BackgroundImageFix"/>
<feColorMatrix in="SourceAlpha" type="matrix" values="0 0 0 0 0 0 0 0 0 0 0 0 0 0 0 0 0 0 127 0" result="hardAlpha"/>
<feOffset dx="12" dy="12"/>
<feGaussianBlur stdDeviation="29"/>
<feColorMatrix type="matrix" values="0 0 0 0 0 0 0 0 0 0 0 0 0 0 0 0 0 0 0.74 0"/>
<feBlend mode="normal" in2="BackgroundImageFix" result="effect1_dropShadow_234_3813"/>
<feBlend mode="normal" in="SourceGraphic" in2="effect1_dropShadow_234_3813" result="shape"/>
<feGaussianBlur stdDeviation="4" result="effect2_foregroundBlur_234_3813"/>
</filter>
<filter id="filter19_ddf_234_3813" x="-2" y="454" width="142" height="142" filterUnits="userSpaceOnUse" color-interpolation-filters="sRGB">
<feFlood flood-opacity="0" result="BackgroundImageFix"/>
<feColorMatrix in="SourceAlpha" type="matrix" values="0 0 0 0 0 0 0 0 0 0 0 0 0 0 0 0 0 0 127 0" result="hardAlpha"/>
<feOffset dx="12" dy="12"/>
<feGaussianBlur stdDeviation="29"/>
<feColorMatrix type="matrix" values="0 0 0 0 0 0 0 0 0 0 0 0 0 0 0 0 0 0 0.74 0"/>
<feBlend mode="normal" in2="BackgroundImageFix" result="effect1_dropShadow_234_3813"/>
<feColorMatrix in="SourceAlpha" type="matrix" values="0 0 0 0 0 0 0 0 0 0 0 0 0 0 0 0 0 0 127 0" result="hardAlpha"/>
<feOffset dx="-12" dy="-10"/>
<feGaussianBlur stdDeviation="16"/>
<feColorMatrix type="matrix" values="0 0 0 0 0.763833 0 0 0 0 0.783333 0 0 0 0 0.802833 0 0 0 0.12 0"/>
<feBlend mode="normal" in2="effect1_dropShadow_234_3813" result="effect2_dropShadow_234_3813"/>
<feBlend mode="normal" in="SourceGraphic" in2="effect2_dropShadow_234_3813" result="shape"/>
<feGaussianBlur stdDeviation="4" result="effect3_foregroundBlur_234_3813"/>
</filter>
<filter id="filter20_ddd_234_3813" x="-102.229" y="493.632" width="286.736" height="286.737" filterUnits="userSpaceOnUse" color-interpolation-filters="sRGB">
<feFlood flood-opacity="0" result="BackgroundImageFix"/>
<feColorMatrix in="SourceAlpha" type="matrix" values="0 0 0 0 0 0 0 0 0 0 0 0 0 0 0 0 0 0 127 0" result="hardAlpha"/>
<feOffset dx="-16" dy="28"/>
<feGaussianBlur stdDeviation="60"/>
<feColorMatrix type="matrix" values="0 0 0 0 1 0 0 0 0 0.627451 0 0 0 0 0.360784 0 0 0 0.1 0"/>
<feBlend mode="normal" in2="BackgroundImageFix" result="effect1_dropShadow_234_3813"/>
<feColorMatrix in="SourceAlpha" type="matrix" values="0 0 0 0 0 0 0 0 0 0 0 0 0 0 0 0 0 0 127 0" result="hardAlpha"/>
<feOffset dx="-2" dy="2"/>
<feGaussianBlur stdDeviation="12"/>
<feColorMatrix type="matrix" values="0 0 0 0 1 0 0 0 0 0.627451 0 0 0 0 0.360784 0 0 0 0.1 0"/>
<feBlend mode="normal" in2="effect1_dropShadow_234_3813" result="effect2_dropShadow_234_3813"/>
<feColorMatrix in="SourceAlpha" type="matrix" values="0 0 0 0 0 0 0 0 0 0 0 0 0 0 0 0 0 0 127 0" result="hardAlpha"/>
<feOffset dx="-16" dy="20"/>
<feGaussianBlur stdDeviation="20"/>
<feColorMatrix type="matrix" values="0 0 0 0 1 0 0 0 0 0.335 0 0 0 0 0.125 0 0 0 0.15 0"/>
<feBlend mode="soft-light" in2="effect2_dropShadow_234_3813" result="effect3_dropShadow_234_3813"/>
<feBlend mode="normal" in="SourceGraphic" in2="effect3_dropShadow_234_3813" result="shape"/>
</filter>
<filter id="filter21_i_234_3813" x="16" y="578" width="66" height="56" filterUnits="userSpaceOnUse" color-interpolation-filters="sRGB">
<feFlood flood-opacity="0" result="BackgroundImageFix"/>
<feBlend mode="normal" in="SourceGraphic" in2="BackgroundImageFix" result="shape"/>
<feColorMatrix in="SourceAlpha" type="matrix" values="0 0 0 0 0 0 0 0 0 0 0 0 0 0 0 0 0 0 127 0" result="hardAlpha"/>
<feOffset dx="-16" dy="-6"/>
<feGaussianBlur stdDeviation="40"/>
<feComposite in2="hardAlpha" operator="arithmetic" k2="-1" k3="1"/>
<feColorMatrix type="matrix" values="0 0 0 0 0.974 0 0 0 0 0.974889 0 0 0 0 0.976 0 0 0 0.03 0"/>
<feBlend mode="normal" in2="shape" result="effect1_innerShadow_234_3813"/>
</filter>
<filter id="filter22_df_234_3813" x="-10" y="542" width="158" height="158" filterUnits="userSpaceOnUse" color-interpolation-filters="sRGB">
<feFlood flood-opacity="0" result="BackgroundImageFix"/>
<feColorMatrix in="SourceAlpha" type="matrix" values="0 0 0 0 0 0 0 0 0 0 0 0 0 0 0 0 0 0 127 0" result="hardAlpha"/>
<feOffset dx="12" dy="12"/>
<feGaussianBlur stdDeviation="29"/>
<feColorMatrix type="matrix" values="0 0 0 0 0 0 0 0 0 0 0 0 0 0 0 0 0 0 0.74 0"/>
<feBlend mode="normal" in2="BackgroundImageFix" result="effect1_dropShadow_234_3813"/>
<feBlend mode="normal" in="SourceGraphic" in2="effect1_dropShadow_234_3813" result="shape"/>
<feGaussianBlur stdDeviation="4" result="effect2_foregroundBlur_234_3813"/>
</filter>
<filter id="filter23_ddf_234_3813" x="-2" y="550" width="142" height="142" filterUnits="userSpaceOnUse" color-interpolation-filters="sRGB">
<feFlood flood-opacity="0" result="BackgroundImageFix"/>
<feColorMatrix in="SourceAlpha" type="matrix" values="0 0 0 0 0 0 0 0 0 0 0 0 0 0 0 0 0 0 127 0" result="hardAlpha"/>
<feOffset dx="12" dy="12"/>
<feGaussianBlur stdDeviation="29"/>
<feColorMatrix type="matrix" values="0 0 0 0 0 0 0 0 0 0 0 0 0 0 0 0 0 0 0.74 0"/>
<feBlend mode="normal" in2="BackgroundImageFix" result="effect1_dropShadow_234_3813"/>
<feColorMatrix in="SourceAlpha" type="matrix" values="0 0 0 0 0 0 0 0 0 0 0 0 0 0 0 0 0 0 127 0" result="hardAlpha"/>
<feOffset dx="-12" dy="-10"/>
<feGaussianBlur stdDeviation="16"/>
<feColorMatrix type="matrix" values="0 0 0 0 0.763833 0 0 0 0 0.783333 0 0 0 0 0.802833 0 0 0 0.12 0"/>
<feBlend mode="normal" in2="effect1_dropShadow_234_3813" result="effect2_dropShadow_234_3813"/>
<feBlend mode="normal" in="SourceGraphic" in2="effect2_dropShadow_234_3813" result="shape"/>
<feGaussianBlur stdDeviation="4" result="effect3_foregroundBlur_234_3813"/>
</filter>
<filter id="filter24_ddd_234_3813" x="-102.229" y="589.632" width="286.736" height="286.737" filterUnits="userSpaceOnUse" color-interpolation-filters="sRGB">
<feFlood flood-opacity="0" result="BackgroundImageFix"/>
<feColorMatrix in="SourceAlpha" type="matrix" values="0 0 0 0 0 0 0 0 0 0 0 0 0 0 0 0 0 0 127 0" result="hardAlpha"/>
<feOffset dx="-16" dy="28"/>
<feGaussianBlur stdDeviation="60"/>
<feColorMatrix type="matrix" values="0 0 0 0 1 0 0 0 0 0.627451 0 0 0 0 0.360784 0 0 0 0.1 0"/>
<feBlend mode="normal" in2="BackgroundImageFix" result="effect1_dropShadow_234_3813"/>
<feColorMatrix in="SourceAlpha" type="matrix" values="0 0 0 0 0 0 0 0 0 0 0 0 0 0 0 0 0 0 127 0" result="hardAlpha"/>
<feOffset dx="-2" dy="2"/>
<feGaussianBlur stdDeviation="12"/>
<feColorMatrix type="matrix" values="0 0 0 0 1 0 0 0 0 0.627451 0 0 0 0 0.360784 0 0 0 0.1 0"/>
<feBlend mode="normal" in2="effect1_dropShadow_234_3813" result="effect2_dropShadow_234_3813"/>
<feColorMatrix in="SourceAlpha" type="matrix" values="0 0 0 0 0 0 0 0 0 0 0 0 0 0 0 0 0 0 127 0" result="hardAlpha"/>
<feOffset dx="-16" dy="20"/>
<feGaussianBlur stdDeviation="20"/>
<feColorMatrix type="matrix" values="0 0 0 0 1 0 0 0 0 0.335 0 0 0 0 0.125 0 0 0 0.15 0"/>
<feBlend mode="soft-light" in2="effect2_dropShadow_234_3813" result="effect3_dropShadow_234_3813"/>
<feBlend mode="normal" in="SourceGraphic" in2="effect3_dropShadow_234_3813" result="shape"/>
</filter>
<filter id="filter25_i_234_3813" x="16" y="674" width="66" height="56" filterUnits="userSpaceOnUse" color-interpolation-filters="sRGB">
<feFlood flood-opacity="0" result="BackgroundImageFix"/>
<feBlend mode="normal" in="SourceGraphic" in2="BackgroundImageFix" result="shape"/>
<feColorMatrix in="SourceAlpha" type="matrix" values="0 0 0 0 0 0 0 0 0 0 0 0 0 0 0 0 0 0 127 0" result="hardAlpha"/>
<feOffset dx="-16" dy="-6"/>
<feGaussianBlur stdDeviation="40"/>
<feComposite in2="hardAlpha" operator="arithmetic" k2="-1" k3="1"/>
<feColorMatrix type="matrix" values="0 0 0 0 0.974 0 0 0 0 0.974889 0 0 0 0 0.976 0 0 0 0.03 0"/>
<feBlend mode="normal" in2="shape" result="effect1_innerShadow_234_3813"/>
</filter>
<filter id="filter26_df_234_3813" x="-10" y="638" width="158" height="158" filterUnits="userSpaceOnUse" color-interpolation-filters="sRGB">
<feFlood flood-opacity="0" result="BackgroundImageFix"/>
<feColorMatrix in="SourceAlpha" type="matrix" values="0 0 0 0 0 0 0 0 0 0 0 0 0 0 0 0 0 0 127 0" result="hardAlpha"/>
<feOffset dx="12" dy="12"/>
<feGaussianBlur stdDeviation="29"/>
<feColorMatrix type="matrix" values="0 0 0 0 0 0 0 0 0 0 0 0 0 0 0 0 0 0 0.74 0"/>
<feBlend mode="normal" in2="BackgroundImageFix" result="effect1_dropShadow_234_3813"/>
<feBlend mode="normal" in="SourceGraphic" in2="effect1_dropShadow_234_3813" result="shape"/>
<feGaussianBlur stdDeviation="4" result="effect2_foregroundBlur_234_3813"/>
</filter>
<filter id="filter27_ddf_234_3813" x="-2" y="646" width="142" height="142" filterUnits="userSpaceOnUse" color-interpolation-filters="sRGB">
<feFlood flood-opacity="0" result="BackgroundImageFix"/>
<feColorMatrix in="SourceAlpha" type="matrix" values="0 0 0 0 0 0 0 0 0 0 0 0 0 0 0 0 0 0 127 0" result="hardAlpha"/>
<feOffset dx="12" dy="12"/>
<feGaussianBlur stdDeviation="29"/>
<feColorMatrix type="matrix" values="0 0 0 0 0 0 0 0 0 0 0 0 0 0 0 0 0 0 0.74 0"/>
<feBlend mode="normal" in2="BackgroundImageFix" result="effect1_dropShadow_234_3813"/>
<feColorMatrix in="SourceAlpha" type="matrix" values="0 0 0 0 0 0 0 0 0 0 0 0 0 0 0 0 0 0 127 0" result="hardAlpha"/>
<feOffset dx="-12" dy="-10"/>
<feGaussianBlur stdDeviation="16"/>
<feColorMatrix type="matrix" values="0 0 0 0 0.763833 0 0 0 0 0.783333 0 0 0 0 0.802833 0 0 0 0.12 0"/>
<feBlend mode="normal" in2="effect1_dropShadow_234_3813" result="effect2_dropShadow_234_3813"/>
<feBlend mode="normal" in="SourceGraphic" in2="effect2_dropShadow_234_3813" result="shape"/>
<feGaussianBlur stdDeviation="4" result="effect3_foregroundBlur_234_3813"/>
</filter>
<linearGradient id="paint0_linear_234_3813" x1="418.527" y1="-580.714" x2="-860.493" y2="418.816" gradientUnits="userSpaceOnUse">
<stop offset="0.226599" stop-color="#353A40"/>
<stop offset="0.697917" stop-color="#121416"/>
</linearGradient>
<linearGradient id="paint1_linear_234_3813" x1="34.9378" y1="138.762" x2="79.6684" y2="138.014" gradientUnits="userSpaceOnUse">
<stop stop-color="#5F5FFF"/>
<stop offset="1" stop-color="#1ED6FF"/>
</linearGradient>
<linearGradient id="paint2_linear_234_3813" x1="91.4258" y1="75.0006" x2="30.866" y2="113.884" gradientUnits="userSpaceOnUse">
<stop stop-color="white"/>
<stop offset="1" stop-color="#CD5B0A"/>
</linearGradient>
<linearGradient id="paint3_linear_234_3813" x1="87.8036" y1="68.2857" x2="16.8346" y2="188.525" gradientUnits="userSpaceOnUse">
<stop offset="0.226599" stop-color="#353A40"/>
<stop offset="0.697917" stop-color="#121416"/>
</linearGradient>
<linearGradient id="paint4_linear_234_3813" x1="77.4609" y1="101.697" x2="20.0869" y2="128.471" gradientUnits="userSpaceOnUse">
<stop offset="0.0709612" stop-color="#505962"/>
<stop offset="0.507086" stop-opacity="0"/>
<stop offset="1"/>
</linearGradient>
<linearGradient id="paint5_linear_234_3813" x1="130.719" y1="195.062" x2="49.2114" y2="81.103" gradientUnits="userSpaceOnUse">
<stop stop-color="#32383E"/>
<stop offset="1" stop-color="#17191C"/>
</linearGradient>
<linearGradient id="paint6_linear_234_3813" x1="102.635" y1="169.896" x2="52.1785" y2="99.3495" gradientUnits="userSpaceOnUse">
<stop stop-color="#32383E"/>
<stop offset="1" stop-color="#17191C"/>
</linearGradient>
<linearGradient id="paint7_linear_234_3813" x1="340.957" y1="176.954" x2="340.94" y2="179.948" gradientUnits="userSpaceOnUse">
<stop offset="0.0709612" stop-color="#505962"/>
<stop offset="0.507086" stop-opacity="0"/>
<stop offset="1"/>
</linearGradient>
<linearGradient id="paint8_linear_234_3813" x1="340.957" y1="176.954" x2="340.94" y2="179.948" gradientUnits="userSpaceOnUse">
<stop offset="0.0709612" stop-color="#505962"/>
<stop offset="0.507086" stop-opacity="0"/>
<stop offset="1"/>
</linearGradient>
<linearGradient id="paint9_linear_234_3813" x1="34.9378" y1="234.762" x2="79.6684" y2="234.014" gradientUnits="userSpaceOnUse">
<stop stop-color="#5F5FFF"/>
<stop offset="1" stop-color="#1ED6FF"/>
</linearGradient>
<linearGradient id="paint10_linear_234_3813" x1="91.4258" y1="171.001" x2="30.866" y2="209.884" gradientUnits="userSpaceOnUse">
<stop stop-color="white"/>
<stop offset="1" stop-color="#CD5B0A"/>
</linearGradient>
<linearGradient id="paint11_linear_234_3813" x1="87.8036" y1="164.286" x2="16.8346" y2="284.525" gradientUnits="userSpaceOnUse">
<stop offset="0.226599" stop-color="#353A40"/>
<stop offset="0.697917" stop-color="#121416"/>
</linearGradient>
<linearGradient id="paint12_linear_234_3813" x1="77.4609" y1="197.697" x2="20.0869" y2="224.471" gradientUnits="userSpaceOnUse">
<stop offset="0.0709612" stop-color="#505962"/>
<stop offset="0.507086" stop-opacity="0"/>
<stop offset="1"/>
</linearGradient>
<linearGradient id="paint13_linear_234_3813" x1="130.719" y1="291.062" x2="49.2114" y2="177.103" gradientUnits="userSpaceOnUse">
<stop stop-color="#32383E"/>
<stop offset="1" stop-color="#17191C"/>
</linearGradient>
<linearGradient id="paint14_linear_234_3813" x1="102.635" y1="265.896" x2="52.1785" y2="195.349" gradientUnits="userSpaceOnUse">
<stop stop-color="#32383E"/>
<stop offset="1" stop-color="#17191C"/>
</linearGradient>
<linearGradient id="paint15_linear_234_3813" x1="340.957" y1="272.954" x2="340.94" y2="275.948" gradientUnits="userSpaceOnUse">
<stop offset="0.0709612" stop-color="#505962"/>
<stop offset="0.507086" stop-opacity="0"/>
<stop offset="1"/>
</linearGradient>
<linearGradient id="paint16_linear_234_3813" x1="340.957" y1="272.954" x2="340.94" y2="275.948" gradientUnits="userSpaceOnUse">
<stop offset="0.0709612" stop-color="#505962"/>
<stop offset="0.507086" stop-opacity="0"/>
<stop offset="1"/>
</linearGradient>
<linearGradient id="paint17_linear_234_3813" x1="34.9378" y1="330.762" x2="79.6684" y2="330.014" gradientUnits="userSpaceOnUse">
<stop stop-color="#5F5FFF"/>
<stop offset="1" stop-color="#1ED6FF"/>
</linearGradient>
<linearGradient id="paint18_linear_234_3813" x1="91.4258" y1="267.001" x2="30.866" y2="305.884" gradientUnits="userSpaceOnUse">
<stop stop-color="white"/>
<stop offset="1" stop-color="#CD5B0A"/>
</linearGradient>
<linearGradient id="paint19_linear_234_3813" x1="87.8036" y1="260.286" x2="16.8346" y2="380.525" gradientUnits="userSpaceOnUse">
<stop offset="0.226599" stop-color="#353A40"/>
<stop offset="0.697917" stop-color="#121416"/>
</linearGradient>
<linearGradient id="paint20_linear_234_3813" x1="77.4609" y1="293.697" x2="20.0869" y2="320.471" gradientUnits="userSpaceOnUse">
<stop offset="0.0709612" stop-color="#505962"/>
<stop offset="0.507086" stop-opacity="0"/>
<stop offset="1"/>
</linearGradient>
<linearGradient id="paint21_linear_234_3813" x1="130.719" y1="387.062" x2="49.2114" y2="273.103" gradientUnits="userSpaceOnUse">
<stop stop-color="#32383E"/>
<stop offset="1" stop-color="#17191C"/>
</linearGradient>
<linearGradient id="paint22_linear_234_3813" x1="102.635" y1="361.896" x2="52.1785" y2="291.349" gradientUnits="userSpaceOnUse">
<stop stop-color="#32383E"/>
<stop offset="1" stop-color="#17191C"/>
</linearGradient>
<linearGradient id="paint23_linear_234_3813" x1="340.957" y1="368.954" x2="340.94" y2="371.948" gradientUnits="userSpaceOnUse">
<stop offset="0.0709612" stop-color="#505962"/>
<stop offset="0.507086" stop-opacity="0"/>
<stop offset="1"/>
</linearGradient>
<linearGradient id="paint24_linear_234_3813" x1="340.957" y1="368.954" x2="340.94" y2="371.948" gradientUnits="userSpaceOnUse">
<stop offset="0.0709612" stop-color="#505962"/>
<stop offset="0.507086" stop-opacity="0"/>
<stop offset="1"/>
</linearGradient>
<linearGradient id="paint25_linear_234_3813" x1="34.9378" y1="426.762" x2="79.6684" y2="426.014" gradientUnits="userSpaceOnUse">
<stop stop-color="#5F5FFF"/>
<stop offset="1" stop-color="#1ED6FF"/>
</linearGradient>
<linearGradient id="paint26_linear_234_3813" x1="91.4258" y1="363.001" x2="30.866" y2="401.884" gradientUnits="userSpaceOnUse">
<stop stop-color="white"/>
<stop offset="1" stop-color="#CD5B0A"/>
</linearGradient>
<linearGradient id="paint27_linear_234_3813" x1="87.8036" y1="356.286" x2="16.8346" y2="476.525" gradientUnits="userSpaceOnUse">
<stop offset="0.226599" stop-color="#353A40"/>
<stop offset="0.697917" stop-color="#121416"/>
</linearGradient>
<linearGradient id="paint28_linear_234_3813" x1="77.4609" y1="389.697" x2="20.0869" y2="416.471" gradientUnits="userSpaceOnUse">
<stop offset="0.0709612" stop-color="#505962"/>
<stop offset="0.507086" stop-opacity="0"/>
<stop offset="1"/>
</linearGradient>
<linearGradient id="paint29_linear_234_3813" x1="130.719" y1="483.062" x2="49.2114" y2="369.103" gradientUnits="userSpaceOnUse">
<stop stop-color="#32383E"/>
<stop offset="1" stop-color="#17191C"/>
</linearGradient>
<linearGradient id="paint30_linear_234_3813" x1="102.635" y1="457.896" x2="52.1785" y2="387.349" gradientUnits="userSpaceOnUse">
<stop stop-color="#32383E"/>
<stop offset="1" stop-color="#17191C"/>
</linearGradient>
<linearGradient id="paint31_linear_234_3813" x1="340.957" y1="464.954" x2="340.94" y2="467.948" gradientUnits="userSpaceOnUse">
<stop offset="0.0709612" stop-color="#505962"/>
<stop offset="0.507086" stop-opacity="0"/>
<stop offset="1"/>
</linearGradient>
<linearGradient id="paint32_linear_234_3813" x1="340.957" y1="464.954" x2="340.94" y2="467.948" gradientUnits="userSpaceOnUse">
<stop offset="0.0709612" stop-color="#505962"/>
<stop offset="0.507086" stop-opacity="0"/>
<stop offset="1"/>
</linearGradient>
<linearGradient id="paint33_linear_234_3813" x1="34.9378" y1="522.762" x2="79.6684" y2="522.014" gradientUnits="userSpaceOnUse">
<stop stop-color="#5F5FFF"/>
<stop offset="1" stop-color="#1ED6FF"/>
</linearGradient>
<linearGradient id="paint34_linear_234_3813" x1="91.4258" y1="459.001" x2="30.866" y2="497.884" gradientUnits="userSpaceOnUse">
<stop stop-color="white"/>
<stop offset="1" stop-color="#CD5B0A"/>
</linearGradient>
<linearGradient id="paint35_linear_234_3813" x1="87.8036" y1="452.286" x2="16.8346" y2="572.525" gradientUnits="userSpaceOnUse">
<stop offset="0.226599" stop-color="#353A40"/>
<stop offset="0.697917" stop-color="#121416"/>
</linearGradient>
<linearGradient id="paint36_linear_234_3813" x1="77.4609" y1="485.697" x2="20.0869" y2="512.471" gradientUnits="userSpaceOnUse">
<stop offset="0.0709612" stop-color="#505962"/>
<stop offset="0.507086" stop-opacity="0"/>
<stop offset="1"/>
</linearGradient>
<linearGradient id="paint37_linear_234_3813" x1="130.719" y1="579.062" x2="49.2114" y2="465.103" gradientUnits="userSpaceOnUse">
<stop stop-color="#32383E"/>
<stop offset="1" stop-color="#17191C"/>
</linearGradient>
<linearGradient id="paint38_linear_234_3813" x1="102.635" y1="553.896" x2="52.1785" y2="483.349" gradientUnits="userSpaceOnUse">
<stop stop-color="#32383E"/>
<stop offset="1" stop-color="#17191C"/>
</linearGradient>
<linearGradient id="paint39_linear_234_3813" x1="340.957" y1="560.954" x2="340.94" y2="563.948" gradientUnits="userSpaceOnUse">
<stop offset="0.0709612" stop-color="#505962"/>
<stop offset="0.507086" stop-opacity="0"/>
<stop offset="1"/>
</linearGradient>
<linearGradient id="paint40_linear_234_3813" x1="340.957" y1="560.954" x2="340.94" y2="563.949" gradientUnits="userSpaceOnUse">
<stop offset="0.0709612" stop-color="#505962"/>
<stop offset="0.507086" stop-opacity="0"/>
<stop offset="1"/>
</linearGradient>
<linearGradient id="paint41_linear_234_3813" x1="34.9378" y1="618.763" x2="79.6684" y2="618.015" gradientUnits="userSpaceOnUse">
<stop stop-color="#5F5FFF"/>
<stop offset="1" stop-color="#1ED6FF"/>
</linearGradient>
<linearGradient id="paint42_linear_234_3813" x1="91.4258" y1="555.001" x2="30.866" y2="593.884" gradientUnits="userSpaceOnUse">
<stop stop-color="white"/>
<stop offset="1" stop-color="#CD5B0A"/>
</linearGradient>
<linearGradient id="paint43_linear_234_3813" x1="87.8036" y1="548.286" x2="16.8346" y2="668.525" gradientUnits="userSpaceOnUse">
<stop offset="0.226599" stop-color="#353A40"/>
<stop offset="0.697917" stop-color="#121416"/>
</linearGradient>
<linearGradient id="paint44_linear_234_3813" x1="77.4609" y1="581.698" x2="20.0869" y2="608.471" gradientUnits="userSpaceOnUse">
<stop offset="0.0709612" stop-color="#505962"/>
<stop offset="0.507086" stop-opacity="0"/>
<stop offset="1"/>
</linearGradient>
<linearGradient id="paint45_linear_234_3813" x1="130.719" y1="675.063" x2="49.2114" y2="561.103" gradientUnits="userSpaceOnUse">
<stop stop-color="#32383E"/>
<stop offset="1" stop-color="#17191C"/>
</linearGradient>
<linearGradient id="paint46_linear_234_3813" x1="102.635" y1="649.896" x2="52.1785" y2="579.35" gradientUnits="userSpaceOnUse">
<stop stop-color="#32383E"/>
<stop offset="1" stop-color="#17191C"/>
</linearGradient>
<linearGradient id="paint47_linear_234_3813" x1="340.957" y1="656.954" x2="340.94" y2="659.949" gradientUnits="userSpaceOnUse">
<stop offset="0.0709612" stop-color="#505962"/>
<stop offset="0.507086" stop-opacity="0"/>
<stop offset="1"/>
</linearGradient>
<linearGradient id="paint48_linear_234_3813" x1="340.957" y1="656.954" x2="340.94" y2="659.949" gradientUnits="userSpaceOnUse">
<stop offset="0.0709612" stop-color="#505962"/>
<stop offset="0.507086" stop-opacity="0"/>
<stop offset="1"/>
</linearGradient>
<linearGradient id="paint49_linear_234_3813" x1="34.9378" y1="714.763" x2="79.6684" y2="714.015" gradientUnits="userSpaceOnUse">
<stop stop-color="#5F5FFF"/>
<stop offset="1" stop-color="#1ED6FF"/>
</linearGradient>
<linearGradient id="paint50_linear_234_3813" x1="91.4258" y1="651.001" x2="30.866" y2="689.884" gradientUnits="userSpaceOnUse">
<stop stop-color="white"/>
<stop offset="1" stop-color="#CD5B0A"/>
</linearGradient>
<linearGradient id="paint51_linear_234_3813" x1="87.8036" y1="644.286" x2="16.8346" y2="764.525" gradientUnits="userSpaceOnUse">
<stop offset="0.226599" stop-color="#353A40"/>
<stop offset="0.697917" stop-color="#121416"/>
</linearGradient>
<linearGradient id="paint52_linear_234_3813" x1="77.4609" y1="677.698" x2="20.0869" y2="704.471" gradientUnits="userSpaceOnUse">
<stop offset="0.0709612" stop-color="#505962"/>
<stop offset="0.507086" stop-opacity="0"/>
<stop offset="1"/>
</linearGradient>
<linearGradient id="paint53_linear_234_3813" x1="130.719" y1="771.063" x2="49.2114" y2="657.103" gradientUnits="userSpaceOnUse">
<stop stop-color="#32383E"/>
<stop offset="1" stop-color="#17191C"/>
</linearGradient>
<linearGradient id="paint54_linear_234_3813" x1="102.635" y1="745.896" x2="52.1785" y2="675.35" gradientUnits="userSpaceOnUse">
<stop stop-color="#32383E"/>
<stop offset="1" stop-color="#17191C"/>
</linearGradient>
<linearGradient id="paint55_linear_234_3813" x1="340.957" y1="752.954" x2="340.94" y2="755.949" gradientUnits="userSpaceOnUse">
<stop offset="0.0709612" stop-color="#505962"/>
<stop offset="0.507086" stop-opacity="0"/>
<stop offset="1"/>
</linearGradient>
<clipPath id="clip0_234_3813">
<rect width="375" height="813" fill="white"/>
</clipPath>
<clipPath id="clip1_234_3813">
<rect width="375" height="44" fill="white"/>
</clipPath>
<clipPath id="clip2_234_3813">
<rect width="20" height="20" fill="white" transform="translate(47 119)"/>
</clipPath>
<clipPath id="clip3_234_3813">
<rect width="20" height="20" fill="white" transform="translate(47 311)"/>
</clipPath>
<clipPath id="clip4_234_3813">
<rect width="20" height="20" fill="white" transform="translate(47 407)"/>
</clipPath>
<clipPath id="clip5_234_3813">
<rect width="20" height="20" fill="white" transform="translate(47 503)"/>
</clipPath>
<clipPath id="clip6_234_3813">
<rect width="20" height="20" fill="white" transform="translate(47 599)"/>
</clipPath>
<clipPath id="clip7_234_3813">
<rect width="20" height="20" fill="white" transform="translate(47 695)"/>
</clipPath>
</defs>
</svg>
