<svg width="375" height="812" viewBox="0 0 375 812" fill="none" xmlns="http://www.w3.org/2000/svg">
<rect width="375" height="812" fill="url(#paint0_linear_234_2448)"/>
<rect x="121" y="799" width="134" height="5" rx="2.5" fill="white"/>
<path d="M86.955 320H82.8261V311.688H73.9393V320H69.8104V300.271H73.9393V308.283H82.8261V300.271H86.955V320ZM96.577 307.982C94.827 307.982 93.5692 309.309 93.4325 311.141H99.6532C99.5711 309.268 98.3543 307.982 96.577 307.982ZM99.7079 315.516H103.372C102.934 318.387 100.309 320.314 96.6864 320.314C92.1747 320.314 89.4676 317.43 89.4676 312.74C89.4676 308.064 92.202 305.029 96.536 305.029C100.802 305.029 103.495 307.914 103.495 312.371V313.588H93.3914V313.834C93.3914 315.926 94.7176 317.361 96.7547 317.361C98.2176 317.361 99.3387 316.637 99.7079 315.516ZM105.762 320V300.271H109.754V320H105.762ZM112.622 320V305.344H116.614V320H112.622ZM114.618 303.73C113.415 303.73 112.485 302.814 112.485 301.666C112.485 300.504 113.415 299.602 114.618 299.602C115.821 299.602 116.751 300.504 116.751 301.666C116.751 302.814 115.821 303.73 114.618 303.73ZM126.113 320.314C121.683 320.314 118.853 317.471 118.853 312.658C118.853 307.914 121.724 305.029 126.113 305.029C130.502 305.029 133.373 307.9 133.373 312.658C133.373 317.484 130.543 320.314 126.113 320.314ZM126.113 317.266C128.068 317.266 129.312 315.611 129.312 312.672C129.312 309.76 128.054 308.078 126.113 308.078C124.172 308.078 122.9 309.76 122.9 312.672C122.9 315.611 124.144 317.266 126.113 317.266ZM135.298 309.65C135.298 306.861 137.717 305.029 141.477 305.029C145.155 305.029 147.548 306.889 147.602 309.732H143.924C143.842 308.557 142.899 307.832 141.423 307.832C140.042 307.832 139.139 308.461 139.139 309.404C139.139 310.129 139.768 310.621 141.053 310.922L143.856 311.523C146.796 312.18 147.985 313.342 147.985 315.529C147.985 318.414 145.333 320.314 141.464 320.314C137.553 320.314 135.147 318.428 134.928 315.57H138.825C139.016 316.801 139.987 317.512 141.573 317.512C143.09 317.512 144.007 316.91 144.007 315.953C144.007 315.215 143.514 314.805 142.202 314.49L139.495 313.889C136.719 313.26 135.298 311.811 135.298 309.65ZM155.348 314.381H159.327C159.518 316.008 161.213 317.074 163.401 317.074C165.602 317.074 167.106 316.021 167.106 314.572C167.106 313.287 166.163 312.576 163.784 312.043L161.213 311.482C157.577 310.703 155.786 308.857 155.786 305.973C155.786 302.336 158.93 299.93 163.333 299.93C167.926 299.93 170.811 302.295 170.879 305.863H167.01C166.874 304.195 165.411 303.184 163.346 303.184C161.309 303.184 159.942 304.154 159.942 305.617C159.942 306.834 160.899 307.518 163.169 308.037L165.561 308.543C169.512 309.391 171.235 311.086 171.235 314.094C171.235 317.922 168.131 320.342 163.237 320.342C158.493 320.342 155.471 318.086 155.348 314.381ZM182.101 305.111C185.82 305.111 188.103 307.941 188.103 312.672C188.103 317.389 185.834 320.232 182.169 320.232C180.037 320.232 178.396 319.193 177.617 317.539H177.535V324.785H173.542V305.344H177.48V307.9H177.562C178.355 306.178 179.982 305.111 182.101 305.111ZM180.761 317.02C182.757 317.02 184.015 315.338 184.015 312.672C184.015 310.02 182.757 308.311 180.761 308.311C178.806 308.311 177.521 310.047 177.521 312.672C177.521 315.324 178.806 317.02 180.761 317.02ZM197 320.314C192.571 320.314 189.741 317.471 189.741 312.658C189.741 307.914 192.612 305.029 197 305.029C201.389 305.029 204.26 307.9 204.26 312.658C204.26 317.484 201.43 320.314 197 320.314ZM197 317.266C198.956 317.266 200.2 315.611 200.2 312.672C200.2 309.76 198.942 308.078 197 308.078C195.059 308.078 193.788 309.76 193.788 312.672C193.788 315.611 195.032 317.266 197 317.266ZM206.431 320V305.344H210.287V307.982H210.369C210.888 306.123 212.132 305.111 213.855 305.111C214.32 305.111 214.716 305.18 214.99 305.262V308.775C214.662 308.639 214.115 308.543 213.54 308.543C211.572 308.543 210.423 309.746 210.423 311.811V320H206.431ZM217.803 301.967H221.795V305.344H224.502V308.352H221.795V315.365C221.795 316.486 222.342 317.02 223.518 317.02C223.873 317.02 224.243 316.992 224.489 316.951V319.891C224.078 319.986 223.395 320.055 222.588 320.055C219.143 320.055 217.803 318.906 217.803 316.049V308.352H215.739V305.344H217.803V301.967ZM226.55 309.65C226.55 306.861 228.97 305.029 232.73 305.029C236.408 305.029 238.8 306.889 238.855 309.732H235.177C235.095 308.557 234.152 307.832 232.675 307.832C231.294 307.832 230.392 308.461 230.392 309.404C230.392 310.129 231.021 310.621 232.306 310.922L235.109 311.523C238.048 312.18 239.238 313.342 239.238 315.529C239.238 318.414 236.585 320.314 232.716 320.314C228.806 320.314 226.4 318.428 226.181 315.57H230.077C230.269 316.801 231.24 317.512 232.826 317.512C234.343 317.512 235.259 316.91 235.259 315.953C235.259 315.215 234.767 314.805 233.454 314.49L230.747 313.889C227.972 313.26 226.55 311.811 226.55 309.65ZM256.185 320H252.056V303.676H246.355V300.271H261.9V303.676H256.185V320ZM267.297 307.982C265.547 307.982 264.289 309.309 264.153 311.141H270.373C270.291 309.268 269.074 307.982 267.297 307.982ZM270.428 315.516H274.092C273.654 318.387 271.029 320.314 267.406 320.314C262.895 320.314 260.188 317.43 260.188 312.74C260.188 308.064 262.922 305.029 267.256 305.029C271.522 305.029 274.215 307.914 274.215 312.371V313.588H264.112V313.834C264.112 315.926 265.438 317.361 267.475 317.361C268.938 317.361 270.059 316.637 270.428 315.516ZM289.702 310.799H285.997C285.765 309.254 284.739 308.16 283.099 308.16C281.13 308.16 279.9 309.828 279.9 312.658C279.9 315.543 281.13 317.184 283.112 317.184C284.712 317.184 285.751 316.227 285.997 314.627H289.716C289.511 318.086 286.927 320.314 283.071 320.314C278.655 320.314 275.853 317.443 275.853 312.658C275.853 307.955 278.655 305.029 283.044 305.029C287.009 305.029 289.525 307.477 289.702 310.799ZM291.846 320V300.271H295.77V307.955H295.852C296.631 306.109 298.231 305.07 300.459 305.07C303.713 305.07 305.572 307.176 305.572 310.566V320H301.58V311.414C301.58 309.527 300.65 308.379 298.832 308.379C296.945 308.379 295.838 309.705 295.838 311.633V320H291.846Z" fill="white"/>
<path d="M135.724 349H133.974V344.008H128.185V349H126.435V337.727H128.185V342.492H133.974V337.727H135.724V349ZM140.979 341.992C139.799 341.992 138.971 342.891 138.885 344.133H142.994C142.955 342.875 142.158 341.992 140.979 341.992ZM142.986 346.586H144.588C144.354 348.086 142.932 349.156 141.049 349.156C138.635 349.156 137.174 347.523 137.174 344.93C137.174 342.352 138.658 340.633 140.979 340.633C143.26 340.633 144.682 342.242 144.682 344.734V345.312H138.877V345.414C138.877 346.844 139.736 347.789 141.088 347.789C142.049 347.789 142.76 347.305 142.986 346.586ZM145.945 349V340.781H147.554V342.18H147.593C147.867 341.219 148.601 340.648 149.57 340.648C149.812 340.648 150.023 340.688 150.148 340.711V342.281C150.015 342.227 149.718 342.188 149.39 342.188C148.304 342.188 147.632 342.914 147.632 344.078V349H145.945ZM154.223 341.992C153.044 341.992 152.215 342.891 152.129 344.133H156.239C156.2 342.875 155.403 341.992 154.223 341.992ZM156.231 346.586H157.833C157.598 348.086 156.176 349.156 154.294 349.156C151.879 349.156 150.419 347.523 150.419 344.93C150.419 342.352 151.903 340.633 154.223 340.633C156.504 340.633 157.926 342.242 157.926 344.734V345.312H152.122V345.414C152.122 346.844 152.981 347.789 154.333 347.789C155.294 347.789 156.004 347.305 156.231 346.586ZM167.14 349H165.39V339.234H161.937V337.727H170.585V339.234H167.14V349ZM173.278 349.156C170.926 349.156 169.379 347.539 169.379 344.891C169.379 342.25 170.934 340.633 173.278 340.633C175.621 340.633 177.176 342.25 177.176 344.891C177.176 347.539 175.629 349.156 173.278 349.156ZM173.278 347.766C174.606 347.766 175.457 346.719 175.457 344.891C175.457 343.07 174.598 342.023 173.278 342.023C171.957 342.023 171.098 343.07 171.098 344.891C171.098 346.719 171.957 347.766 173.278 347.766ZM186.592 349.188C183.428 349.188 181.428 346.953 181.428 343.359C181.428 339.789 183.444 337.539 186.592 337.539C189.147 337.539 191.077 339.109 191.374 341.461H189.639C189.327 340.016 188.124 339.07 186.592 339.07C184.546 339.07 183.217 340.75 183.217 343.359C183.217 345.992 184.53 347.656 186.6 347.656C188.171 347.656 189.288 346.852 189.639 345.492H191.381C190.952 347.82 189.186 349.188 186.592 349.188ZM196.238 349.156C193.887 349.156 192.34 347.539 192.34 344.891C192.34 342.25 193.894 340.633 196.238 340.633C198.582 340.633 200.137 342.25 200.137 344.891C200.137 347.539 198.59 349.156 196.238 349.156ZM196.238 347.766C197.566 347.766 198.418 346.719 198.418 344.891C198.418 343.07 197.558 342.023 196.238 342.023C194.918 342.023 194.058 343.07 194.058 344.891C194.058 346.719 194.918 347.766 196.238 347.766ZM201.392 349V340.781H203.001V342.164H203.04C203.407 341.25 204.267 340.641 205.376 340.641C206.517 340.641 207.345 341.227 207.673 342.25H207.712C208.134 341.25 209.103 340.641 210.274 340.641C211.899 340.641 212.962 341.719 212.962 343.352V349H211.267V343.758C211.267 342.695 210.696 342.086 209.696 342.086C208.696 342.086 208.001 342.828 208.001 343.867V349H206.345V343.633C206.345 342.688 205.743 342.086 204.79 342.086C203.79 342.086 203.079 342.867 203.079 343.922V349H201.392ZM218.826 340.648C220.912 340.648 222.287 342.289 222.287 344.891C222.287 347.492 220.92 349.141 218.858 349.141C217.678 349.141 216.74 348.562 216.272 347.648H216.233V351.719H214.545V340.781H216.178V342.195H216.209C216.694 341.25 217.639 340.648 218.826 340.648ZM218.381 347.711C219.717 347.711 220.553 346.617 220.553 344.891C220.553 343.172 219.717 342.07 218.381 342.07C217.092 342.07 216.225 343.195 216.225 344.891C216.225 346.602 217.084 347.711 218.381 347.711ZM226.98 341.992C225.8 341.992 224.972 342.891 224.886 344.133H228.996C228.956 342.875 228.16 341.992 226.98 341.992ZM228.988 346.586H230.589C230.355 348.086 228.933 349.156 227.05 349.156C224.636 349.156 223.175 347.523 223.175 344.93C223.175 342.352 224.66 340.633 226.98 340.633C229.261 340.633 230.683 342.242 230.683 344.734V345.312H224.878V345.414C224.878 346.844 225.738 347.789 227.089 347.789C228.05 347.789 228.761 347.305 228.988 346.586ZM232.438 338.836H234.133V340.781H235.696V342.117H234.133V346.648C234.133 347.359 234.446 347.68 235.133 347.68C235.305 347.68 235.579 347.664 235.688 347.641V348.977C235.501 349.023 235.126 349.055 234.751 349.055C233.087 349.055 232.438 348.422 232.438 346.836V342.117H231.243V340.781H232.438V338.836ZM240.271 341.992C239.092 341.992 238.264 342.891 238.178 344.133H242.287C242.248 342.875 241.451 341.992 240.271 341.992ZM242.279 346.586H243.881C243.646 348.086 242.224 349.156 240.342 349.156C237.928 349.156 236.467 347.523 236.467 344.93C236.467 342.352 237.951 340.633 240.271 340.633C242.553 340.633 243.974 342.242 243.974 344.734V345.312H238.17V345.414C238.17 346.844 239.029 347.789 240.381 347.789C241.342 347.789 242.053 347.305 242.279 346.586ZM246.503 349.086C245.933 349.086 245.48 348.633 245.48 348.062C245.48 347.492 245.933 347.039 246.503 347.039C247.073 347.039 247.526 347.492 247.526 348.062C247.526 348.633 247.073 349.086 246.503 349.086Z" fill="#C0C0C0"/>
<path d="M195.588 205.379C191.016 203.595 189.735 201.148 187.55 195.463C185.566 200.944 184.26 203.519 179.387 205.379C184.235 208.897 185.892 215.78 187.475 222.51C189.082 215.78 190.74 208.897 195.588 205.379Z" fill="white"/>
<path d="M187.5 286.748C187.5 286.748 187.5 281.471 187.5 274.971C187.5 274.971 182.15 258.58 177.628 254.475L145 254.068C144.975 254.042 176.8 262.199 187.5 286.748Z" fill="white"/>
<path d="M187.5 286.697C187.5 286.697 187.5 281.42 187.5 274.92C187.5 274.92 192.85 258.529 197.371 254.424L230 254.017C230 254.017 198.2 262.148 187.5 286.697Z" fill="white"/>
<path d="M187.499 258.273C174.463 258.273 163.863 249.581 163.863 238.925C163.863 228.244 174.463 219.577 187.499 219.577C200.536 219.577 211.136 228.27 211.136 238.925C211.11 249.581 200.511 258.273 187.499 258.273ZM187.499 222.866C176.272 222.866 167.129 230.054 167.129 238.9C167.129 247.745 176.272 254.934 187.499 254.934C198.727 254.934 207.87 247.745 207.87 238.9C207.87 230.054 198.727 222.866 187.499 222.866Z" fill="white"/>
<path d="M200.612 203.416C193.403 201.657 193.002 200.586 190.289 193.474C189.912 192.455 189.485 191.358 189.008 190.109L187.425 186.082L185.968 190.16C185.667 190.976 185.416 191.741 185.165 192.455C182.301 200.561 181.95 201.581 174.389 203.441L167.758 205.047L174.389 206.653C180.744 208.208 182.427 215.244 184.361 223.401C184.838 225.441 185.34 227.556 185.943 229.596L187.476 235L189.058 229.596C189.661 227.531 190.163 225.415 190.64 223.35C192.575 215.218 194.257 208.183 200.612 206.628L207.244 205.022L200.612 203.416ZM187.501 229.137C184.562 218.991 183.909 207.265 174.766 205.047C183.909 202.83 183.884 200.841 187.501 190.721C191.52 200.892 191.093 202.804 200.236 205.047C191.093 207.265 190.439 219.017 187.501 229.137Z" fill="white"/>
<path d="M187.471 224.37L190.485 233.623L197.895 232.808L193.5 238.9L197.895 245.018L190.485 244.202L187.496 263.984L184.482 244.202L177.072 245.018L181.468 238.9L177.072 232.808L184.482 233.623L187.471 224.37Z" fill="white"/>
<path d="M193.5 238.899L195.936 235.509C195.308 234.846 194.831 234.03 194.605 233.138L190.511 233.597L188.853 229.773C187.974 230.003 187.044 230.003 186.165 229.773L184.508 233.597L180.413 233.138C180.162 234.03 179.71 234.846 179.082 235.509L181.518 238.899L179.082 242.29C179.71 242.952 180.187 243.768 180.413 244.66L184.508 244.202L186.165 248.025C187.044 247.796 187.974 247.796 188.853 248.025L190.511 244.202L194.605 244.66C194.856 243.768 195.308 242.952 195.936 242.29L193.5 238.899Z" fill="white"/>
<path d="M169.914 238.9L178.253 236.937C180.238 236.045 181.418 233.98 181.192 231.788L180.665 226.945L184.533 229.825C186.266 231.125 188.652 231.125 190.385 229.825L194.254 226.945L193.726 231.788C193.5 233.98 194.681 236.045 196.665 236.937L205.029 238.9L196.665 240.863C194.681 241.755 193.5 243.82 193.726 246.012L194.254 250.856L190.41 248C188.677 246.7 186.291 246.7 184.558 248L180.69 250.881L181.217 246.038C181.443 243.845 180.263 241.781 178.278 240.888" fill="white"/>
<mask id="mask0_234_2448" style="mask-type:luminance" maskUnits="userSpaceOnUse" x="199" y="202" width="31" height="51">
<path d="M199.93 202.37H229.695V252.538H199.93V202.37Z" fill="white"/>
</mask>
<g mask="url(#mask0_234_2448)">
<path d="M208.596 240.251L203.799 252.538H221.256C222.436 252.538 223.517 251.62 224.119 250.142L229.721 235.815L208.596 240.251Z" fill="white"/>
<path d="M208.971 238.492L205.053 227.863L229.694 223.07C229.694 223.07 224.519 234.72 222.083 235.739" fill="white"/>
<path d="M199.93 223.503L221.858 202.37L219.647 217.844C219.321 220.214 217.713 223.452 215.402 224.217L204.451 226.562L199.93 223.503Z" fill="white"/>
</g>
<mask id="mask1_234_2448" style="mask-type:luminance" maskUnits="userSpaceOnUse" x="145" y="202" width="31" height="51">
<path d="M175.035 202.37H145.27V252.538H175.035V202.37Z" fill="white"/>
</mask>
<g mask="url(#mask1_234_2448)">
<path d="M166.369 240.251L171.166 252.564H153.709C152.529 252.564 151.449 251.646 150.846 250.167L145.27 235.816L166.369 240.251Z" fill="white"/>
<path d="M165.967 238.493L169.91 227.863L145.27 223.07C145.27 223.07 150.444 234.72 152.88 235.74" fill="white"/>
<path d="M175.036 223.503L153.107 202.37L155.318 217.844C155.644 220.215 157.252 223.452 159.563 224.217L170.514 226.562L175.036 223.503Z" fill="white"/>
</g>
<rect x="16.25" y="686.25" width="342.5" height="49.5" rx="7.75" fill="url(#paint1_linear_234_2448)"/>
<rect x="16.25" y="686.25" width="342.5" height="49.5" rx="7.75" stroke="url(#paint2_linear_234_2448)" stroke-width="0.5"/>
<path d="M158.195 717L157.795 716.04C157.555 716.248 157.299 716.424 157.011 716.568C156.515 716.824 155.811 717.08 154.915 717.08C152.179 717.08 149.955 714.84 149.955 711.96C149.955 709.08 152.179 706.84 154.915 706.84C157.315 706.84 158.995 708.504 159.475 710.36L157.075 710.52C156.819 709.8 156.115 709.08 154.915 709.08C153.459 709.08 152.275 710.296 152.275 711.96C152.275 713.624 153.459 714.84 154.915 714.84C156.211 714.84 156.899 714.12 157.155 713.48H154.915V711.56H159.795V717H158.195ZM165.91 714.68L168.15 714.84C167.766 716.04 166.614 717.16 164.71 717.16C162.726 717.16 161.03 715.48 161.03 713.32C161.03 711.16 162.71 709.48 164.79 709.48C166.79 709.48 168.39 711 168.39 713.32C168.39 713.496 168.358 713.656 168.342 713.8L168.31 714.04H163.27C163.446 714.6 163.974 715.16 164.79 715.16C165.19 715.16 165.478 715.048 165.654 714.92C165.766 714.856 165.846 714.776 165.91 714.68ZM163.27 712.68H166.31C166.134 712.04 165.606 711.48 164.79 711.48C163.974 711.48 163.446 712.04 163.27 712.68ZM170.175 714.36V711.64H169.055V709.8H169.615C170.207 709.8 170.495 709.512 170.495 708.92V707.88H172.335V709.64H173.855V711.64H172.335V714.04C172.335 714.68 172.735 715.08 173.295 715.08C173.471 715.08 173.583 715.064 173.695 715.048L173.855 715V716.92C173.775 716.952 173.679 716.984 173.567 717C173.359 717.048 173.103 717.08 172.815 717.08C171.135 717.08 170.175 716.136 170.175 714.36ZM178.647 714.76L180.727 714.6C180.807 715.096 181.127 715.4 181.687 715.4C182.247 715.4 182.567 715.08 182.567 714.76C182.567 713.976 178.807 714.36 178.807 711.72C178.807 710.52 179.863 709.48 181.607 709.48C183.527 709.48 184.487 710.44 184.727 711.72L182.647 711.88C182.567 711.56 182.263 711.24 181.767 711.24C181.271 711.24 181.047 711.48 181.047 711.8C181.047 712.6 184.807 712.2 184.807 714.84C184.807 716.04 183.703 717.16 181.847 717.16C179.847 717.16 178.887 716.216 178.647 714.76ZM186.682 714.36V711.64H185.562V709.8H186.122C186.714 709.8 187.002 709.512 187.002 708.92V707.88H188.842V709.64H190.362V711.64H188.842V714.04C188.842 714.68 189.242 715.08 189.802 715.08C189.978 715.08 190.09 715.064 190.202 715.048L190.362 715V716.92C190.282 716.952 190.186 716.984 190.074 717C189.866 717.048 189.61 717.08 189.322 717.08C187.642 717.08 186.682 716.136 186.682 714.36ZM196.32 717L196 716.28C195.824 716.424 195.616 716.568 195.392 716.68C195.008 716.888 194.48 717.08 193.84 717.08C192.24 717.08 191.36 716.216 191.36 715C191.36 713.544 192.4 712.52 195.76 712.52C195.76 711.8 195.36 711.4 194.8 711.4C194.4 711.4 194.16 711.592 194.016 711.768C193.936 711.88 193.872 711.992 193.84 712.12L191.68 711.96C191.936 710.504 192.944 709.48 194.88 709.48C196.64 709.48 197.92 710.76 197.92 712.52V717H196.32ZM195.76 714.12V713.8C193.904 713.8 193.52 714.2 193.52 714.76C193.52 715.16 193.84 715.48 194.4 715.48C195.216 715.48 195.76 714.936 195.76 714.12ZM199.396 717V709.64H200.996L201.316 710.44C201.444 710.28 201.604 710.136 201.78 710.008C202.084 709.768 202.516 709.56 203.076 709.56C203.268 709.56 203.428 709.592 203.54 709.608L203.716 709.64V711.88L203.492 711.8C203.348 711.752 203.156 711.72 202.916 711.72C202.1 711.72 201.556 712.28 201.556 713.24V717H199.396ZM205.424 714.36V711.64H204.304V709.8H204.864C205.456 709.8 205.744 709.512 205.744 708.92V707.88H207.584V709.64H209.104V711.64H207.584V714.04C207.584 714.68 207.984 715.08 208.544 715.08C208.72 715.08 208.832 715.064 208.944 715.048L209.104 715V716.92C209.024 716.952 208.928 716.984 208.816 717C208.608 717.048 208.352 717.08 208.064 717.08C206.384 717.08 205.424 716.136 205.424 714.36ZM214.982 714.68L217.222 714.84C216.838 716.04 215.686 717.16 213.782 717.16C211.798 717.16 210.102 715.48 210.102 713.32C210.102 711.16 211.782 709.48 213.862 709.48C215.862 709.48 217.462 711 217.462 713.32C217.462 713.496 217.43 713.656 217.414 713.8L217.382 714.04H212.342C212.518 714.6 213.046 715.16 213.862 715.16C214.262 715.16 214.55 715.048 214.726 714.92C214.838 714.856 214.918 714.776 214.982 714.68ZM212.342 712.68H215.382C215.206 712.04 214.678 711.48 213.862 711.48C213.046 711.48 212.518 712.04 212.342 712.68ZM224.127 717L223.807 716.28C223.631 716.424 223.455 716.568 223.247 716.68C222.879 716.888 222.367 717.08 221.727 717.08C219.887 717.08 218.287 715.496 218.287 713.32C218.287 711.144 219.887 709.56 221.727 709.56C222.287 709.56 222.751 709.704 223.071 709.88C223.263 709.976 223.423 710.088 223.567 710.2V706.92H225.727V717H224.127ZM222.047 715.08C222.943 715.08 223.647 714.36 223.647 713.32C223.647 712.28 222.943 711.56 222.047 711.56C221.151 711.56 220.447 712.28 220.447 713.32C220.447 714.36 221.151 715.08 222.047 715.08Z" fill="white"/>
<defs>
<linearGradient id="paint0_linear_234_2448" x1="418.527" y1="-580" x2="-859.299" y2="419.827" gradientUnits="userSpaceOnUse">
<stop offset="0.226599" stop-color="#353A40"/>
<stop offset="0.697917" stop-color="#121416"/>
</linearGradient>
<linearGradient id="paint1_linear_234_2448" x1="14.6858" y1="724.506" x2="33.6336" y2="624.291" gradientUnits="userSpaceOnUse">
<stop stop-color="#FFA05C"/>
<stop offset="1" stop-color="#F06500"/>
</linearGradient>
<linearGradient id="paint2_linear_234_2448" x1="-82.5632" y1="770.674" x2="-48.3476" y2="625.691" gradientUnits="userSpaceOnUse">
<stop stop-color="white"/>
<stop offset="1" stop-color="#CD5B0A"/>
</linearGradient>
</defs>
</svg>
