<svg width="375" height="886" viewBox="0 0 375 886" fill="none" xmlns="http://www.w3.org/2000/svg">
<g clip-path="url(#clip0_234_3032)">
<rect width="375" height="886" fill="url(#paint0_linear_234_3032)"/>
<rect x="121" y="873" width="134" height="5" rx="2.5" fill="white"/>
<g clip-path="url(#clip1_234_3032)">
<path opacity="0.35" d="M338.667 17.8334H355.333C356.53 17.8334 357.5 18.8037 357.5 20.0004V26.0004C357.5 27.1968 356.53 28.1664 355.333 28.1664H338.667C337.47 28.1664 336.5 27.1968 336.5 26.0004V20.0004L336.511 19.7787C336.622 18.686 337.545 17.8334 338.667 17.8334Z" fill="white" stroke="white"/>
<path opacity="0.4" d="M359 21V25C359.805 24.6612 360.328 23.8731 360.328 23C360.328 22.1269 359.805 21.3388 359 21Z" fill="white"/>
<path d="M338 20.6667C338 19.9303 338.597 19.3334 339.333 19.3334H354.667C355.403 19.3334 356 19.9303 356 20.6667V25.3334C356 26.0698 355.403 26.6667 354.667 26.6667H339.333C338.597 26.6667 338 26.0698 338 25.3334V20.6667Z" fill="white"/>
<path fill-rule="evenodd" clip-rule="evenodd" d="M323.33 19.608C325.546 19.6081 327.677 20.4596 329.283 21.9863C329.404 22.1042 329.597 22.1027 329.716 21.983L330.872 20.8163C330.933 20.7556 330.966 20.6734 330.966 20.5878C330.965 20.5022 330.931 20.4204 330.87 20.3603C326.655 16.3208 320.005 16.3208 315.79 20.3603C315.729 20.4203 315.694 20.5021 315.693 20.5877C315.693 20.6733 315.726 20.7556 315.787 20.8163L316.943 21.983C317.062 22.1029 317.255 22.1044 317.376 21.9863C318.982 20.4595 321.114 19.608 323.33 19.608ZM323.33 23.4037C324.547 23.4036 325.721 23.8561 326.624 24.6733C326.746 24.7893 326.938 24.7868 327.057 24.6677L328.212 23.501C328.273 23.4398 328.307 23.3568 328.306 23.2705C328.305 23.1843 328.269 23.102 328.207 23.042C325.459 20.4856 321.203 20.4856 318.455 23.042C318.393 23.102 318.357 23.1843 318.357 23.2706C318.356 23.3569 318.39 23.4399 318.451 23.501L319.605 24.6677C319.724 24.7868 319.916 24.7893 320.038 24.6733C320.94 23.8567 322.113 23.4042 323.33 23.4037ZM325.643 25.9575C325.645 26.044 325.611 26.1274 325.549 26.188L323.552 28.2037C323.493 28.2629 323.413 28.2963 323.33 28.2963C323.247 28.2963 323.167 28.2629 323.108 28.2037L321.111 26.188C321.049 26.1274 321.015 26.0439 321.017 25.9574C321.019 25.8709 321.056 25.789 321.12 25.731C322.396 24.6521 324.264 24.6521 325.54 25.731C325.604 25.7891 325.641 25.871 325.643 25.9575Z" fill="white"/>
<path fill-rule="evenodd" clip-rule="evenodd" d="M309.666 17.6666H308.666C308.114 17.6666 307.666 18.1143 307.666 18.6666V27.3333C307.666 27.8856 308.114 28.3333 308.666 28.3333H309.666C310.218 28.3333 310.666 27.8856 310.666 27.3333V18.6666C310.666 18.1143 310.218 17.6666 309.666 17.6666ZM303.999 20H304.999C305.552 20 305.999 20.4477 305.999 21V27.3333C305.999 27.8856 305.552 28.3333 304.999 28.3333H303.999C303.447 28.3333 302.999 27.8856 302.999 27.3333V21C302.999 20.4477 303.447 20 303.999 20ZM300.333 22.3333H299.333C298.78 22.3333 298.333 22.781 298.333 23.3333V27.3333C298.333 27.8856 298.78 28.3333 299.333 28.3333H300.333C300.885 28.3333 301.333 27.8856 301.333 27.3333V23.3333C301.333 22.781 300.885 22.3333 300.333 22.3333ZM295.666 24.3333H294.666C294.114 24.3333 293.666 24.781 293.666 25.3333V27.3333C293.666 27.8856 294.114 28.3333 294.666 28.3333H295.666C296.218 28.3333 296.666 27.8856 296.666 27.3333V25.3333C296.666 24.781 296.218 24.3333 295.666 24.3333Z" fill="white"/>
<path d="M37.3203 28.2563C40.0083 28.2563 41.605 26.1543 41.605 22.5947C41.605 21.2544 41.3486 20.1265 40.8579 19.2549C40.1475 17.8999 38.9243 17.1675 37.3789 17.1675C35.0791 17.1675 33.4531 18.7129 33.4531 20.8809C33.4531 22.917 34.918 24.3965 36.9321 24.3965C38.1699 24.3965 39.1733 23.8179 39.6714 22.8145H39.6934C39.6934 22.8145 39.7227 22.8145 39.73 22.8145C39.7446 22.8145 39.7959 22.8145 39.7959 22.8145C39.7959 25.2314 38.8804 26.6743 37.335 26.6743C36.4268 26.6743 35.7236 26.1763 35.4819 25.3779H33.5996C33.9146 27.1138 35.3867 28.2563 37.3203 28.2563ZM37.3862 22.895C36.1704 22.895 35.3062 22.0308 35.3062 20.8223C35.3062 19.6431 36.2144 18.7422 37.3936 18.7422C38.5728 18.7422 39.481 19.6577 39.481 20.8516C39.481 22.0308 38.5947 22.895 37.3862 22.895Z" fill="white"/>
<path d="M44.6961 28.1538C45.3919 28.1538 45.868 27.6558 45.868 26.9966C45.868 26.3301 45.3919 25.8394 44.6961 25.8394C44.0076 25.8394 43.5242 26.3301 43.5242 26.9966C43.5242 27.6558 44.0076 28.1538 44.6961 28.1538ZM44.6961 22.6606C45.3919 22.6606 45.868 22.1699 45.868 21.5107C45.868 20.8442 45.3919 20.3535 44.6961 20.3535C44.0076 20.3535 43.5242 20.8442 43.5242 21.5107C43.5242 22.1699 44.0076 22.6606 44.6961 22.6606Z" fill="white"/>
<path d="M52.7237 28H54.5328V26.0298H55.961V24.4331H54.5328V17.4312H51.8668C49.9991 20.2437 48.5123 22.5947 47.5602 24.3452V26.0298H52.7237V28ZM49.3106 24.3672C50.5411 22.1992 51.6397 20.4634 52.6505 18.9692H52.753V24.4771H49.3106V24.3672Z" fill="white"/>
<path d="M59.9896 28H61.8793V17.4312H59.997L57.2357 19.3647V21.1812L59.8651 19.3354H59.9896V28Z" fill="white"/>
</g>
<path d="M162.35 71V59.66H163.79L167.84 68.39L171.89 59.66H173.33V71H171.62V63.98L168.38 71H167.3L164.06 63.98V71H162.35ZM180.976 68.66H182.686C182.164 70.01 181.066 71.09 179.176 71.09C177.016 71.09 175.306 69.38 175.306 66.95C175.306 64.52 176.998 62.81 179.086 62.81C181.174 62.81 182.866 64.52 182.866 66.95C182.866 67.148 182.83 67.328 182.812 67.454L182.776 67.67H177.016C177.106 68.678 178.006 69.56 179.176 69.56C180.166 69.56 180.706 69.02 180.976 68.66ZM177.016 66.32H181.336C181.138 65.15 180.364 64.34 179.086 64.34C178.006 64.34 177.214 65.15 177.016 66.32ZM185.3 68.3V64.43H183.86V62.9H184.49C185.12 62.9 185.57 62.45 185.57 61.82V60.74H186.92V62.9H188.72V64.43H186.92V68.3C186.92 69.02 187.46 69.56 188.18 69.56C188.306 69.56 188.432 69.542 188.558 69.524L188.72 69.47V70.91C188.648 70.946 188.558 70.982 188.468 71C188.288 71.054 188.072 71.09 187.82 71.09C186.38 71.09 185.3 70.01 185.3 68.3ZM190.609 71V62.9H191.779L192.139 63.71C192.283 63.548 192.463 63.386 192.661 63.26C193.003 63.044 193.507 62.81 194.209 62.81C194.407 62.81 194.515 62.846 194.605 62.864L194.749 62.9V64.52L194.587 64.484C194.461 64.466 194.335 64.43 194.209 64.43C193.111 64.43 192.229 65.348 192.229 66.41V71H190.609ZM196.182 71V62.9H197.802V71H196.182ZM196.992 59.66C197.55 59.66 197.982 60.092 197.982 60.65C197.982 61.208 197.55 61.64 196.992 61.64C196.434 61.64 196.002 61.208 196.002 60.65C196.002 60.092 196.434 59.66 196.992 59.66ZM205.271 68.03H206.981C206.603 69.758 205.289 71.09 203.381 71.09C201.221 71.09 199.511 69.38 199.511 66.95C199.511 64.52 201.221 62.81 203.381 62.81C205.289 62.81 206.603 64.142 206.981 65.87H205.271C205.001 64.952 204.389 64.34 203.381 64.34C202.211 64.34 201.131 65.42 201.131 66.95C201.131 68.48 202.211 69.56 203.381 69.56C204.389 69.56 205.001 68.948 205.271 68.03ZM208.159 68.39H209.779C209.869 69.11 210.301 69.56 211.219 69.56C212.227 69.56 212.659 69.128 212.659 68.57C212.659 67.13 208.339 68.102 208.339 65.24C208.339 63.89 209.419 62.81 211.129 62.81C213.019 62.81 214.009 63.8 214.099 65.33H212.479C212.389 64.772 211.939 64.34 211.129 64.34C210.319 64.34 209.869 64.79 209.869 65.24C209.869 66.68 214.189 65.708 214.189 68.57C214.189 70.01 213.109 71.09 211.219 71.09C209.221 71.09 208.249 70.118 208.159 68.39Z" fill="#A1A1AA"/>
<path d="M44.9996 65H34.9996L38.2926 61.707L36.8786 60.293L32.5856 64.586C32.2106 64.961 32 65.4696 32 66C32 66.5303 32.2106 67.0389 32.5856 67.414L36.8786 71.707L38.2926 70.293L34.9996 67H44.9996V65Z" fill="white"/>
<rect x="16" y="112" width="164" height="141" rx="8" fill="url(#paint1_radial_234_3032)"/>
<path d="M26.17 192V180.66H30.85C32.83 180.66 34.27 182.1 34.27 183.81C34.27 184.584 33.928 185.124 33.586 185.466C33.388 185.664 33.154 185.844 32.92 185.97C33.262 186.132 33.55 186.33 33.82 186.582C34.27 187.014 34.72 187.734 34.72 188.76C34.72 190.47 33.19 192 31.03 192H26.17ZM28.33 185.25H30.67C31.48 185.25 32.11 184.62 32.11 183.9C32.11 183.18 31.48 182.55 30.67 182.55H28.33V185.25ZM28.33 190.11H30.85C31.858 190.11 32.56 189.408 32.56 188.49C32.56 187.572 31.858 186.87 30.85 186.87H28.33V190.11ZM39.9456 185.61C38.7756 185.61 37.8756 186.492 37.8756 187.86C37.8756 189.228 38.7756 190.11 39.9456 190.11C41.1156 190.11 42.0156 189.228 42.0156 187.86C42.0156 186.492 41.1156 185.61 39.9456 185.61ZM39.9456 183.63C42.1776 183.63 44.0856 185.52 44.0856 187.86C44.0856 190.2 42.1776 192.09 39.9456 192.09C37.7136 192.09 35.8056 190.2 35.8056 187.86C35.8056 185.52 37.7136 183.63 39.9456 183.63ZM51.7272 192L51.3672 191.19C51.1692 191.352 50.9712 191.514 50.7372 191.64C50.3232 191.874 49.7472 192.09 49.0272 192.09C46.9572 192.09 45.1572 190.308 45.1572 187.86C45.1572 185.412 46.9572 183.63 49.0272 183.63C49.6932 183.63 50.2332 183.846 50.6112 184.044C50.8272 184.17 51.0252 184.296 51.1872 184.44V180.66H53.2572V192H51.7272ZM49.2972 190.11C50.4672 190.11 51.3672 189.228 51.3672 187.86C51.3672 186.492 50.4672 185.61 49.2972 185.61C48.1272 185.61 47.2272 186.492 47.2272 187.86C47.2272 189.228 48.1272 190.11 49.2972 190.11ZM55.69 194.88V193.17C56.608 193.17 57.04 192.72 57.31 192.09L57.49 191.64L54.34 183.72H56.5L58.57 189.12L60.46 183.72H62.62L61.018 187.824C60.208 189.912 59.398 192.072 59.29 192.27C58.48 194.232 57.76 194.97 56.41 194.97C56.212 194.97 56.032 194.952 55.906 194.934L55.69 194.88ZM69.538 192L66.838 183.72H68.908L70.528 189.03L72.238 183.72H73.498L75.208 189.03L76.828 183.72H78.898L76.198 192H74.398L72.868 187.05L71.338 192H69.538ZM85.1924 189.48H87.3524C86.9204 190.722 85.5344 192.09 83.6624 192.09C81.4304 192.09 79.5224 190.2 79.5224 187.86C79.5224 185.52 81.4304 183.63 83.6624 183.63C85.8224 183.63 87.6224 185.34 87.6224 187.86C87.6224 188.058 87.5864 188.238 87.5684 188.4L87.5324 188.67H81.7724C81.9704 189.48 82.5824 190.11 83.6624 190.11C84.2204 190.11 84.5624 189.966 84.8324 189.804C84.9764 189.714 85.1024 189.606 85.1924 189.48ZM81.6824 187.23H85.6424C85.4444 186.312 84.7424 185.61 83.6624 185.61C82.5824 185.61 81.8804 186.312 81.6824 187.23ZM89.1482 192V183.72H91.2182V192H89.1482ZM90.2282 182.73C89.5982 182.73 89.0582 182.19 89.0582 181.56C89.0582 180.93 89.5982 180.39 90.2282 180.39C90.8582 180.39 91.3982 180.93 91.3982 181.56C91.3982 182.19 90.8582 182.73 90.2282 182.73ZM93.1012 192.36H95.1712C95.2612 192.522 95.3692 192.648 95.5132 192.774C95.7832 192.972 96.1612 193.17 96.7912 193.17C97.9612 193.17 98.6812 192.468 98.6812 191.46V190.83C98.5192 190.992 98.3212 191.154 98.1052 191.28C97.7272 191.514 97.1872 191.73 96.5212 191.73C94.4332 191.73 92.7412 190.02 92.7412 187.68C92.7412 185.34 94.4332 183.63 96.5212 183.63C97.2412 183.63 97.8172 183.864 98.2312 184.08C98.4652 184.206 98.6632 184.368 98.8612 184.53L99.2212 183.72H100.751V191.46C100.751 193.62 99.3112 195.06 96.7912 195.06C95.2612 195.06 94.3612 194.412 93.8032 193.71C93.4972 193.314 93.2632 192.864 93.1012 192.36ZM96.7912 189.75C97.8532 189.75 98.7712 188.832 98.7712 187.68C98.7712 186.528 97.8532 185.61 96.7912 185.61C95.6932 185.61 94.8112 186.528 94.8112 187.68C94.8112 188.832 95.6932 189.75 96.7912 189.75ZM102.736 192V180.66H104.806V184.53C104.968 184.368 105.148 184.206 105.364 184.08C105.742 183.864 106.336 183.63 107.146 183.63C108.946 183.63 110.296 184.98 110.296 187.14V192H108.226V187.41C108.226 186.33 107.524 185.61 106.516 185.61C105.508 185.61 104.806 186.33 104.806 187.41V192H102.736ZM112.823 189.12V185.61H111.563V183.9H112.103C112.769 183.9 113.093 183.576 113.093 182.91V181.74H114.893V183.72H116.693V185.61H114.893V189.03C114.893 189.75 115.343 190.2 116.063 190.2C116.261 190.2 116.369 190.182 116.459 190.164L116.603 190.11V191.91C116.513 191.946 116.423 191.982 116.315 192C116.117 192.054 115.883 192.09 115.613 192.09C113.975 192.09 112.823 190.92 112.823 189.12Z" fill="white"/>
<path d="M26.12 219V210.18H27.24V219H26.12ZM29.2733 219V212.7H30.0433L30.3233 213.4C30.4493 213.26 30.6033 213.134 30.7853 213.022C31.1073 212.812 31.5413 212.63 32.1433 212.63C33.4733 212.63 34.5933 213.75 34.5933 215.36V219H33.5433V215.36C33.5433 214.31 32.8293 213.61 32.0033 213.61C31.0093 213.61 30.3233 214.296 30.3233 215.36V219H29.2733ZM39.2116 218.09C40.2616 218.09 41.1716 217.194 41.1716 215.85C41.1716 214.506 40.2616 213.61 39.2116 213.61C38.1616 213.61 37.2516 214.506 37.2516 215.85C37.2516 217.194 38.1616 218.09 39.2116 218.09ZM36.3416 221.24V212.7H37.1116L37.3916 213.4C37.5176 213.26 37.6856 213.134 37.8676 213.022C38.1896 212.812 38.6516 212.63 39.2816 212.63C40.9056 212.63 42.2216 213.96 42.2216 215.85C42.2216 217.74 40.9056 219.07 39.2816 219.07C38.6516 219.07 38.1896 218.86 37.8676 218.65C37.6856 218.524 37.5176 218.384 37.3916 218.23V221.24H36.3416ZM43.6151 216.34V212.7H44.6651V216.34C44.6651 217.39 45.3511 218.09 46.2051 218.09C47.1991 218.09 47.8851 217.404 47.8851 216.34V212.7H48.9351V219H48.1651L47.8851 218.3C47.7591 218.454 47.6051 218.58 47.4231 218.692C47.1011 218.902 46.6671 219.07 46.0651 219.07C44.7351 219.07 43.6151 217.95 43.6151 216.34ZM51.2418 216.97V213.68H50.1218V212.7H50.6118C51.1298 212.7 51.3818 212.448 51.3818 211.93V211.02H52.2918V212.7H53.6918V213.68H52.2918V216.97C52.2918 217.684 52.7118 218.09 53.3418 218.09C53.4398 218.09 53.5238 218.076 53.5938 218.062L53.6918 218.02V218.93C53.6498 218.958 53.5938 218.986 53.5378 219C53.4118 219.042 53.2578 219.07 53.0618 219.07C52.0958 219.07 51.2418 218.23 51.2418 216.97ZM59.574 219L57.474 212.7H58.594L60.064 217.18L61.464 212.7H62.164L63.564 217.18L65.034 212.7H66.154L64.054 219H63.214L61.814 214.52L60.414 219H59.574ZM71.3291 217.32H72.4491C72.0291 218.23 71.1891 219.07 69.7891 219.07C68.1091 219.07 66.7791 217.74 66.7791 215.85C66.7791 213.96 68.1931 212.63 69.7191 212.63C71.2591 212.63 72.5891 213.876 72.5891 215.78C72.5891 215.962 72.5611 216.088 72.5471 216.186L72.5191 216.34H67.8991C67.9691 217.25 68.7951 218.09 69.7891 218.09C70.6151 218.09 71.1191 217.614 71.3291 217.32ZM67.8991 215.43H71.5391C71.3851 214.38 70.6291 213.61 69.7191 213.61C68.8091 213.61 68.0531 214.38 67.8991 215.43ZM73.994 219V212.7H75.044V219H73.994ZM73.854 210.922C73.854 210.53 74.134 210.25 74.512 210.25C74.904 210.25 75.184 210.53 75.184 210.922C75.184 211.3 74.904 211.58 74.512 211.58C74.134 211.58 73.854 211.3 73.854 210.922ZM76.7951 219.49H77.8451C78.0551 219.98 78.4751 220.4 79.3851 220.4C80.4491 220.4 81.1351 219.7 81.1351 218.79V217.95C81.0091 218.104 80.8691 218.244 80.7011 218.37C80.4071 218.58 79.9451 218.79 79.3151 218.79C77.7051 218.79 76.4451 217.544 76.4451 215.71C76.4451 213.876 77.7051 212.63 79.3151 212.63C79.9451 212.63 80.4071 212.812 80.7011 213.022C80.8691 213.134 81.0091 213.26 81.1351 213.4L81.4151 212.7H82.1851V218.79C82.1851 220.26 81.0651 221.38 79.3851 221.38C77.9431 221.38 77.0611 220.54 76.7951 219.49ZM79.3851 217.81C80.4351 217.81 81.2751 216.97 81.2751 215.71C81.2751 214.45 80.4351 213.61 79.3851 213.61C78.3351 213.61 77.4951 214.45 77.4951 215.71C77.4951 216.97 78.3351 217.81 79.3851 217.81ZM84.0718 219V210.18H85.1218V213.47C85.2478 213.316 85.4018 213.176 85.5838 213.05C85.9058 212.84 86.3398 212.63 86.9418 212.63C88.2718 212.63 89.3918 213.75 89.3918 215.36V219H88.3418V215.36C88.3418 214.31 87.6278 213.61 86.8018 213.61C85.8078 213.61 85.1218 214.296 85.1218 215.36V219H84.0718ZM91.6285 216.97V213.68H90.5085V212.7H90.9985C91.5165 212.7 91.7685 212.448 91.7685 211.93V211.02H92.6785V212.7H94.0785V213.68H92.6785V216.97C92.6785 217.684 93.0985 218.09 93.7285 218.09C93.8265 218.09 93.9105 218.076 93.9805 218.062L94.0785 218.02V218.93C94.0365 218.958 93.9805 218.986 93.9245 219C93.7985 219.042 93.6445 219.07 93.4485 219.07C92.4825 219.07 91.6285 218.23 91.6285 216.97ZM99.9607 219L97.8607 212.7H98.9807L100.451 217.18L101.851 212.7H102.551L103.951 217.18L105.421 212.7H106.541L104.441 219H103.601L102.201 214.52L100.801 219H99.9607ZM111.716 217.32H112.836C112.416 218.23 111.576 219.07 110.176 219.07C108.496 219.07 107.166 217.74 107.166 215.85C107.166 213.96 108.58 212.63 110.106 212.63C111.646 212.63 112.976 213.876 112.976 215.78C112.976 215.962 112.948 216.088 112.934 216.186L112.906 216.34H108.286C108.356 217.25 109.182 218.09 110.176 218.09C111.002 218.09 111.506 217.614 111.716 217.32ZM108.286 215.43H111.926C111.772 214.38 111.016 213.61 110.106 213.61C109.196 213.61 108.44 214.38 108.286 215.43ZM118.511 217.32H119.631C119.211 218.23 118.371 219.07 116.971 219.07C115.291 219.07 113.961 217.74 113.961 215.85C113.961 213.96 115.375 212.63 116.901 212.63C118.441 212.63 119.771 213.876 119.771 215.78C119.771 215.962 119.743 216.088 119.729 216.186L119.701 216.34H115.081C115.151 217.25 115.977 218.09 116.971 218.09C117.797 218.09 118.301 217.614 118.511 217.32ZM115.081 215.43H118.721C118.567 214.38 117.811 213.61 116.901 213.61C115.991 213.61 115.235 214.38 115.081 215.43ZM121.246 219V210.18H122.296V215.71L124.676 212.7H125.866L123.486 215.64L126.216 219H124.956L122.296 215.71V219H121.246ZM127.125 219V210.18H128.175V219H127.125ZM130.342 221.24V220.4C130.972 220.4 131.238 220.12 131.462 219.56L131.742 218.86L129.292 212.7H130.412L132.302 217.53L134.192 212.7H135.312L132.582 219.56C132.078 220.834 131.588 221.31 130.762 221.31C130.65 221.31 130.566 221.296 130.468 221.282L130.342 221.24ZM139.863 216.97V213.68H138.743V212.7H139.233C139.751 212.7 140.003 212.448 140.003 211.93V211.02H140.913V212.7H142.313V213.68H140.913V216.97C140.913 217.684 141.333 218.09 141.963 218.09C142.061 218.09 142.145 218.076 142.215 218.062L142.313 218.02V218.93C142.271 218.958 142.215 218.986 142.159 219C142.033 219.042 141.879 219.07 141.683 219.07C140.717 219.07 139.863 218.23 139.863 216.97ZM146.241 218.09C147.207 218.09 148.131 217.194 148.131 215.85C148.131 214.506 147.207 213.61 146.241 213.61C145.261 213.61 144.351 214.506 144.351 215.85C144.351 217.194 145.261 218.09 146.241 218.09ZM146.241 219.07C144.617 219.07 143.301 217.74 143.301 215.85C143.301 213.96 144.617 212.63 146.241 212.63C147.865 212.63 149.181 213.96 149.181 215.85C149.181 217.74 147.865 219.07 146.241 219.07ZM26.4 233.97V230.68H25.28V229.7H25.77C26.288 229.7 26.54 229.448 26.54 228.93V228.02H27.45V229.7H28.85V230.68H27.45V233.97C27.45 234.684 27.87 235.09 28.5 235.09C28.598 235.09 28.682 235.076 28.752 235.062L28.85 235.02V235.93C28.808 235.958 28.752 235.986 28.696 236C28.57 236.042 28.416 236.07 28.22 236.07C27.254 236.07 26.4 235.23 26.4 233.97ZM30.3944 236V229.7H31.1644L31.4444 230.4C31.5704 230.26 31.7244 230.134 31.9064 230.022C32.2284 229.812 32.6624 229.63 33.2644 229.63H33.4044V230.68H33.1244C32.1304 230.68 31.4444 231.366 31.4444 232.43V236H30.3944ZM38.5816 236L38.3016 235.3C38.1616 235.454 38.0076 235.58 37.8256 235.692C37.5036 235.902 37.0416 236.07 36.4116 236.07C35.1516 236.07 34.3116 235.23 34.3116 234.18C34.3116 232.99 35.1516 232.15 38.3016 232.15V231.8C38.3016 231.17 37.7556 230.61 36.9716 230.61C36.1876 230.61 35.8656 230.96 35.7116 231.52H34.5916C34.7456 230.47 35.5716 229.63 36.9716 229.63C38.3716 229.63 39.3516 230.624 39.3516 231.8V236H38.5816ZM38.3016 233.62V233.13C35.7816 233.13 35.3616 233.55 35.3616 234.25C35.3616 234.684 35.7816 235.09 36.4116 235.09C37.5316 235.09 38.3016 234.32 38.3016 233.62ZM45.2995 233.76H46.3495C46.0555 235.034 45.0195 236.07 43.6195 236.07C41.9955 236.07 40.6795 234.74 40.6795 232.85C40.6795 230.96 41.9955 229.63 43.6195 229.63C45.0195 229.63 46.0555 230.666 46.3495 231.94H45.2995C45.0755 231.24 44.4455 230.61 43.6195 230.61C42.6395 230.61 41.7295 231.506 41.7295 232.85C41.7295 234.194 42.6395 235.09 43.6195 235.09C44.4455 235.09 45.0755 234.46 45.2995 233.76ZM47.7456 236V227.18H48.7956V232.71L51.1756 229.7H52.3656L49.9856 232.64L52.7156 236H51.4556L48.7956 232.71V236H47.7456ZM59.4323 235.09C60.4823 235.09 61.3923 234.194 61.3923 232.85C61.3923 231.506 60.4823 230.61 59.4323 230.61C58.3823 230.61 57.4723 231.506 57.4723 232.85C57.4723 234.194 58.3823 235.09 59.4323 235.09ZM56.5623 238.24V229.7H57.3323L57.6123 230.4C57.7383 230.26 57.9063 230.134 58.0883 230.022C58.4103 229.812 58.8723 229.63 59.5023 229.63C61.1263 229.63 62.4423 230.96 62.4423 232.85C62.4423 234.74 61.1263 236.07 59.5023 236.07C58.8723 236.07 58.4103 235.86 58.0883 235.65C57.9063 235.524 57.7383 235.384 57.6123 235.23V238.24H56.5623ZM63.8358 236V229.7H64.6058L64.8858 230.4C65.0118 230.26 65.1658 230.134 65.3478 230.022C65.6698 229.812 66.1038 229.63 66.7058 229.63H66.8458V230.68H66.5658C65.5718 230.68 64.8858 231.366 64.8858 232.43V236H63.8358ZM70.553 235.09C71.519 235.09 72.443 234.194 72.443 232.85C72.443 231.506 71.519 230.61 70.553 230.61C69.573 230.61 68.663 231.506 68.663 232.85C68.663 234.194 69.573 235.09 70.553 235.09ZM70.553 236.07C68.929 236.07 67.613 234.74 67.613 232.85C67.613 230.96 68.929 229.63 70.553 229.63C72.177 229.63 73.493 230.96 73.493 232.85C73.493 234.74 72.177 236.07 70.553 236.07ZM74.8263 236.49H75.8763C76.0863 236.98 76.5063 237.4 77.4163 237.4C78.4803 237.4 79.1663 236.7 79.1663 235.79V234.95C79.0403 235.104 78.9003 235.244 78.7323 235.37C78.4383 235.58 77.9763 235.79 77.3463 235.79C75.7363 235.79 74.4763 234.544 74.4763 232.71C74.4763 230.876 75.7363 229.63 77.3463 229.63C77.9763 229.63 78.4383 229.812 78.7323 230.022C78.9003 230.134 79.0403 230.26 79.1663 230.4L79.4463 229.7H80.2163V235.79C80.2163 237.26 79.0963 238.38 77.4163 238.38C75.9743 238.38 75.0923 237.54 74.8263 236.49ZM77.4163 234.81C78.4663 234.81 79.3063 233.97 79.3063 232.71C79.3063 231.45 78.4663 230.61 77.4163 230.61C76.3663 230.61 75.5263 231.45 75.5263 232.71C75.5263 233.97 76.3663 234.81 77.4163 234.81ZM82.033 236V229.7H82.803L83.083 230.4C83.209 230.26 83.363 230.134 83.545 230.022C83.867 229.812 84.301 229.63 84.903 229.63H85.043V230.68H84.763C83.769 230.68 83.083 231.366 83.083 232.43V236H82.033ZM90.3603 234.32H91.4803C91.0603 235.23 90.2203 236.07 88.8203 236.07C87.1403 236.07 85.8103 234.74 85.8103 232.85C85.8103 230.96 87.2243 229.63 88.7503 229.63C90.2903 229.63 91.6203 230.876 91.6203 232.78C91.6203 232.962 91.5923 233.088 91.5783 233.186L91.5503 233.34H86.9303C87.0003 234.25 87.8263 235.09 88.8203 235.09C89.6463 235.09 90.1503 234.614 90.3603 234.32ZM86.9303 232.43H90.5703C90.4163 231.38 89.6603 230.61 88.7503 230.61C87.8403 230.61 87.0843 231.38 86.9303 232.43ZM92.6052 234.11H93.6552C93.7252 234.67 94.1312 235.09 94.9152 235.09C95.6292 235.09 96.0352 234.67 96.0352 234.18C96.0352 232.766 92.7452 233.844 92.7452 231.45C92.7452 230.484 93.5852 229.63 94.8452 229.63C96.1892 229.63 96.9452 230.4 97.0152 231.52H95.9652C95.8952 230.96 95.5592 230.61 94.8452 230.61C94.2152 230.61 93.7952 231.016 93.7952 231.45C93.7952 232.864 97.0852 231.8 97.0852 234.18C97.0852 235.23 96.2452 236.07 94.9152 236.07C93.5152 236.07 92.6752 235.23 92.6052 234.11ZM98.1287 234.11H99.1787C99.2487 234.67 99.6547 235.09 100.439 235.09C101.153 235.09 101.559 234.67 101.559 234.18C101.559 232.766 98.2687 233.844 98.2687 231.45C98.2687 230.484 99.1087 229.63 100.369 229.63C101.713 229.63 102.469 230.4 102.539 231.52H101.489C101.419 230.96 101.083 230.61 100.369 230.61C99.7387 230.61 99.3187 231.016 99.3187 231.45C99.3187 232.864 102.609 231.8 102.609 234.18C102.609 235.23 101.769 236.07 100.439 236.07C99.0387 236.07 98.1987 235.23 98.1287 234.11ZM103.652 235.37C103.652 234.936 103.918 234.67 104.352 234.67C104.786 234.67 105.052 234.936 105.052 235.37C105.052 235.804 104.786 236.07 104.352 236.07C103.918 236.07 103.652 235.804 103.652 235.37Z" fill="#A1A1AA"/>
<rect x="25" y="120" width="48" height="48" rx="24" fill="black"/>
<path d="M49.8125 131.258C49.8125 130.003 48.1363 129.53 47.398 130.571C40.625 140.117 50.25 140.547 50.25 145.188C50.25 147.066 48.658 148.587 46.7035 148.562C44.7802 148.538 43.25 146.992 43.25 145.137V140.628C43.25 139.484 41.8024 138.928 40.9843 139.758C39.5203 141.241 38 143.781 38 146.875C38 152.458 42.7102 157 48.5 157C54.2898 157 59 152.458 59 146.875C59 137.895 49.8125 136.697 49.8125 131.258Z" fill="url(#paint2_linear_234_3032)"/>
<rect x="16" y="272" width="164" height="141" rx="8" fill="url(#paint3_radial_234_3032)"/>
<path d="M34.72 352L34.27 350.92C34 351.154 33.712 351.352 33.388 351.514C32.83 351.802 32.038 352.09 31.03 352.09C28.06 352.09 25.54 349.57 25.54 346.33C25.54 343.09 28.06 340.57 31.03 340.57C33.622 340.57 35.548 342.46 36.07 344.62H33.82C33.532 343.63 32.56 342.64 31.03 342.64C29.23 342.64 27.7 344.17 27.7 346.33C27.7 348.49 29.23 350.02 31.03 350.02C32.164 350.02 32.884 349.516 33.316 348.994C33.568 348.688 33.766 348.328 33.91 347.95H30.94V346.06H36.25V352H34.72ZM41.9144 345.61C40.7444 345.61 39.8444 346.492 39.8444 347.86C39.8444 349.228 40.7444 350.11 41.9144 350.11C43.0844 350.11 43.9844 349.228 43.9844 347.86C43.9844 346.492 43.0844 345.61 41.9144 345.61ZM41.9144 343.63C44.1464 343.63 46.0544 345.52 46.0544 347.86C46.0544 350.2 44.1464 352.09 41.9144 352.09C39.6824 352.09 37.7744 350.2 37.7744 347.86C37.7744 345.52 39.6824 343.63 41.9144 343.63ZM52.7059 352L52.3459 351.19C52.1479 351.352 51.9499 351.514 51.7159 351.64C51.3019 351.874 50.7259 352.09 50.0059 352.09C48.2059 352.09 47.2159 351.118 47.2159 349.75C47.2159 348.112 48.3859 346.96 52.1659 346.96C52.1659 346.042 51.6259 345.52 50.8159 345.52C50.2579 345.52 49.9699 345.754 49.7719 345.97C49.6639 346.096 49.5919 346.258 49.5559 346.42H47.4859C47.6839 344.908 48.9259 343.63 50.9959 343.63C52.8679 343.63 54.2359 344.998 54.2359 346.87V352H52.7059ZM52.1659 348.76V348.4C49.7359 348.4 49.2859 348.85 49.2859 349.57C49.2859 350.02 49.7359 350.47 50.3659 350.47C51.4459 350.47 52.1659 349.768 52.1659 348.76ZM56.1189 352V340.66H58.1889V352H56.1189ZM59.7119 349.39H61.6919C61.7819 349.948 62.2319 350.38 62.9519 350.38C63.6719 350.38 64.1219 349.93 64.1219 349.48C64.1219 348.31 59.8919 349.012 59.8919 346.15C59.8919 344.8 61.0619 343.63 62.8619 343.63C64.8599 343.63 65.9039 344.71 66.1019 346.15H64.1219C64.0319 345.79 63.5819 345.34 62.9519 345.34C62.3219 345.34 61.9619 345.7 61.9619 346.15C61.9619 347.302 66.1919 346.618 66.1919 349.57C66.1919 350.92 65.0039 352.09 63.1319 352.09C60.9719 352.09 59.8739 351.028 59.7119 349.39Z" fill="white"/>
<path d="M26.12 379V370.18H27.24V378.02H31.44V379H26.12ZM32.4862 379V372.7H33.5362V379H32.4862ZM32.3462 370.922C32.3462 370.53 32.6262 370.25 33.0042 370.25C33.3962 370.25 33.6762 370.53 33.6762 370.922C33.6762 371.3 33.3962 371.58 33.0042 371.58C32.6262 371.58 32.3462 371.3 32.3462 370.922ZM34.9373 377.11H35.9873C36.0573 377.67 36.4633 378.09 37.2473 378.09C37.9613 378.09 38.3673 377.67 38.3673 377.18C38.3673 375.766 35.0773 376.844 35.0773 374.45C35.0773 373.484 35.9173 372.63 37.1773 372.63C38.5213 372.63 39.2773 373.4 39.3473 374.52H38.2973C38.2273 373.96 37.8913 373.61 37.1773 373.61C36.5473 373.61 36.1273 374.016 36.1273 374.45C36.1273 375.864 39.4173 374.8 39.4173 377.18C39.4173 378.23 38.5773 379.07 37.2473 379.07C35.8473 379.07 35.0073 378.23 34.9373 377.11ZM41.3707 376.97V373.68H40.2507V372.7H40.7407C41.2587 372.7 41.5107 372.448 41.5107 371.93V371.02H42.4207V372.7H43.8207V373.68H42.4207V376.97C42.4207 377.684 42.8407 378.09 43.4707 378.09C43.5687 378.09 43.6527 378.076 43.7227 378.062L43.8207 378.02V378.93C43.7787 378.958 43.7227 378.986 43.6667 379C43.5407 379.042 43.3867 379.07 43.1907 379.07C42.2247 379.07 41.3707 378.23 41.3707 376.97ZM50.8929 378.09C51.8589 378.09 52.7829 377.194 52.7829 375.85C52.7829 374.506 51.8589 373.61 50.8929 373.61C49.9129 373.61 49.0029 374.506 49.0029 375.85C49.0029 377.194 49.9129 378.09 50.8929 378.09ZM50.8929 379.07C49.2689 379.07 47.9529 377.74 47.9529 375.85C47.9529 373.96 49.2689 372.63 50.8929 372.63C52.5169 372.63 53.8329 373.96 53.8329 375.85C53.8329 377.74 52.5169 379.07 50.8929 379.07ZM55.4462 379V373.68H54.6762V372.7H55.4462V372.21C55.4462 370.95 56.3002 370.11 57.2662 370.11C57.4762 370.11 57.6302 370.138 57.7422 370.18L57.8962 370.25V371.16L57.7982 371.132C57.7422 371.118 57.6442 371.09 57.5462 371.09C56.9162 371.09 56.4962 371.496 56.4962 372.21V372.7H57.8962V373.68H56.4962V379H55.4462ZM66.0895 379L65.8095 378.3C65.6695 378.454 65.5155 378.58 65.3335 378.692C65.0115 378.902 64.5495 379.07 63.9195 379.07C62.6595 379.07 61.8195 378.23 61.8195 377.18C61.8195 375.99 62.6595 375.15 65.8095 375.15V374.8C65.8095 374.17 65.2635 373.61 64.4795 373.61C63.6955 373.61 63.3735 373.96 63.2195 374.52H62.0995C62.2535 373.47 63.0795 372.63 64.4795 372.63C65.8795 372.63 66.8595 373.624 66.8595 374.8V379H66.0895ZM65.8095 376.62V376.13C63.2895 376.13 62.8695 376.55 62.8695 377.25C62.8695 377.684 63.2895 378.09 63.9195 378.09C65.0395 378.09 65.8095 377.32 65.8095 376.62ZM68.6773 379V370.18H69.7273V379H68.6773ZM71.6851 379V370.18H72.7351V379H71.6851ZM77.5607 379.49H78.6107C78.8207 379.98 79.2407 380.4 80.1507 380.4C81.2147 380.4 81.9007 379.7 81.9007 378.79V377.95C81.7747 378.104 81.6347 378.244 81.4667 378.37C81.1727 378.58 80.7107 378.79 80.0807 378.79C78.4707 378.79 77.2107 377.544 77.2107 375.71C77.2107 373.876 78.4707 372.63 80.0807 372.63C80.7107 372.63 81.1727 372.812 81.4667 373.022C81.6347 373.134 81.7747 373.26 81.9007 373.4L82.1807 372.7H82.9507V378.79C82.9507 380.26 81.8307 381.38 80.1507 381.38C78.7087 381.38 77.8267 380.54 77.5607 379.49ZM80.1507 377.81C81.2007 377.81 82.0407 376.97 82.0407 375.71C82.0407 374.45 81.2007 373.61 80.1507 373.61C79.1007 373.61 78.2607 374.45 78.2607 375.71C78.2607 376.97 79.1007 377.81 80.1507 377.81ZM87.2874 378.09C88.2534 378.09 89.1774 377.194 89.1774 375.85C89.1774 374.506 88.2534 373.61 87.2874 373.61C86.3074 373.61 85.3974 374.506 85.3974 375.85C85.3974 377.194 86.3074 378.09 87.2874 378.09ZM87.2874 379.07C85.6634 379.07 84.3474 377.74 84.3474 375.85C84.3474 373.96 85.6634 372.63 87.2874 372.63C88.9114 372.63 90.2274 373.96 90.2274 375.85C90.2274 377.74 88.9114 379.07 87.2874 379.07ZM95.6207 379L95.3407 378.3C95.2007 378.454 95.0467 378.58 94.8647 378.692C94.5427 378.902 94.0807 379.07 93.4507 379.07C92.1907 379.07 91.3507 378.23 91.3507 377.18C91.3507 375.99 92.1907 375.15 95.3407 375.15V374.8C95.3407 374.17 94.7947 373.61 94.0107 373.61C93.2267 373.61 92.9047 373.96 92.7507 374.52H91.6307C91.7847 373.47 92.6107 372.63 94.0107 372.63C95.4107 372.63 96.3907 373.624 96.3907 374.8V379H95.6207ZM95.3407 376.62V376.13C92.8207 376.13 92.4007 376.55 92.4007 377.25C92.4007 377.684 92.8207 378.09 93.4507 378.09C94.5707 378.09 95.3407 377.32 95.3407 376.62ZM98.2085 379V370.18H99.2585V379H98.2085ZM100.726 377.11H101.776C101.846 377.67 102.252 378.09 103.036 378.09C103.75 378.09 104.156 377.67 104.156 377.18C104.156 375.766 100.866 376.844 100.866 374.45C100.866 373.484 101.706 372.63 102.966 372.63C104.31 372.63 105.066 373.4 105.136 374.52H104.086C104.016 373.96 103.68 373.61 102.966 373.61C102.336 373.61 101.916 374.016 101.916 374.45C101.916 375.864 105.206 374.8 105.206 377.18C105.206 378.23 104.366 379.07 103.036 379.07C101.636 379.07 100.796 378.23 100.726 377.11ZM113.878 376.76H114.928C114.634 378.034 113.598 379.07 112.198 379.07C110.574 379.07 109.258 377.74 109.258 375.85C109.258 373.96 110.574 372.63 112.198 372.63C113.598 372.63 114.634 373.666 114.928 374.94H113.878C113.654 374.24 113.024 373.61 112.198 373.61C111.218 373.61 110.308 374.506 110.308 375.85C110.308 377.194 111.218 378.09 112.198 378.09C113.024 378.09 113.654 377.46 113.878 376.76ZM116.254 379V372.7H117.024L117.304 373.4C117.43 373.26 117.584 373.134 117.766 373.022C118.088 372.812 118.522 372.63 119.124 372.63H119.264V373.68H118.984C117.99 373.68 117.304 374.366 117.304 375.43V379H116.254ZM124.581 377.32H125.701C125.281 378.23 124.441 379.07 123.041 379.07C121.361 379.07 120.031 377.74 120.031 375.85C120.031 373.96 121.445 372.63 122.971 372.63C124.511 372.63 125.841 373.876 125.841 375.78C125.841 375.962 125.813 376.088 125.799 376.186L125.771 376.34H121.151C121.221 377.25 122.047 378.09 123.041 378.09C123.867 378.09 124.371 377.614 124.581 377.32ZM121.151 375.43H124.791C124.637 374.38 123.881 373.61 122.971 373.61C122.061 373.61 121.305 374.38 121.151 375.43ZM131.236 379L130.956 378.3C130.816 378.454 130.662 378.58 130.48 378.692C130.158 378.902 129.696 379.07 129.066 379.07C127.806 379.07 126.966 378.23 126.966 377.18C126.966 375.99 127.806 375.15 130.956 375.15V374.8C130.956 374.17 130.41 373.61 129.626 373.61C128.842 373.61 128.52 373.96 128.366 374.52H127.246C127.4 373.47 128.226 372.63 129.626 372.63C131.026 372.63 132.006 373.624 132.006 374.8V379H131.236ZM130.956 376.62V376.13C128.436 376.13 128.016 376.55 128.016 377.25C128.016 377.684 128.436 378.09 129.066 378.09C130.186 378.09 130.956 377.32 130.956 376.62ZM134.107 376.97V373.68H132.987V372.7H133.477C133.995 372.7 134.247 372.448 134.247 371.93V371.02H135.157V372.7H136.557V373.68H135.157V376.97C135.157 377.684 135.577 378.09 136.207 378.09C136.305 378.09 136.389 378.076 136.459 378.062L136.557 378.02V378.93C136.515 378.958 136.459 378.986 136.403 379C136.277 379.042 136.123 379.07 135.927 379.07C134.961 379.07 134.107 378.23 134.107 376.97ZM142.095 377.32H143.215C142.795 378.23 141.955 379.07 140.555 379.07C138.875 379.07 137.545 377.74 137.545 375.85C137.545 373.96 138.959 372.63 140.485 372.63C142.025 372.63 143.355 373.876 143.355 375.78C143.355 375.962 143.327 376.088 143.313 376.186L143.285 376.34H138.665C138.735 377.25 139.561 378.09 140.555 378.09C141.381 378.09 141.885 377.614 142.095 377.32ZM138.665 375.43H142.305C142.151 374.38 141.395 373.61 140.485 373.61C139.575 373.61 138.819 374.38 138.665 375.43ZM147.35 378.09C148.4 378.09 149.31 377.194 149.31 375.85C149.31 374.506 148.4 373.61 147.35 373.61C146.3 373.61 145.39 374.506 145.39 375.85C145.39 377.194 146.3 378.09 147.35 378.09ZM149.45 379L149.17 378.3C149.03 378.454 148.876 378.58 148.694 378.692C148.372 378.902 147.91 379.07 147.28 379.07C145.656 379.07 144.34 377.74 144.34 375.85C144.34 373.96 145.656 372.63 147.28 372.63C147.91 372.63 148.372 372.84 148.694 373.05C148.876 373.176 149.03 373.316 149.17 373.47V370.18H150.22V379H149.45ZM151.695 378.37C151.695 377.936 151.961 377.67 152.395 377.67C152.829 377.67 153.095 377.936 153.095 378.37C153.095 378.804 152.829 379.07 152.395 379.07C151.961 379.07 151.695 378.804 151.695 378.37Z" fill="#A1A1AA"/>
<rect x="25" y="280" width="48" height="48" rx="24" fill="black"/>
<g clip-path="url(#clip2_234_3032)">
<path d="M59 294.5V309.125H49.375C48.834 309.122 48.3069 308.904 47.8659 308.502C47.4248 308.099 47.0913 307.531 46.911 306.875H50.25C50.7141 306.875 51.1592 306.638 51.4874 306.216C51.8156 305.794 52 305.222 52 304.625V294.5H59ZM39.75 304.625H50.25V293.375C50.25 292.48 49.9734 291.621 49.4812 290.989C48.9889 290.356 48.3212 290 47.625 290H38V317H39.75V304.625Z" fill="url(#paint4_linear_234_3032)"/>
</g>
<rect x="16" y="432" width="164" height="141" rx="8" fill="#161512"/>
<path opacity="0.5" d="M26.17 512V500.66H33.73V502.73H28.33V505.52H32.74V507.59H28.33V512H26.17ZM38.3109 505.61C37.1409 505.61 36.2409 506.492 36.2409 507.86C36.2409 509.228 37.1409 510.11 38.3109 510.11C39.4809 510.11 40.3809 509.228 40.3809 507.86C40.3809 506.492 39.4809 505.61 38.3109 505.61ZM38.3109 503.63C40.5429 503.63 42.4509 505.52 42.4509 507.86C42.4509 510.2 40.5429 512.09 38.3109 512.09C36.0789 512.09 34.1709 510.2 34.1709 507.86C34.1709 505.52 36.0789 503.63 38.3109 503.63ZM43.9724 512V503.72H45.5024L45.8624 504.62C46.0064 504.44 46.1864 504.278 46.3844 504.134C46.7264 503.864 47.2124 503.63 47.8424 503.63C48.0404 503.63 48.1664 503.666 48.2924 503.684L48.4724 503.72V505.88L48.2744 505.844C48.1484 505.826 47.9684 505.79 47.7524 505.79C46.7444 505.79 46.0424 506.51 46.0424 507.59V512H43.9724ZM49.8259 512V503.72H51.3559L51.7159 504.53C51.8779 504.368 52.0759 504.206 52.2739 504.08C52.6159 503.864 53.1019 503.63 53.6959 503.63C54.5419 503.63 55.1359 503.9 55.5139 504.17C55.7299 504.332 55.9099 504.512 56.0359 504.71C56.2339 504.512 56.4499 504.332 56.7019 504.17C57.1339 503.9 57.7459 503.63 58.4659 503.63C60.2659 503.63 61.4359 504.8 61.4359 507.05V512H59.3659V507.23C59.3659 506.222 58.7359 505.61 58.0159 505.61C57.2959 505.61 56.6659 506.222 56.6659 507.23V512H54.5959V507.23C54.5959 506.222 53.9659 505.61 53.2459 505.61C52.5259 505.61 51.8959 506.222 51.8959 507.23V512H49.8259ZM67.9989 509.12V505.61H66.7389V503.9H67.2789C67.9449 503.9 68.2689 503.576 68.2689 502.91V501.74H70.0689V503.72H71.8689V505.61H70.0689V509.03C70.0689 509.75 70.5189 510.2 71.2389 510.2C71.4369 510.2 71.5449 510.182 71.6349 510.164L71.7789 510.11V511.91C71.6889 511.946 71.5989 511.982 71.4909 512C71.2929 512.054 71.0589 512.09 70.7889 512.09C69.1509 512.09 67.9989 510.92 67.9989 509.12ZM73.574 512V503.72H75.104L75.464 504.62C75.608 504.44 75.788 504.278 75.986 504.134C76.328 503.864 76.814 503.63 77.444 503.63C77.642 503.63 77.768 503.666 77.894 503.684L78.074 503.72V505.88L77.876 505.844C77.75 505.826 77.57 505.79 77.354 505.79C76.346 505.79 75.644 506.51 75.644 507.59V512H73.574ZM84.5575 512L84.1975 511.19C83.9995 511.352 83.8015 511.514 83.5675 511.64C83.1535 511.874 82.5775 512.09 81.8575 512.09C80.0575 512.09 79.0675 511.118 79.0675 509.75C79.0675 508.112 80.2375 506.96 84.0175 506.96C84.0175 506.042 83.4775 505.52 82.6675 505.52C82.1095 505.52 81.8215 505.754 81.6235 505.97C81.5155 506.096 81.4435 506.258 81.4075 506.42H79.3375C79.5355 504.908 80.7775 503.63 82.8475 503.63C84.7195 503.63 86.0875 504.998 86.0875 506.87V512H84.5575ZM84.0175 508.76V508.4C81.5875 508.4 81.1375 508.85 81.1375 509.57C81.1375 510.02 81.5875 510.47 82.2175 510.47C83.2975 510.47 84.0175 509.768 84.0175 508.76ZM93.4605 508.94H95.5305C95.1525 510.578 93.6405 512.09 91.6605 512.09C89.4285 512.09 87.5205 510.2 87.5205 507.86C87.5205 505.52 89.4285 503.63 91.6605 503.63C93.6405 503.63 95.1525 505.142 95.5305 506.78H93.4605C93.3705 506.564 93.2265 506.366 93.0645 506.204C92.7765 505.916 92.3265 505.61 91.6605 505.61C90.4905 505.61 89.5905 506.492 89.5905 507.86C89.5905 509.228 90.4905 510.11 91.6605 510.11C92.3265 510.11 92.7765 509.822 93.0645 509.534C93.2265 509.372 93.3705 509.174 93.4605 508.94ZM96.9705 512V500.66H99.0405V507.14L101.56 503.72H103.9L100.93 507.68L104.26 512H101.92L99.0405 508.22V512H96.9705ZM105.074 512V503.72H107.144V512H105.074ZM106.154 502.73C105.524 502.73 104.984 502.19 104.984 501.56C104.984 500.93 105.524 500.39 106.154 500.39C106.784 500.39 107.324 500.93 107.324 501.56C107.324 502.19 106.784 502.73 106.154 502.73ZM109.117 512V503.72H110.647L111.007 504.53C111.205 504.368 111.439 504.206 111.673 504.08C112.087 503.864 112.645 503.63 113.347 503.63C115.309 503.63 116.677 504.98 116.677 507.14V512H114.607V507.41C114.607 506.33 113.905 505.61 112.897 505.61C111.889 505.61 111.187 506.33 111.187 507.41V512H109.117ZM118.484 512.36H120.554C120.644 512.522 120.752 512.648 120.896 512.774C121.166 512.972 121.544 513.17 122.174 513.17C123.344 513.17 124.064 512.468 124.064 511.46V510.83C123.902 510.992 123.704 511.154 123.488 511.28C123.11 511.514 122.57 511.73 121.904 511.73C119.816 511.73 118.124 510.02 118.124 507.68C118.124 505.34 119.816 503.63 121.904 503.63C122.624 503.63 123.2 503.864 123.614 504.08C123.848 504.206 124.046 504.368 124.244 504.53L124.604 503.72H126.134V511.46C126.134 513.62 124.694 515.06 122.174 515.06C120.644 515.06 119.744 514.412 119.186 513.71C118.88 513.314 118.646 512.864 118.484 512.36ZM122.174 509.75C123.236 509.75 124.154 508.832 124.154 507.68C124.154 506.528 123.236 505.61 122.174 505.61C121.076 505.61 120.194 506.528 120.194 507.68C120.194 508.832 121.076 509.75 122.174 509.75Z" fill="white"/>
<path opacity="0.5" d="M27.87 539V531.16H25.21V530.18H31.65V531.16H28.99V539H27.87ZM32.076 539V532.7H32.846L33.126 533.4C33.252 533.26 33.406 533.134 33.588 533.022C33.91 532.812 34.344 532.63 34.946 532.63H35.086V533.68H34.806C33.812 533.68 33.126 534.366 33.126 535.43V539H32.076ZM40.2633 539L39.9833 538.3C39.8433 538.454 39.6893 538.58 39.5073 538.692C39.1853 538.902 38.7233 539.07 38.0933 539.07C36.8333 539.07 35.9933 538.23 35.9933 537.18C35.9933 535.99 36.8333 535.15 39.9833 535.15V534.8C39.9833 534.17 39.4373 533.61 38.6533 533.61C37.8693 533.61 37.5473 533.96 37.3933 534.52H36.2733C36.4273 533.47 37.2533 532.63 38.6533 532.63C40.0533 532.63 41.0333 533.624 41.0333 534.8V539H40.2633ZM39.9833 536.62V536.13C37.4633 536.13 37.0433 536.55 37.0433 537.25C37.0433 537.684 37.4633 538.09 38.0933 538.09C39.2133 538.09 39.9833 537.32 39.9833 536.62ZM46.9811 536.76H48.0311C47.7371 538.034 46.7011 539.07 45.3011 539.07C43.6771 539.07 42.3611 537.74 42.3611 535.85C42.3611 533.96 43.6771 532.63 45.3011 532.63C46.7011 532.63 47.7371 533.666 48.0311 534.94H46.9811C46.7571 534.24 46.1271 533.61 45.3011 533.61C44.3211 533.61 43.4111 534.506 43.4111 535.85C43.4111 537.194 44.3211 538.09 45.3011 538.09C46.1271 538.09 46.7571 537.46 46.9811 536.76ZM49.4273 539V530.18H50.4773V535.71L52.8573 532.7H54.0473L51.6673 535.64L54.3973 539H53.1373L50.4773 535.71V539H49.4273ZM58.524 541.24V540.4C59.154 540.4 59.42 540.12 59.644 539.56L59.924 538.86L57.474 532.7H58.594L60.484 537.53L62.374 532.7H63.494L60.764 539.56C60.26 540.834 59.77 541.31 58.944 541.31C58.832 541.31 58.748 541.296 58.65 541.282L58.524 541.24ZM67.0667 538.09C68.0327 538.09 68.9567 537.194 68.9567 535.85C68.9567 534.506 68.0327 533.61 67.0667 533.61C66.0867 533.61 65.1767 534.506 65.1767 535.85C65.1767 537.194 66.0867 538.09 67.0667 538.09ZM67.0667 539.07C65.4427 539.07 64.1267 537.74 64.1267 535.85C64.1267 533.96 65.4427 532.63 67.0667 532.63C68.6907 532.63 70.0067 533.96 70.0067 535.85C70.0067 537.74 68.6907 539.07 67.0667 539.07ZM71.41 536.34V532.7H72.46V536.34C72.46 537.39 73.146 538.09 74 538.09C74.994 538.09 75.68 537.404 75.68 536.34V532.7H76.73V539H75.96L75.68 538.3C75.554 538.454 75.4 538.58 75.218 538.692C74.896 538.902 74.462 539.07 73.86 539.07C72.53 539.07 71.41 537.95 71.41 536.34ZM78.5467 539V532.7H79.3167L79.5967 533.4C79.7227 533.26 79.8767 533.134 80.0587 533.022C80.3807 532.812 80.8147 532.63 81.4167 532.63H81.5567V533.68H81.2767C80.2827 533.68 79.5967 534.366 79.5967 535.43V539H78.5467ZM85.9618 539V533.68H85.1918V532.7H85.9618V532.21C85.9618 530.95 86.8158 530.11 87.7818 530.11C87.9918 530.11 88.1458 530.138 88.2578 530.18L88.4118 530.25V531.16L88.3138 531.132C88.2578 531.118 88.1598 531.09 88.0618 531.09C87.4318 531.09 87.0118 531.496 87.0118 532.21V532.7H88.4118V533.68H87.0118V539H85.9618ZM92.1273 538.09C93.0933 538.09 94.0173 537.194 94.0173 535.85C94.0173 534.506 93.0933 533.61 92.1273 533.61C91.1473 533.61 90.2373 534.506 90.2373 535.85C90.2373 537.194 91.1473 538.09 92.1273 538.09ZM92.1273 539.07C90.5033 539.07 89.1873 537.74 89.1873 535.85C89.1873 533.96 90.5033 532.63 92.1273 532.63C93.7513 532.63 95.0673 533.96 95.0673 535.85C95.0673 537.74 93.7513 539.07 92.1273 539.07ZM96.4705 539V532.7H97.2405L97.5205 533.4C97.6465 533.26 97.8005 533.134 97.9825 533.022C98.3045 532.812 98.7385 532.63 99.3405 532.63H99.4805V533.68H99.2005C98.2065 533.68 97.5205 534.366 97.5205 535.43V539H96.4705ZM100.668 539V532.7H101.438L101.718 533.4C101.816 533.26 101.942 533.134 102.096 533.022C102.362 532.812 102.712 532.63 103.258 532.63C103.888 532.63 104.322 532.91 104.602 533.19C104.77 533.358 104.91 533.54 105.008 533.75C105.134 533.54 105.274 533.358 105.456 533.19C105.778 532.91 106.226 532.63 106.898 532.63C108.018 532.63 108.998 533.596 108.998 535.22V539H107.948V535.22C107.948 534.156 107.402 533.61 106.688 533.61C105.974 533.61 105.358 534.226 105.358 535.22V539H104.308V535.22C104.308 534.156 103.762 533.61 103.048 533.61C102.362 533.61 101.718 534.282 101.718 535.22V539H100.668ZM117.742 539L117.462 538.3C117.322 538.454 117.168 538.58 116.986 538.692C116.664 538.902 116.202 539.07 115.572 539.07C114.312 539.07 113.472 538.23 113.472 537.18C113.472 535.99 114.312 535.15 117.462 535.15V534.8C117.462 534.17 116.916 533.61 116.132 533.61C115.348 533.61 115.026 533.96 114.872 534.52H113.752C113.906 533.47 114.732 532.63 116.132 532.63C117.532 532.63 118.512 533.624 118.512 534.8V539H117.742ZM117.462 536.62V536.13C114.942 536.13 114.522 536.55 114.522 537.25C114.522 537.684 114.942 538.09 115.572 538.09C116.692 538.09 117.462 537.32 117.462 536.62ZM120.26 539V532.7H121.03L121.31 533.4C121.436 533.26 121.59 533.134 121.772 533.022C122.094 532.812 122.528 532.63 123.13 532.63C124.46 532.63 125.58 533.75 125.58 535.36V539H124.53V535.36C124.53 534.31 123.816 533.61 122.99 533.61C121.996 533.61 121.31 534.296 121.31 535.36V539H120.26ZM129.918 538.09C130.968 538.09 131.878 537.194 131.878 535.85C131.878 534.506 130.968 533.61 129.918 533.61C128.868 533.61 127.958 534.506 127.958 535.85C127.958 537.194 128.868 538.09 129.918 538.09ZM132.018 539L131.738 538.3C131.598 538.454 131.444 538.58 131.262 538.692C130.94 538.902 130.478 539.07 129.848 539.07C128.224 539.07 126.908 537.74 126.908 535.85C126.908 533.96 128.224 532.63 129.848 532.63C130.478 532.63 130.94 532.84 131.262 533.05C131.444 533.176 131.598 533.316 131.738 533.47V530.18H132.788V539H132.018ZM26.4 553.97V550.68H25.28V549.7H25.77C26.288 549.7 26.54 549.448 26.54 548.93V548.02H27.45V549.7H28.85V550.68H27.45V553.97C27.45 554.684 27.87 555.09 28.5 555.09C28.598 555.09 28.682 555.076 28.752 555.062L28.85 555.02V555.93C28.808 555.958 28.752 555.986 28.696 556C28.57 556.042 28.416 556.07 28.22 556.07C27.254 556.07 26.4 555.23 26.4 553.97ZM34.3877 554.32H35.5077C35.0877 555.23 34.2477 556.07 32.8477 556.07C31.1677 556.07 29.8377 554.74 29.8377 552.85C29.8377 550.96 31.2517 549.63 32.7777 549.63C34.3177 549.63 35.6477 550.876 35.6477 552.78C35.6477 552.962 35.6197 553.088 35.6057 553.186L35.5777 553.34H30.9577C31.0277 554.25 31.8537 555.09 32.8477 555.09C33.6737 555.09 34.1777 554.614 34.3877 554.32ZM30.9577 552.43H34.5977C34.4437 551.38 33.6877 550.61 32.7777 550.61C31.8677 550.61 31.1117 551.38 30.9577 552.43ZM41.2526 553.76H42.3026C42.0086 555.034 40.9726 556.07 39.5726 556.07C37.9486 556.07 36.6326 554.74 36.6326 552.85C36.6326 550.96 37.9486 549.63 39.5726 549.63C40.9726 549.63 42.0086 550.666 42.3026 551.94H41.2526C41.0286 551.24 40.3986 550.61 39.5726 550.61C38.5926 550.61 37.6826 551.506 37.6826 552.85C37.6826 554.194 38.5926 555.09 39.5726 555.09C40.3986 555.09 41.0286 554.46 41.2526 553.76ZM43.6988 556V547.18H44.7488V550.47C44.8748 550.316 45.0288 550.176 45.2108 550.05C45.5328 549.84 45.9668 549.63 46.5688 549.63C47.8988 549.63 49.0188 550.75 49.0188 552.36V556H47.9688V552.36C47.9688 551.31 47.2548 550.61 46.4288 550.61C45.4348 550.61 44.7488 551.296 44.7488 552.36V556H43.6988ZM50.7655 556V549.7H51.5355L51.8155 550.4C51.9415 550.26 52.0955 550.134 52.2775 550.022C52.5995 549.812 53.0335 549.63 53.6355 549.63C54.9655 549.63 56.0855 550.75 56.0855 552.36V556H55.0355V552.36C55.0355 551.31 54.3215 550.61 53.4955 550.61C52.5015 550.61 51.8155 551.296 51.8155 552.36V556H50.7655ZM57.8338 556V549.7H58.8838V556H57.8338ZM57.6938 547.922C57.6938 547.53 57.9738 547.25 58.3518 547.25C58.7438 547.25 59.0238 547.53 59.0238 547.922C59.0238 548.3 58.7438 548.58 58.3518 548.58C57.9738 548.58 57.6938 548.3 57.6938 547.922ZM63.2949 555.09C64.3449 555.09 65.2549 554.194 65.2549 552.85C65.2549 551.506 64.3449 550.61 63.2949 550.61C62.2449 550.61 61.3349 551.506 61.3349 552.85C61.3349 554.194 62.2449 555.09 63.2949 555.09ZM65.1149 558.24V555.23C64.9749 555.384 64.8209 555.524 64.6389 555.65C64.3169 555.86 63.8549 556.07 63.2249 556.07C61.6009 556.07 60.2849 554.74 60.2849 552.85C60.2849 550.96 61.6009 549.63 63.2249 549.63C63.8549 549.63 64.3169 549.812 64.6389 550.022C64.8209 550.134 64.9749 550.26 65.1149 550.4L65.3949 549.7H66.1649V558.24H65.1149ZM67.9784 553.34V549.7H69.0284V553.34C69.0284 554.39 69.7144 555.09 70.5684 555.09C71.5624 555.09 72.2484 554.404 72.2484 553.34V549.7H73.2984V556H72.5284L72.2484 555.3C72.1224 555.454 71.9684 555.58 71.7864 555.692C71.4644 555.902 71.0304 556.07 70.4284 556.07C69.0984 556.07 67.9784 554.95 67.9784 553.34ZM79.2451 554.32H80.3651C79.9451 555.23 79.1051 556.07 77.7051 556.07C76.0251 556.07 74.6951 554.74 74.6951 552.85C74.6951 550.96 76.1091 549.63 77.6351 549.63C79.1751 549.63 80.5051 550.876 80.5051 552.78C80.5051 552.962 80.4771 553.088 80.4631 553.186L80.4351 553.34H75.8151C75.8851 554.25 76.7111 555.09 77.7051 555.09C78.5311 555.09 79.0351 554.614 79.2451 554.32ZM75.8151 552.43H79.4551C79.3011 551.38 78.5451 550.61 77.6351 550.61C76.7251 550.61 75.9691 551.38 75.8151 552.43ZM81.49 555.37C81.49 554.936 81.756 554.67 82.19 554.67C82.624 554.67 82.89 554.936 82.89 555.37C82.89 555.804 82.624 556.07 82.19 556.07C81.756 556.07 81.49 555.804 81.49 555.37Z" fill="#A1A1AA"/>
<g opacity="0.5">
<rect x="25" y="440" width="48" height="48" rx="24" fill="black"/>
<path d="M49.8125 451.258C49.8125 450.003 48.1363 449.53 47.398 450.571C40.625 460.117 50.25 460.547 50.25 465.188C50.25 467.066 48.658 468.587 46.7035 468.562C44.7802 468.538 43.25 466.992 43.25 465.137V460.628C43.25 459.484 41.8024 458.928 40.9843 459.758C39.5203 461.241 38 463.781 38 466.875C38 472.458 42.7102 477 48.5 477C54.2898 477 59 472.458 59 466.875C59 457.895 49.8125 456.697 49.8125 451.258Z" fill="url(#paint5_linear_234_3032)"/>
</g>
<rect x="117" y="440" width="58" height="20" rx="4" fill="url(#paint6_linear_234_3032)"/>
<path d="M124.65 451.4H125.4C125.19 452.31 124.45 453.05 123.45 453.05C122.29 453.05 121.35 452.1 121.35 450.75C121.35 449.4 122.29 448.45 123.45 448.45C124.45 448.45 125.19 449.19 125.4 450.1H124.65C124.49 449.6 124.04 449.15 123.45 449.15C122.75 449.15 122.1 449.79 122.1 450.75C122.1 451.71 122.75 452.35 123.45 452.35C124.04 452.35 124.49 451.9 124.65 451.4ZM128.147 452.35C128.837 452.35 129.497 451.71 129.497 450.75C129.497 449.79 128.837 449.15 128.147 449.15C127.447 449.15 126.797 449.79 126.797 450.75C126.797 451.71 127.447 452.35 128.147 452.35ZM128.147 453.05C126.987 453.05 126.047 452.1 126.047 450.75C126.047 449.4 126.987 448.45 128.147 448.45C129.307 448.45 130.247 449.4 130.247 450.75C130.247 452.1 129.307 453.05 128.147 453.05ZM131.25 453V448.5H131.8L132 449C132.07 448.9 132.16 448.81 132.27 448.73C132.46 448.58 132.71 448.45 133.1 448.45C133.55 448.45 133.86 448.65 134.06 448.85C134.18 448.97 134.28 449.1 134.35 449.25C134.44 449.1 134.54 448.97 134.67 448.85C134.9 448.65 135.22 448.45 135.7 448.45C136.5 448.45 137.2 449.14 137.2 450.3V453H136.45V450.3C136.45 449.54 136.06 449.15 135.55 449.15C135.04 449.15 134.6 449.59 134.6 450.3V453H133.85V450.3C133.85 449.54 133.46 449.15 132.95 449.15C132.46 449.15 132 449.63 132 450.3V453H131.25ZM138.447 453V448.5H139.197V453H138.447ZM138.347 447.23C138.347 446.95 138.547 446.75 138.817 446.75C139.097 446.75 139.297 446.95 139.297 447.23C139.297 447.5 139.097 447.7 138.817 447.7C138.547 447.7 138.347 447.5 138.347 447.23ZM140.498 453V448.5H141.048L141.248 449C141.338 448.9 141.448 448.81 141.578 448.73C141.808 448.58 142.118 448.45 142.548 448.45C143.498 448.45 144.298 449.25 144.298 450.4V453H143.548V450.4C143.548 449.65 143.038 449.15 142.448 449.15C141.738 449.15 141.248 449.64 141.248 450.4V453H140.498ZM145.496 453.35H146.246C146.396 453.7 146.696 454 147.346 454C148.106 454 148.596 453.5 148.596 452.85V452.25C148.506 452.36 148.406 452.46 148.286 452.55C148.076 452.7 147.746 452.85 147.296 452.85C146.146 452.85 145.246 451.96 145.246 450.65C145.246 449.34 146.146 448.45 147.296 448.45C147.746 448.45 148.076 448.58 148.286 448.73C148.406 448.81 148.506 448.9 148.596 449L148.796 448.5H149.346V452.85C149.346 453.9 148.546 454.7 147.346 454.7C146.316 454.7 145.686 454.1 145.496 453.35ZM147.346 452.15C148.096 452.15 148.696 451.55 148.696 450.65C148.696 449.75 148.096 449.15 147.346 449.15C146.596 449.15 145.996 449.75 145.996 450.65C145.996 451.55 146.596 452.15 147.346 452.15ZM152.493 451.65H153.243C153.293 452.05 153.583 452.35 154.143 452.35C154.653 452.35 154.943 452.05 154.943 451.7C154.943 450.69 152.593 451.46 152.593 449.75C152.593 449.06 153.193 448.45 154.093 448.45C155.053 448.45 155.593 449 155.643 449.8H154.893C154.843 449.4 154.603 449.15 154.093 449.15C153.643 449.15 153.343 449.44 153.343 449.75C153.343 450.76 155.693 450 155.693 451.7C155.693 452.45 155.093 453.05 154.143 453.05C153.143 453.05 152.543 452.45 152.493 451.65ZM158.538 452.35C159.228 452.35 159.888 451.71 159.888 450.75C159.888 449.79 159.228 449.15 158.538 449.15C157.838 449.15 157.188 449.79 157.188 450.75C157.188 451.71 157.838 452.35 158.538 452.35ZM158.538 453.05C157.378 453.05 156.438 452.1 156.438 450.75C156.438 449.4 157.378 448.45 158.538 448.45C159.698 448.45 160.638 449.4 160.638 450.75C160.638 452.1 159.698 453.05 158.538 453.05ZM163.44 452.35C164.13 452.35 164.79 451.71 164.79 450.75C164.79 449.79 164.13 449.15 163.44 449.15C162.74 449.15 162.09 449.79 162.09 450.75C162.09 451.71 162.74 452.35 163.44 452.35ZM163.44 453.05C162.28 453.05 161.34 452.1 161.34 450.75C161.34 449.4 162.28 448.45 163.44 448.45C164.6 448.45 165.54 449.4 165.54 450.75C165.54 452.1 164.6 453.05 163.44 453.05ZM166.543 453V448.5H167.093L167.293 449C167.383 448.9 167.493 448.81 167.623 448.73C167.853 448.58 168.163 448.45 168.593 448.45C169.543 448.45 170.343 449.25 170.343 450.4V453H169.593V450.4C169.593 449.65 169.083 449.15 168.493 449.15C167.783 449.15 167.293 449.64 167.293 450.4V453H166.543Z" fill="white"/>
<rect x="196" y="112" width="163" height="141" rx="8" fill="url(#paint7_radial_234_3032)"/>
<path d="M213.91 188.04H216.16C215.638 190.2 213.712 192.09 211.03 192.09C208.06 192.09 205.54 189.57 205.54 186.33C205.54 183.09 208.06 180.57 211.03 180.57C213.622 180.57 215.548 182.46 216.07 184.62H213.82C213.532 183.63 212.56 182.64 211.03 182.64C209.23 182.64 207.7 184.17 207.7 186.33C207.7 188.49 209.23 190.02 211.03 190.02C212.578 190.02 213.532 189.03 213.91 188.04ZM222.722 192L222.362 191.19C222.164 191.352 221.966 191.514 221.732 191.64C221.318 191.874 220.742 192.09 220.022 192.09C218.222 192.09 217.232 191.118 217.232 189.75C217.232 188.112 218.402 186.96 222.182 186.96C222.182 186.042 221.642 185.52 220.832 185.52C220.274 185.52 219.986 185.754 219.788 185.97C219.68 186.096 219.608 186.258 219.572 186.42H217.502C217.7 184.908 218.942 183.63 221.012 183.63C222.884 183.63 224.252 184.998 224.252 186.87V192H222.722ZM222.182 188.76V188.4C219.752 188.4 219.302 188.85 219.302 189.57C219.302 190.02 219.752 190.47 220.382 190.47C221.462 190.47 222.182 189.768 222.182 188.76ZM226.135 192V180.66H228.205V192H226.135ZM233.868 185.61C232.698 185.61 231.798 186.492 231.798 187.86C231.798 189.228 232.698 190.11 233.868 190.11C235.038 190.11 235.938 189.228 235.938 187.86C235.938 186.492 235.038 185.61 233.868 185.61ZM233.868 183.63C236.1 183.63 238.008 185.52 238.008 187.86C238.008 190.2 236.1 192.09 233.868 192.09C231.636 192.09 229.728 190.2 229.728 187.86C229.728 185.52 231.636 183.63 233.868 183.63ZM239.529 192V183.72H241.059L241.419 184.62C241.563 184.44 241.743 184.278 241.941 184.134C242.283 183.864 242.769 183.63 243.399 183.63C243.597 183.63 243.723 183.666 243.849 183.684L244.029 183.72V185.88L243.831 185.844C243.705 185.826 243.525 185.79 243.309 185.79C242.301 185.79 241.599 186.51 241.599 187.59V192H239.529ZM245.383 192V183.72H247.453V192H245.383ZM246.463 182.73C245.833 182.73 245.293 182.19 245.293 181.56C245.293 180.93 245.833 180.39 246.463 180.39C247.093 180.39 247.633 180.93 247.633 181.56C247.633 182.19 247.093 182.73 246.463 182.73ZM254.646 189.48H256.806C256.374 190.722 254.988 192.09 253.116 192.09C250.884 192.09 248.976 190.2 248.976 187.86C248.976 185.52 250.884 183.63 253.116 183.63C255.276 183.63 257.076 185.34 257.076 187.86C257.076 188.058 257.04 188.238 257.022 188.4L256.986 188.67H251.226C251.424 189.48 252.036 190.11 253.116 190.11C253.674 190.11 254.016 189.966 254.286 189.804C254.43 189.714 254.556 189.606 254.646 189.48ZM251.136 187.23H255.096C254.898 186.312 254.196 185.61 253.116 185.61C252.036 185.61 251.334 186.312 251.136 187.23ZM258.151 189.39H260.131C260.221 189.948 260.671 190.38 261.391 190.38C262.111 190.38 262.561 189.93 262.561 189.48C262.561 188.31 258.331 189.012 258.331 186.15C258.331 184.8 259.501 183.63 261.301 183.63C263.299 183.63 264.343 184.71 264.541 186.15H262.561C262.471 185.79 262.021 185.34 261.391 185.34C260.761 185.34 260.401 185.7 260.401 186.15C260.401 187.302 264.631 186.618 264.631 189.57C264.631 190.92 263.443 192.09 261.571 192.09C259.411 192.09 258.313 191.028 258.151 189.39ZM270.203 192V180.66H272.273V184.44C272.435 184.296 272.633 184.17 272.849 184.044C273.227 183.846 273.731 183.63 274.433 183.63C276.503 183.63 278.303 185.412 278.303 187.86C278.303 190.308 276.503 192.09 274.433 192.09C273.713 192.09 273.137 191.874 272.723 191.64C272.489 191.514 272.273 191.352 272.093 191.19L271.733 192H270.203ZM274.163 190.11C275.333 190.11 276.233 189.228 276.233 187.86C276.233 186.492 275.333 185.61 274.163 185.61C272.993 185.61 272.093 186.492 272.093 187.86C272.093 189.228 272.993 190.11 274.163 190.11ZM279.836 188.58V183.72H281.906V188.31C281.906 189.39 282.608 190.11 283.616 190.11C284.624 190.11 285.326 189.39 285.326 188.31V183.72H287.396V192H285.866L285.506 191.19C285.308 191.352 285.074 191.514 284.84 191.64C284.426 191.874 283.832 192.09 283.166 192.09C281.204 192.09 279.836 190.74 279.836 188.58ZM289.381 192V183.72H290.911L291.271 184.62C291.415 184.44 291.595 184.278 291.793 184.134C292.135 183.864 292.621 183.63 293.251 183.63C293.449 183.63 293.575 183.666 293.701 183.684L293.881 183.72V185.88L293.683 185.844C293.557 185.826 293.377 185.79 293.161 185.79C292.153 185.79 291.451 186.51 291.451 187.59V192H289.381ZM295.234 192V183.72H296.764L297.124 184.53C297.322 184.368 297.556 184.206 297.79 184.08C298.204 183.864 298.762 183.63 299.464 183.63C301.426 183.63 302.794 184.98 302.794 187.14V192H300.724V187.41C300.724 186.33 300.022 185.61 299.014 185.61C298.006 185.61 297.304 186.33 297.304 187.41V192H295.234ZM309.911 189.48H312.071C311.639 190.722 310.253 192.09 308.381 192.09C306.149 192.09 304.241 190.2 304.241 187.86C304.241 185.52 306.149 183.63 308.381 183.63C310.541 183.63 312.341 185.34 312.341 187.86C312.341 188.058 312.305 188.238 312.287 188.4L312.251 188.67H306.491C306.689 189.48 307.301 190.11 308.381 190.11C308.939 190.11 309.281 189.966 309.551 189.804C309.695 189.714 309.821 189.606 309.911 189.48ZM306.401 187.23H310.361C310.163 186.312 309.461 185.61 308.381 185.61C307.301 185.61 306.599 186.312 306.401 187.23ZM319.987 192L319.627 191.19C319.429 191.352 319.231 191.514 318.997 191.64C318.583 191.874 318.007 192.09 317.287 192.09C315.217 192.09 313.417 190.308 313.417 187.86C313.417 185.412 315.217 183.63 317.287 183.63C317.953 183.63 318.493 183.846 318.871 184.044C319.087 184.17 319.285 184.296 319.447 184.44V180.66H321.517V192H319.987ZM317.557 190.11C318.727 190.11 319.627 189.228 319.627 187.86C319.627 186.492 318.727 185.61 317.557 185.61C316.387 185.61 315.487 186.492 315.487 187.86C315.487 189.228 316.387 190.11 317.557 190.11Z" fill="white"/>
<path d="M206.12 219V210.18H209.41C210.866 210.18 211.93 211.216 211.93 212.56C211.93 213.19 211.678 213.624 211.44 213.904C211.286 214.072 211.132 214.212 210.95 214.31C211.188 214.436 211.412 214.59 211.608 214.786C211.944 215.122 212.28 215.682 212.28 216.48C212.28 217.782 211.09 219 209.48 219H206.12ZM207.24 213.89H209.41C210.25 213.89 210.88 213.26 210.88 212.56C210.88 211.79 210.25 211.16 209.41 211.16H207.24V213.89ZM207.24 218.02H209.48C210.474 218.02 211.16 217.32 211.16 216.41C211.16 215.584 210.446 214.87 209.48 214.87H207.24V218.02ZM217.734 219L217.454 218.3C217.314 218.454 217.16 218.58 216.978 218.692C216.656 218.902 216.194 219.07 215.564 219.07C214.304 219.07 213.464 218.23 213.464 217.18C213.464 215.99 214.304 215.15 217.454 215.15V214.8C217.454 214.17 216.908 213.61 216.124 213.61C215.34 213.61 215.018 213.96 214.864 214.52H213.744C213.898 213.47 214.724 212.63 216.124 212.63C217.524 212.63 218.504 213.624 218.504 214.8V219H217.734ZM217.454 216.62V216.13C214.934 216.13 214.514 216.55 214.514 217.25C214.514 217.684 214.934 218.09 215.564 218.09C216.684 218.09 217.454 217.32 217.454 216.62ZM219.832 217.11H220.882C220.952 217.67 221.358 218.09 222.142 218.09C222.856 218.09 223.262 217.67 223.262 217.18C223.262 215.766 219.972 216.844 219.972 214.45C219.972 213.484 220.812 212.63 222.072 212.63C223.416 212.63 224.172 213.4 224.242 214.52H223.192C223.122 213.96 222.786 213.61 222.072 213.61C221.442 213.61 221.022 214.016 221.022 214.45C221.022 215.864 224.312 214.8 224.312 217.18C224.312 218.23 223.472 219.07 222.142 219.07C220.742 219.07 219.902 218.23 219.832 217.11ZM229.905 217.32H231.025C230.605 218.23 229.765 219.07 228.365 219.07C226.685 219.07 225.355 217.74 225.355 215.85C225.355 213.96 226.769 212.63 228.295 212.63C229.835 212.63 231.165 213.876 231.165 215.78C231.165 215.962 231.137 216.088 231.123 216.186L231.095 216.34H226.475C226.545 217.25 227.371 218.09 228.365 218.09C229.191 218.09 229.695 217.614 229.905 217.32ZM226.475 215.43H230.115C229.961 214.38 229.205 213.61 228.295 213.61C227.385 213.61 226.629 214.38 226.475 215.43ZM235.16 218.09C236.21 218.09 237.12 217.194 237.12 215.85C237.12 214.506 236.21 213.61 235.16 213.61C234.11 213.61 233.2 214.506 233.2 215.85C233.2 217.194 234.11 218.09 235.16 218.09ZM237.26 219L236.98 218.3C236.84 218.454 236.686 218.58 236.504 218.692C236.182 218.902 235.72 219.07 235.09 219.07C233.466 219.07 232.15 217.74 232.15 215.85C232.15 213.96 233.466 212.63 235.09 212.63C235.72 212.63 236.182 212.84 236.504 213.05C236.686 213.176 236.84 213.316 236.98 213.47V210.18H238.03V219H237.26ZM245.453 218.09C246.419 218.09 247.343 217.194 247.343 215.85C247.343 214.506 246.419 213.61 245.453 213.61C244.473 213.61 243.563 214.506 243.563 215.85C243.563 217.194 244.473 218.09 245.453 218.09ZM245.453 219.07C243.829 219.07 242.513 217.74 242.513 215.85C242.513 213.96 243.829 212.63 245.453 212.63C247.077 212.63 248.393 213.96 248.393 215.85C248.393 217.74 247.077 219.07 245.453 219.07ZM249.797 219V212.7H250.567L250.847 213.4C250.973 213.26 251.127 213.134 251.309 213.022C251.631 212.812 252.065 212.63 252.667 212.63C253.997 212.63 255.117 213.75 255.117 215.36V219H254.067V215.36C254.067 214.31 253.353 213.61 252.527 213.61C251.533 213.61 250.847 214.296 250.847 215.36V219H249.797ZM262.463 218.09C263.513 218.09 264.423 217.194 264.423 215.85C264.423 214.506 263.513 213.61 262.463 213.61C261.413 213.61 260.503 214.506 260.503 215.85C260.503 217.194 261.413 218.09 262.463 218.09ZM264.563 219L264.283 218.3C264.143 218.454 263.989 218.58 263.807 218.692C263.485 218.902 263.023 219.07 262.393 219.07C260.769 219.07 259.453 217.74 259.453 215.85C259.453 213.96 260.769 212.63 262.393 212.63C263.023 212.63 263.485 212.84 263.807 213.05C263.989 213.176 264.143 213.316 264.283 213.47V210.18H265.333V219H264.563ZM267.228 219V212.7H268.278V219H267.228ZM267.088 210.922C267.088 210.53 267.368 210.25 267.746 210.25C268.138 210.25 268.418 210.53 268.418 210.922C268.418 211.3 268.138 211.58 267.746 211.58C267.368 211.58 267.088 211.3 267.088 210.922ZM269.679 217.11H270.729C270.799 217.67 271.205 218.09 271.989 218.09C272.703 218.09 273.109 217.67 273.109 217.18C273.109 215.766 269.819 216.844 269.819 214.45C269.819 213.484 270.659 212.63 271.919 212.63C273.263 212.63 274.019 213.4 274.089 214.52H273.039C272.969 213.96 272.633 213.61 271.919 213.61C271.289 213.61 270.869 214.016 270.869 214.45C270.869 215.864 274.159 214.8 274.159 217.18C274.159 218.23 273.319 219.07 271.989 219.07C270.589 219.07 269.749 218.23 269.679 217.11ZM276.113 216.97V213.68H274.993V212.7H275.483C276.001 212.7 276.253 212.448 276.253 211.93V211.02H277.163V212.7H278.563V213.68H277.163V216.97C277.163 217.684 277.583 218.09 278.213 218.09C278.311 218.09 278.395 218.076 278.465 218.062L278.563 218.02V218.93C278.521 218.958 278.465 218.986 278.409 219C278.283 219.042 278.129 219.07 277.933 219.07C276.967 219.07 276.113 218.23 276.113 216.97ZM283.961 219L283.681 218.3C283.541 218.454 283.387 218.58 283.205 218.692C282.883 218.902 282.421 219.07 281.791 219.07C280.531 219.07 279.691 218.23 279.691 217.18C279.691 215.99 280.531 215.15 283.681 215.15V214.8C283.681 214.17 283.135 213.61 282.351 213.61C281.567 213.61 281.245 213.96 281.091 214.52H279.971C280.125 213.47 280.951 212.63 282.351 212.63C283.751 212.63 284.731 213.624 284.731 214.8V219H283.961ZM283.681 216.62V216.13C281.161 216.13 280.741 216.55 280.741 217.25C280.741 217.684 281.161 218.09 281.791 218.09C282.911 218.09 283.681 217.32 283.681 216.62ZM286.478 219V212.7H287.248L287.528 213.4C287.654 213.26 287.808 213.134 287.99 213.022C288.312 212.812 288.746 212.63 289.348 212.63C290.678 212.63 291.798 213.75 291.798 215.36V219H290.748V215.36C290.748 214.31 290.034 213.61 289.208 213.61C288.214 213.61 287.528 214.296 287.528 215.36V219H286.478ZM297.747 216.76H298.797C298.503 218.034 297.467 219.07 296.067 219.07C294.443 219.07 293.127 217.74 293.127 215.85C293.127 213.96 294.443 212.63 296.067 212.63C297.467 212.63 298.503 213.666 298.797 214.94H297.747C297.523 214.24 296.893 213.61 296.067 213.61C295.087 213.61 294.177 214.506 294.177 215.85C294.177 217.194 295.087 218.09 296.067 218.09C296.893 218.09 297.523 217.46 297.747 216.76ZM304.253 217.32H305.373C304.953 218.23 304.113 219.07 302.713 219.07C301.033 219.07 299.703 217.74 299.703 215.85C299.703 213.96 301.117 212.63 302.643 212.63C304.183 212.63 305.513 213.876 305.513 215.78C305.513 215.962 305.485 216.088 305.471 216.186L305.443 216.34H300.823C300.893 217.25 301.719 218.09 302.713 218.09C303.539 218.09 304.043 217.614 304.253 217.32ZM300.823 215.43H304.463C304.309 214.38 303.553 213.61 302.643 213.61C301.733 213.61 300.977 214.38 300.823 215.43ZM313.916 219L313.636 218.3C313.496 218.454 313.342 218.58 313.16 218.692C312.838 218.902 312.376 219.07 311.746 219.07C310.486 219.07 309.646 218.23 309.646 217.18C309.646 215.99 310.486 215.15 313.636 215.15V214.8C313.636 214.17 313.09 213.61 312.306 213.61C311.522 213.61 311.2 213.96 311.046 214.52H309.926C310.08 213.47 310.906 212.63 312.306 212.63C313.706 212.63 314.686 213.624 314.686 214.8V219H313.916ZM313.636 216.62V216.13C311.116 216.13 310.696 216.55 310.696 217.25C310.696 217.684 311.116 218.09 311.746 218.09C312.866 218.09 313.636 217.32 313.636 216.62ZM316.433 219V212.7H317.203L317.483 213.4C317.609 213.26 317.763 213.134 317.945 213.022C318.267 212.812 318.701 212.63 319.303 212.63C320.633 212.63 321.753 213.75 321.753 215.36V219H320.703V215.36C320.703 214.31 319.989 213.61 319.163 213.61C318.169 213.61 317.483 214.296 317.483 215.36V219H316.433ZM326.092 218.09C327.142 218.09 328.052 217.194 328.052 215.85C328.052 214.506 327.142 213.61 326.092 213.61C325.042 213.61 324.132 214.506 324.132 215.85C324.132 217.194 325.042 218.09 326.092 218.09ZM328.192 219L327.912 218.3C327.772 218.454 327.618 218.58 327.436 218.692C327.114 218.902 326.652 219.07 326.022 219.07C324.398 219.07 323.082 217.74 323.082 215.85C323.082 213.96 324.398 212.63 326.022 212.63C326.652 212.63 327.114 212.84 327.436 213.05C327.618 213.176 327.772 213.316 327.912 213.47V210.18H328.962V219H328.192ZM207.24 236L205.14 229.7H206.26L207.73 234.18L209.13 229.7H209.83L211.23 234.18L212.7 229.7H213.82L211.72 236H210.88L209.48 231.52L208.08 236H207.24ZM218.995 234.32H220.115C219.695 235.23 218.855 236.07 217.455 236.07C215.775 236.07 214.445 234.74 214.445 232.85C214.445 230.96 215.859 229.63 217.385 229.63C218.925 229.63 220.255 230.876 220.255 232.78C220.255 232.962 220.227 233.088 220.213 233.186L220.185 233.34H215.565C215.635 234.25 216.461 235.09 217.455 235.09C218.281 235.09 218.785 234.614 218.995 234.32ZM215.565 232.43H219.205C219.051 231.38 218.295 230.61 217.385 230.61C216.475 230.61 215.719 231.38 215.565 232.43ZM221.66 236V229.7H222.71V236H221.66ZM221.52 227.922C221.52 227.53 221.8 227.25 222.178 227.25C222.57 227.25 222.85 227.53 222.85 227.922C222.85 228.3 222.57 228.58 222.178 228.58C221.8 228.58 221.52 228.3 221.52 227.922ZM224.461 236.49H225.511C225.721 236.98 226.141 237.4 227.051 237.4C228.115 237.4 228.801 236.7 228.801 235.79V234.95C228.675 235.104 228.535 235.244 228.367 235.37C228.073 235.58 227.611 235.79 226.981 235.79C225.371 235.79 224.111 234.544 224.111 232.71C224.111 230.876 225.371 229.63 226.981 229.63C227.611 229.63 228.073 229.812 228.367 230.022C228.535 230.134 228.675 230.26 228.801 230.4L229.081 229.7H229.851V235.79C229.851 237.26 228.731 238.38 227.051 238.38C225.609 238.38 224.727 237.54 224.461 236.49ZM227.051 234.81C228.101 234.81 228.941 233.97 228.941 232.71C228.941 231.45 228.101 230.61 227.051 230.61C226.001 230.61 225.161 231.45 225.161 232.71C225.161 233.97 226.001 234.81 227.051 234.81ZM231.738 236V227.18H232.788V230.47C232.914 230.316 233.068 230.176 233.25 230.05C233.572 229.84 234.006 229.63 234.608 229.63C235.938 229.63 237.058 230.75 237.058 232.36V236H236.008V232.36C236.008 231.31 235.294 230.61 234.468 230.61C233.474 230.61 232.788 231.296 232.788 232.36V236H231.738ZM239.295 233.97V230.68H238.175V229.7H238.665C239.183 229.7 239.435 229.448 239.435 228.93V228.02H240.345V229.7H241.745V230.68H240.345V233.97C240.345 234.684 240.765 235.09 241.395 235.09C241.493 235.09 241.577 235.076 241.647 235.062L241.745 235.02V235.93C241.703 235.958 241.647 235.986 241.591 236C241.465 236.042 241.311 236.07 241.115 236.07C240.149 236.07 239.295 235.23 239.295 233.97ZM242.869 235.37C242.869 234.936 243.135 234.67 243.569 234.67C244.003 234.67 244.269 234.936 244.269 235.37C244.269 235.804 244.003 236.07 243.569 236.07C243.135 236.07 242.869 235.804 242.869 235.37Z" fill="#A1A1AA"/>
<rect x="205" y="120" width="48" height="48" rx="24" fill="black"/>
<path d="M229.812 131.258C229.812 130.003 228.136 129.53 227.398 130.571C220.625 140.117 230.25 140.547 230.25 145.188C230.25 147.066 228.658 148.587 226.704 148.562C224.78 148.538 223.25 146.992 223.25 145.137V140.628C223.25 139.484 221.802 138.928 220.984 139.758C219.52 141.241 218 143.781 218 146.875C218 152.458 222.71 157 228.5 157C234.29 157 239 152.458 239 146.875C239 137.895 229.812 136.697 229.812 131.258Z" fill="url(#paint8_linear_234_3032)"/>
<rect x="196" y="272" width="163" height="141" rx="8" fill="url(#paint9_radial_234_3032)"/>
<path d="M208.6 352V342.73H205.27V340.66H214.09V342.73H210.76V352H208.6ZM213.909 350.92C213.909 350.29 214.449 349.75 215.079 349.75C215.709 349.75 216.249 350.29 216.249 350.92C216.249 351.55 215.709 352.09 215.079 352.09C214.449 352.09 213.909 351.55 213.909 350.92ZM217.963 347.68V340.66H220.123V347.68C220.123 349.12 221.023 350.02 222.463 350.02C223.903 350.02 224.803 349.12 224.803 347.68V340.66H226.963V347.68C226.963 350.2 225.073 352.09 222.463 352.09C219.853 352.09 217.963 350.2 217.963 347.68ZM228.675 350.92C228.675 350.29 229.215 349.75 229.845 349.75C230.475 349.75 231.015 350.29 231.015 350.92C231.015 351.55 230.475 352.09 229.845 352.09C229.215 352.09 228.675 351.55 228.675 350.92ZM234.176 352V342.73H230.846V340.66H239.666V342.73H236.336V352H234.176Z" fill="white"/>
<path d="M207.87 379V371.16H205.21V370.18H211.65V371.16H208.99V379H207.87ZM212.773 379V372.7H213.823V379H212.773ZM212.633 370.922C212.633 370.53 212.913 370.25 213.291 370.25C213.683 370.25 213.963 370.53 213.963 370.922C213.963 371.3 213.683 371.58 213.291 371.58C212.913 371.58 212.633 371.3 212.633 370.922ZM215.644 379V372.7H216.414L216.694 373.4C216.792 373.26 216.918 373.134 217.072 373.022C217.338 372.812 217.688 372.63 218.234 372.63C218.864 372.63 219.298 372.91 219.578 373.19C219.746 373.358 219.886 373.54 219.984 373.75C220.11 373.54 220.25 373.358 220.432 373.19C220.754 372.91 221.202 372.63 221.874 372.63C222.994 372.63 223.974 373.596 223.974 375.22V379H222.924V375.22C222.924 374.156 222.378 373.61 221.664 373.61C220.95 373.61 220.334 374.226 220.334 375.22V379H219.284V375.22C219.284 374.156 218.738 373.61 218.024 373.61C217.338 373.61 216.694 374.282 216.694 375.22V379H215.644ZM229.851 377.32H230.971C230.551 378.23 229.711 379.07 228.311 379.07C226.631 379.07 225.301 377.74 225.301 375.85C225.301 373.96 226.715 372.63 228.241 372.63C229.781 372.63 231.111 373.876 231.111 375.78C231.111 375.962 231.083 376.088 231.069 376.186L231.041 376.34H226.421C226.491 377.25 227.317 378.09 228.311 378.09C229.137 378.09 229.641 377.614 229.851 377.32ZM226.421 375.43H230.061C229.907 374.38 229.151 373.61 228.241 373.61C227.331 373.61 226.575 374.38 226.421 375.43ZM235.523 376.34V372.7H236.573V376.34C236.573 377.39 237.259 378.09 238.113 378.09C239.107 378.09 239.793 377.404 239.793 376.34V372.7H240.843V379H240.073L239.793 378.3C239.667 378.454 239.513 378.58 239.331 378.692C239.009 378.902 238.575 379.07 237.973 379.07C236.643 379.07 235.523 377.95 235.523 376.34ZM242.66 379V372.7H243.43L243.71 373.4C243.836 373.26 243.99 373.134 244.172 373.022C244.494 372.812 244.928 372.63 245.53 372.63C246.86 372.63 247.98 373.75 247.98 375.36V379H246.93V375.36C246.93 374.31 246.216 373.61 245.39 373.61C244.396 373.61 243.71 374.296 243.71 375.36V379H242.66ZM252.318 378.09C253.368 378.09 254.278 377.194 254.278 375.85C254.278 374.506 253.368 373.61 252.318 373.61C251.268 373.61 250.358 374.506 250.358 375.85C250.358 377.194 251.268 378.09 252.318 378.09ZM254.418 379L254.138 378.3C253.998 378.454 253.844 378.58 253.662 378.692C253.34 378.902 252.878 379.07 252.248 379.07C250.624 379.07 249.308 377.74 249.308 375.85C249.308 373.96 250.624 372.63 252.248 372.63C252.878 372.63 253.34 372.84 253.662 373.05C253.844 373.176 253.998 373.316 254.138 373.47V370.18H255.188V379H254.418ZM261.214 377.32H262.334C261.914 378.23 261.074 379.07 259.674 379.07C257.994 379.07 256.664 377.74 256.664 375.85C256.664 373.96 258.078 372.63 259.604 372.63C261.144 372.63 262.474 373.876 262.474 375.78C262.474 375.962 262.446 376.088 262.432 376.186L262.404 376.34H257.784C257.854 377.25 258.68 378.09 259.674 378.09C260.5 378.09 261.004 377.614 261.214 377.32ZM257.784 375.43H261.424C261.27 374.38 260.514 373.61 259.604 373.61C258.694 373.61 257.938 374.38 257.784 375.43ZM263.879 379V372.7H264.649L264.929 373.4C265.055 373.26 265.209 373.134 265.391 373.022C265.713 372.812 266.147 372.63 266.749 372.63H266.889V373.68H266.609C265.615 373.68 264.929 374.366 264.929 375.43V379H263.879ZM271.574 376.97V373.68H270.454V372.7H270.944C271.462 372.7 271.714 372.448 271.714 371.93V371.02H272.624V372.7H274.024V373.68H272.624V376.97C272.624 377.684 273.044 378.09 273.674 378.09C273.772 378.09 273.856 378.076 273.926 378.062L274.024 378.02V378.93C273.982 378.958 273.926 378.986 273.87 379C273.744 379.042 273.59 379.07 273.394 379.07C272.428 379.07 271.574 378.23 271.574 376.97ZM279.561 377.32H280.681C280.261 378.23 279.421 379.07 278.021 379.07C276.341 379.07 275.011 377.74 275.011 375.85C275.011 373.96 276.425 372.63 277.951 372.63C279.491 372.63 280.821 373.876 280.821 375.78C280.821 375.962 280.793 376.088 280.779 376.186L280.751 376.34H276.131C276.201 377.25 277.027 378.09 278.021 378.09C278.847 378.09 279.351 377.614 279.561 377.32ZM276.131 375.43H279.771C279.617 374.38 278.861 373.61 277.951 373.61C277.041 373.61 276.285 374.38 276.131 375.43ZM282.226 379V372.7H282.996L283.276 373.4C283.402 373.26 283.556 373.134 283.738 373.022C284.06 372.812 284.494 372.63 285.096 372.63C286.426 372.63 287.546 373.75 287.546 375.36V379H286.496V375.36C286.496 374.31 285.782 373.61 284.956 373.61C283.962 373.61 283.276 374.296 283.276 375.36V379H282.226ZM288.875 377.11H289.925C289.995 377.67 290.401 378.09 291.185 378.09C291.899 378.09 292.305 377.67 292.305 377.18C292.305 375.766 289.015 376.844 289.015 374.45C289.015 373.484 289.855 372.63 291.115 372.63C292.459 372.63 293.215 373.4 293.285 374.52H292.235C292.165 373.96 291.829 373.61 291.115 373.61C290.485 373.61 290.065 374.016 290.065 374.45C290.065 375.864 293.355 374.8 293.355 377.18C293.355 378.23 292.515 379.07 291.185 379.07C289.785 379.07 288.945 378.23 288.875 377.11ZM294.818 379V372.7H295.868V379H294.818ZM294.678 370.922C294.678 370.53 294.958 370.25 295.336 370.25C295.728 370.25 296.008 370.53 296.008 370.922C296.008 371.3 295.728 371.58 295.336 371.58C294.958 371.58 294.678 371.3 294.678 370.922ZM300.209 378.09C301.175 378.09 302.099 377.194 302.099 375.85C302.099 374.506 301.175 373.61 300.209 373.61C299.229 373.61 298.319 374.506 298.319 375.85C298.319 377.194 299.229 378.09 300.209 378.09ZM300.209 379.07C298.585 379.07 297.269 377.74 297.269 375.85C297.269 373.96 298.585 372.63 300.209 372.63C301.833 372.63 303.149 373.96 303.149 375.85C303.149 377.74 301.833 379.07 300.209 379.07ZM304.553 379V372.7H305.323L305.603 373.4C305.729 373.26 305.883 373.134 306.065 373.022C306.387 372.812 306.821 372.63 307.423 372.63C308.753 372.63 309.873 373.75 309.873 375.36V379H308.823V375.36C308.823 374.31 308.109 373.61 307.283 373.61C306.289 373.61 305.603 374.296 305.603 375.36V379H304.553ZM311.201 378.37C311.201 377.936 311.467 377.67 311.901 377.67C312.335 377.67 312.601 377.936 312.601 378.37C312.601 378.804 312.335 379.07 311.901 379.07C311.467 379.07 311.201 378.804 311.201 378.37Z" fill="#A1A1AA"/>
<rect x="205" y="280" width="48" height="48" rx="24" fill="black"/>
<path d="M224.601 314H223.801C223.138 314 222.601 313.559 222.601 313.016V298.25H220.201C219.133 298.25 218.599 297.188 219.353 296.57L223.352 293.288C223.821 292.904 224.581 292.904 225.049 293.288L229.049 296.57C229.799 297.185 229.273 298.25 228.2 298.25H225.8V313.016C225.8 313.559 225.263 314 224.601 314ZM232.2 293.984V308.75H229.8C228.734 308.75 228.196 309.811 228.952 310.43L232.951 313.712C233.42 314.096 234.179 314.096 234.648 313.712L238.648 310.43C239.399 309.814 238.871 308.75 237.799 308.75H235.399V293.984C235.399 293.441 234.862 293 234.2 293H233.4C232.737 293 232.2 293.441 232.2 293.984Z" fill="url(#paint10_linear_234_3032)"/>
</g>
<defs>
<linearGradient id="paint0_linear_234_3032" x1="418.527" y1="-632.857" x2="-941.996" y2="342.765" gradientUnits="userSpaceOnUse">
<stop offset="0.226599" stop-color="#353A40"/>
<stop offset="0.697917" stop-color="#121416"/>
</linearGradient>
<radialGradient id="paint1_radial_234_3032" cx="0" cy="0" r="1" gradientUnits="userSpaceOnUse" gradientTransform="translate(98.2391 -67.1875) rotate(90) scale(249.687 97.957)">
<stop stop-color="#EA8945"/>
<stop offset="0.974245" stop-color="#161512"/>
</radialGradient>
<linearGradient id="paint2_linear_234_3032" x1="37.9195" y1="150.793" x2="62.6411" y2="135.969" gradientUnits="userSpaceOnUse">
<stop stop-color="#FFA05C"/>
<stop offset="1" stop-color="#F06500"/>
</linearGradient>
<radialGradient id="paint3_radial_234_3032" cx="0" cy="0" r="1" gradientUnits="userSpaceOnUse" gradientTransform="translate(98.2391 92.8125) rotate(90) scale(249.687 97.957)">
<stop stop-color="#EA8945"/>
<stop offset="0.974245" stop-color="#161512"/>
</radialGradient>
<linearGradient id="paint4_linear_234_3032" x1="37.9195" y1="310.793" x2="62.6411" y2="295.969" gradientUnits="userSpaceOnUse">
<stop stop-color="#FFA05C"/>
<stop offset="1" stop-color="#F06500"/>
</linearGradient>
<linearGradient id="paint5_linear_234_3032" x1="37.9195" y1="470.793" x2="62.6411" y2="455.969" gradientUnits="userSpaceOnUse">
<stop stop-color="#FFA05C"/>
<stop offset="1" stop-color="#F06500"/>
</linearGradient>
<linearGradient id="paint6_linear_234_3032" x1="116.778" y1="455.402" x2="132.252" y2="420.804" gradientUnits="userSpaceOnUse">
<stop stop-color="#FFA05C"/>
<stop offset="1" stop-color="#F06500"/>
</linearGradient>
<radialGradient id="paint7_radial_234_3032" cx="0" cy="0" r="1" gradientUnits="userSpaceOnUse" gradientTransform="translate(277.738 -67.1875) rotate(90) scale(249.687 97.3597)">
<stop stop-color="#EA8945"/>
<stop offset="0.974245" stop-color="#161512"/>
</radialGradient>
<linearGradient id="paint8_linear_234_3032" x1="217.92" y1="150.793" x2="242.641" y2="135.969" gradientUnits="userSpaceOnUse">
<stop stop-color="#FFA05C"/>
<stop offset="1" stop-color="#F06500"/>
</linearGradient>
<radialGradient id="paint9_radial_234_3032" cx="0" cy="0" r="1" gradientUnits="userSpaceOnUse" gradientTransform="translate(277.738 92.8125) rotate(90) scale(249.687 97.3597)">
<stop stop-color="#EA8945"/>
<stop offset="0.974245" stop-color="#161512"/>
</radialGradient>
<linearGradient id="paint10_linear_234_3032" x1="234.402" y1="314.08" x2="217.965" y2="293.776" gradientUnits="userSpaceOnUse">
<stop stop-color="#FFA05C"/>
<stop offset="1" stop-color="#F06500"/>
</linearGradient>
<clipPath id="clip0_234_3032">
<rect width="375" height="886" fill="white"/>
</clipPath>
<clipPath id="clip1_234_3032">
<rect width="375" height="44" fill="white"/>
</clipPath>
<clipPath id="clip2_234_3032">
<rect width="21" height="27" fill="white" transform="translate(38 290)"/>
</clipPath>
</defs>
</svg>
